<?xml version="1.0" encoding="utf-8" standalone="no"?>
<!DOCTYPE svg PUBLIC "-//W3C//DTD SVG 1.1//EN"
  "http://www.w3.org/Graphics/SVG/1.1/DTD/svg11.dtd">
<!-- Created with matplotlib (https://matplotlib.org/) -->
<svg height="324pt" version="1.1" viewBox="0 0 864 324" width="864pt" xmlns="http://www.w3.org/2000/svg" xmlns:xlink="http://www.w3.org/1999/xlink">
 <defs>
  <style type="text/css">
*{stroke-linecap:butt;stroke-linejoin:round;}
  </style>
 </defs>
 <g id="figure_1">
  <g id="patch_1">
   <path d="M 0 324 
L 864 324 
L 864 0 
L 0 0 
z
" style="fill:none;"/>
  </g>
  <g id="axes_1">
   <g id="patch_2">
    <path d="M 55.69 295.76 
L 853.2 295.76 
L 853.2 10.8 
L 55.69 10.8 
z
" style="fill:none;"/>
   </g>
   <g id="patch_3">
    <path clip-path="url(#p06b611dd4b)" d="M 91.940455 295.76 
L 99.945287 295.76 
L 99.945287 195.129741 
L 91.940455 195.129741 
z
" style="fill:#84ba5b;"/>
   </g>
   <g id="patch_4">
    <path clip-path="url(#p06b611dd4b)" d="M 114.811404 295.76 
L 122.816236 295.76 
L 122.816236 195.182104 
L 114.811404 195.182104 
z
" style="fill:#84ba5b;"/>
   </g>
   <g id="patch_5">
    <path clip-path="url(#p06b611dd4b)" d="M 137.682353 295.76 
L 145.687185 295.76 
L 145.687185 208.457449 
L 137.682353 208.457449 
z
" style="fill:#84ba5b;"/>
   </g>
   <g id="patch_6">
    <path clip-path="url(#p06b611dd4b)" d="M 160.553302 295.76 
L 168.558134 295.76 
L 168.558134 215.595324 
L 160.553302 215.595324 
z
" style="fill:#84ba5b;"/>
   </g>
   <g id="patch_7">
    <path clip-path="url(#p06b611dd4b)" d="M 183.424252 295.76 
L 191.429084 295.76 
L 191.429084 217.312273 
L 183.424252 217.312273 
z
" style="fill:#84ba5b;"/>
   </g>
   <g id="patch_8">
    <path clip-path="url(#p06b611dd4b)" d="M 206.295201 295.76 
L 214.300033 295.76 
L 214.300033 230.868724 
L 206.295201 230.868724 
z
" style="fill:#84ba5b;"/>
   </g>
   <g id="patch_9">
    <path clip-path="url(#p06b611dd4b)" d="M 229.16615 295.76 
L 237.170982 295.76 
L 237.170982 232.828194 
L 229.16615 232.828194 
z
" style="fill:#84ba5b;"/>
   </g>
   <g id="patch_10">
    <path clip-path="url(#p06b611dd4b)" d="M 252.037099 295.76 
L 260.041931 295.76 
L 260.041931 236.066419 
L 252.037099 236.066419 
z
" style="fill:#84ba5b;"/>
   </g>
   <g id="patch_11">
    <path clip-path="url(#p06b611dd4b)" d="M 274.908048 295.76 
L 282.912881 295.76 
L 282.912881 238.946373 
L 274.908048 238.946373 
z
" style="fill:#84ba5b;"/>
   </g>
   <g id="patch_12">
    <path clip-path="url(#p06b611dd4b)" d="M 297.778998 295.76 
L 305.78383 295.76 
L 305.78383 245.530305 
L 297.778998 245.530305 
z
" style="fill:#84ba5b;"/>
   </g>
   <g id="patch_13">
    <path clip-path="url(#p06b611dd4b)" d="M 320.649947 295.76 
L 328.654779 295.76 
L 328.654779 249.118534 
L 320.649947 249.118534 
z
" style="fill:#84ba5b;"/>
   </g>
   <g id="patch_14">
    <path clip-path="url(#p06b611dd4b)" d="M 343.520896 295.76 
L 351.525728 295.76 
L 351.525728 257.67296 
L 343.520896 257.67296 
z
" style="fill:#84ba5b;"/>
   </g>
   <g id="patch_15">
    <path clip-path="url(#p06b611dd4b)" d="M 366.391845 295.76 
L 374.396678 295.76 
L 374.396678 257.692252 
L 366.391845 257.692252 
z
" style="fill:#84ba5b;"/>
   </g>
   <g id="patch_16">
    <path clip-path="url(#p06b611dd4b)" d="M 389.262795 295.76 
L 397.267627 295.76 
L 397.267627 260.649371 
L 389.262795 260.649371 
z
" style="fill:#84ba5b;"/>
   </g>
   <g id="patch_17">
    <path clip-path="url(#p06b611dd4b)" d="M 412.133744 295.76 
L 420.138576 295.76 
L 420.138576 260.660395 
L 412.133744 260.660395 
z
" style="fill:#84ba5b;"/>
   </g>
   <g id="patch_18">
    <path clip-path="url(#p06b611dd4b)" d="M 435.004693 295.76 
L 443.009525 295.76 
L 443.009525 264.289963 
L 435.004693 264.289963 
z
" style="fill:#84ba5b;"/>
   </g>
   <g id="patch_19">
    <path clip-path="url(#p06b611dd4b)" d="M 457.875642 295.76 
L 465.880475 295.76 
L 465.880475 267.0459 
L 457.875642 267.0459 
z
" style="fill:#84ba5b;"/>
   </g>
   <g id="patch_20">
    <path clip-path="url(#p06b611dd4b)" d="M 480.746592 295.76 
L 488.751424 295.76 
L 488.751424 274.324327 
L 480.746592 274.324327 
z
" style="fill:#84ba5b;"/>
   </g>
   <g id="patch_21">
    <path clip-path="url(#p06b611dd4b)" d="M 503.617541 295.76 
L 511.622373 295.76 
L 511.622373 276.338917 
L 503.617541 276.338917 
z
" style="fill:#84ba5b;"/>
   </g>
   <g id="patch_22">
    <path clip-path="url(#p06b611dd4b)" d="M 526.48849 295.76 
L 534.493322 295.76 
L 534.493322 276.746795 
L 526.48849 276.746795 
z
" style="fill:#84ba5b;"/>
   </g>
   <g id="patch_23">
    <path clip-path="url(#p06b611dd4b)" d="M 549.359439 295.76 
L 557.364272 295.76 
L 557.364272 281.40984 
L 549.359439 281.40984 
z
" style="fill:#84ba5b;"/>
   </g>
   <g id="patch_24">
    <path clip-path="url(#p06b611dd4b)" d="M 572.230389 295.76 
L 580.235221 295.76 
L 580.235221 281.453935 
L 572.230389 281.453935 
z
" style="fill:#84ba5b;"/>
   </g>
   <g id="patch_25">
    <path clip-path="url(#p06b611dd4b)" d="M 595.101338 295.76 
L 603.10617 295.76 
L 603.10617 281.564172 
L 595.101338 281.564172 
z
" style="fill:#84ba5b;"/>
   </g>
   <g id="patch_26">
    <path clip-path="url(#p06b611dd4b)" d="M 617.972287 295.76 
L 625.977119 295.76 
L 625.977119 286.147294 
L 617.972287 286.147294 
z
" style="fill:#84ba5b;"/>
   </g>
   <g id="patch_27">
    <path clip-path="url(#p06b611dd4b)" d="M 640.843236 295.76 
L 648.848069 295.76 
L 648.848069 287.583137 
L 640.843236 287.583137 
z
" style="fill:#84ba5b;"/>
   </g>
   <g id="patch_28">
    <path clip-path="url(#p06b611dd4b)" d="M 663.714186 295.76 
L 671.719018 295.76 
L 671.719018 289.44615 
L 663.714186 289.44615 
z
" style="fill:#84ba5b;"/>
   </g>
   <g id="patch_29">
    <path clip-path="url(#p06b611dd4b)" d="M 686.585135 295.76 
L 694.589967 295.76 
L 694.589967 289.705208 
L 686.585135 289.705208 
z
" style="fill:#84ba5b;"/>
   </g>
   <g id="patch_30">
    <path clip-path="url(#p06b611dd4b)" d="M 709.456084 295.76 
L 717.460916 295.76 
L 717.460916 290.082771 
L 709.456084 290.082771 
z
" style="fill:#84ba5b;"/>
   </g>
   <g id="patch_31">
    <path clip-path="url(#p06b611dd4b)" d="M 732.327033 295.76 
L 740.331866 295.76 
L 740.331866 292.11114 
L 732.327033 292.11114 
z
" style="fill:#84ba5b;"/>
   </g>
   <g id="patch_32">
    <path clip-path="url(#p06b611dd4b)" d="M 755.197983 295.76 
L 763.202815 295.76 
L 763.202815 293.883207 
L 755.197983 293.883207 
z
" style="fill:#84ba5b;"/>
   </g>
   <g id="patch_33">
    <path clip-path="url(#p06b611dd4b)" d="M 778.068932 295.76 
L 786.073764 295.76 
L 786.073764 294.095414 
L 778.068932 294.095414 
z
" style="fill:#84ba5b;"/>
   </g>
   <g id="patch_34">
    <path clip-path="url(#p06b611dd4b)" d="M 800.939881 295.76 
L 808.944713 295.76 
L 808.944713 295.34661 
L 800.939881 295.34661 
z
" style="fill:#84ba5b;"/>
   </g>
   <g id="patch_35">
    <path clip-path="url(#p06b611dd4b)" d="M 99.945287 295.76 
L 107.950119 295.76 
L 107.950119 243.700821 
L 99.945287 243.700821 
z
" style="fill:#d35e60;"/>
   </g>
   <g id="patch_36">
    <path clip-path="url(#p06b611dd4b)" d="M 122.816236 295.76 
L 130.821068 295.76 
L 130.821068 242.20732 
L 122.816236 242.20732 
z
" style="fill:#d35e60;"/>
   </g>
   <g id="patch_37">
    <path clip-path="url(#p06b611dd4b)" d="M 145.687185 295.76 
L 153.692017 295.76 
L 153.692017 164.331908 
L 145.687185 164.331908 
z
" style="fill:#d35e60;"/>
   </g>
   <g id="patch_38">
    <path clip-path="url(#p06b611dd4b)" d="M 168.558134 295.76 
L 176.562967 295.76 
L 176.562967 222.151734 
L 168.558134 222.151734 
z
" style="fill:#d35e60;"/>
   </g>
   <g id="patch_39">
    <path clip-path="url(#p06b611dd4b)" d="M 191.429084 295.76 
L 199.433916 295.76 
L 199.433916 283.811992 
L 191.429084 283.811992 
z
" style="fill:#d35e60;"/>
   </g>
   <g id="patch_40">
    <path clip-path="url(#p06b611dd4b)" d="M 214.300033 295.76 
L 222.304865 295.76 
L 222.304865 266.316694 
L 214.300033 266.316694 
z
" style="fill:#d35e60;"/>
   </g>
   <g id="patch_41">
    <path clip-path="url(#p06b611dd4b)" d="M 237.170982 295.76 
L 245.175814 295.76 
L 245.175814 224.712022 
L 237.170982 224.712022 
z
" style="fill:#d35e60;"/>
   </g>
   <g id="patch_42">
    <path clip-path="url(#p06b611dd4b)" d="M 260.041931 295.76 
L 268.046764 295.76 
L 268.046764 24.369524 
L 260.041931 24.369524 
z
" style="fill:#d35e60;"/>
   </g>
   <g id="patch_43">
    <path clip-path="url(#p06b611dd4b)" d="M 282.912881 295.76 
L 290.917713 295.76 
L 290.917713 211.697227 
L 282.912881 211.697227 
z
" style="fill:#d35e60;"/>
   </g>
   <g id="patch_44">
    <path clip-path="url(#p06b611dd4b)" d="M 305.78383 295.76 
L 313.788662 295.76 
L 313.788662 276.557844 
L 305.78383 276.557844 
z
" style="fill:#d35e60;"/>
   </g>
   <g id="patch_45">
    <path clip-path="url(#p06b611dd4b)" d="M 328.654779 295.76 
L 336.659611 295.76 
L 336.659611 271.010554 
L 328.654779 271.010554 
z
" style="fill:#d35e60;"/>
   </g>
   <g id="patch_46">
    <path clip-path="url(#p06b611dd4b)" d="M 351.525728 295.76 
L 359.530561 295.76 
L 359.530561 280.184918 
L 351.525728 280.184918 
z
" style="fill:#d35e60;"/>
   </g>
   <g id="patch_47">
    <path clip-path="url(#p06b611dd4b)" d="M 374.396678 295.76 
L 382.40151 295.76 
L 382.40151 276.771201 
L 374.396678 276.771201 
z
" style="fill:#d35e60;"/>
   </g>
   <g id="patch_48">
    <path clip-path="url(#p06b611dd4b)" d="M 397.267627 295.76 
L 405.272459 295.76 
L 405.272459 265.676622 
L 397.267627 265.676622 
z
" style="fill:#d35e60;"/>
   </g>
   <g id="patch_49">
    <path clip-path="url(#p06b611dd4b)" d="M 420.138576 295.76 
L 428.143408 295.76 
L 428.143408 280.398275 
L 420.138576 280.398275 
z
" style="fill:#d35e60;"/>
   </g>
   <g id="patch_50">
    <path clip-path="url(#p06b611dd4b)" d="M 443.009525 295.76 
L 451.014358 295.76 
L 451.014358 279.544846 
L 443.009525 279.544846 
z
" style="fill:#d35e60;"/>
   </g>
   <g id="patch_51">
    <path clip-path="url(#p06b611dd4b)" d="M 465.880475 295.76 
L 473.885307 295.76 
L 473.885307 284.878778 
L 465.880475 284.878778 
z
" style="fill:#d35e60;"/>
   </g>
   <g id="patch_52">
    <path clip-path="url(#p06b611dd4b)" d="M 488.751424 295.76 
L 496.756256 295.76 
L 496.756256 249.674825 
L 488.751424 249.674825 
z
" style="fill:#d35e60;"/>
   </g>
   <g id="patch_53">
    <path clip-path="url(#p06b611dd4b)" d="M 511.622373 295.76 
L 519.627205 295.76 
L 519.627205 290.639425 
L 511.622373 290.639425 
z
" style="fill:#d35e60;"/>
   </g>
   <g id="patch_54">
    <path clip-path="url(#p06b611dd4b)" d="M 534.493322 295.76 
L 542.498155 295.76 
L 542.498155 280.82499 
L 534.493322 280.82499 
z
" style="fill:#d35e60;"/>
   </g>
   <g id="patch_55">
    <path clip-path="url(#p06b611dd4b)" d="M 557.364272 295.76 
L 565.369104 295.76 
L 565.369104 282.318491 
L 557.364272 282.318491 
z
" style="fill:#d35e60;"/>
   </g>
   <g id="patch_56">
    <path clip-path="url(#p06b611dd4b)" d="M 580.235221 295.76 
L 588.240053 295.76 
L 588.240053 277.411273 
L 580.235221 277.411273 
z
" style="fill:#d35e60;"/>
   </g>
   <g id="patch_57">
    <path clip-path="url(#p06b611dd4b)" d="M 603.10617 295.76 
L 611.111002 295.76 
L 611.111002 291.919569 
L 603.10617 291.919569 
z
" style="fill:#d35e60;"/>
   </g>
   <g id="patch_58">
    <path clip-path="url(#p06b611dd4b)" d="M 625.977119 295.76 
L 633.981952 295.76 
L 633.981952 274.424271 
L 625.977119 274.424271 
z
" style="fill:#d35e60;"/>
   </g>
   <g id="patch_59">
    <path clip-path="url(#p06b611dd4b)" d="M 648.848069 295.76 
L 656.852901 295.76 
L 656.852901 287.012351 
L 648.848069 287.012351 
z
" style="fill:#d35e60;"/>
   </g>
   <g id="patch_60">
    <path clip-path="url(#p06b611dd4b)" d="M 671.719018 295.76 
L 679.72385 295.76 
L 679.72385 293.41307 
L 671.719018 293.41307 
z
" style="fill:#d35e60;"/>
   </g>
   <g id="patch_61">
    <path clip-path="url(#p06b611dd4b)" d="M 694.589967 295.76 
L 702.594799 295.76 
L 702.594799 243.274106 
L 694.589967 243.274106 
z
" style="fill:#d35e60;"/>
   </g>
   <g id="patch_62">
    <path clip-path="url(#p06b611dd4b)" d="M 717.460916 295.76 
L 725.465748 295.76 
L 725.465748 289.785996 
L 717.460916 289.785996 
z
" style="fill:#d35e60;"/>
   </g>
   <g id="patch_63">
    <path clip-path="url(#p06b611dd4b)" d="M 740.331866 295.76 
L 748.336698 295.76 
L 748.336698 292.132926 
L 740.331866 292.132926 
z
" style="fill:#d35e60;"/>
   </g>
   <g id="patch_64">
    <path clip-path="url(#p06b611dd4b)" d="M 763.202815 295.76 
L 771.207647 295.76 
L 771.207647 286.585636 
L 763.202815 286.585636 
z
" style="fill:#d35e60;"/>
   </g>
   <g id="patch_65">
    <path clip-path="url(#p06b611dd4b)" d="M 786.073764 295.76 
L 794.078596 295.76 
L 794.078596 291.06614 
L 786.073764 291.06614 
z
" style="fill:#d35e60;"/>
   </g>
   <g id="patch_66">
    <path clip-path="url(#p06b611dd4b)" d="M 808.944713 295.76 
L 816.949545 295.76 
L 816.949545 294.479856 
L 808.944713 294.479856 
z
" style="fill:#d35e60;"/>
   </g>
   <g id="matplotlib.axis_1">
    <g id="xtick_1">
     <g id="line2d_1">
      <defs>
       <path d="M 0 0 
L 0 3.5 
" id="m02aed50651" style="stroke:#000000;stroke-width:0.8;"/>
      </defs>
      <g>
       <use style="stroke:#000000;stroke-width:0.8;" x="99.945287" xlink:href="#m02aed50651" y="295.76"/>
      </g>
     </g>
     <g id="text_1">
      <!-- ) -->
      <defs>
       <path d="M 8.015625 75.875 
L 15.828125 75.875 
Q 23.140625 64.359375 26.78125 53.3125 
Q 30.421875 42.28125 30.421875 31.390625 
Q 30.421875 20.453125 26.78125 9.375 
Q 23.140625 -1.703125 15.828125 -13.1875 
L 8.015625 -13.1875 
Q 14.5 -2 17.703125 9.0625 
Q 20.90625 20.125 20.90625 31.390625 
Q 20.90625 42.671875 17.703125 53.65625 
Q 14.5 64.65625 8.015625 75.875 
z
" id="DejaVuSans-41"/>
      </defs>
      <g transform="translate(97.994506 310.358437)scale(0.1 -0.1)">
       <use xlink:href="#DejaVuSans-41"/>
      </g>
     </g>
    </g>
    <g id="xtick_2">
     <g id="line2d_2">
      <g>
       <use style="stroke:#000000;stroke-width:0.8;" x="122.816236" xlink:href="#m02aed50651" y="295.76"/>
      </g>
     </g>
     <g id="text_2">
      <!-- ( -->
      <defs>
       <path d="M 31 75.875 
Q 24.46875 64.65625 21.28125 53.65625 
Q 18.109375 42.671875 18.109375 31.390625 
Q 18.109375 20.125 21.3125 9.0625 
Q 24.515625 -2 31 -13.1875 
L 23.1875 -13.1875 
Q 15.875 -1.703125 12.234375 9.375 
Q 8.59375 20.453125 8.59375 31.390625 
Q 8.59375 42.28125 12.203125 53.3125 
Q 15.828125 64.359375 23.1875 75.875 
z
" id="DejaVuSans-40"/>
      </defs>
      <g transform="translate(120.865455 310.358437)scale(0.1 -0.1)">
       <use xlink:href="#DejaVuSans-40"/>
      </g>
     </g>
    </g>
    <g id="xtick_3">
     <g id="line2d_3">
      <g>
       <use style="stroke:#000000;stroke-width:0.8;" x="145.687185" xlink:href="#m02aed50651" y="295.76"/>
      </g>
     </g>
     <g id="text_3">
      <!-- . -->
      <defs>
       <path d="M 10.6875 12.40625 
L 21 12.40625 
L 21 0 
L 10.6875 0 
z
" id="DejaVuSans-46"/>
      </defs>
      <g transform="translate(144.098123 310.358437)scale(0.1 -0.1)">
       <use xlink:href="#DejaVuSans-46"/>
      </g>
     </g>
    </g>
    <g id="xtick_4">
     <g id="line2d_4">
      <g>
       <use style="stroke:#000000;stroke-width:0.8;" x="168.558134" xlink:href="#m02aed50651" y="295.76"/>
      </g>
     </g>
     <g id="text_4">
      <!-- , -->
      <defs>
       <path d="M 11.71875 12.40625 
L 22.015625 12.40625 
L 22.015625 4 
L 14.015625 -11.625 
L 7.71875 -11.625 
L 11.71875 4 
z
" id="DejaVuSans-44"/>
      </defs>
      <g transform="translate(166.969072 310.358437)scale(0.1 -0.1)">
       <use xlink:href="#DejaVuSans-44"/>
      </g>
     </g>
    </g>
    <g id="xtick_5">
     <g id="line2d_5">
      <g>
       <use style="stroke:#000000;stroke-width:0.8;" x="191.429084" xlink:href="#m02aed50651" y="295.76"/>
      </g>
     </g>
     <g id="text_5">
      <!-- ; -->
      <defs>
       <path d="M 11.71875 51.703125 
L 22.015625 51.703125 
L 22.015625 39.3125 
L 11.71875 39.3125 
z
M 11.71875 12.40625 
L 22.015625 12.40625 
L 22.015625 4 
L 14.015625 -11.625 
L 7.71875 -11.625 
L 11.71875 4 
z
" id="DejaVuSans-59"/>
      </defs>
      <g transform="translate(189.744709 310.358437)scale(0.1 -0.1)">
       <use xlink:href="#DejaVuSans-59"/>
      </g>
     </g>
    </g>
    <g id="xtick_6">
     <g id="line2d_6">
      <g>
       <use style="stroke:#000000;stroke-width:0.8;" x="214.300033" xlink:href="#m02aed50651" y="295.76"/>
      </g>
     </g>
     <g id="text_6">
      <!-- - -->
      <defs>
       <path d="M 4.890625 31.390625 
L 31.203125 31.390625 
L 31.203125 23.390625 
L 4.890625 23.390625 
z
" id="DejaVuSans-45"/>
      </defs>
      <g transform="translate(212.496127 310.358437)scale(0.1 -0.1)">
       <use xlink:href="#DejaVuSans-45"/>
      </g>
     </g>
    </g>
    <g id="xtick_7">
     <g id="line2d_7">
      <g>
       <use style="stroke:#000000;stroke-width:0.8;" x="237.170982" xlink:href="#m02aed50651" y="295.76"/>
      </g>
     </g>
     <g id="text_7">
      <!-- " -->
      <defs>
       <path d="M 17.921875 72.90625 
L 17.921875 45.796875 
L 9.625 45.796875 
L 9.625 72.90625 
z
M 36.375 72.90625 
L 36.375 45.796875 
L 28.078125 45.796875 
L 28.078125 72.90625 
z
" id="DejaVuSans-34"/>
      </defs>
      <g transform="translate(234.870982 310.358437)scale(0.1 -0.1)">
       <use xlink:href="#DejaVuSans-34"/>
      </g>
     </g>
    </g>
    <g id="xtick_8">
     <g id="line2d_8">
      <g>
       <use style="stroke:#000000;stroke-width:0.8;" x="260.041931" xlink:href="#m02aed50651" y="295.76"/>
      </g>
     </g>
     <g id="text_8">
      <!-- : -->
      <defs>
       <path d="M 11.71875 12.40625 
L 22.015625 12.40625 
L 22.015625 0 
L 11.71875 0 
z
M 11.71875 51.703125 
L 22.015625 51.703125 
L 22.015625 39.3125 
L 11.71875 39.3125 
z
" id="DejaVuSans-58"/>
      </defs>
      <g transform="translate(258.357556 310.358437)scale(0.1 -0.1)">
       <use xlink:href="#DejaVuSans-58"/>
      </g>
     </g>
    </g>
    <g id="xtick_9">
     <g id="line2d_9">
      <g>
       <use style="stroke:#000000;stroke-width:0.8;" x="282.912881" xlink:href="#m02aed50651" y="295.76"/>
      </g>
     </g>
     <g id="text_9">
      <!-- / -->
      <defs>
       <path d="M 25.390625 72.90625 
L 33.6875 72.90625 
L 8.296875 -9.28125 
L 0 -9.28125 
z
" id="DejaVuSans-47"/>
      </defs>
      <g transform="translate(281.228506 310.358437)scale(0.1 -0.1)">
       <use xlink:href="#DejaVuSans-47"/>
      </g>
     </g>
    </g>
    <g id="xtick_10">
     <g id="line2d_10">
      <g>
       <use style="stroke:#000000;stroke-width:0.8;" x="305.78383" xlink:href="#m02aed50651" y="295.76"/>
      </g>
     </g>
     <g id="text_10">
      <!-- = -->
      <defs>
       <path d="M 10.59375 45.40625 
L 73.1875 45.40625 
L 73.1875 37.203125 
L 10.59375 37.203125 
z
M 10.59375 25.484375 
L 73.1875 25.484375 
L 73.1875 17.1875 
L 10.59375 17.1875 
z
" id="DejaVuSans-61"/>
      </defs>
      <g transform="translate(301.593986 310.358437)scale(0.1 -0.1)">
       <use xlink:href="#DejaVuSans-61"/>
      </g>
     </g>
    </g>
    <g id="xtick_11">
     <g id="line2d_11">
      <g>
       <use style="stroke:#000000;stroke-width:0.8;" x="328.654779" xlink:href="#m02aed50651" y="295.76"/>
      </g>
     </g>
     <g id="text_11">
      <!-- _ -->
      <defs>
       <path d="M 50.984375 -16.609375 
L 50.984375 -23.578125 
L -0.984375 -23.578125 
L -0.984375 -16.609375 
z
" id="DejaVuSans-95"/>
      </defs>
      <g transform="translate(326.154779 310.080312)scale(0.1 -0.1)">
       <use xlink:href="#DejaVuSans-95"/>
      </g>
     </g>
    </g>
    <g id="xtick_12">
     <g id="line2d_12">
      <g>
       <use style="stroke:#000000;stroke-width:0.8;" x="351.525728" xlink:href="#m02aed50651" y="295.76"/>
      </g>
     </g>
     <g id="text_12">
      <!-- { -->
      <defs>
       <path d="M 51.125 -9.28125 
L 51.125 -16.3125 
L 48.09375 -16.3125 
Q 35.9375 -16.3125 31.8125 -12.6875 
Q 27.6875 -9.078125 27.6875 1.703125 
L 27.6875 13.375 
Q 27.6875 20.75 25.046875 23.578125 
Q 22.40625 26.421875 15.484375 26.421875 
L 12.5 26.421875 
L 12.5 33.40625 
L 15.484375 33.40625 
Q 22.46875 33.40625 25.078125 36.203125 
Q 27.6875 39.015625 27.6875 46.296875 
L 27.6875 58.015625 
Q 27.6875 68.796875 31.8125 72.390625 
Q 35.9375 75.984375 48.09375 75.984375 
L 51.125 75.984375 
L 51.125 69 
L 47.796875 69 
Q 40.921875 69 38.8125 66.84375 
Q 36.71875 64.703125 36.71875 57.8125 
L 36.71875 45.703125 
Q 36.71875 38.03125 34.5 34.5625 
Q 32.28125 31.109375 26.90625 29.890625 
Q 32.328125 28.5625 34.515625 25.09375 
Q 36.71875 21.625 36.71875 14.015625 
L 36.71875 1.90625 
Q 36.71875 -4.984375 38.8125 -7.125 
Q 40.921875 -9.28125 47.796875 -9.28125 
z
" id="DejaVuSans-123"/>
      </defs>
      <g transform="translate(348.344478 310.358437)scale(0.1 -0.1)">
       <use xlink:href="#DejaVuSans-123"/>
      </g>
     </g>
    </g>
    <g id="xtick_13">
     <g id="line2d_13">
      <g>
       <use style="stroke:#000000;stroke-width:0.8;" x="374.396678" xlink:href="#m02aed50651" y="295.76"/>
      </g>
     </g>
     <g id="text_13">
      <!-- } -->
      <defs>
       <path d="M 12.5 -9.28125 
L 15.921875 -9.28125 
Q 22.75 -9.28125 24.828125 -7.171875 
Q 26.90625 -5.078125 26.90625 1.90625 
L 26.90625 14.015625 
Q 26.90625 21.625 29.09375 25.09375 
Q 31.296875 28.5625 36.71875 29.890625 
Q 31.296875 31.109375 29.09375 34.5625 
Q 26.90625 38.03125 26.90625 45.703125 
L 26.90625 57.8125 
Q 26.90625 64.75 24.828125 66.875 
Q 22.75 69 15.921875 69 
L 12.5 69 
L 12.5 75.984375 
L 15.578125 75.984375 
Q 27.734375 75.984375 31.8125 72.390625 
Q 35.890625 68.796875 35.890625 58.015625 
L 35.890625 46.296875 
Q 35.890625 39.015625 38.515625 36.203125 
Q 41.15625 33.40625 48.09375 33.40625 
L 51.125 33.40625 
L 51.125 26.421875 
L 48.09375 26.421875 
Q 41.15625 26.421875 38.515625 23.578125 
Q 35.890625 20.75 35.890625 13.375 
L 35.890625 1.703125 
Q 35.890625 -9.078125 31.8125 -12.6875 
Q 27.734375 -16.3125 15.578125 -16.3125 
L 12.5 -16.3125 
z
" id="DejaVuSans-125"/>
      </defs>
      <g transform="translate(371.215428 310.358437)scale(0.1 -0.1)">
       <use xlink:href="#DejaVuSans-125"/>
      </g>
     </g>
    </g>
    <g id="xtick_14">
     <g id="line2d_14">
      <g>
       <use style="stroke:#000000;stroke-width:0.8;" x="397.267627" xlink:href="#m02aed50651" y="295.76"/>
      </g>
     </g>
     <g id="text_14">
      <!-- [ -->
      <defs>
       <path d="M 8.59375 75.984375 
L 29.296875 75.984375 
L 29.296875 69 
L 17.578125 69 
L 17.578125 -6.203125 
L 29.296875 -6.203125 
L 29.296875 -13.1875 
L 8.59375 -13.1875 
z
" id="DejaVuSans-91"/>
      </defs>
      <g transform="translate(395.316846 310.358437)scale(0.1 -0.1)">
       <use xlink:href="#DejaVuSans-91"/>
      </g>
     </g>
    </g>
    <g id="xtick_15">
     <g id="line2d_15">
      <g>
       <use style="stroke:#000000;stroke-width:0.8;" x="420.138576" xlink:href="#m02aed50651" y="295.76"/>
      </g>
     </g>
     <g id="text_15">
      <!-- ] -->
      <defs>
       <path d="M 30.421875 75.984375 
L 30.421875 -13.1875 
L 9.71875 -13.1875 
L 9.71875 -6.203125 
L 21.390625 -6.203125 
L 21.390625 69 
L 9.71875 69 
L 9.71875 75.984375 
z
" id="DejaVuSans-93"/>
      </defs>
      <g transform="translate(418.187795 310.358437)scale(0.1 -0.1)">
       <use xlink:href="#DejaVuSans-93"/>
      </g>
     </g>
    </g>
    <g id="xtick_16">
     <g id="line2d_16">
      <g>
       <use style="stroke:#000000;stroke-width:0.8;" x="443.009525" xlink:href="#m02aed50651" y="295.76"/>
      </g>
     </g>
     <g id="text_16">
      <!-- &gt; -->
      <defs>
       <path d="M 10.59375 49.21875 
L 10.59375 58.109375 
L 73.1875 35.40625 
L 73.1875 27.296875 
L 10.59375 4.59375 
L 10.59375 13.484375 
L 60.890625 31.296875 
z
" id="DejaVuSans-62"/>
      </defs>
      <g transform="translate(438.819682 310.358437)scale(0.1 -0.1)">
       <use xlink:href="#DejaVuSans-62"/>
      </g>
     </g>
    </g>
    <g id="xtick_17">
     <g id="line2d_17">
      <g>
       <use style="stroke:#000000;stroke-width:0.8;" x="465.880475" xlink:href="#m02aed50651" y="295.76"/>
      </g>
     </g>
     <g id="text_17">
      <!-- &lt; -->
      <defs>
       <path d="M 73.1875 49.21875 
L 22.796875 31.296875 
L 73.1875 13.484375 
L 73.1875 4.59375 
L 10.59375 27.296875 
L 10.59375 35.40625 
L 73.1875 58.109375 
z
" id="DejaVuSans-60"/>
      </defs>
      <g transform="translate(461.690631 310.358437)scale(0.1 -0.1)">
       <use xlink:href="#DejaVuSans-60"/>
      </g>
     </g>
    </g>
    <g id="xtick_18">
     <g id="line2d_18">
      <g>
       <use style="stroke:#000000;stroke-width:0.8;" x="488.751424" xlink:href="#m02aed50651" y="295.76"/>
      </g>
     </g>
     <g id="text_18">
      <!-- ' -->
      <defs>
       <path d="M 17.921875 72.90625 
L 17.921875 45.796875 
L 9.625 45.796875 
L 9.625 72.90625 
z
" id="DejaVuSans-39"/>
      </defs>
      <g transform="translate(487.377205 310.358437)scale(0.1 -0.1)">
       <use xlink:href="#DejaVuSans-39"/>
      </g>
     </g>
    </g>
    <g id="xtick_19">
     <g id="line2d_19">
      <g>
       <use style="stroke:#000000;stroke-width:0.8;" x="511.622373" xlink:href="#m02aed50651" y="295.76"/>
      </g>
     </g>
     <g id="text_19">
      <!-- + -->
      <defs>
       <path d="M 46 62.703125 
L 46 35.5 
L 73.1875 35.5 
L 73.1875 27.203125 
L 46 27.203125 
L 46 0 
L 37.796875 0 
L 37.796875 27.203125 
L 10.59375 27.203125 
L 10.59375 35.5 
L 37.796875 35.5 
L 37.796875 62.703125 
z
" id="DejaVuSans-43"/>
      </defs>
      <g transform="translate(507.432529 310.358437)scale(0.1 -0.1)">
       <use xlink:href="#DejaVuSans-43"/>
      </g>
     </g>
    </g>
    <g id="xtick_20">
     <g id="line2d_20">
      <g>
       <use style="stroke:#000000;stroke-width:0.8;" x="534.493322" xlink:href="#m02aed50651" y="295.76"/>
      </g>
     </g>
     <g id="text_20">
      <!-- # -->
      <defs>
       <path d="M 51.125 44 
L 36.921875 44 
L 32.8125 27.6875 
L 47.125 27.6875 
z
M 43.796875 71.78125 
L 38.71875 51.515625 
L 52.984375 51.515625 
L 58.109375 71.78125 
L 65.921875 71.78125 
L 60.890625 51.515625 
L 76.125 51.515625 
L 76.125 44 
L 58.984375 44 
L 54.984375 27.6875 
L 70.515625 27.6875 
L 70.515625 20.21875 
L 53.078125 20.21875 
L 48 0 
L 40.1875 0 
L 45.21875 20.21875 
L 30.90625 20.21875 
L 25.875 0 
L 18.015625 0 
L 23.09375 20.21875 
L 7.71875 20.21875 
L 7.71875 27.6875 
L 24.90625 27.6875 
L 29 44 
L 13.28125 44 
L 13.28125 51.515625 
L 30.90625 51.515625 
L 35.890625 71.78125 
z
" id="DejaVuSans-35"/>
      </defs>
      <g transform="translate(530.303479 310.358437)scale(0.1 -0.1)">
       <use xlink:href="#DejaVuSans-35"/>
      </g>
     </g>
    </g>
    <g id="xtick_21">
     <g id="line2d_21">
      <g>
       <use style="stroke:#000000;stroke-width:0.8;" x="557.364272" xlink:href="#m02aed50651" y="295.76"/>
      </g>
     </g>
     <g id="text_21">
      <!-- ? -->
      <defs>
       <path d="M 19.09375 12.40625 
L 29 12.40625 
L 29 0 
L 19.09375 0 
z
M 28.71875 19.578125 
L 19.390625 19.578125 
L 19.390625 27.09375 
Q 19.390625 32.03125 20.75 35.203125 
Q 22.125 38.375 26.515625 42.578125 
L 30.90625 46.921875 
Q 33.6875 49.515625 34.9375 51.8125 
Q 36.1875 54.109375 36.1875 56.5 
Q 36.1875 60.84375 32.984375 63.53125 
Q 29.78125 66.21875 24.515625 66.21875 
Q 20.65625 66.21875 16.28125 64.5 
Q 11.921875 62.796875 7.171875 59.515625 
L 7.171875 68.703125 
Q 11.765625 71.484375 16.46875 72.84375 
Q 21.1875 74.21875 26.21875 74.21875 
Q 35.203125 74.21875 40.640625 69.484375 
Q 46.09375 64.75 46.09375 56.984375 
Q 46.09375 53.265625 44.328125 49.921875 
Q 42.578125 46.578125 38.1875 42.390625 
L 33.890625 38.1875 
Q 31.59375 35.890625 30.640625 34.59375 
Q 29.6875 33.296875 29.296875 32.078125 
Q 29 31.0625 28.859375 29.59375 
Q 28.71875 28.125 28.71875 25.59375 
z
" id="DejaVuSans-63"/>
      </defs>
      <g transform="translate(554.710365 310.358437)scale(0.1 -0.1)">
       <use xlink:href="#DejaVuSans-63"/>
      </g>
     </g>
    </g>
    <g id="xtick_22">
     <g id="line2d_22">
      <g>
       <use style="stroke:#000000;stroke-width:0.8;" x="580.235221" xlink:href="#m02aed50651" y="295.76"/>
      </g>
     </g>
     <g id="text_22">
      <!-- * -->
      <defs>
       <path d="M 47.015625 60.890625 
L 29.5 51.421875 
L 47.015625 41.890625 
L 44.1875 37.109375 
L 27.78125 47.015625 
L 27.78125 28.609375 
L 22.21875 28.609375 
L 22.21875 47.015625 
L 5.8125 37.109375 
L 2.984375 41.890625 
L 20.515625 51.421875 
L 2.984375 60.890625 
L 5.8125 65.71875 
L 22.21875 55.8125 
L 22.21875 74.21875 
L 27.78125 74.21875 
L 27.78125 55.8125 
L 44.1875 65.71875 
z
" id="DejaVuSans-42"/>
      </defs>
      <g transform="translate(577.735221 310.358437)scale(0.1 -0.1)">
       <use xlink:href="#DejaVuSans-42"/>
      </g>
     </g>
    </g>
    <g id="xtick_23">
     <g id="line2d_23">
      <g>
       <use style="stroke:#000000;stroke-width:0.8;" x="603.10617" xlink:href="#m02aed50651" y="295.76"/>
      </g>
     </g>
     <g id="text_23">
      <!-- &amp; -->
      <defs>
       <path d="M 24.3125 39.203125 
Q 19.875 35.25 17.796875 31.3125 
Q 15.71875 27.390625 15.71875 23.09375 
Q 15.71875 15.96875 20.890625 11.234375 
Q 26.078125 6.5 33.890625 6.5 
Q 38.53125 6.5 42.578125 8.03125 
Q 46.625 9.578125 50.203125 12.703125 
z
M 31.203125 44.671875 
L 56 19.28125 
Q 58.890625 23.640625 60.5 28.59375 
Q 62.109375 33.546875 62.40625 39.109375 
L 71.484375 39.109375 
Q 70.90625 32.671875 68.359375 26.359375 
Q 65.828125 20.0625 61.28125 13.921875 
L 74.90625 0 
L 62.59375 0 
L 55.609375 7.171875 
Q 50.53125 2.828125 44.96875 0.703125 
Q 39.40625 -1.421875 33.015625 -1.421875 
Q 21.234375 -1.421875 13.765625 5.296875 
Q 6.296875 12.015625 6.296875 22.515625 
Q 6.296875 28.765625 9.5625 34.25 
Q 12.84375 39.75 19.390625 44.578125 
Q 17.046875 47.65625 15.8125 50.703125 
Q 14.59375 53.765625 14.59375 56.6875 
Q 14.59375 64.59375 20.015625 69.40625 
Q 25.4375 74.21875 34.421875 74.21875 
Q 38.484375 74.21875 42.5 73.34375 
Q 46.53125 72.46875 50.6875 70.703125 
L 50.6875 61.8125 
Q 46.4375 64.109375 42.578125 65.296875 
Q 38.71875 66.5 35.40625 66.5 
Q 30.28125 66.5 27.078125 63.78125 
Q 23.875 61.078125 23.875 56.78125 
Q 23.875 54.296875 25.3125 51.78125 
Q 26.765625 49.265625 31.203125 44.671875 
z
" id="DejaVuSans-38"/>
      </defs>
      <g transform="translate(599.206951 310.358437)scale(0.1 -0.1)">
       <use xlink:href="#DejaVuSans-38"/>
      </g>
     </g>
    </g>
    <g id="xtick_24">
     <g id="line2d_24">
      <g>
       <use style="stroke:#000000;stroke-width:0.8;" x="625.977119" xlink:href="#m02aed50651" y="295.76"/>
      </g>
     </g>
     <g id="text_24">
      <!-- % -->
      <defs>
       <path d="M 72.703125 32.078125 
Q 68.453125 32.078125 66.03125 28.46875 
Q 63.625 24.859375 63.625 18.40625 
Q 63.625 12.0625 66.03125 8.421875 
Q 68.453125 4.78125 72.703125 4.78125 
Q 76.859375 4.78125 79.265625 8.421875 
Q 81.6875 12.0625 81.6875 18.40625 
Q 81.6875 24.8125 79.265625 28.4375 
Q 76.859375 32.078125 72.703125 32.078125 
z
M 72.703125 38.28125 
Q 80.421875 38.28125 84.953125 32.90625 
Q 89.5 27.546875 89.5 18.40625 
Q 89.5 9.28125 84.9375 3.921875 
Q 80.375 -1.421875 72.703125 -1.421875 
Q 64.890625 -1.421875 60.34375 3.921875 
Q 55.8125 9.28125 55.8125 18.40625 
Q 55.8125 27.59375 60.375 32.9375 
Q 64.9375 38.28125 72.703125 38.28125 
z
M 22.3125 68.015625 
Q 18.109375 68.015625 15.6875 64.375 
Q 13.28125 60.75 13.28125 54.390625 
Q 13.28125 47.953125 15.671875 44.328125 
Q 18.0625 40.71875 22.3125 40.71875 
Q 26.5625 40.71875 28.96875 44.328125 
Q 31.390625 47.953125 31.390625 54.390625 
Q 31.390625 60.6875 28.953125 64.34375 
Q 26.515625 68.015625 22.3125 68.015625 
z
M 66.40625 74.21875 
L 74.21875 74.21875 
L 28.609375 -1.421875 
L 20.796875 -1.421875 
z
M 22.3125 74.21875 
Q 30.03125 74.21875 34.609375 68.875 
Q 39.203125 63.53125 39.203125 54.390625 
Q 39.203125 45.171875 34.640625 39.84375 
Q 30.078125 34.515625 22.3125 34.515625 
Q 14.546875 34.515625 10.03125 39.859375 
Q 5.515625 45.21875 5.515625 54.390625 
Q 5.515625 63.484375 10.046875 68.84375 
Q 14.59375 74.21875 22.3125 74.21875 
z
" id="DejaVuSans-37"/>
      </defs>
      <g transform="translate(621.226338 310.358437)scale(0.1 -0.1)">
       <use xlink:href="#DejaVuSans-37"/>
      </g>
     </g>
    </g>
    <g id="xtick_25">
     <g id="line2d_25">
      <g>
       <use style="stroke:#000000;stroke-width:0.8;" x="648.848069" xlink:href="#m02aed50651" y="295.76"/>
      </g>
     </g>
     <g id="text_25">
      <!-- ! -->
      <defs>
       <path d="M 15.09375 12.40625 
L 25 12.40625 
L 25 0 
L 15.09375 0 
z
M 15.09375 72.90625 
L 25 72.90625 
L 25 40.921875 
L 24.03125 23.484375 
L 16.109375 23.484375 
L 15.09375 40.921875 
z
" id="DejaVuSans-33"/>
      </defs>
      <g transform="translate(646.843381 310.358437)scale(0.1 -0.1)">
       <use xlink:href="#DejaVuSans-33"/>
      </g>
     </g>
    </g>
    <g id="xtick_26">
     <g id="line2d_26">
      <g>
       <use style="stroke:#000000;stroke-width:0.8;" x="671.719018" xlink:href="#m02aed50651" y="295.76"/>
      </g>
     </g>
     <g id="text_26">
      <!-- ` -->
      <defs>
       <path d="M 17.921875 79.984375 
L 31.6875 61.71875 
L 24.21875 61.71875 
L 8.296875 79.984375 
z
" id="DejaVuSans-96"/>
      </defs>
      <g transform="translate(669.219018 310.358437)scale(0.1 -0.1)">
       <use xlink:href="#DejaVuSans-96"/>
      </g>
     </g>
    </g>
    <g id="xtick_27">
     <g id="line2d_27">
      <g>
       <use style="stroke:#000000;stroke-width:0.8;" x="694.589967" xlink:href="#m02aed50651" y="295.76"/>
      </g>
     </g>
     <g id="text_27">
      <!-- $ -->
      <defs>
       <path d="M 33.796875 -14.703125 
L 28.90625 -14.703125 
L 28.859375 0 
Q 23.734375 0.09375 18.609375 1.1875 
Q 13.484375 2.296875 8.296875 4.5 
L 8.296875 13.28125 
Q 13.28125 10.15625 18.375 8.5625 
Q 23.484375 6.984375 28.90625 6.9375 
L 28.90625 29.203125 
Q 18.109375 30.953125 13.203125 35.15625 
Q 8.296875 39.359375 8.296875 46.6875 
Q 8.296875 54.640625 13.625 59.21875 
Q 18.953125 63.8125 28.90625 64.5 
L 28.90625 75.984375 
L 33.796875 75.984375 
L 33.796875 64.65625 
Q 38.328125 64.453125 42.578125 63.6875 
Q 46.828125 62.9375 50.875 61.625 
L 50.875 53.078125 
Q 46.828125 55.125 42.546875 56.25 
Q 38.28125 57.375 33.796875 57.5625 
L 33.796875 36.71875 
Q 44.875 35.015625 50.09375 30.609375 
Q 55.328125 26.21875 55.328125 18.609375 
Q 55.328125 10.359375 49.78125 5.59375 
Q 44.234375 0.828125 33.796875 0.09375 
z
M 28.90625 37.59375 
L 28.90625 57.625 
Q 23.25 56.984375 20.265625 54.390625 
Q 17.28125 51.8125 17.28125 47.515625 
Q 17.28125 43.3125 20.03125 40.96875 
Q 22.796875 38.625 28.90625 37.59375 
z
M 33.796875 28.21875 
L 33.796875 7.078125 
Q 39.984375 7.90625 43.140625 10.59375 
Q 46.296875 13.28125 46.296875 17.671875 
Q 46.296875 21.96875 43.28125 24.5 
Q 40.28125 27.046875 33.796875 28.21875 
z
" id="DejaVuSans-36"/>
      </defs>
      <g transform="translate(691.408717 310.358437)scale(0.1 -0.1)">
       <use xlink:href="#DejaVuSans-36"/>
      </g>
     </g>
    </g>
    <g id="xtick_28">
     <g id="line2d_28">
      <g>
       <use style="stroke:#000000;stroke-width:0.8;" x="717.460916" xlink:href="#m02aed50651" y="295.76"/>
      </g>
     </g>
     <g id="text_28">
      <!-- \ -->
      <defs>
       <path d="M 8.296875 72.90625 
L 33.6875 -9.28125 
L 25.390625 -9.28125 
L 0 72.90625 
z
" id="DejaVuSans-92"/>
      </defs>
      <g transform="translate(715.776541 310.358437)scale(0.1 -0.1)">
       <use xlink:href="#DejaVuSans-92"/>
      </g>
     </g>
    </g>
    <g id="xtick_29">
     <g id="line2d_29">
      <g>
       <use style="stroke:#000000;stroke-width:0.8;" x="740.331866" xlink:href="#m02aed50651" y="295.76"/>
      </g>
     </g>
     <g id="text_29">
      <!-- | -->
      <defs>
       <path d="M 21 76.421875 
L 21 -23.578125 
L 12.703125 -23.578125 
L 12.703125 76.421875 
z
" id="DejaVuSans-124"/>
      </defs>
      <g transform="translate(738.647491 310.402187)scale(0.1 -0.1)">
       <use xlink:href="#DejaVuSans-124"/>
      </g>
     </g>
    </g>
    <g id="xtick_30">
     <g id="line2d_30">
      <g>
       <use style="stroke:#000000;stroke-width:0.8;" x="763.202815" xlink:href="#m02aed50651" y="295.76"/>
      </g>
     </g>
     <g id="text_30">
      <!-- ~ -->
      <defs>
       <path d="M 73.1875 39.890625 
L 73.1875 31.203125 
Q 68.0625 27.34375 63.6875 25.6875 
Q 59.328125 24.03125 54.59375 24.03125 
Q 49.21875 24.03125 42.09375 26.90625 
Q 41.546875 27.09375 41.3125 27.203125 
Q 40.96875 27.34375 40.234375 27.59375 
Q 32.671875 30.609375 28.078125 30.609375 
Q 23.78125 30.609375 19.578125 28.734375 
Q 15.375 26.859375 10.59375 22.796875 
L 10.59375 31.5 
Q 15.71875 35.359375 20.09375 37.03125 
Q 24.46875 38.71875 29.203125 38.71875 
Q 34.578125 38.71875 41.75 35.796875 
Q 42.234375 35.59375 42.484375 35.5 
Q 42.875 35.359375 43.5625 35.109375 
Q 51.125 32.078125 55.71875 32.078125 
Q 59.90625 32.078125 64.03125 33.9375 
Q 68.171875 35.796875 73.1875 39.890625 
z
" id="DejaVuSans-126"/>
      </defs>
      <g transform="translate(759.012971 310.358437)scale(0.1 -0.1)">
       <use xlink:href="#DejaVuSans-126"/>
      </g>
     </g>
    </g>
    <g id="xtick_31">
     <g id="line2d_31">
      <g>
       <use style="stroke:#000000;stroke-width:0.8;" x="786.073764" xlink:href="#m02aed50651" y="295.76"/>
      </g>
     </g>
     <g id="text_31">
      <!-- @ -->
      <defs>
       <path d="M 37.203125 26.21875 
Q 37.203125 19.234375 40.671875 15.25 
Q 44.140625 11.28125 50.203125 11.28125 
Q 56.203125 11.28125 59.640625 15.28125 
Q 63.09375 19.28125 63.09375 26.21875 
Q 63.09375 33.0625 59.578125 37.078125 
Q 56.0625 41.109375 50.09375 41.109375 
Q 44.1875 41.109375 40.6875 37.109375 
Q 37.203125 33.109375 37.203125 26.21875 
z
M 63.8125 11.625 
Q 60.890625 7.859375 57.109375 6.078125 
Q 53.328125 4.296875 48.296875 4.296875 
Q 39.890625 4.296875 34.640625 10.375 
Q 29.390625 16.453125 29.390625 26.21875 
Q 29.390625 35.984375 34.65625 42.078125 
Q 39.9375 48.1875 48.296875 48.1875 
Q 53.328125 48.1875 57.125 46.359375 
Q 60.9375 44.53125 63.8125 40.828125 
L 63.8125 47.21875 
L 70.796875 47.21875 
L 70.796875 11.28125 
Q 77.9375 12.359375 81.953125 17.796875 
Q 85.984375 23.25 85.984375 31.890625 
Q 85.984375 37.109375 84.4375 41.703125 
Q 82.90625 46.296875 79.78125 50.203125 
Q 74.703125 56.59375 67.40625 59.984375 
Q 60.109375 63.375 51.515625 63.375 
Q 45.515625 63.375 39.984375 61.78125 
Q 34.46875 60.203125 29.78125 57.078125 
Q 22.125 52.09375 17.796875 44.015625 
Q 13.484375 35.9375 13.484375 26.515625 
Q 13.484375 18.75 16.28125 11.953125 
Q 19.09375 5.171875 24.421875 0 
Q 29.546875 -5.078125 36.28125 -7.734375 
Q 43.015625 -10.40625 50.6875 -10.40625 
Q 56.984375 -10.40625 63.0625 -8.28125 
Q 69.140625 -6.15625 74.21875 -2.203125 
L 78.609375 -7.625 
Q 72.515625 -12.359375 65.3125 -14.875 
Q 58.109375 -17.390625 50.6875 -17.390625 
Q 41.65625 -17.390625 33.640625 -14.1875 
Q 25.640625 -10.984375 19.390625 -4.890625 
Q 13.140625 1.21875 9.859375 9.25 
Q 6.59375 17.28125 6.59375 26.515625 
Q 6.59375 35.40625 9.90625 43.453125 
Q 13.234375 51.515625 19.390625 57.625 
Q 25.6875 63.8125 33.9375 67.109375 
Q 42.1875 70.40625 51.421875 70.40625 
Q 61.765625 70.40625 70.625 66.15625 
Q 79.5 61.921875 85.5 54.109375 
Q 89.15625 49.3125 91.078125 43.703125 
Q 93.015625 38.09375 93.015625 32.078125 
Q 93.015625 19.234375 85.25 11.8125 
Q 77.484375 4.390625 63.8125 4.109375 
z
" id="DejaVuSans-64"/>
      </defs>
      <g transform="translate(781.073764 310.358437)scale(0.1 -0.1)">
       <use xlink:href="#DejaVuSans-64"/>
      </g>
     </g>
    </g>
    <g id="xtick_32">
     <g id="line2d_32">
      <g>
       <use style="stroke:#000000;stroke-width:0.8;" x="808.944713" xlink:href="#m02aed50651" y="295.76"/>
      </g>
     </g>
     <g id="text_32">
      <!-- ^ -->
      <defs>
       <path d="M 46.6875 72.90625 
L 73.1875 45.703125 
L 63.375 45.703125 
L 41.890625 64.984375 
L 20.40625 45.703125 
L 10.59375 45.703125 
L 37.109375 72.90625 
z
" id="DejaVuSans-94"/>
      </defs>
      <g transform="translate(804.754869 310.358437)scale(0.1 -0.1)">
       <use xlink:href="#DejaVuSans-94"/>
      </g>
     </g>
    </g>
   </g>
   <g id="matplotlib.axis_2">
    <g id="ytick_1">
     <g id="line2d_33">
      <defs>
       <path d="M 0 0 
L -3.5 0 
" id="ma5f48a51f6" style="stroke:#000000;stroke-width:0.8;"/>
      </defs>
      <g>
       <use style="stroke:#000000;stroke-width:0.8;" x="55.69" xlink:href="#ma5f48a51f6" y="295.76"/>
      </g>
     </g>
     <g id="text_33">
      <!-- 0.00% -->
      <defs>
       <path d="M 31.78125 66.40625 
Q 24.171875 66.40625 20.328125 58.90625 
Q 16.5 51.421875 16.5 36.375 
Q 16.5 21.390625 20.328125 13.890625 
Q 24.171875 6.390625 31.78125 6.390625 
Q 39.453125 6.390625 43.28125 13.890625 
Q 47.125 21.390625 47.125 36.375 
Q 47.125 51.421875 43.28125 58.90625 
Q 39.453125 66.40625 31.78125 66.40625 
z
M 31.78125 74.21875 
Q 44.046875 74.21875 50.515625 64.515625 
Q 56.984375 54.828125 56.984375 36.375 
Q 56.984375 17.96875 50.515625 8.265625 
Q 44.046875 -1.421875 31.78125 -1.421875 
Q 19.53125 -1.421875 13.0625 8.265625 
Q 6.59375 17.96875 6.59375 36.375 
Q 6.59375 54.828125 13.0625 64.515625 
Q 19.53125 74.21875 31.78125 74.21875 
z
" id="DejaVuSans-48"/>
      </defs>
      <g transform="translate(16.922812 299.559219)scale(0.1 -0.1)">
       <use xlink:href="#DejaVuSans-48"/>
       <use x="63.623047" xlink:href="#DejaVuSans-46"/>
       <use x="95.410156" xlink:href="#DejaVuSans-48"/>
       <use x="159.033203" xlink:href="#DejaVuSans-48"/>
       <use x="222.65625" xlink:href="#DejaVuSans-37"/>
      </g>
     </g>
    </g>
    <g id="ytick_2">
     <g id="line2d_34">
      <g>
       <use style="stroke:#000000;stroke-width:0.8;" x="55.69" xlink:href="#ma5f48a51f6" y="238.70826"/>
      </g>
     </g>
     <g id="text_34">
      <!-- 5.00% -->
      <defs>
       <path d="M 10.796875 72.90625 
L 49.515625 72.90625 
L 49.515625 64.59375 
L 19.828125 64.59375 
L 19.828125 46.734375 
Q 21.96875 47.46875 24.109375 47.828125 
Q 26.265625 48.1875 28.421875 48.1875 
Q 40.625 48.1875 47.75 41.5 
Q 54.890625 34.8125 54.890625 23.390625 
Q 54.890625 11.625 47.5625 5.09375 
Q 40.234375 -1.421875 26.90625 -1.421875 
Q 22.3125 -1.421875 17.546875 -0.640625 
Q 12.796875 0.140625 7.71875 1.703125 
L 7.71875 11.625 
Q 12.109375 9.234375 16.796875 8.0625 
Q 21.484375 6.890625 26.703125 6.890625 
Q 35.15625 6.890625 40.078125 11.328125 
Q 45.015625 15.765625 45.015625 23.390625 
Q 45.015625 31 40.078125 35.4375 
Q 35.15625 39.890625 26.703125 39.890625 
Q 22.75 39.890625 18.8125 39.015625 
Q 14.890625 38.140625 10.796875 36.28125 
z
" id="DejaVuSans-53"/>
      </defs>
      <g transform="translate(16.922812 242.507479)scale(0.1 -0.1)">
       <use xlink:href="#DejaVuSans-53"/>
       <use x="63.623047" xlink:href="#DejaVuSans-46"/>
       <use x="95.410156" xlink:href="#DejaVuSans-48"/>
       <use x="159.033203" xlink:href="#DejaVuSans-48"/>
       <use x="222.65625" xlink:href="#DejaVuSans-37"/>
      </g>
     </g>
    </g>
    <g id="ytick_3">
     <g id="line2d_35">
      <g>
       <use style="stroke:#000000;stroke-width:0.8;" x="55.69" xlink:href="#ma5f48a51f6" y="181.65652"/>
      </g>
     </g>
     <g id="text_35">
      <!-- 10.00% -->
      <defs>
       <path d="M 12.40625 8.296875 
L 28.515625 8.296875 
L 28.515625 63.921875 
L 10.984375 60.40625 
L 10.984375 69.390625 
L 28.421875 72.90625 
L 38.28125 72.90625 
L 38.28125 8.296875 
L 54.390625 8.296875 
L 54.390625 0 
L 12.40625 0 
z
" id="DejaVuSans-49"/>
      </defs>
      <g transform="translate(10.560312 185.455739)scale(0.1 -0.1)">
       <use xlink:href="#DejaVuSans-49"/>
       <use x="63.623047" xlink:href="#DejaVuSans-48"/>
       <use x="127.246094" xlink:href="#DejaVuSans-46"/>
       <use x="159.033203" xlink:href="#DejaVuSans-48"/>
       <use x="222.65625" xlink:href="#DejaVuSans-48"/>
       <use x="286.279297" xlink:href="#DejaVuSans-37"/>
      </g>
     </g>
    </g>
    <g id="ytick_4">
     <g id="line2d_36">
      <g>
       <use style="stroke:#000000;stroke-width:0.8;" x="55.69" xlink:href="#ma5f48a51f6" y="124.60478"/>
      </g>
     </g>
     <g id="text_36">
      <!-- 15.00% -->
      <g transform="translate(10.560312 128.403999)scale(0.1 -0.1)">
       <use xlink:href="#DejaVuSans-49"/>
       <use x="63.623047" xlink:href="#DejaVuSans-53"/>
       <use x="127.246094" xlink:href="#DejaVuSans-46"/>
       <use x="159.033203" xlink:href="#DejaVuSans-48"/>
       <use x="222.65625" xlink:href="#DejaVuSans-48"/>
       <use x="286.279297" xlink:href="#DejaVuSans-37"/>
      </g>
     </g>
    </g>
    <g id="ytick_5">
     <g id="line2d_37">
      <g>
       <use style="stroke:#000000;stroke-width:0.8;" x="55.69" xlink:href="#ma5f48a51f6" y="67.55304"/>
      </g>
     </g>
     <g id="text_37">
      <!-- 20.00% -->
      <defs>
       <path d="M 19.1875 8.296875 
L 53.609375 8.296875 
L 53.609375 0 
L 7.328125 0 
L 7.328125 8.296875 
Q 12.9375 14.109375 22.625 23.890625 
Q 32.328125 33.6875 34.8125 36.53125 
Q 39.546875 41.84375 41.421875 45.53125 
Q 43.3125 49.21875 43.3125 52.78125 
Q 43.3125 58.59375 39.234375 62.25 
Q 35.15625 65.921875 28.609375 65.921875 
Q 23.96875 65.921875 18.8125 64.3125 
Q 13.671875 62.703125 7.8125 59.421875 
L 7.8125 69.390625 
Q 13.765625 71.78125 18.9375 73 
Q 24.125 74.21875 28.421875 74.21875 
Q 39.75 74.21875 46.484375 68.546875 
Q 53.21875 62.890625 53.21875 53.421875 
Q 53.21875 48.921875 51.53125 44.890625 
Q 49.859375 40.875 45.40625 35.40625 
Q 44.1875 33.984375 37.640625 27.21875 
Q 31.109375 20.453125 19.1875 8.296875 
z
" id="DejaVuSans-50"/>
      </defs>
      <g transform="translate(10.560312 71.352259)scale(0.1 -0.1)">
       <use xlink:href="#DejaVuSans-50"/>
       <use x="63.623047" xlink:href="#DejaVuSans-48"/>
       <use x="127.246094" xlink:href="#DejaVuSans-46"/>
       <use x="159.033203" xlink:href="#DejaVuSans-48"/>
       <use x="222.65625" xlink:href="#DejaVuSans-48"/>
       <use x="286.279297" xlink:href="#DejaVuSans-37"/>
      </g>
     </g>
    </g>
   </g>
   <g id="patch_67">
    <path d="M 55.69 295.76 
L 55.69 10.8 
" style="fill:none;stroke:#000000;stroke-linecap:square;stroke-linejoin:miter;stroke-width:0.8;"/>
   </g>
   <g id="patch_68">
    <path d="M 853.2 295.76 
L 853.2 10.8 
" style="fill:none;"/>
   </g>
   <g id="patch_69">
    <path d="M 55.69 295.76 
L 853.2 295.76 
" style="fill:none;stroke:#000000;stroke-linecap:square;stroke-linejoin:miter;stroke-width:0.8;"/>
   </g>
   <g id="patch_70">
    <path d="M 55.69 10.8 
L 853.2 10.8 
" style="fill:none;"/>
   </g>
   <g id="legend_1">
    <g id="patch_71">
     <path d="M 780.825 48.15625 
L 846.2 48.15625 
Q 848.2 48.15625 848.2 46.15625 
L 848.2 17.8 
Q 848.2 15.8 846.2 15.8 
L 780.825 15.8 
Q 778.825 15.8 778.825 17.8 
L 778.825 46.15625 
Q 778.825 48.15625 780.825 48.15625 
z
" style="fill:#ffffff;opacity:0.8;stroke:#cccccc;stroke-linejoin:miter;"/>
    </g>
    <g id="patch_72">
     <path d="M 782.825 27.398438 
L 802.825 27.398438 
L 802.825 20.398438 
L 782.825 20.398438 
z
" style="fill:#84ba5b;"/>
    </g>
    <g id="text_38">
     <!-- Code -->
     <defs>
      <path d="M 64.40625 67.28125 
L 64.40625 56.890625 
Q 59.421875 61.53125 53.78125 63.8125 
Q 48.140625 66.109375 41.796875 66.109375 
Q 29.296875 66.109375 22.65625 58.46875 
Q 16.015625 50.828125 16.015625 36.375 
Q 16.015625 21.96875 22.65625 14.328125 
Q 29.296875 6.6875 41.796875 6.6875 
Q 48.140625 6.6875 53.78125 8.984375 
Q 59.421875 11.28125 64.40625 15.921875 
L 64.40625 5.609375 
Q 59.234375 2.09375 53.4375 0.328125 
Q 47.65625 -1.421875 41.21875 -1.421875 
Q 24.65625 -1.421875 15.125 8.703125 
Q 5.609375 18.84375 5.609375 36.375 
Q 5.609375 53.953125 15.125 64.078125 
Q 24.65625 74.21875 41.21875 74.21875 
Q 47.75 74.21875 53.53125 72.484375 
Q 59.328125 70.75 64.40625 67.28125 
z
" id="DejaVuSans-67"/>
      <path d="M 30.609375 48.390625 
Q 23.390625 48.390625 19.1875 42.75 
Q 14.984375 37.109375 14.984375 27.296875 
Q 14.984375 17.484375 19.15625 11.84375 
Q 23.34375 6.203125 30.609375 6.203125 
Q 37.796875 6.203125 41.984375 11.859375 
Q 46.1875 17.53125 46.1875 27.296875 
Q 46.1875 37.015625 41.984375 42.703125 
Q 37.796875 48.390625 30.609375 48.390625 
z
M 30.609375 56 
Q 42.328125 56 49.015625 48.375 
Q 55.71875 40.765625 55.71875 27.296875 
Q 55.71875 13.875 49.015625 6.21875 
Q 42.328125 -1.421875 30.609375 -1.421875 
Q 18.84375 -1.421875 12.171875 6.21875 
Q 5.515625 13.875 5.515625 27.296875 
Q 5.515625 40.765625 12.171875 48.375 
Q 18.84375 56 30.609375 56 
z
" id="DejaVuSans-111"/>
      <path d="M 45.40625 46.390625 
L 45.40625 75.984375 
L 54.390625 75.984375 
L 54.390625 0 
L 45.40625 0 
L 45.40625 8.203125 
Q 42.578125 3.328125 38.25 0.953125 
Q 33.9375 -1.421875 27.875 -1.421875 
Q 17.96875 -1.421875 11.734375 6.484375 
Q 5.515625 14.40625 5.515625 27.296875 
Q 5.515625 40.1875 11.734375 48.09375 
Q 17.96875 56 27.875 56 
Q 33.9375 56 38.25 53.625 
Q 42.578125 51.265625 45.40625 46.390625 
z
M 14.796875 27.296875 
Q 14.796875 17.390625 18.875 11.75 
Q 22.953125 6.109375 30.078125 6.109375 
Q 37.203125 6.109375 41.296875 11.75 
Q 45.40625 17.390625 45.40625 27.296875 
Q 45.40625 37.203125 41.296875 42.84375 
Q 37.203125 48.484375 30.078125 48.484375 
Q 22.953125 48.484375 18.875 42.84375 
Q 14.796875 37.203125 14.796875 27.296875 
z
" id="DejaVuSans-100"/>
      <path d="M 56.203125 29.59375 
L 56.203125 25.203125 
L 14.890625 25.203125 
Q 15.484375 15.921875 20.484375 11.0625 
Q 25.484375 6.203125 34.421875 6.203125 
Q 39.59375 6.203125 44.453125 7.46875 
Q 49.3125 8.734375 54.109375 11.28125 
L 54.109375 2.78125 
Q 49.265625 0.734375 44.1875 -0.34375 
Q 39.109375 -1.421875 33.890625 -1.421875 
Q 20.796875 -1.421875 13.15625 6.1875 
Q 5.515625 13.8125 5.515625 26.8125 
Q 5.515625 40.234375 12.765625 48.109375 
Q 20.015625 56 32.328125 56 
Q 43.359375 56 49.78125 48.890625 
Q 56.203125 41.796875 56.203125 29.59375 
z
M 47.21875 32.234375 
Q 47.125 39.59375 43.09375 43.984375 
Q 39.0625 48.390625 32.421875 48.390625 
Q 24.90625 48.390625 20.390625 44.140625 
Q 15.875 39.890625 15.1875 32.171875 
z
" id="DejaVuSans-101"/>
     </defs>
     <g transform="translate(810.825 27.398438)scale(0.1 -0.1)">
      <use xlink:href="#DejaVuSans-67"/>
      <use x="69.824219" xlink:href="#DejaVuSans-111"/>
      <use x="131.005859" xlink:href="#DejaVuSans-100"/>
      <use x="194.482422" xlink:href="#DejaVuSans-101"/>
     </g>
    </g>
    <g id="patch_73">
     <path d="M 782.825 42.076563 
L 802.825 42.076563 
L 802.825 35.076563 
L 782.825 35.076563 
z
" style="fill:#d35e60;"/>
    </g>
    <g id="text_39">
     <!-- Keylog -->
     <defs>
      <path d="M 9.8125 72.90625 
L 19.671875 72.90625 
L 19.671875 42.09375 
L 52.390625 72.90625 
L 65.09375 72.90625 
L 28.90625 38.921875 
L 67.671875 0 
L 54.6875 0 
L 19.671875 35.109375 
L 19.671875 0 
L 9.8125 0 
z
" id="DejaVuSans-75"/>
      <path d="M 32.171875 -5.078125 
Q 28.375 -14.84375 24.75 -17.8125 
Q 21.140625 -20.796875 15.09375 -20.796875 
L 7.90625 -20.796875 
L 7.90625 -13.28125 
L 13.1875 -13.28125 
Q 16.890625 -13.28125 18.9375 -11.515625 
Q 21 -9.765625 23.484375 -3.21875 
L 25.09375 0.875 
L 2.984375 54.6875 
L 12.5 54.6875 
L 29.59375 11.921875 
L 46.6875 54.6875 
L 56.203125 54.6875 
z
" id="DejaVuSans-121"/>
      <path d="M 9.421875 75.984375 
L 18.40625 75.984375 
L 18.40625 0 
L 9.421875 0 
z
" id="DejaVuSans-108"/>
      <path d="M 45.40625 27.984375 
Q 45.40625 37.75 41.375 43.109375 
Q 37.359375 48.484375 30.078125 48.484375 
Q 22.859375 48.484375 18.828125 43.109375 
Q 14.796875 37.75 14.796875 27.984375 
Q 14.796875 18.265625 18.828125 12.890625 
Q 22.859375 7.515625 30.078125 7.515625 
Q 37.359375 7.515625 41.375 12.890625 
Q 45.40625 18.265625 45.40625 27.984375 
z
M 54.390625 6.78125 
Q 54.390625 -7.171875 48.1875 -13.984375 
Q 42 -20.796875 29.203125 -20.796875 
Q 24.46875 -20.796875 20.265625 -20.09375 
Q 16.0625 -19.390625 12.109375 -17.921875 
L 12.109375 -9.1875 
Q 16.0625 -11.328125 19.921875 -12.34375 
Q 23.78125 -13.375 27.78125 -13.375 
Q 36.625 -13.375 41.015625 -8.765625 
Q 45.40625 -4.15625 45.40625 5.171875 
L 45.40625 9.625 
Q 42.625 4.78125 38.28125 2.390625 
Q 33.9375 0 27.875 0 
Q 17.828125 0 11.671875 7.65625 
Q 5.515625 15.328125 5.515625 27.984375 
Q 5.515625 40.671875 11.671875 48.328125 
Q 17.828125 56 27.875 56 
Q 33.9375 56 38.28125 53.609375 
Q 42.625 51.21875 45.40625 46.390625 
L 45.40625 54.6875 
L 54.390625 54.6875 
z
" id="DejaVuSans-103"/>
     </defs>
     <g transform="translate(810.825 42.076563)scale(0.1 -0.1)">
      <use xlink:href="#DejaVuSans-75"/>
      <use x="60.576172" xlink:href="#DejaVuSans-101"/>
      <use x="122.099609" xlink:href="#DejaVuSans-121"/>
      <use x="181.279297" xlink:href="#DejaVuSans-108"/>
      <use x="209.0625" xlink:href="#DejaVuSans-111"/>
      <use x="270.244141" xlink:href="#DejaVuSans-103"/>
     </g>
    </g>
   </g>
  </g>
 </g>
 <defs>
  <clipPath id="p06b611dd4b">
   <rect height="284.96" width="797.51" x="55.69" y="10.8"/>
  </clipPath>
 </defs>
</svg>
