<?xml version="1.0" encoding="utf-8" standalone="no"?>
<!DOCTYPE svg PUBLIC "-//W3C//DTD SVG 1.1//EN"
  "http://www.w3.org/Graphics/SVG/1.1/DTD/svg11.dtd">
<!-- Created with matplotlib (https://matplotlib.org/) -->
<svg height="280.88pt" version="1.1" viewBox="0 0 828.05 280.88" width="828.05pt" xmlns="http://www.w3.org/2000/svg" xmlns:xlink="http://www.w3.org/1999/xlink">
 <defs>
  <style type="text/css">
*{stroke-linecap:butt;stroke-linejoin:round;}
  </style>
 </defs>
 <g id="figure_1">
  <g id="patch_1">
   <path d="M 0 280.88 
L 828.05 280.88 
L 828.05 0 
L 0 0 
z
" style="fill:none;"/>
  </g>
  <g id="axes_1">
   <g id="patch_2">
    <path d="M 39.65 256.68 
L 820.85 256.68 
L 820.85 7.2 
L 39.65 7.2 
z
" style="fill:none;"/>
   </g>
   <g id="patch_3">
    <path clip-path="url(#p56b0497bd6)" d="M 75.159091 256.68 
L 80.3429 256.68 
L 80.3429 19.08 
L 75.159091 19.08 
z
" style="fill:#7293cb;"/>
   </g>
   <g id="patch_4">
    <path clip-path="url(#p56b0497bd6)" d="M 85.526709 256.68 
L 90.710518 256.68 
L 90.710518 22.844339 
L 85.526709 22.844339 
z
" style="fill:#7293cb;"/>
   </g>
   <g id="patch_5">
    <path clip-path="url(#p56b0497bd6)" d="M 95.894326 256.68 
L 101.078135 256.68 
L 101.078135 37.582685 
L 95.894326 37.582685 
z
" style="fill:#7293cb;"/>
   </g>
   <g id="patch_6">
    <path clip-path="url(#p56b0497bd6)" d="M 106.261944 256.68 
L 111.445753 256.68 
L 111.445753 47.025435 
L 106.261944 47.025435 
z
" style="fill:#7293cb;"/>
   </g>
   <g id="patch_7">
    <path clip-path="url(#p56b0497bd6)" d="M 116.629562 256.68 
L 121.813371 256.68 
L 121.813371 56.787197 
L 116.629562 56.787197 
z
" style="fill:#7293cb;"/>
   </g>
   <g id="patch_8">
    <path clip-path="url(#p56b0497bd6)" d="M 126.99718 256.68 
L 132.180989 256.68 
L 132.180989 66.485156 
L 126.99718 66.485156 
z
" style="fill:#7293cb;"/>
   </g>
   <g id="patch_9">
    <path clip-path="url(#p56b0497bd6)" d="M 137.364798 256.68 
L 142.548607 256.68 
L 142.548607 66.676563 
L 137.364798 66.676563 
z
" style="fill:#7293cb;"/>
   </g>
   <g id="patch_10">
    <path clip-path="url(#p56b0497bd6)" d="M 147.732415 256.68 
L 152.916224 256.68 
L 152.916224 70.12189 
L 147.732415 70.12189 
z
" style="fill:#7293cb;"/>
   </g>
   <g id="patch_11">
    <path clip-path="url(#p56b0497bd6)" d="M 158.100033 256.68 
L 163.283842 256.68 
L 163.283842 79.947454 
L 158.100033 79.947454 
z
" style="fill:#7293cb;"/>
   </g>
   <g id="patch_12">
    <path clip-path="url(#p56b0497bd6)" d="M 168.467651 256.68 
L 173.65146 256.68 
L 173.65146 83.647991 
L 168.467651 83.647991 
z
" style="fill:#7293cb;"/>
   </g>
   <g id="patch_13">
    <path clip-path="url(#p56b0497bd6)" d="M 178.835269 256.68 
L 184.019078 256.68 
L 184.019078 99.215768 
L 178.835269 99.215768 
z
" style="fill:#7293cb;"/>
   </g>
   <g id="patch_14">
    <path clip-path="url(#p56b0497bd6)" d="M 189.202887 256.68 
L 194.386695 256.68 
L 194.386695 112.741869 
L 189.202887 112.741869 
z
" style="fill:#7293cb;"/>
   </g>
   <g id="patch_15">
    <path clip-path="url(#p56b0497bd6)" d="M 199.570504 256.68 
L 204.754313 256.68 
L 204.754313 114.209323 
L 199.570504 114.209323 
z
" style="fill:#7293cb;"/>
   </g>
   <g id="patch_16">
    <path clip-path="url(#p56b0497bd6)" d="M 209.938122 256.68 
L 215.121931 256.68 
L 215.121931 121.801805 
L 209.938122 121.801805 
z
" style="fill:#7293cb;"/>
   </g>
   <g id="patch_17">
    <path clip-path="url(#p56b0497bd6)" d="M 220.30574 256.68 
L 225.489549 256.68 
L 225.489549 127.288808 
L 220.30574 127.288808 
z
" style="fill:#7293cb;"/>
   </g>
   <g id="patch_18">
    <path clip-path="url(#p56b0497bd6)" d="M 230.673358 256.68 
L 235.857167 256.68 
L 235.857167 130.096112 
L 230.673358 130.096112 
z
" style="fill:#7293cb;"/>
   </g>
   <g id="patch_19">
    <path clip-path="url(#p56b0497bd6)" d="M 241.040975 256.68 
L 246.224784 256.68 
L 246.224784 163.337143 
L 241.040975 163.337143 
z
" style="fill:#84ba5b;"/>
   </g>
   <g id="patch_20">
    <path clip-path="url(#p56b0497bd6)" d="M 251.408593 256.68 
L 256.592402 256.68 
L 256.592402 163.656155 
L 251.408593 163.656155 
z
" style="fill:#7293cb;"/>
   </g>
   <g id="patch_21">
    <path clip-path="url(#p56b0497bd6)" d="M 261.776211 256.68 
L 266.96002 256.68 
L 266.96002 168.824146 
L 261.776211 168.824146 
z
" style="fill:#7293cb;"/>
   </g>
   <g id="patch_22">
    <path clip-path="url(#p56b0497bd6)" d="M 272.143829 256.68 
L 277.327638 256.68 
L 277.327638 174.566359 
L 272.143829 174.566359 
z
" style="fill:#7293cb;"/>
   </g>
   <g id="patch_23">
    <path clip-path="url(#p56b0497bd6)" d="M 282.511447 256.68 
L 287.695255 256.68 
L 287.695255 175.076778 
L 282.511447 175.076778 
z
" style="fill:#7293cb;"/>
   </g>
   <g id="patch_24">
    <path clip-path="url(#p56b0497bd6)" d="M 292.879064 256.68 
L 298.062873 256.68 
L 298.062873 175.523394 
L 292.879064 175.523394 
z
" style="fill:#d35e60;"/>
   </g>
   <g id="patch_25">
    <path clip-path="url(#p56b0497bd6)" d="M 303.246682 256.68 
L 308.430491 256.68 
L 308.430491 179.351536 
L 303.246682 179.351536 
z
" style="fill:#84ba5b;"/>
   </g>
   <g id="patch_26">
    <path clip-path="url(#p56b0497bd6)" d="M 313.6143 256.68 
L 318.798109 256.68 
L 318.798109 181.138002 
L 313.6143 181.138002 
z
" style="fill:#84ba5b;"/>
   </g>
   <g id="patch_27">
    <path clip-path="url(#p56b0497bd6)" d="M 323.981918 256.68 
L 329.165727 256.68 
L 329.165727 183.690097 
L 323.981918 183.690097 
z
" style="fill:#7293cb;"/>
   </g>
   <g id="patch_28">
    <path clip-path="url(#p56b0497bd6)" d="M 334.349536 256.68 
L 339.533344 256.68 
L 339.533344 184.455725 
L 334.349536 184.455725 
z
" style="fill:#7293cb;"/>
   </g>
   <g id="patch_29">
    <path clip-path="url(#p56b0497bd6)" d="M 344.717153 256.68 
L 349.900962 256.68 
L 349.900962 185.029946 
L 344.717153 185.029946 
z
" style="fill:#7293cb;"/>
   </g>
   <g id="patch_30">
    <path clip-path="url(#p56b0497bd6)" d="M 355.084771 256.68 
L 360.26858 256.68 
L 360.26858 208.573018 
L 355.084771 208.573018 
z
" style="fill:#7293cb;"/>
   </g>
   <g id="patch_31">
    <path clip-path="url(#p56b0497bd6)" d="M 365.452389 256.68 
L 370.636198 256.68 
L 370.636198 214.187626 
L 365.452389 214.187626 
z
" style="fill:#84ba5b;"/>
   </g>
   <g id="patch_32">
    <path clip-path="url(#p56b0497bd6)" d="M 375.820007 256.68 
L 381.003816 256.68 
L 381.003816 217.377744 
L 375.820007 217.377744 
z
" style="fill:#d35e60;"/>
   </g>
   <g id="patch_33">
    <path clip-path="url(#p56b0497bd6)" d="M 386.187624 256.68 
L 391.371433 256.68 
L 391.371433 226.054866 
L 386.187624 226.054866 
z
" style="fill:#84ba5b;"/>
   </g>
   <g id="patch_34">
    <path clip-path="url(#p56b0497bd6)" d="M 396.555242 256.68 
L 401.739051 256.68 
L 401.739051 231.541869 
L 396.555242 231.541869 
z
" style="fill:#d35e60;"/>
   </g>
   <g id="patch_35">
    <path clip-path="url(#p56b0497bd6)" d="M 406.92286 256.68 
L 412.106669 256.68 
L 412.106669 234.668185 
L 406.92286 234.668185 
z
" style="fill:#d35e60;"/>
   </g>
   <g id="patch_36">
    <path clip-path="url(#p56b0497bd6)" d="M 417.290478 256.68 
L 422.474287 256.68 
L 422.474287 235.433813 
L 417.290478 235.433813 
z
" style="fill:#d35e60;"/>
   </g>
   <g id="patch_37">
    <path clip-path="url(#p56b0497bd6)" d="M 427.658096 256.68 
L 432.841904 256.68 
L 432.841904 235.689023 
L 427.658096 235.689023 
z
" style="fill:#84ba5b;"/>
   </g>
   <g id="patch_38">
    <path clip-path="url(#p56b0497bd6)" d="M 438.025713 256.68 
L 443.209522 256.68 
L 443.209522 236.96507 
L 438.025713 236.96507 
z
" style="fill:#7293cb;"/>
   </g>
   <g id="patch_39">
    <path clip-path="url(#p56b0497bd6)" d="M 448.393331 256.68 
L 453.57714 256.68 
L 453.57714 240.665607 
L 448.393331 240.665607 
z
" style="fill:#d35e60;"/>
   </g>
   <g id="patch_40">
    <path clip-path="url(#p56b0497bd6)" d="M 458.760949 256.68 
L 463.944758 256.68 
L 463.944758 240.984619 
L 458.760949 240.984619 
z
" style="fill:#d35e60;"/>
   </g>
   <g id="patch_41">
    <path clip-path="url(#p56b0497bd6)" d="M 469.128567 256.68 
L 474.312376 256.68 
L 474.312376 241.048421 
L 469.128567 241.048421 
z
" style="fill:#84ba5b;"/>
   </g>
   <g id="patch_42">
    <path clip-path="url(#p56b0497bd6)" d="M 479.496184 256.68 
L 484.679993 256.68 
L 484.679993 241.112223 
L 479.496184 241.112223 
z
" style="fill:#d35e60;"/>
   </g>
   <g id="patch_43">
    <path clip-path="url(#p56b0497bd6)" d="M 489.863802 256.68 
L 495.047611 256.68 
L 495.047611 242.89869 
L 489.863802 242.89869 
z
" style="fill:#d35e60;"/>
   </g>
   <g id="patch_44">
    <path clip-path="url(#p56b0497bd6)" d="M 500.23142 256.68 
L 505.415229 256.68 
L 505.415229 247.173448 
L 500.23142 247.173448 
z
" style="fill:#7293cb;"/>
   </g>
   <g id="patch_45">
    <path clip-path="url(#p56b0497bd6)" d="M 510.599038 256.68 
L 515.782847 256.68 
L 515.782847 247.683867 
L 510.599038 247.683867 
z
" style="fill:#d35e60;"/>
   </g>
   <g id="patch_46">
    <path clip-path="url(#p56b0497bd6)" d="M 520.966656 256.68 
L 526.150464 256.68 
L 526.150464 247.875274 
L 520.966656 247.875274 
z
" style="fill:#d35e60;"/>
   </g>
   <g id="patch_47">
    <path clip-path="url(#p56b0497bd6)" d="M 531.334273 256.68 
L 536.518082 256.68 
L 536.518082 248.5771 
L 531.334273 248.5771 
z
" style="fill:#84ba5b;"/>
   </g>
   <g id="patch_48">
    <path clip-path="url(#p56b0497bd6)" d="M 541.701891 256.68 
L 546.8857 256.68 
L 546.8857 249.278926 
L 541.701891 249.278926 
z
" style="fill:#d35e60;"/>
   </g>
   <g id="patch_49">
    <path clip-path="url(#p56b0497bd6)" d="M 552.069509 256.68 
L 557.253318 256.68 
L 557.253318 250.299764 
L 552.069509 250.299764 
z
" style="fill:#d35e60;"/>
   </g>
   <g id="patch_50">
    <path clip-path="url(#p56b0497bd6)" d="M 562.437127 256.68 
L 567.620936 256.68 
L 567.620936 250.873985 
L 562.437127 250.873985 
z
" style="fill:#7293cb;"/>
   </g>
   <g id="patch_51">
    <path clip-path="url(#p56b0497bd6)" d="M 572.804745 256.68 
L 577.988553 256.68 
L 577.988553 250.873985 
L 572.804745 250.873985 
z
" style="fill:#84ba5b;"/>
   </g>
   <g id="patch_52">
    <path clip-path="url(#p56b0497bd6)" d="M 583.172362 256.68 
L 588.356171 256.68 
L 588.356171 250.937787 
L 583.172362 250.937787 
z
" style="fill:#d35e60;"/>
   </g>
   <g id="patch_53">
    <path clip-path="url(#p56b0497bd6)" d="M 593.53998 256.68 
L 598.723789 256.68 
L 598.723789 251.00159 
L 593.53998 251.00159 
z
" style="fill:#d35e60;"/>
   </g>
   <g id="patch_54">
    <path clip-path="url(#p56b0497bd6)" d="M 603.907598 256.68 
L 609.091407 256.68 
L 609.091407 251.192997 
L 603.907598 251.192997 
z
" style="fill:#d35e60;"/>
   </g>
   <g id="patch_55">
    <path clip-path="url(#p56b0497bd6)" d="M 614.275216 256.68 
L 619.459025 256.68 
L 619.459025 251.83102 
L 614.275216 251.83102 
z
" style="fill:#d35e60;"/>
   </g>
   <g id="patch_56">
    <path clip-path="url(#p56b0497bd6)" d="M 624.642833 256.68 
L 629.826642 256.68 
L 629.826642 252.022427 
L 624.642833 252.022427 
z
" style="fill:#d35e60;"/>
   </g>
   <g id="patch_57">
    <path clip-path="url(#p56b0497bd6)" d="M 635.010451 256.68 
L 640.19426 256.68 
L 640.19426 252.08623 
L 635.010451 252.08623 
z
" style="fill:#d35e60;"/>
   </g>
   <g id="patch_58">
    <path clip-path="url(#p56b0497bd6)" d="M 645.378069 256.68 
L 650.561878 256.68 
L 650.561878 252.213835 
L 645.378069 252.213835 
z
" style="fill:#d35e60;"/>
   </g>
   <g id="patch_59">
    <path clip-path="url(#p56b0497bd6)" d="M 655.745687 256.68 
L 660.929496 256.68 
L 660.929496 252.660451 
L 655.745687 252.660451 
z
" style="fill:#d35e60;"/>
   </g>
   <g id="patch_60">
    <path clip-path="url(#p56b0497bd6)" d="M 666.113305 256.68 
L 671.297113 256.68 
L 671.297113 253.107068 
L 666.113305 253.107068 
z
" style="fill:#d35e60;"/>
   </g>
   <g id="patch_61">
    <path clip-path="url(#p56b0497bd6)" d="M 676.480922 256.68 
L 681.664731 256.68 
L 681.664731 253.234672 
L 676.480922 253.234672 
z
" style="fill:#84ba5b;"/>
   </g>
   <g id="patch_62">
    <path clip-path="url(#p56b0497bd6)" d="M 686.84854 256.68 
L 692.032349 256.68 
L 692.032349 253.426079 
L 686.84854 253.426079 
z
" style="fill:#d35e60;"/>
   </g>
   <g id="patch_63">
    <path clip-path="url(#p56b0497bd6)" d="M 697.216158 256.68 
L 702.399967 256.68 
L 702.399967 253.936498 
L 697.216158 253.936498 
z
" style="fill:#d35e60;"/>
   </g>
   <g id="patch_64">
    <path clip-path="url(#p56b0497bd6)" d="M 707.583776 256.68 
L 712.767585 256.68 
L 712.767585 254.064103 
L 707.583776 254.064103 
z
" style="fill:#d35e60;"/>
   </g>
   <g id="patch_65">
    <path clip-path="url(#p56b0497bd6)" d="M 717.951393 256.68 
L 723.135202 256.68 
L 723.135202 254.893534 
L 717.951393 254.893534 
z
" style="fill:#d35e60;"/>
   </g>
   <g id="patch_66">
    <path clip-path="url(#p56b0497bd6)" d="M 728.319011 256.68 
L 733.50282 256.68 
L 733.50282 255.148743 
L 728.319011 255.148743 
z
" style="fill:#d35e60;"/>
   </g>
   <g id="patch_67">
    <path clip-path="url(#p56b0497bd6)" d="M 738.686629 256.68 
L 743.870438 256.68 
L 743.870438 255.276348 
L 738.686629 255.276348 
z
" style="fill:#d35e60;"/>
   </g>
   <g id="patch_68">
    <path clip-path="url(#p56b0497bd6)" d="M 749.054247 256.68 
L 754.238056 256.68 
L 754.238056 255.531557 
L 749.054247 255.531557 
z
" style="fill:#d35e60;"/>
   </g>
   <g id="patch_69">
    <path clip-path="url(#p56b0497bd6)" d="M 759.421865 256.68 
L 764.605674 256.68 
L 764.605674 255.59536 
L 759.421865 255.59536 
z
" style="fill:#d35e60;"/>
   </g>
   <g id="patch_70">
    <path clip-path="url(#p56b0497bd6)" d="M 769.789482 256.68 
L 774.973291 256.68 
L 774.973291 255.978174 
L 769.789482 255.978174 
z
" style="fill:#d35e60;"/>
   </g>
   <g id="patch_71">
    <path clip-path="url(#p56b0497bd6)" d="M 780.1571 256.68 
L 785.340909 256.68 
L 785.340909 256.297186 
L 780.1571 256.297186 
z
" style="fill:#d35e60;"/>
   </g>
   <g id="matplotlib.axis_1">
    <g id="xtick_1">
     <g id="line2d_1">
      <defs>
       <path d="M 0 0 
L 0 3.5 
" id="m974375e0df" style="stroke:#000000;stroke-width:0.8;"/>
      </defs>
      <g>
       <use style="stroke:#000000;stroke-width:0.8;" x="77.750995" xlink:href="#m974375e0df" y="256.68"/>
      </g>
     </g>
     <g id="text_1">
      <!-- e -->
      <defs>
       <path d="M 56.203125 29.59375 
L 56.203125 25.203125 
L 14.890625 25.203125 
Q 15.484375 15.921875 20.484375 11.0625 
Q 25.484375 6.203125 34.421875 6.203125 
Q 39.59375 6.203125 44.453125 7.46875 
Q 49.3125 8.734375 54.109375 11.28125 
L 54.109375 2.78125 
Q 49.265625 0.734375 44.1875 -0.34375 
Q 39.109375 -1.421875 33.890625 -1.421875 
Q 20.796875 -1.421875 13.15625 6.1875 
Q 5.515625 13.8125 5.515625 26.8125 
Q 5.515625 40.234375 12.765625 48.109375 
Q 20.015625 56 32.328125 56 
Q 43.359375 56 49.78125 48.890625 
Q 56.203125 41.796875 56.203125 29.59375 
z
M 47.21875 32.234375 
Q 47.125 39.59375 43.09375 43.984375 
Q 39.0625 48.390625 32.421875 48.390625 
Q 24.90625 48.390625 20.390625 44.140625 
Q 15.875 39.890625 15.1875 32.171875 
z
" id="DejaVuSans-101"/>
      </defs>
      <g transform="translate(74.674433 271.278437)scale(0.1 -0.1)">
       <use xlink:href="#DejaVuSans-101"/>
      </g>
     </g>
    </g>
    <g id="xtick_2">
     <g id="line2d_2">
      <g>
       <use style="stroke:#000000;stroke-width:0.8;" x="88.118613" xlink:href="#m974375e0df" y="256.68"/>
      </g>
     </g>
     <g id="text_2">
      <!-- u -->
      <defs>
       <path d="M 8.5 21.578125 
L 8.5 54.6875 
L 17.484375 54.6875 
L 17.484375 21.921875 
Q 17.484375 14.15625 20.5 10.265625 
Q 23.53125 6.390625 29.59375 6.390625 
Q 36.859375 6.390625 41.078125 11.03125 
Q 45.3125 15.671875 45.3125 23.6875 
L 45.3125 54.6875 
L 54.296875 54.6875 
L 54.296875 0 
L 45.3125 0 
L 45.3125 8.40625 
Q 42.046875 3.421875 37.71875 1 
Q 33.40625 -1.421875 27.6875 -1.421875 
Q 18.265625 -1.421875 13.375 4.4375 
Q 8.5 10.296875 8.5 21.578125 
z
M 31.109375 56 
z
" id="DejaVuSans-117"/>
      </defs>
      <g transform="translate(84.949863 271.278437)scale(0.1 -0.1)">
       <use xlink:href="#DejaVuSans-117"/>
      </g>
     </g>
    </g>
    <g id="xtick_3">
     <g id="line2d_3">
      <g>
       <use style="stroke:#000000;stroke-width:0.8;" x="98.486231" xlink:href="#m974375e0df" y="256.68"/>
      </g>
     </g>
     <g id="text_3">
      <!-- w -->
      <defs>
       <path d="M 4.203125 54.6875 
L 13.1875 54.6875 
L 24.421875 12.015625 
L 35.59375 54.6875 
L 46.1875 54.6875 
L 57.421875 12.015625 
L 68.609375 54.6875 
L 77.59375 54.6875 
L 63.28125 0 
L 52.6875 0 
L 40.921875 44.828125 
L 29.109375 0 
L 18.5 0 
z
" id="DejaVuSans-119"/>
      </defs>
      <g transform="translate(94.397168 271.278437)scale(0.1 -0.1)">
       <use xlink:href="#DejaVuSans-119"/>
      </g>
     </g>
    </g>
    <g id="xtick_4">
     <g id="line2d_4">
      <g>
       <use style="stroke:#000000;stroke-width:0.8;" x="108.853849" xlink:href="#m974375e0df" y="256.68"/>
      </g>
     </g>
     <g id="text_4">
      <!-- j -->
      <defs>
       <path d="M 9.421875 54.6875 
L 18.40625 54.6875 
L 18.40625 -0.984375 
Q 18.40625 -11.421875 14.421875 -16.109375 
Q 10.453125 -20.796875 1.609375 -20.796875 
L -1.8125 -20.796875 
L -1.8125 -13.1875 
L 0.59375 -13.1875 
Q 5.71875 -13.1875 7.5625 -10.8125 
Q 9.421875 -8.453125 9.421875 -0.984375 
z
M 9.421875 75.984375 
L 18.40625 75.984375 
L 18.40625 64.59375 
L 9.421875 64.59375 
z
" id="DejaVuSans-106"/>
      </defs>
      <g transform="translate(107.464786 271.278437)scale(0.1 -0.1)">
       <use xlink:href="#DejaVuSans-106"/>
      </g>
     </g>
    </g>
    <g id="xtick_5">
     <g id="line2d_5">
      <g>
       <use style="stroke:#000000;stroke-width:0.8;" x="119.221466" xlink:href="#m974375e0df" y="256.68"/>
      </g>
     </g>
     <g id="text_5">
      <!-- t -->
      <defs>
       <path d="M 18.3125 70.21875 
L 18.3125 54.6875 
L 36.8125 54.6875 
L 36.8125 47.703125 
L 18.3125 47.703125 
L 18.3125 18.015625 
Q 18.3125 11.328125 20.140625 9.421875 
Q 21.96875 7.515625 27.59375 7.515625 
L 36.8125 7.515625 
L 36.8125 0 
L 27.59375 0 
Q 17.1875 0 13.234375 3.875 
Q 9.28125 7.765625 9.28125 18.015625 
L 9.28125 47.703125 
L 2.6875 47.703125 
L 2.6875 54.6875 
L 9.28125 54.6875 
L 9.28125 70.21875 
z
" id="DejaVuSans-116"/>
      </defs>
      <g transform="translate(117.26131 271.278437)scale(0.1 -0.1)">
       <use xlink:href="#DejaVuSans-116"/>
      </g>
     </g>
    </g>
    <g id="xtick_6">
     <g id="line2d_6">
      <g>
       <use style="stroke:#000000;stroke-width:0.8;" x="129.589084" xlink:href="#m974375e0df" y="256.68"/>
      </g>
     </g>
     <g id="text_6">
      <!-- a -->
      <defs>
       <path d="M 34.28125 27.484375 
Q 23.390625 27.484375 19.1875 25 
Q 14.984375 22.515625 14.984375 16.5 
Q 14.984375 11.71875 18.140625 8.90625 
Q 21.296875 6.109375 26.703125 6.109375 
Q 34.1875 6.109375 38.703125 11.40625 
Q 43.21875 16.703125 43.21875 25.484375 
L 43.21875 27.484375 
z
M 52.203125 31.203125 
L 52.203125 0 
L 43.21875 0 
L 43.21875 8.296875 
Q 40.140625 3.328125 35.546875 0.953125 
Q 30.953125 -1.421875 24.3125 -1.421875 
Q 15.921875 -1.421875 10.953125 3.296875 
Q 6 8.015625 6 15.921875 
Q 6 25.140625 12.171875 29.828125 
Q 18.359375 34.515625 30.609375 34.515625 
L 43.21875 34.515625 
L 43.21875 35.40625 
Q 43.21875 41.609375 39.140625 45 
Q 35.0625 48.390625 27.6875 48.390625 
Q 23 48.390625 18.546875 47.265625 
Q 14.109375 46.140625 10.015625 43.890625 
L 10.015625 52.203125 
Q 14.9375 54.109375 19.578125 55.046875 
Q 24.21875 56 28.609375 56 
Q 40.484375 56 46.34375 49.84375 
Q 52.203125 43.703125 52.203125 31.203125 
z
" id="DejaVuSans-97"/>
      </defs>
      <g transform="translate(126.525022 271.278437)scale(0.1 -0.1)">
       <use xlink:href="#DejaVuSans-97"/>
      </g>
     </g>
    </g>
    <g id="xtick_7">
     <g id="line2d_7">
      <g>
       <use style="stroke:#000000;stroke-width:0.8;" x="139.956702" xlink:href="#m974375e0df" y="256.68"/>
      </g>
     </g>
     <g id="text_7">
      <!-- k -->
      <defs>
       <path d="M 9.078125 75.984375 
L 18.109375 75.984375 
L 18.109375 31.109375 
L 44.921875 54.6875 
L 56.390625 54.6875 
L 27.390625 29.109375 
L 57.625 0 
L 45.90625 0 
L 18.109375 26.703125 
L 18.109375 0 
L 9.078125 0 
z
" id="DejaVuSans-107"/>
      </defs>
      <g transform="translate(137.06139 271.278437)scale(0.1 -0.1)">
       <use xlink:href="#DejaVuSans-107"/>
      </g>
     </g>
    </g>
    <g id="xtick_8">
     <g id="line2d_8">
      <g>
       <use style="stroke:#000000;stroke-width:0.8;" x="150.32432" xlink:href="#m974375e0df" y="256.68"/>
      </g>
     </g>
     <g id="text_8">
      <!-- o -->
      <defs>
       <path d="M 30.609375 48.390625 
Q 23.390625 48.390625 19.1875 42.75 
Q 14.984375 37.109375 14.984375 27.296875 
Q 14.984375 17.484375 19.15625 11.84375 
Q 23.34375 6.203125 30.609375 6.203125 
Q 37.796875 6.203125 41.984375 11.859375 
Q 46.1875 17.53125 46.1875 27.296875 
Q 46.1875 37.015625 41.984375 42.703125 
Q 37.796875 48.390625 30.609375 48.390625 
z
M 30.609375 56 
Q 42.328125 56 49.015625 48.375 
Q 55.71875 40.765625 55.71875 27.296875 
Q 55.71875 13.875 49.015625 6.21875 
Q 42.328125 -1.421875 30.609375 -1.421875 
Q 18.84375 -1.421875 12.171875 6.21875 
Q 5.515625 13.875 5.515625 27.296875 
Q 5.515625 40.765625 12.171875 48.375 
Q 18.84375 56 30.609375 56 
z
" id="DejaVuSans-111"/>
      </defs>
      <g transform="translate(147.264945 271.278437)scale(0.1 -0.1)">
       <use xlink:href="#DejaVuSans-111"/>
      </g>
     </g>
    </g>
    <g id="xtick_9">
     <g id="line2d_9">
      <g>
       <use style="stroke:#000000;stroke-width:0.8;" x="160.691938" xlink:href="#m974375e0df" y="256.68"/>
      </g>
     </g>
     <g id="text_9">
      <!-- i -->
      <defs>
       <path d="M 9.421875 54.6875 
L 18.40625 54.6875 
L 18.40625 0 
L 9.421875 0 
z
M 9.421875 75.984375 
L 18.40625 75.984375 
L 18.40625 64.59375 
L 9.421875 64.59375 
z
" id="DejaVuSans-105"/>
      </defs>
      <g transform="translate(159.302875 271.278437)scale(0.1 -0.1)">
       <use xlink:href="#DejaVuSans-105"/>
      </g>
     </g>
    </g>
    <g id="xtick_10">
     <g id="line2d_10">
      <g>
       <use style="stroke:#000000;stroke-width:0.8;" x="171.059555" xlink:href="#m974375e0df" y="256.68"/>
      </g>
     </g>
     <g id="text_10">
      <!-- b -->
      <defs>
       <path d="M 48.6875 27.296875 
Q 48.6875 37.203125 44.609375 42.84375 
Q 40.53125 48.484375 33.40625 48.484375 
Q 26.265625 48.484375 22.1875 42.84375 
Q 18.109375 37.203125 18.109375 27.296875 
Q 18.109375 17.390625 22.1875 11.75 
Q 26.265625 6.109375 33.40625 6.109375 
Q 40.53125 6.109375 44.609375 11.75 
Q 48.6875 17.390625 48.6875 27.296875 
z
M 18.109375 46.390625 
Q 20.953125 51.265625 25.265625 53.625 
Q 29.59375 56 35.59375 56 
Q 45.5625 56 51.78125 48.09375 
Q 58.015625 40.1875 58.015625 27.296875 
Q 58.015625 14.40625 51.78125 6.484375 
Q 45.5625 -1.421875 35.59375 -1.421875 
Q 29.59375 -1.421875 25.265625 0.953125 
Q 20.953125 3.328125 18.109375 8.203125 
L 18.109375 0 
L 9.078125 0 
L 9.078125 75.984375 
L 18.109375 75.984375 
z
" id="DejaVuSans-98"/>
      </defs>
      <g transform="translate(167.885337 271.278437)scale(0.1 -0.1)">
       <use xlink:href="#DejaVuSans-98"/>
      </g>
     </g>
    </g>
    <g id="xtick_11">
     <g id="line2d_11">
      <g>
       <use style="stroke:#000000;stroke-width:0.8;" x="181.427173" xlink:href="#m974375e0df" y="256.68"/>
      </g>
     </g>
     <g id="text_11">
      <!-- s -->
      <defs>
       <path d="M 44.28125 53.078125 
L 44.28125 44.578125 
Q 40.484375 46.53125 36.375 47.5 
Q 32.28125 48.484375 27.875 48.484375 
Q 21.1875 48.484375 17.84375 46.4375 
Q 14.5 44.390625 14.5 40.28125 
Q 14.5 37.15625 16.890625 35.375 
Q 19.28125 33.59375 26.515625 31.984375 
L 29.59375 31.296875 
Q 39.15625 29.25 43.1875 25.515625 
Q 47.21875 21.78125 47.21875 15.09375 
Q 47.21875 7.46875 41.1875 3.015625 
Q 35.15625 -1.421875 24.609375 -1.421875 
Q 20.21875 -1.421875 15.453125 -0.5625 
Q 10.6875 0.296875 5.421875 2 
L 5.421875 11.28125 
Q 10.40625 8.6875 15.234375 7.390625 
Q 20.0625 6.109375 24.8125 6.109375 
Q 31.15625 6.109375 34.5625 8.28125 
Q 37.984375 10.453125 37.984375 14.40625 
Q 37.984375 18.0625 35.515625 20.015625 
Q 33.0625 21.96875 24.703125 23.78125 
L 21.578125 24.515625 
Q 13.234375 26.265625 9.515625 29.90625 
Q 5.8125 33.546875 5.8125 39.890625 
Q 5.8125 47.609375 11.28125 51.796875 
Q 16.75 56 26.8125 56 
Q 31.78125 56 36.171875 55.265625 
Q 40.578125 54.546875 44.28125 53.078125 
z
" id="DejaVuSans-115"/>
      </defs>
      <g transform="translate(178.822486 271.278437)scale(0.1 -0.1)">
       <use xlink:href="#DejaVuSans-115"/>
      </g>
     </g>
    </g>
    <g id="xtick_12">
     <g id="line2d_12">
      <g>
       <use style="stroke:#000000;stroke-width:0.8;" x="191.794791" xlink:href="#m974375e0df" y="256.68"/>
      </g>
     </g>
     <g id="text_12">
      <!-- n -->
      <defs>
       <path d="M 54.890625 33.015625 
L 54.890625 0 
L 45.90625 0 
L 45.90625 32.71875 
Q 45.90625 40.484375 42.875 44.328125 
Q 39.84375 48.1875 33.796875 48.1875 
Q 26.515625 48.1875 22.3125 43.546875 
Q 18.109375 38.921875 18.109375 30.90625 
L 18.109375 0 
L 9.078125 0 
L 9.078125 54.6875 
L 18.109375 54.6875 
L 18.109375 46.1875 
Q 21.34375 51.125 25.703125 53.5625 
Q 30.078125 56 35.796875 56 
Q 45.21875 56 50.046875 50.171875 
Q 54.890625 44.34375 54.890625 33.015625 
z
" id="DejaVuSans-110"/>
      </defs>
      <g transform="translate(188.626041 271.278437)scale(0.1 -0.1)">
       <use xlink:href="#DejaVuSans-110"/>
      </g>
     </g>
    </g>
    <g id="xtick_13">
     <g id="line2d_13">
      <g>
       <use style="stroke:#000000;stroke-width:0.8;" x="202.162409" xlink:href="#m974375e0df" y="256.68"/>
      </g>
     </g>
     <g id="text_13">
      <!-- r -->
      <defs>
       <path d="M 41.109375 46.296875 
Q 39.59375 47.171875 37.8125 47.578125 
Q 36.03125 48 33.890625 48 
Q 26.265625 48 22.1875 43.046875 
Q 18.109375 38.09375 18.109375 28.8125 
L 18.109375 0 
L 9.078125 0 
L 9.078125 54.6875 
L 18.109375 54.6875 
L 18.109375 46.1875 
Q 20.953125 51.171875 25.484375 53.578125 
Q 30.03125 56 36.53125 56 
Q 37.453125 56 38.578125 55.875 
Q 39.703125 55.765625 41.0625 55.515625 
z
" id="DejaVuSans-114"/>
      </defs>
      <g transform="translate(200.10694 271.278437)scale(0.1 -0.1)">
       <use xlink:href="#DejaVuSans-114"/>
      </g>
     </g>
    </g>
    <g id="xtick_14">
     <g id="line2d_14">
      <g>
       <use style="stroke:#000000;stroke-width:0.8;" x="212.530027" xlink:href="#m974375e0df" y="256.68"/>
      </g>
     </g>
     <g id="text_14">
      <!-- d -->
      <defs>
       <path d="M 45.40625 46.390625 
L 45.40625 75.984375 
L 54.390625 75.984375 
L 54.390625 0 
L 45.40625 0 
L 45.40625 8.203125 
Q 42.578125 3.328125 38.25 0.953125 
Q 33.9375 -1.421875 27.875 -1.421875 
Q 17.96875 -1.421875 11.734375 6.484375 
Q 5.515625 14.40625 5.515625 27.296875 
Q 5.515625 40.1875 11.734375 48.09375 
Q 17.96875 56 27.875 56 
Q 33.9375 56 38.25 53.625 
Q 42.578125 51.265625 45.40625 46.390625 
z
M 14.796875 27.296875 
Q 14.796875 17.390625 18.875 11.75 
Q 22.953125 6.109375 30.078125 6.109375 
Q 37.203125 6.109375 41.296875 11.75 
Q 45.40625 17.390625 45.40625 27.296875 
Q 45.40625 37.203125 41.296875 42.84375 
Q 37.203125 48.484375 30.078125 48.484375 
Q 22.953125 48.484375 18.875 42.84375 
Q 14.796875 37.203125 14.796875 27.296875 
z
" id="DejaVuSans-100"/>
      </defs>
      <g transform="translate(209.355808 271.278437)scale(0.1 -0.1)">
       <use xlink:href="#DejaVuSans-100"/>
      </g>
     </g>
    </g>
    <g id="xtick_15">
     <g id="line2d_15">
      <g>
       <use style="stroke:#000000;stroke-width:0.8;" x="222.897644" xlink:href="#m974375e0df" y="256.68"/>
      </g>
     </g>
     <g id="text_15">
      <!-- l -->
      <defs>
       <path d="M 9.421875 75.984375 
L 18.40625 75.984375 
L 18.40625 0 
L 9.421875 0 
z
" id="DejaVuSans-108"/>
      </defs>
      <g transform="translate(221.508582 271.278437)scale(0.1 -0.1)">
       <use xlink:href="#DejaVuSans-108"/>
      </g>
     </g>
    </g>
    <g id="xtick_16">
     <g id="line2d_16">
      <g>
       <use style="stroke:#000000;stroke-width:0.8;" x="233.265262" xlink:href="#m974375e0df" y="256.68"/>
      </g>
     </g>
     <g id="text_16">
      <!-- h -->
      <defs>
       <path d="M 54.890625 33.015625 
L 54.890625 0 
L 45.90625 0 
L 45.90625 32.71875 
Q 45.90625 40.484375 42.875 44.328125 
Q 39.84375 48.1875 33.796875 48.1875 
Q 26.515625 48.1875 22.3125 43.546875 
Q 18.109375 38.921875 18.109375 30.90625 
L 18.109375 0 
L 9.078125 0 
L 9.078125 75.984375 
L 18.109375 75.984375 
L 18.109375 46.1875 
Q 21.34375 51.125 25.703125 53.5625 
Q 30.078125 56 35.796875 56 
Q 45.21875 56 50.046875 50.171875 
Q 54.890625 44.34375 54.890625 33.015625 
z
" id="DejaVuSans-104"/>
      </defs>
      <g transform="translate(230.096512 271.278437)scale(0.1 -0.1)">
       <use xlink:href="#DejaVuSans-104"/>
      </g>
     </g>
    </g>
    <g id="xtick_17">
     <g id="line2d_17">
      <g>
       <use style="stroke:#000000;stroke-width:0.8;" x="243.63288" xlink:href="#m974375e0df" y="256.68"/>
      </g>
     </g>
     <g id="text_17">
      <!-- 2 -->
      <defs>
       <path d="M 19.1875 8.296875 
L 53.609375 8.296875 
L 53.609375 0 
L 7.328125 0 
L 7.328125 8.296875 
Q 12.9375 14.109375 22.625 23.890625 
Q 32.328125 33.6875 34.8125 36.53125 
Q 39.546875 41.84375 41.421875 45.53125 
Q 43.3125 49.21875 43.3125 52.78125 
Q 43.3125 58.59375 39.234375 62.25 
Q 35.15625 65.921875 28.609375 65.921875 
Q 23.96875 65.921875 18.8125 64.3125 
Q 13.671875 62.703125 7.8125 59.421875 
L 7.8125 69.390625 
Q 13.765625 71.78125 18.9375 73 
Q 24.125 74.21875 28.421875 74.21875 
Q 39.75 74.21875 46.484375 68.546875 
Q 53.21875 62.890625 53.21875 53.421875 
Q 53.21875 48.921875 51.53125 44.890625 
Q 49.859375 40.875 45.40625 35.40625 
Q 44.1875 33.984375 37.640625 27.21875 
Q 31.109375 20.453125 19.1875 8.296875 
z
" id="DejaVuSans-50"/>
      </defs>
      <g transform="translate(240.45163 271.278437)scale(0.1 -0.1)">
       <use xlink:href="#DejaVuSans-50"/>
      </g>
     </g>
    </g>
    <g id="xtick_18">
     <g id="line2d_18">
      <g>
       <use style="stroke:#000000;stroke-width:0.8;" x="254.000498" xlink:href="#m974375e0df" y="256.68"/>
      </g>
     </g>
     <g id="text_18">
      <!-- f -->
      <defs>
       <path d="M 37.109375 75.984375 
L 37.109375 68.5 
L 28.515625 68.5 
Q 23.6875 68.5 21.796875 66.546875 
Q 19.921875 64.59375 19.921875 59.515625 
L 19.921875 54.6875 
L 34.71875 54.6875 
L 34.71875 47.703125 
L 19.921875 47.703125 
L 19.921875 0 
L 10.890625 0 
L 10.890625 47.703125 
L 2.296875 47.703125 
L 2.296875 54.6875 
L 10.890625 54.6875 
L 10.890625 58.5 
Q 10.890625 67.625 15.140625 71.796875 
Q 19.390625 75.984375 28.609375 75.984375 
z
" id="DejaVuSans-102"/>
      </defs>
      <g transform="translate(252.240341 271.278437)scale(0.1 -0.1)">
       <use xlink:href="#DejaVuSans-102"/>
      </g>
     </g>
    </g>
    <g id="xtick_19">
     <g id="line2d_19">
      <g>
       <use style="stroke:#000000;stroke-width:0.8;" x="264.368115" xlink:href="#m974375e0df" y="256.68"/>
      </g>
     </g>
     <g id="text_19">
      <!-- g -->
      <defs>
       <path d="M 45.40625 27.984375 
Q 45.40625 37.75 41.375 43.109375 
Q 37.359375 48.484375 30.078125 48.484375 
Q 22.859375 48.484375 18.828125 43.109375 
Q 14.796875 37.75 14.796875 27.984375 
Q 14.796875 18.265625 18.828125 12.890625 
Q 22.859375 7.515625 30.078125 7.515625 
Q 37.359375 7.515625 41.375 12.890625 
Q 45.40625 18.265625 45.40625 27.984375 
z
M 54.390625 6.78125 
Q 54.390625 -7.171875 48.1875 -13.984375 
Q 42 -20.796875 29.203125 -20.796875 
Q 24.46875 -20.796875 20.265625 -20.09375 
Q 16.0625 -19.390625 12.109375 -17.921875 
L 12.109375 -9.1875 
Q 16.0625 -11.328125 19.921875 -12.34375 
Q 23.78125 -13.375 27.78125 -13.375 
Q 36.625 -13.375 41.015625 -8.765625 
Q 45.40625 -4.15625 45.40625 5.171875 
L 45.40625 9.625 
Q 42.625 4.78125 38.28125 2.390625 
Q 33.9375 0 27.875 0 
Q 17.828125 0 11.671875 7.65625 
Q 5.515625 15.328125 5.515625 27.984375 
Q 5.515625 40.671875 11.671875 48.328125 
Q 17.828125 56 27.875 56 
Q 33.9375 56 38.28125 53.609375 
Q 42.625 51.21875 45.40625 46.390625 
L 45.40625 54.6875 
L 54.390625 54.6875 
z
" id="DejaVuSans-103"/>
      </defs>
      <g transform="translate(261.193897 271.278437)scale(0.1 -0.1)">
       <use xlink:href="#DejaVuSans-103"/>
      </g>
     </g>
    </g>
    <g id="xtick_20">
     <g id="line2d_20">
      <g>
       <use style="stroke:#000000;stroke-width:0.8;" x="274.735733" xlink:href="#m974375e0df" y="256.68"/>
      </g>
     </g>
     <g id="text_20">
      <!-- c -->
      <defs>
       <path d="M 48.78125 52.59375 
L 48.78125 44.1875 
Q 44.96875 46.296875 41.140625 47.34375 
Q 37.3125 48.390625 33.40625 48.390625 
Q 24.65625 48.390625 19.8125 42.84375 
Q 14.984375 37.3125 14.984375 27.296875 
Q 14.984375 17.28125 19.8125 11.734375 
Q 24.65625 6.203125 33.40625 6.203125 
Q 37.3125 6.203125 41.140625 7.25 
Q 44.96875 8.296875 48.78125 10.40625 
L 48.78125 2.09375 
Q 45.015625 0.34375 40.984375 -0.53125 
Q 36.96875 -1.421875 32.421875 -1.421875 
Q 20.0625 -1.421875 12.78125 6.34375 
Q 5.515625 14.109375 5.515625 27.296875 
Q 5.515625 40.671875 12.859375 48.328125 
Q 20.21875 56 33.015625 56 
Q 37.15625 56 41.109375 55.140625 
Q 45.0625 54.296875 48.78125 52.59375 
z
" id="DejaVuSans-99"/>
      </defs>
      <g transform="translate(271.986514 271.278437)scale(0.1 -0.1)">
       <use xlink:href="#DejaVuSans-99"/>
      </g>
     </g>
    </g>
    <g id="xtick_21">
     <g id="line2d_21">
      <g>
       <use style="stroke:#000000;stroke-width:0.8;" x="285.103351" xlink:href="#m974375e0df" y="256.68"/>
      </g>
     </g>
     <g id="text_21">
      <!-- p -->
      <defs>
       <path d="M 18.109375 8.203125 
L 18.109375 -20.796875 
L 9.078125 -20.796875 
L 9.078125 54.6875 
L 18.109375 54.6875 
L 18.109375 46.390625 
Q 20.953125 51.265625 25.265625 53.625 
Q 29.59375 56 35.59375 56 
Q 45.5625 56 51.78125 48.09375 
Q 58.015625 40.1875 58.015625 27.296875 
Q 58.015625 14.40625 51.78125 6.484375 
Q 45.5625 -1.421875 35.59375 -1.421875 
Q 29.59375 -1.421875 25.265625 0.953125 
Q 20.953125 3.328125 18.109375 8.203125 
z
M 48.6875 27.296875 
Q 48.6875 37.203125 44.609375 42.84375 
Q 40.53125 48.484375 33.40625 48.484375 
Q 26.265625 48.484375 22.1875 42.84375 
Q 18.109375 37.203125 18.109375 27.296875 
Q 18.109375 17.390625 22.1875 11.75 
Q 26.265625 6.109375 33.40625 6.109375 
Q 40.53125 6.109375 44.609375 11.75 
Q 48.6875 17.390625 48.6875 27.296875 
z
" id="DejaVuSans-112"/>
      </defs>
      <g transform="translate(281.929132 271.278437)scale(0.1 -0.1)">
       <use xlink:href="#DejaVuSans-112"/>
      </g>
     </g>
    </g>
    <g id="xtick_22">
     <g id="line2d_22">
      <g>
       <use style="stroke:#000000;stroke-width:0.8;" x="295.470969" xlink:href="#m974375e0df" y="256.68"/>
      </g>
     </g>
     <g id="text_22">
      <!-- : -->
      <defs>
       <path d="M 11.71875 12.40625 
L 22.015625 12.40625 
L 22.015625 0 
L 11.71875 0 
z
M 11.71875 51.703125 
L 22.015625 51.703125 
L 22.015625 39.3125 
L 11.71875 39.3125 
z
" id="DejaVuSans-58"/>
      </defs>
      <g transform="translate(293.786594 271.278437)scale(0.1 -0.1)">
       <use xlink:href="#DejaVuSans-58"/>
      </g>
     </g>
    </g>
    <g id="xtick_23">
     <g id="line2d_23">
      <g>
       <use style="stroke:#000000;stroke-width:0.8;" x="305.838587" xlink:href="#m974375e0df" y="256.68"/>
      </g>
     </g>
     <g id="text_23">
      <!-- 0 -->
      <defs>
       <path d="M 31.78125 66.40625 
Q 24.171875 66.40625 20.328125 58.90625 
Q 16.5 51.421875 16.5 36.375 
Q 16.5 21.390625 20.328125 13.890625 
Q 24.171875 6.390625 31.78125 6.390625 
Q 39.453125 6.390625 43.28125 13.890625 
Q 47.125 21.390625 47.125 36.375 
Q 47.125 51.421875 43.28125 58.90625 
Q 39.453125 66.40625 31.78125 66.40625 
z
M 31.78125 74.21875 
Q 44.046875 74.21875 50.515625 64.515625 
Q 56.984375 54.828125 56.984375 36.375 
Q 56.984375 17.96875 50.515625 8.265625 
Q 44.046875 -1.421875 31.78125 -1.421875 
Q 19.53125 -1.421875 13.0625 8.265625 
Q 6.59375 17.96875 6.59375 36.375 
Q 6.59375 54.828125 13.0625 64.515625 
Q 19.53125 74.21875 31.78125 74.21875 
z
" id="DejaVuSans-48"/>
      </defs>
      <g transform="translate(302.657337 271.278437)scale(0.1 -0.1)">
       <use xlink:href="#DejaVuSans-48"/>
      </g>
     </g>
    </g>
    <g id="xtick_24">
     <g id="line2d_24">
      <g>
       <use style="stroke:#000000;stroke-width:0.8;" x="316.206204" xlink:href="#m974375e0df" y="256.68"/>
      </g>
     </g>
     <g id="text_24">
      <!-- 1 -->
      <defs>
       <path d="M 12.40625 8.296875 
L 28.515625 8.296875 
L 28.515625 63.921875 
L 10.984375 60.40625 
L 10.984375 69.390625 
L 28.421875 72.90625 
L 38.28125 72.90625 
L 38.28125 8.296875 
L 54.390625 8.296875 
L 54.390625 0 
L 12.40625 0 
z
" id="DejaVuSans-49"/>
      </defs>
      <g transform="translate(313.024954 271.278437)scale(0.1 -0.1)">
       <use xlink:href="#DejaVuSans-49"/>
      </g>
     </g>
    </g>
    <g id="xtick_25">
     <g id="line2d_25">
      <g>
       <use style="stroke:#000000;stroke-width:0.8;" x="326.573822" xlink:href="#m974375e0df" y="256.68"/>
      </g>
     </g>
     <g id="text_25">
      <!-- C -->
      <defs>
       <path d="M 64.40625 67.28125 
L 64.40625 56.890625 
Q 59.421875 61.53125 53.78125 63.8125 
Q 48.140625 66.109375 41.796875 66.109375 
Q 29.296875 66.109375 22.65625 58.46875 
Q 16.015625 50.828125 16.015625 36.375 
Q 16.015625 21.96875 22.65625 14.328125 
Q 29.296875 6.6875 41.796875 6.6875 
Q 48.140625 6.6875 53.78125 8.984375 
Q 59.421875 11.28125 64.40625 15.921875 
L 64.40625 5.609375 
Q 59.234375 2.09375 53.4375 0.328125 
Q 47.65625 -1.421875 41.21875 -1.421875 
Q 24.65625 -1.421875 15.125 8.703125 
Q 5.609375 18.84375 5.609375 36.375 
Q 5.609375 53.953125 15.125 64.078125 
Q 24.65625 74.21875 41.21875 74.21875 
Q 47.75 74.21875 53.53125 72.484375 
Q 59.328125 70.75 64.40625 67.28125 
z
" id="DejaVuSans-67"/>
      </defs>
      <g transform="translate(323.082416 271.278437)scale(0.1 -0.1)">
       <use xlink:href="#DejaVuSans-67"/>
      </g>
     </g>
    </g>
    <g id="xtick_26">
     <g id="line2d_26">
      <g>
       <use style="stroke:#000000;stroke-width:0.8;" x="336.94144" xlink:href="#m974375e0df" y="256.68"/>
      </g>
     </g>
     <g id="text_26">
      <!-- v -->
      <defs>
       <path d="M 2.984375 54.6875 
L 12.5 54.6875 
L 29.59375 8.796875 
L 46.6875 54.6875 
L 56.203125 54.6875 
L 35.6875 0 
L 23.484375 0 
z
" id="DejaVuSans-118"/>
      </defs>
      <g transform="translate(333.982065 271.278437)scale(0.1 -0.1)">
       <use xlink:href="#DejaVuSans-118"/>
      </g>
     </g>
    </g>
    <g id="xtick_27">
     <g id="line2d_27">
      <g>
       <use style="stroke:#000000;stroke-width:0.8;" x="347.309058" xlink:href="#m974375e0df" y="256.68"/>
      </g>
     </g>
     <g id="text_27">
      <!-- m -->
      <defs>
       <path d="M 52 44.1875 
Q 55.375 50.25 60.0625 53.125 
Q 64.75 56 71.09375 56 
Q 79.640625 56 84.28125 50.015625 
Q 88.921875 44.046875 88.921875 33.015625 
L 88.921875 0 
L 79.890625 0 
L 79.890625 32.71875 
Q 79.890625 40.578125 77.09375 44.375 
Q 74.3125 48.1875 68.609375 48.1875 
Q 61.625 48.1875 57.5625 43.546875 
Q 53.515625 38.921875 53.515625 30.90625 
L 53.515625 0 
L 44.484375 0 
L 44.484375 32.71875 
Q 44.484375 40.625 41.703125 44.40625 
Q 38.921875 48.1875 33.109375 48.1875 
Q 26.21875 48.1875 22.15625 43.53125 
Q 18.109375 38.875 18.109375 30.90625 
L 18.109375 0 
L 9.078125 0 
L 9.078125 54.6875 
L 18.109375 54.6875 
L 18.109375 46.1875 
Q 21.1875 51.21875 25.484375 53.609375 
Q 29.78125 56 35.6875 56 
Q 41.65625 56 45.828125 52.96875 
Q 50 49.953125 52 44.1875 
z
" id="DejaVuSans-109"/>
      </defs>
      <g transform="translate(342.438745 271.278437)scale(0.1 -0.1)">
       <use xlink:href="#DejaVuSans-109"/>
      </g>
     </g>
    </g>
    <g id="xtick_28">
     <g id="line2d_28">
      <g>
       <use style="stroke:#000000;stroke-width:0.8;" x="357.676676" xlink:href="#m974375e0df" y="256.68"/>
      </g>
     </g>
     <g id="text_28">
      <!-- y -->
      <defs>
       <path d="M 32.171875 -5.078125 
Q 28.375 -14.84375 24.75 -17.8125 
Q 21.140625 -20.796875 15.09375 -20.796875 
L 7.90625 -20.796875 
L 7.90625 -13.28125 
L 13.1875 -13.28125 
Q 16.890625 -13.28125 18.9375 -11.515625 
Q 21 -9.765625 23.484375 -3.21875 
L 25.09375 0.875 
L 2.984375 54.6875 
L 12.5 54.6875 
L 29.59375 11.921875 
L 46.6875 54.6875 
L 56.203125 54.6875 
z
" id="DejaVuSans-121"/>
      </defs>
      <g transform="translate(354.717301 271.278437)scale(0.1 -0.1)">
       <use xlink:href="#DejaVuSans-121"/>
      </g>
     </g>
    </g>
    <g id="xtick_29">
     <g id="line2d_29">
      <g>
       <use style="stroke:#000000;stroke-width:0.8;" x="368.044293" xlink:href="#m974375e0df" y="256.68"/>
      </g>
     </g>
     <g id="text_29">
      <!-- 3 -->
      <defs>
       <path d="M 40.578125 39.3125 
Q 47.65625 37.796875 51.625 33 
Q 55.609375 28.21875 55.609375 21.1875 
Q 55.609375 10.40625 48.1875 4.484375 
Q 40.765625 -1.421875 27.09375 -1.421875 
Q 22.515625 -1.421875 17.65625 -0.515625 
Q 12.796875 0.390625 7.625 2.203125 
L 7.625 11.71875 
Q 11.71875 9.328125 16.59375 8.109375 
Q 21.484375 6.890625 26.8125 6.890625 
Q 36.078125 6.890625 40.9375 10.546875 
Q 45.796875 14.203125 45.796875 21.1875 
Q 45.796875 27.640625 41.28125 31.265625 
Q 36.765625 34.90625 28.71875 34.90625 
L 20.21875 34.90625 
L 20.21875 43.015625 
L 29.109375 43.015625 
Q 36.375 43.015625 40.234375 45.921875 
Q 44.09375 48.828125 44.09375 54.296875 
Q 44.09375 59.90625 40.109375 62.90625 
Q 36.140625 65.921875 28.71875 65.921875 
Q 24.65625 65.921875 20.015625 65.03125 
Q 15.375 64.15625 9.8125 62.3125 
L 9.8125 71.09375 
Q 15.4375 72.65625 20.34375 73.4375 
Q 25.25 74.21875 29.59375 74.21875 
Q 40.828125 74.21875 47.359375 69.109375 
Q 53.90625 64.015625 53.90625 55.328125 
Q 53.90625 49.265625 50.4375 45.09375 
Q 46.96875 40.921875 40.578125 39.3125 
z
" id="DejaVuSans-51"/>
      </defs>
      <g transform="translate(364.863043 271.278437)scale(0.1 -0.1)">
       <use xlink:href="#DejaVuSans-51"/>
      </g>
     </g>
    </g>
    <g id="xtick_30">
     <g id="line2d_30">
      <g>
       <use style="stroke:#000000;stroke-width:0.8;" x="378.411911" xlink:href="#m974375e0df" y="256.68"/>
      </g>
     </g>
     <g id="text_30">
      <!-- . -->
      <defs>
       <path d="M 10.6875 12.40625 
L 21 12.40625 
L 21 0 
L 10.6875 0 
z
" id="DejaVuSans-46"/>
      </defs>
      <g transform="translate(376.822849 271.278437)scale(0.1 -0.1)">
       <use xlink:href="#DejaVuSans-46"/>
      </g>
     </g>
    </g>
    <g id="xtick_31">
     <g id="line2d_31">
      <g>
       <use style="stroke:#000000;stroke-width:0.8;" x="388.779529" xlink:href="#m974375e0df" y="256.68"/>
      </g>
     </g>
     <g id="text_31">
      <!-- 9 -->
      <defs>
       <path d="M 10.984375 1.515625 
L 10.984375 10.5 
Q 14.703125 8.734375 18.5 7.8125 
Q 22.3125 6.890625 25.984375 6.890625 
Q 35.75 6.890625 40.890625 13.453125 
Q 46.046875 20.015625 46.78125 33.40625 
Q 43.953125 29.203125 39.59375 26.953125 
Q 35.25 24.703125 29.984375 24.703125 
Q 19.046875 24.703125 12.671875 31.3125 
Q 6.296875 37.9375 6.296875 49.421875 
Q 6.296875 60.640625 12.9375 67.421875 
Q 19.578125 74.21875 30.609375 74.21875 
Q 43.265625 74.21875 49.921875 64.515625 
Q 56.59375 54.828125 56.59375 36.375 
Q 56.59375 19.140625 48.40625 8.859375 
Q 40.234375 -1.421875 26.421875 -1.421875 
Q 22.703125 -1.421875 18.890625 -0.6875 
Q 15.09375 0.046875 10.984375 1.515625 
z
M 30.609375 32.421875 
Q 37.25 32.421875 41.125 36.953125 
Q 45.015625 41.5 45.015625 49.421875 
Q 45.015625 57.28125 41.125 61.84375 
Q 37.25 66.40625 30.609375 66.40625 
Q 23.96875 66.40625 20.09375 61.84375 
Q 16.21875 57.28125 16.21875 49.421875 
Q 16.21875 41.5 20.09375 36.953125 
Q 23.96875 32.421875 30.609375 32.421875 
z
" id="DejaVuSans-57"/>
      </defs>
      <g transform="translate(385.598279 271.278437)scale(0.1 -0.1)">
       <use xlink:href="#DejaVuSans-57"/>
      </g>
     </g>
    </g>
    <g id="xtick_32">
     <g id="line2d_32">
      <g>
       <use style="stroke:#000000;stroke-width:0.8;" x="399.147147" xlink:href="#m974375e0df" y="256.68"/>
      </g>
     </g>
     <g id="text_32">
      <!-- / -->
      <defs>
       <path d="M 25.390625 72.90625 
L 33.6875 72.90625 
L 8.296875 -9.28125 
L 0 -9.28125 
z
" id="DejaVuSans-47"/>
      </defs>
      <g transform="translate(397.462772 271.278437)scale(0.1 -0.1)">
       <use xlink:href="#DejaVuSans-47"/>
      </g>
     </g>
    </g>
    <g id="xtick_33">
     <g id="line2d_33">
      <g>
       <use style="stroke:#000000;stroke-width:0.8;" x="409.514764" xlink:href="#m974375e0df" y="256.68"/>
      </g>
     </g>
     <g id="text_33">
      <!-- , -->
      <defs>
       <path d="M 11.71875 12.40625 
L 22.015625 12.40625 
L 22.015625 4 
L 14.015625 -11.625 
L 7.71875 -11.625 
L 11.71875 4 
z
" id="DejaVuSans-44"/>
      </defs>
      <g transform="translate(407.925702 271.278437)scale(0.1 -0.1)">
       <use xlink:href="#DejaVuSans-44"/>
      </g>
     </g>
    </g>
    <g id="xtick_34">
     <g id="line2d_34">
      <g>
       <use style="stroke:#000000;stroke-width:0.8;" x="419.882382" xlink:href="#m974375e0df" y="256.68"/>
      </g>
     </g>
     <g id="text_34">
      <!-- " -->
      <defs>
       <path d="M 17.921875 72.90625 
L 17.921875 45.796875 
L 9.625 45.796875 
L 9.625 72.90625 
z
M 36.375 72.90625 
L 36.375 45.796875 
L 28.078125 45.796875 
L 28.078125 72.90625 
z
" id="DejaVuSans-34"/>
      </defs>
      <g transform="translate(417.582382 271.278437)scale(0.1 -0.1)">
       <use xlink:href="#DejaVuSans-34"/>
      </g>
     </g>
    </g>
    <g id="xtick_35">
     <g id="line2d_35">
      <g>
       <use style="stroke:#000000;stroke-width:0.8;" x="430.25" xlink:href="#m974375e0df" y="256.68"/>
      </g>
     </g>
     <g id="text_35">
      <!-- 4 -->
      <defs>
       <path d="M 37.796875 64.3125 
L 12.890625 25.390625 
L 37.796875 25.390625 
z
M 35.203125 72.90625 
L 47.609375 72.90625 
L 47.609375 25.390625 
L 58.015625 25.390625 
L 58.015625 17.1875 
L 47.609375 17.1875 
L 47.609375 0 
L 37.796875 0 
L 37.796875 17.1875 
L 4.890625 17.1875 
L 4.890625 26.703125 
z
" id="DejaVuSans-52"/>
      </defs>
      <g transform="translate(427.06875 271.278437)scale(0.1 -0.1)">
       <use xlink:href="#DejaVuSans-52"/>
      </g>
     </g>
    </g>
    <g id="xtick_36">
     <g id="line2d_36">
      <g>
       <use style="stroke:#000000;stroke-width:0.8;" x="440.617618" xlink:href="#m974375e0df" y="256.68"/>
      </g>
     </g>
     <g id="text_36">
      <!-- x -->
      <defs>
       <path d="M 54.890625 54.6875 
L 35.109375 28.078125 
L 55.90625 0 
L 45.3125 0 
L 29.390625 21.484375 
L 13.484375 0 
L 2.875 0 
L 24.125 28.609375 
L 4.6875 54.6875 
L 15.28125 54.6875 
L 29.78125 35.203125 
L 44.28125 54.6875 
z
" id="DejaVuSans-120"/>
      </defs>
      <g transform="translate(437.658243 271.278437)scale(0.1 -0.1)">
       <use xlink:href="#DejaVuSans-120"/>
      </g>
     </g>
    </g>
    <g id="xtick_37">
     <g id="line2d_37">
      <g>
       <use style="stroke:#000000;stroke-width:0.8;" x="450.985236" xlink:href="#m974375e0df" y="256.68"/>
      </g>
     </g>
     <g id="text_37">
      <!-- ( -->
      <defs>
       <path d="M 31 75.875 
Q 24.46875 64.65625 21.28125 53.65625 
Q 18.109375 42.671875 18.109375 31.390625 
Q 18.109375 20.125 21.3125 9.0625 
Q 24.515625 -2 31 -13.1875 
L 23.1875 -13.1875 
Q 15.875 -1.703125 12.234375 9.375 
Q 8.59375 20.453125 8.59375 31.390625 
Q 8.59375 42.28125 12.203125 53.3125 
Q 15.828125 64.359375 23.1875 75.875 
z
" id="DejaVuSans-40"/>
      </defs>
      <g transform="translate(449.034454 271.278437)scale(0.1 -0.1)">
       <use xlink:href="#DejaVuSans-40"/>
      </g>
     </g>
    </g>
    <g id="xtick_38">
     <g id="line2d_38">
      <g>
       <use style="stroke:#000000;stroke-width:0.8;" x="461.352853" xlink:href="#m974375e0df" y="256.68"/>
      </g>
     </g>
     <g id="text_38">
      <!-- $ -->
      <defs>
       <path d="M 33.796875 -14.703125 
L 28.90625 -14.703125 
L 28.859375 0 
Q 23.734375 0.09375 18.609375 1.1875 
Q 13.484375 2.296875 8.296875 4.5 
L 8.296875 13.28125 
Q 13.28125 10.15625 18.375 8.5625 
Q 23.484375 6.984375 28.90625 6.9375 
L 28.90625 29.203125 
Q 18.109375 30.953125 13.203125 35.15625 
Q 8.296875 39.359375 8.296875 46.6875 
Q 8.296875 54.640625 13.625 59.21875 
Q 18.953125 63.8125 28.90625 64.5 
L 28.90625 75.984375 
L 33.796875 75.984375 
L 33.796875 64.65625 
Q 38.328125 64.453125 42.578125 63.6875 
Q 46.828125 62.9375 50.875 61.625 
L 50.875 53.078125 
Q 46.828125 55.125 42.546875 56.25 
Q 38.28125 57.375 33.796875 57.5625 
L 33.796875 36.71875 
Q 44.875 35.015625 50.09375 30.609375 
Q 55.328125 26.21875 55.328125 18.609375 
Q 55.328125 10.359375 49.78125 5.59375 
Q 44.234375 0.828125 33.796875 0.09375 
z
M 28.90625 37.59375 
L 28.90625 57.625 
Q 23.25 56.984375 20.265625 54.390625 
Q 17.28125 51.8125 17.28125 47.515625 
Q 17.28125 43.3125 20.03125 40.96875 
Q 22.796875 38.625 28.90625 37.59375 
z
M 33.796875 28.21875 
L 33.796875 7.078125 
Q 39.984375 7.90625 43.140625 10.59375 
Q 46.296875 13.28125 46.296875 17.671875 
Q 46.296875 21.96875 43.28125 24.5 
Q 40.28125 27.046875 33.796875 28.21875 
z
" id="DejaVuSans-36"/>
      </defs>
      <g transform="translate(458.171603 271.278437)scale(0.1 -0.1)">
       <use xlink:href="#DejaVuSans-36"/>
      </g>
     </g>
    </g>
    <g id="xtick_39">
     <g id="line2d_39">
      <g>
       <use style="stroke:#000000;stroke-width:0.8;" x="471.720471" xlink:href="#m974375e0df" y="256.68"/>
      </g>
     </g>
     <g id="text_39">
      <!-- 8 -->
      <defs>
       <path d="M 31.78125 34.625 
Q 24.75 34.625 20.71875 30.859375 
Q 16.703125 27.09375 16.703125 20.515625 
Q 16.703125 13.921875 20.71875 10.15625 
Q 24.75 6.390625 31.78125 6.390625 
Q 38.8125 6.390625 42.859375 10.171875 
Q 46.921875 13.96875 46.921875 20.515625 
Q 46.921875 27.09375 42.890625 30.859375 
Q 38.875 34.625 31.78125 34.625 
z
M 21.921875 38.8125 
Q 15.578125 40.375 12.03125 44.71875 
Q 8.5 49.078125 8.5 55.328125 
Q 8.5 64.0625 14.71875 69.140625 
Q 20.953125 74.21875 31.78125 74.21875 
Q 42.671875 74.21875 48.875 69.140625 
Q 55.078125 64.0625 55.078125 55.328125 
Q 55.078125 49.078125 51.53125 44.71875 
Q 48 40.375 41.703125 38.8125 
Q 48.828125 37.15625 52.796875 32.3125 
Q 56.78125 27.484375 56.78125 20.515625 
Q 56.78125 9.90625 50.3125 4.234375 
Q 43.84375 -1.421875 31.78125 -1.421875 
Q 19.734375 -1.421875 13.25 4.234375 
Q 6.78125 9.90625 6.78125 20.515625 
Q 6.78125 27.484375 10.78125 32.3125 
Q 14.796875 37.15625 21.921875 38.8125 
z
M 18.3125 54.390625 
Q 18.3125 48.734375 21.84375 45.5625 
Q 25.390625 42.390625 31.78125 42.390625 
Q 38.140625 42.390625 41.71875 45.5625 
Q 45.3125 48.734375 45.3125 54.390625 
Q 45.3125 60.0625 41.71875 63.234375 
Q 38.140625 66.40625 31.78125 66.40625 
Q 25.390625 66.40625 21.84375 63.234375 
Q 18.3125 60.0625 18.3125 54.390625 
z
" id="DejaVuSans-56"/>
      </defs>
      <g transform="translate(468.539221 271.278437)scale(0.1 -0.1)">
       <use xlink:href="#DejaVuSans-56"/>
      </g>
     </g>
    </g>
    <g id="xtick_40">
     <g id="line2d_40">
      <g>
       <use style="stroke:#000000;stroke-width:0.8;" x="482.088089" xlink:href="#m974375e0df" y="256.68"/>
      </g>
     </g>
     <g id="text_40">
      <!-- ) -->
      <defs>
       <path d="M 8.015625 75.875 
L 15.828125 75.875 
Q 23.140625 64.359375 26.78125 53.3125 
Q 30.421875 42.28125 30.421875 31.390625 
Q 30.421875 20.453125 26.78125 9.375 
Q 23.140625 -1.703125 15.828125 -13.1875 
L 8.015625 -13.1875 
Q 14.5 -2 17.703125 9.0625 
Q 20.90625 20.125 20.90625 31.390625 
Q 20.90625 42.671875 17.703125 53.65625 
Q 14.5 64.65625 8.015625 75.875 
z
" id="DejaVuSans-41"/>
      </defs>
      <g transform="translate(480.137308 271.278437)scale(0.1 -0.1)">
       <use xlink:href="#DejaVuSans-41"/>
      </g>
     </g>
    </g>
    <g id="xtick_41">
     <g id="line2d_41">
      <g>
       <use style="stroke:#000000;stroke-width:0.8;" x="492.455707" xlink:href="#m974375e0df" y="256.68"/>
      </g>
     </g>
     <g id="text_41">
      <!-- ' -->
      <defs>
       <path d="M 17.921875 72.90625 
L 17.921875 45.796875 
L 9.625 45.796875 
L 9.625 72.90625 
z
" id="DejaVuSans-39"/>
      </defs>
      <g transform="translate(491.081488 271.278437)scale(0.1 -0.1)">
       <use xlink:href="#DejaVuSans-39"/>
      </g>
     </g>
    </g>
    <g id="xtick_42">
     <g id="line2d_42">
      <g>
       <use style="stroke:#000000;stroke-width:0.8;" x="502.823324" xlink:href="#m974375e0df" y="256.68"/>
      </g>
     </g>
     <g id="text_42">
      <!-- q -->
      <defs>
       <path d="M 14.796875 27.296875 
Q 14.796875 17.390625 18.875 11.75 
Q 22.953125 6.109375 30.078125 6.109375 
Q 37.203125 6.109375 41.296875 11.75 
Q 45.40625 17.390625 45.40625 27.296875 
Q 45.40625 37.203125 41.296875 42.84375 
Q 37.203125 48.484375 30.078125 48.484375 
Q 22.953125 48.484375 18.875 42.84375 
Q 14.796875 37.203125 14.796875 27.296875 
z
M 45.40625 8.203125 
Q 42.578125 3.328125 38.25 0.953125 
Q 33.9375 -1.421875 27.875 -1.421875 
Q 17.96875 -1.421875 11.734375 6.484375 
Q 5.515625 14.40625 5.515625 27.296875 
Q 5.515625 40.1875 11.734375 48.09375 
Q 17.96875 56 27.875 56 
Q 33.9375 56 38.25 53.625 
Q 42.578125 51.265625 45.40625 46.390625 
L 45.40625 54.6875 
L 54.390625 54.6875 
L 54.390625 -20.796875 
L 45.40625 -20.796875 
z
" id="DejaVuSans-113"/>
      </defs>
      <g transform="translate(499.649106 271.278437)scale(0.1 -0.1)">
       <use xlink:href="#DejaVuSans-113"/>
      </g>
     </g>
    </g>
    <g id="xtick_43">
     <g id="line2d_43">
      <g>
       <use style="stroke:#000000;stroke-width:0.8;" x="513.190942" xlink:href="#m974375e0df" y="256.68"/>
      </g>
     </g>
     <g id="text_43">
      <!-- [ -->
      <defs>
       <path d="M 8.59375 75.984375 
L 29.296875 75.984375 
L 29.296875 69 
L 17.578125 69 
L 17.578125 -6.203125 
L 29.296875 -6.203125 
L 29.296875 -13.1875 
L 8.59375 -13.1875 
z
" id="DejaVuSans-91"/>
      </defs>
      <g transform="translate(511.240161 271.278437)scale(0.1 -0.1)">
       <use xlink:href="#DejaVuSans-91"/>
      </g>
     </g>
    </g>
    <g id="xtick_44">
     <g id="line2d_44">
      <g>
       <use style="stroke:#000000;stroke-width:0.8;" x="523.55856" xlink:href="#m974375e0df" y="256.68"/>
      </g>
     </g>
     <g id="text_44">
      <!-- - -->
      <defs>
       <path d="M 4.890625 31.390625 
L 31.203125 31.390625 
L 31.203125 23.390625 
L 4.890625 23.390625 
z
" id="DejaVuSans-45"/>
      </defs>
      <g transform="translate(521.754654 271.278437)scale(0.1 -0.1)">
       <use xlink:href="#DejaVuSans-45"/>
      </g>
     </g>
    </g>
    <g id="xtick_45">
     <g id="line2d_45">
      <g>
       <use style="stroke:#000000;stroke-width:0.8;" x="533.926178" xlink:href="#m974375e0df" y="256.68"/>
      </g>
     </g>
     <g id="text_45">
      <!-- 5 -->
      <defs>
       <path d="M 10.796875 72.90625 
L 49.515625 72.90625 
L 49.515625 64.59375 
L 19.828125 64.59375 
L 19.828125 46.734375 
Q 21.96875 47.46875 24.109375 47.828125 
Q 26.265625 48.1875 28.421875 48.1875 
Q 40.625 48.1875 47.75 41.5 
Q 54.890625 34.8125 54.890625 23.390625 
Q 54.890625 11.625 47.5625 5.09375 
Q 40.234375 -1.421875 26.90625 -1.421875 
Q 22.3125 -1.421875 17.546875 -0.640625 
Q 12.796875 0.140625 7.71875 1.703125 
L 7.71875 11.625 
Q 12.109375 9.234375 16.796875 8.0625 
Q 21.484375 6.890625 26.703125 6.890625 
Q 35.15625 6.890625 40.078125 11.328125 
Q 45.015625 15.765625 45.015625 23.390625 
Q 45.015625 31 40.078125 35.4375 
Q 35.15625 39.890625 26.703125 39.890625 
Q 22.75 39.890625 18.8125 39.015625 
Q 14.890625 38.140625 10.796875 36.28125 
z
" id="DejaVuSans-53"/>
      </defs>
      <g transform="translate(530.744928 271.278437)scale(0.1 -0.1)">
       <use xlink:href="#DejaVuSans-53"/>
      </g>
     </g>
    </g>
    <g id="xtick_46">
     <g id="line2d_46">
      <g>
       <use style="stroke:#000000;stroke-width:0.8;" x="544.293796" xlink:href="#m974375e0df" y="256.68"/>
      </g>
     </g>
     <g id="text_46">
      <!-- _ -->
      <defs>
       <path d="M 50.984375 -16.609375 
L 50.984375 -23.578125 
L -0.984375 -23.578125 
L -0.984375 -16.609375 
z
" id="DejaVuSans-95"/>
      </defs>
      <g transform="translate(541.793796 271.000313)scale(0.1 -0.1)">
       <use xlink:href="#DejaVuSans-95"/>
      </g>
     </g>
    </g>
    <g id="xtick_47">
     <g id="line2d_47">
      <g>
       <use style="stroke:#000000;stroke-width:0.8;" x="554.661413" xlink:href="#m974375e0df" y="256.68"/>
      </g>
     </g>
     <g id="text_47">
      <!-- % -->
      <defs>
       <path d="M 72.703125 32.078125 
Q 68.453125 32.078125 66.03125 28.46875 
Q 63.625 24.859375 63.625 18.40625 
Q 63.625 12.0625 66.03125 8.421875 
Q 68.453125 4.78125 72.703125 4.78125 
Q 76.859375 4.78125 79.265625 8.421875 
Q 81.6875 12.0625 81.6875 18.40625 
Q 81.6875 24.8125 79.265625 28.4375 
Q 76.859375 32.078125 72.703125 32.078125 
z
M 72.703125 38.28125 
Q 80.421875 38.28125 84.953125 32.90625 
Q 89.5 27.546875 89.5 18.40625 
Q 89.5 9.28125 84.9375 3.921875 
Q 80.375 -1.421875 72.703125 -1.421875 
Q 64.890625 -1.421875 60.34375 3.921875 
Q 55.8125 9.28125 55.8125 18.40625 
Q 55.8125 27.59375 60.375 32.9375 
Q 64.9375 38.28125 72.703125 38.28125 
z
M 22.3125 68.015625 
Q 18.109375 68.015625 15.6875 64.375 
Q 13.28125 60.75 13.28125 54.390625 
Q 13.28125 47.953125 15.671875 44.328125 
Q 18.0625 40.71875 22.3125 40.71875 
Q 26.5625 40.71875 28.96875 44.328125 
Q 31.390625 47.953125 31.390625 54.390625 
Q 31.390625 60.6875 28.953125 64.34375 
Q 26.515625 68.015625 22.3125 68.015625 
z
M 66.40625 74.21875 
L 74.21875 74.21875 
L 28.609375 -1.421875 
L 20.796875 -1.421875 
z
M 22.3125 74.21875 
Q 30.03125 74.21875 34.609375 68.875 
Q 39.203125 63.53125 39.203125 54.390625 
Q 39.203125 45.171875 34.640625 39.84375 
Q 30.078125 34.515625 22.3125 34.515625 
Q 14.546875 34.515625 10.03125 39.859375 
Q 5.515625 45.21875 5.515625 54.390625 
Q 5.515625 63.484375 10.046875 68.84375 
Q 14.59375 74.21875 22.3125 74.21875 
z
" id="DejaVuSans-37"/>
      </defs>
      <g transform="translate(549.910632 271.278437)scale(0.1 -0.1)">
       <use xlink:href="#DejaVuSans-37"/>
      </g>
     </g>
    </g>
    <g id="xtick_48">
     <g id="line2d_48">
      <g>
       <use style="stroke:#000000;stroke-width:0.8;" x="565.029031" xlink:href="#m974375e0df" y="256.68"/>
      </g>
     </g>
     <g id="text_48">
      <!-- z -->
      <defs>
       <path d="M 5.515625 54.6875 
L 48.1875 54.6875 
L 48.1875 46.484375 
L 14.40625 7.171875 
L 48.1875 7.171875 
L 48.1875 0 
L 4.296875 0 
L 4.296875 8.203125 
L 38.09375 47.515625 
L 5.515625 47.515625 
z
" id="DejaVuSans-122"/>
      </defs>
      <g transform="translate(562.404812 271.278437)scale(0.1 -0.1)">
       <use xlink:href="#DejaVuSans-122"/>
      </g>
     </g>
    </g>
    <g id="xtick_49">
     <g id="line2d_49">
      <g>
       <use style="stroke:#000000;stroke-width:0.8;" x="575.396649" xlink:href="#m974375e0df" y="256.68"/>
      </g>
     </g>
     <g id="text_49">
      <!-- 7 -->
      <defs>
       <path d="M 8.203125 72.90625 
L 55.078125 72.90625 
L 55.078125 68.703125 
L 28.609375 0 
L 18.3125 0 
L 43.21875 64.59375 
L 8.203125 64.59375 
z
" id="DejaVuSans-55"/>
      </defs>
      <g transform="translate(572.215399 271.278437)scale(0.1 -0.1)">
       <use xlink:href="#DejaVuSans-55"/>
      </g>
     </g>
    </g>
    <g id="xtick_50">
     <g id="line2d_50">
      <g>
       <use style="stroke:#000000;stroke-width:0.8;" x="585.764267" xlink:href="#m974375e0df" y="256.68"/>
      </g>
     </g>
     <g id="text_50">
      <!-- = -->
      <defs>
       <path d="M 10.59375 45.40625 
L 73.1875 45.40625 
L 73.1875 37.203125 
L 10.59375 37.203125 
z
M 10.59375 25.484375 
L 73.1875 25.484375 
L 73.1875 17.1875 
L 10.59375 17.1875 
z
" id="DejaVuSans-61"/>
      </defs>
      <g transform="translate(581.574423 271.278437)scale(0.1 -0.1)">
       <use xlink:href="#DejaVuSans-61"/>
      </g>
     </g>
    </g>
    <g id="xtick_51">
     <g id="line2d_51">
      <g>
       <use style="stroke:#000000;stroke-width:0.8;" x="596.131885" xlink:href="#m974375e0df" y="256.68"/>
      </g>
     </g>
     <g id="text_51">
      <!-- } -->
      <defs>
       <path d="M 12.5 -9.28125 
L 15.921875 -9.28125 
Q 22.75 -9.28125 24.828125 -7.171875 
Q 26.90625 -5.078125 26.90625 1.90625 
L 26.90625 14.015625 
Q 26.90625 21.625 29.09375 25.09375 
Q 31.296875 28.5625 36.71875 29.890625 
Q 31.296875 31.109375 29.09375 34.5625 
Q 26.90625 38.03125 26.90625 45.703125 
L 26.90625 57.8125 
Q 26.90625 64.75 24.828125 66.875 
Q 22.75 69 15.921875 69 
L 12.5 69 
L 12.5 75.984375 
L 15.578125 75.984375 
Q 27.734375 75.984375 31.8125 72.390625 
Q 35.890625 68.796875 35.890625 58.015625 
L 35.890625 46.296875 
Q 35.890625 39.015625 38.515625 36.203125 
Q 41.15625 33.40625 48.09375 33.40625 
L 51.125 33.40625 
L 51.125 26.421875 
L 48.09375 26.421875 
Q 41.15625 26.421875 38.515625 23.578125 
Q 35.890625 20.75 35.890625 13.375 
L 35.890625 1.703125 
Q 35.890625 -9.078125 31.8125 -12.6875 
Q 27.734375 -16.3125 15.578125 -16.3125 
L 12.5 -16.3125 
z
" id="DejaVuSans-125"/>
      </defs>
      <g transform="translate(592.950635 271.278437)scale(0.1 -0.1)">
       <use xlink:href="#DejaVuSans-125"/>
      </g>
     </g>
    </g>
    <g id="xtick_52">
     <g id="line2d_52">
      <g>
       <use style="stroke:#000000;stroke-width:0.8;" x="606.499502" xlink:href="#m974375e0df" y="256.68"/>
      </g>
     </g>
     <g id="text_52">
      <!-- * -->
      <defs>
       <path d="M 47.015625 60.890625 
L 29.5 51.421875 
L 47.015625 41.890625 
L 44.1875 37.109375 
L 27.78125 47.015625 
L 27.78125 28.609375 
L 22.21875 28.609375 
L 22.21875 47.015625 
L 5.8125 37.109375 
L 2.984375 41.890625 
L 20.515625 51.421875 
L 2.984375 60.890625 
L 5.8125 65.71875 
L 22.21875 55.8125 
L 22.21875 74.21875 
L 27.78125 74.21875 
L 27.78125 55.8125 
L 44.1875 65.71875 
z
" id="DejaVuSans-42"/>
      </defs>
      <g transform="translate(603.999502 271.278437)scale(0.1 -0.1)">
       <use xlink:href="#DejaVuSans-42"/>
      </g>
     </g>
    </g>
    <g id="xtick_53">
     <g id="line2d_53">
      <g>
       <use style="stroke:#000000;stroke-width:0.8;" x="616.86712" xlink:href="#m974375e0df" y="256.68"/>
      </g>
     </g>
     <g id="text_53">
      <!-- &gt; -->
      <defs>
       <path d="M 10.59375 49.21875 
L 10.59375 58.109375 
L 73.1875 35.40625 
L 73.1875 27.296875 
L 10.59375 4.59375 
L 10.59375 13.484375 
L 60.890625 31.296875 
z
" id="DejaVuSans-62"/>
      </defs>
      <g transform="translate(612.677276 271.278437)scale(0.1 -0.1)">
       <use xlink:href="#DejaVuSans-62"/>
      </g>
     </g>
    </g>
    <g id="xtick_54">
     <g id="line2d_54">
      <g>
       <use style="stroke:#000000;stroke-width:0.8;" x="627.234738" xlink:href="#m974375e0df" y="256.68"/>
      </g>
     </g>
     <g id="text_54">
      <!-- { -->
      <defs>
       <path d="M 51.125 -9.28125 
L 51.125 -16.3125 
L 48.09375 -16.3125 
Q 35.9375 -16.3125 31.8125 -12.6875 
Q 27.6875 -9.078125 27.6875 1.703125 
L 27.6875 13.375 
Q 27.6875 20.75 25.046875 23.578125 
Q 22.40625 26.421875 15.484375 26.421875 
L 12.5 26.421875 
L 12.5 33.40625 
L 15.484375 33.40625 
Q 22.46875 33.40625 25.078125 36.203125 
Q 27.6875 39.015625 27.6875 46.296875 
L 27.6875 58.015625 
Q 27.6875 68.796875 31.8125 72.390625 
Q 35.9375 75.984375 48.09375 75.984375 
L 51.125 75.984375 
L 51.125 69 
L 47.796875 69 
Q 40.921875 69 38.8125 66.84375 
Q 36.71875 64.703125 36.71875 57.8125 
L 36.71875 45.703125 
Q 36.71875 38.03125 34.5 34.5625 
Q 32.28125 31.109375 26.90625 29.890625 
Q 32.328125 28.5625 34.515625 25.09375 
Q 36.71875 21.625 36.71875 14.015625 
L 36.71875 1.90625 
Q 36.71875 -4.984375 38.8125 -7.125 
Q 40.921875 -9.28125 47.796875 -9.28125 
z
" id="DejaVuSans-123"/>
      </defs>
      <g transform="translate(624.053488 271.278437)scale(0.1 -0.1)">
       <use xlink:href="#DejaVuSans-123"/>
      </g>
     </g>
    </g>
    <g id="xtick_55">
     <g id="line2d_55">
      <g>
       <use style="stroke:#000000;stroke-width:0.8;" x="637.602356" xlink:href="#m974375e0df" y="256.68"/>
      </g>
     </g>
     <g id="text_55">
      <!-- ] -->
      <defs>
       <path d="M 30.421875 75.984375 
L 30.421875 -13.1875 
L 9.71875 -13.1875 
L 9.71875 -6.203125 
L 21.390625 -6.203125 
L 21.390625 69 
L 9.71875 69 
L 9.71875 75.984375 
z
" id="DejaVuSans-93"/>
      </defs>
      <g transform="translate(635.651574 271.278437)scale(0.1 -0.1)">
       <use xlink:href="#DejaVuSans-93"/>
      </g>
     </g>
    </g>
    <g id="xtick_56">
     <g id="line2d_56">
      <g>
       <use style="stroke:#000000;stroke-width:0.8;" x="647.969973" xlink:href="#m974375e0df" y="256.68"/>
      </g>
     </g>
     <g id="text_56">
      <!-- # -->
      <defs>
       <path d="M 51.125 44 
L 36.921875 44 
L 32.8125 27.6875 
L 47.125 27.6875 
z
M 43.796875 71.78125 
L 38.71875 51.515625 
L 52.984375 51.515625 
L 58.109375 71.78125 
L 65.921875 71.78125 
L 60.890625 51.515625 
L 76.125 51.515625 
L 76.125 44 
L 58.984375 44 
L 54.984375 27.6875 
L 70.515625 27.6875 
L 70.515625 20.21875 
L 53.078125 20.21875 
L 48 0 
L 40.1875 0 
L 45.21875 20.21875 
L 30.90625 20.21875 
L 25.875 0 
L 18.015625 0 
L 23.09375 20.21875 
L 7.71875 20.21875 
L 7.71875 27.6875 
L 24.90625 27.6875 
L 29 44 
L 13.28125 44 
L 13.28125 51.515625 
L 30.90625 51.515625 
L 35.890625 71.78125 
z
" id="DejaVuSans-35"/>
      </defs>
      <g transform="translate(643.78013 271.278437)scale(0.1 -0.1)">
       <use xlink:href="#DejaVuSans-35"/>
      </g>
     </g>
    </g>
    <g id="xtick_57">
     <g id="line2d_57">
      <g>
       <use style="stroke:#000000;stroke-width:0.8;" x="658.337591" xlink:href="#m974375e0df" y="256.68"/>
      </g>
     </g>
     <g id="text_57">
      <!-- ? -->
      <defs>
       <path d="M 19.09375 12.40625 
L 29 12.40625 
L 29 0 
L 19.09375 0 
z
M 28.71875 19.578125 
L 19.390625 19.578125 
L 19.390625 27.09375 
Q 19.390625 32.03125 20.75 35.203125 
Q 22.125 38.375 26.515625 42.578125 
L 30.90625 46.921875 
Q 33.6875 49.515625 34.9375 51.8125 
Q 36.1875 54.109375 36.1875 56.5 
Q 36.1875 60.84375 32.984375 63.53125 
Q 29.78125 66.21875 24.515625 66.21875 
Q 20.65625 66.21875 16.28125 64.5 
Q 11.921875 62.796875 7.171875 59.515625 
L 7.171875 68.703125 
Q 11.765625 71.484375 16.46875 72.84375 
Q 21.1875 74.21875 26.21875 74.21875 
Q 35.203125 74.21875 40.640625 69.484375 
Q 46.09375 64.75 46.09375 56.984375 
Q 46.09375 53.265625 44.328125 49.921875 
Q 42.578125 46.578125 38.1875 42.390625 
L 33.890625 38.1875 
Q 31.59375 35.890625 30.640625 34.59375 
Q 29.6875 33.296875 29.296875 32.078125 
Q 29 31.0625 28.859375 29.59375 
Q 28.71875 28.125 28.71875 25.59375 
z
" id="DejaVuSans-63"/>
      </defs>
      <g transform="translate(655.683685 271.278437)scale(0.1 -0.1)">
       <use xlink:href="#DejaVuSans-63"/>
      </g>
     </g>
    </g>
    <g id="xtick_58">
     <g id="line2d_58">
      <g>
       <use style="stroke:#000000;stroke-width:0.8;" x="668.705209" xlink:href="#m974375e0df" y="256.68"/>
      </g>
     </g>
     <g id="text_58">
      <!-- ; -->
      <defs>
       <path d="M 11.71875 51.703125 
L 22.015625 51.703125 
L 22.015625 39.3125 
L 11.71875 39.3125 
z
M 11.71875 12.40625 
L 22.015625 12.40625 
L 22.015625 4 
L 14.015625 -11.625 
L 7.71875 -11.625 
L 11.71875 4 
z
" id="DejaVuSans-59"/>
      </defs>
      <g transform="translate(667.020834 271.278437)scale(0.1 -0.1)">
       <use xlink:href="#DejaVuSans-59"/>
      </g>
     </g>
    </g>
    <g id="xtick_59">
     <g id="line2d_59">
      <g>
       <use style="stroke:#000000;stroke-width:0.8;" x="679.072827" xlink:href="#m974375e0df" y="256.68"/>
      </g>
     </g>
     <g id="text_59">
      <!-- 6 -->
      <defs>
       <path d="M 33.015625 40.375 
Q 26.375 40.375 22.484375 35.828125 
Q 18.609375 31.296875 18.609375 23.390625 
Q 18.609375 15.53125 22.484375 10.953125 
Q 26.375 6.390625 33.015625 6.390625 
Q 39.65625 6.390625 43.53125 10.953125 
Q 47.40625 15.53125 47.40625 23.390625 
Q 47.40625 31.296875 43.53125 35.828125 
Q 39.65625 40.375 33.015625 40.375 
z
M 52.59375 71.296875 
L 52.59375 62.3125 
Q 48.875 64.0625 45.09375 64.984375 
Q 41.3125 65.921875 37.59375 65.921875 
Q 27.828125 65.921875 22.671875 59.328125 
Q 17.53125 52.734375 16.796875 39.40625 
Q 19.671875 43.65625 24.015625 45.921875 
Q 28.375 48.1875 33.59375 48.1875 
Q 44.578125 48.1875 50.953125 41.515625 
Q 57.328125 34.859375 57.328125 23.390625 
Q 57.328125 12.15625 50.6875 5.359375 
Q 44.046875 -1.421875 33.015625 -1.421875 
Q 20.359375 -1.421875 13.671875 8.265625 
Q 6.984375 17.96875 6.984375 36.375 
Q 6.984375 53.65625 15.1875 63.9375 
Q 23.390625 74.21875 37.203125 74.21875 
Q 40.921875 74.21875 44.703125 73.484375 
Q 48.484375 72.75 52.59375 71.296875 
z
" id="DejaVuSans-54"/>
      </defs>
      <g transform="translate(675.891577 271.278437)scale(0.1 -0.1)">
       <use xlink:href="#DejaVuSans-54"/>
      </g>
     </g>
    </g>
    <g id="xtick_60">
     <g id="line2d_60">
      <g>
       <use style="stroke:#000000;stroke-width:0.8;" x="689.440445" xlink:href="#m974375e0df" y="256.68"/>
      </g>
     </g>
     <g id="text_60">
      <!-- &lt; -->
      <defs>
       <path d="M 73.1875 49.21875 
L 22.796875 31.296875 
L 73.1875 13.484375 
L 73.1875 4.59375 
L 10.59375 27.296875 
L 10.59375 35.40625 
L 73.1875 58.109375 
z
" id="DejaVuSans-60"/>
      </defs>
      <g transform="translate(685.250601 271.278437)scale(0.1 -0.1)">
       <use xlink:href="#DejaVuSans-60"/>
      </g>
     </g>
    </g>
    <g id="xtick_61">
     <g id="line2d_61">
      <g>
       <use style="stroke:#000000;stroke-width:0.8;" x="699.808062" xlink:href="#m974375e0df" y="256.68"/>
      </g>
     </g>
     <g id="text_61">
      <!-- ~ -->
      <defs>
       <path d="M 73.1875 39.890625 
L 73.1875 31.203125 
Q 68.0625 27.34375 63.6875 25.6875 
Q 59.328125 24.03125 54.59375 24.03125 
Q 49.21875 24.03125 42.09375 26.90625 
Q 41.546875 27.09375 41.3125 27.203125 
Q 40.96875 27.34375 40.234375 27.59375 
Q 32.671875 30.609375 28.078125 30.609375 
Q 23.78125 30.609375 19.578125 28.734375 
Q 15.375 26.859375 10.59375 22.796875 
L 10.59375 31.5 
Q 15.71875 35.359375 20.09375 37.03125 
Q 24.46875 38.71875 29.203125 38.71875 
Q 34.578125 38.71875 41.75 35.796875 
Q 42.234375 35.59375 42.484375 35.5 
Q 42.875 35.359375 43.5625 35.109375 
Q 51.125 32.078125 55.71875 32.078125 
Q 59.90625 32.078125 64.03125 33.9375 
Q 68.171875 35.796875 73.1875 39.890625 
z
" id="DejaVuSans-126"/>
      </defs>
      <g transform="translate(695.618219 271.278437)scale(0.1 -0.1)">
       <use xlink:href="#DejaVuSans-126"/>
      </g>
     </g>
    </g>
    <g id="xtick_62">
     <g id="line2d_62">
      <g>
       <use style="stroke:#000000;stroke-width:0.8;" x="710.17568" xlink:href="#m974375e0df" y="256.68"/>
      </g>
     </g>
     <g id="text_62">
      <!-- ! -->
      <defs>
       <path d="M 15.09375 12.40625 
L 25 12.40625 
L 25 0 
L 15.09375 0 
z
M 15.09375 72.90625 
L 25 72.90625 
L 25 40.921875 
L 24.03125 23.484375 
L 16.109375 23.484375 
L 15.09375 40.921875 
z
" id="DejaVuSans-33"/>
      </defs>
      <g transform="translate(708.170993 271.278437)scale(0.1 -0.1)">
       <use xlink:href="#DejaVuSans-33"/>
      </g>
     </g>
    </g>
    <g id="xtick_63">
     <g id="line2d_63">
      <g>
       <use style="stroke:#000000;stroke-width:0.8;" x="720.543298" xlink:href="#m974375e0df" y="256.68"/>
      </g>
     </g>
     <g id="text_63">
      <!-- \ -->
      <defs>
       <path d="M 8.296875 72.90625 
L 33.6875 -9.28125 
L 25.390625 -9.28125 
L 0 72.90625 
z
" id="DejaVuSans-92"/>
      </defs>
      <g transform="translate(718.858923 271.278437)scale(0.1 -0.1)">
       <use xlink:href="#DejaVuSans-92"/>
      </g>
     </g>
    </g>
    <g id="xtick_64">
     <g id="line2d_64">
      <g>
       <use style="stroke:#000000;stroke-width:0.8;" x="730.910916" xlink:href="#m974375e0df" y="256.68"/>
      </g>
     </g>
     <g id="text_64">
      <!-- + -->
      <defs>
       <path d="M 46 62.703125 
L 46 35.5 
L 73.1875 35.5 
L 73.1875 27.203125 
L 46 27.203125 
L 46 0 
L 37.796875 0 
L 37.796875 27.203125 
L 10.59375 27.203125 
L 10.59375 35.5 
L 37.796875 35.5 
L 37.796875 62.703125 
z
" id="DejaVuSans-43"/>
      </defs>
      <g transform="translate(726.721072 271.278437)scale(0.1 -0.1)">
       <use xlink:href="#DejaVuSans-43"/>
      </g>
     </g>
    </g>
    <g id="xtick_65">
     <g id="line2d_65">
      <g>
       <use style="stroke:#000000;stroke-width:0.8;" x="741.278534" xlink:href="#m974375e0df" y="256.68"/>
      </g>
     </g>
     <g id="text_65">
      <!-- @ -->
      <defs>
       <path d="M 37.203125 26.21875 
Q 37.203125 19.234375 40.671875 15.25 
Q 44.140625 11.28125 50.203125 11.28125 
Q 56.203125 11.28125 59.640625 15.28125 
Q 63.09375 19.28125 63.09375 26.21875 
Q 63.09375 33.0625 59.578125 37.078125 
Q 56.0625 41.109375 50.09375 41.109375 
Q 44.1875 41.109375 40.6875 37.109375 
Q 37.203125 33.109375 37.203125 26.21875 
z
M 63.8125 11.625 
Q 60.890625 7.859375 57.109375 6.078125 
Q 53.328125 4.296875 48.296875 4.296875 
Q 39.890625 4.296875 34.640625 10.375 
Q 29.390625 16.453125 29.390625 26.21875 
Q 29.390625 35.984375 34.65625 42.078125 
Q 39.9375 48.1875 48.296875 48.1875 
Q 53.328125 48.1875 57.125 46.359375 
Q 60.9375 44.53125 63.8125 40.828125 
L 63.8125 47.21875 
L 70.796875 47.21875 
L 70.796875 11.28125 
Q 77.9375 12.359375 81.953125 17.796875 
Q 85.984375 23.25 85.984375 31.890625 
Q 85.984375 37.109375 84.4375 41.703125 
Q 82.90625 46.296875 79.78125 50.203125 
Q 74.703125 56.59375 67.40625 59.984375 
Q 60.109375 63.375 51.515625 63.375 
Q 45.515625 63.375 39.984375 61.78125 
Q 34.46875 60.203125 29.78125 57.078125 
Q 22.125 52.09375 17.796875 44.015625 
Q 13.484375 35.9375 13.484375 26.515625 
Q 13.484375 18.75 16.28125 11.953125 
Q 19.09375 5.171875 24.421875 0 
Q 29.546875 -5.078125 36.28125 -7.734375 
Q 43.015625 -10.40625 50.6875 -10.40625 
Q 56.984375 -10.40625 63.0625 -8.28125 
Q 69.140625 -6.15625 74.21875 -2.203125 
L 78.609375 -7.625 
Q 72.515625 -12.359375 65.3125 -14.875 
Q 58.109375 -17.390625 50.6875 -17.390625 
Q 41.65625 -17.390625 33.640625 -14.1875 
Q 25.640625 -10.984375 19.390625 -4.890625 
Q 13.140625 1.21875 9.859375 9.25 
Q 6.59375 17.28125 6.59375 26.515625 
Q 6.59375 35.40625 9.90625 43.453125 
Q 13.234375 51.515625 19.390625 57.625 
Q 25.6875 63.8125 33.9375 67.109375 
Q 42.1875 70.40625 51.421875 70.40625 
Q 61.765625 70.40625 70.625 66.15625 
Q 79.5 61.921875 85.5 54.109375 
Q 89.15625 49.3125 91.078125 43.703125 
Q 93.015625 38.09375 93.015625 32.078125 
Q 93.015625 19.234375 85.25 11.8125 
Q 77.484375 4.390625 63.8125 4.109375 
z
" id="DejaVuSans-64"/>
      </defs>
      <g transform="translate(736.278534 271.278437)scale(0.1 -0.1)">
       <use xlink:href="#DejaVuSans-64"/>
      </g>
     </g>
    </g>
    <g id="xtick_66">
     <g id="line2d_66">
      <g>
       <use style="stroke:#000000;stroke-width:0.8;" x="751.646151" xlink:href="#m974375e0df" y="256.68"/>
      </g>
     </g>
     <g id="text_66">
      <!-- &amp; -->
      <defs>
       <path d="M 24.3125 39.203125 
Q 19.875 35.25 17.796875 31.3125 
Q 15.71875 27.390625 15.71875 23.09375 
Q 15.71875 15.96875 20.890625 11.234375 
Q 26.078125 6.5 33.890625 6.5 
Q 38.53125 6.5 42.578125 8.03125 
Q 46.625 9.578125 50.203125 12.703125 
z
M 31.203125 44.671875 
L 56 19.28125 
Q 58.890625 23.640625 60.5 28.59375 
Q 62.109375 33.546875 62.40625 39.109375 
L 71.484375 39.109375 
Q 70.90625 32.671875 68.359375 26.359375 
Q 65.828125 20.0625 61.28125 13.921875 
L 74.90625 0 
L 62.59375 0 
L 55.609375 7.171875 
Q 50.53125 2.828125 44.96875 0.703125 
Q 39.40625 -1.421875 33.015625 -1.421875 
Q 21.234375 -1.421875 13.765625 5.296875 
Q 6.296875 12.015625 6.296875 22.515625 
Q 6.296875 28.765625 9.5625 34.25 
Q 12.84375 39.75 19.390625 44.578125 
Q 17.046875 47.65625 15.8125 50.703125 
Q 14.59375 53.765625 14.59375 56.6875 
Q 14.59375 64.59375 20.015625 69.40625 
Q 25.4375 74.21875 34.421875 74.21875 
Q 38.484375 74.21875 42.5 73.34375 
Q 46.53125 72.46875 50.6875 70.703125 
L 50.6875 61.8125 
Q 46.4375 64.109375 42.578125 65.296875 
Q 38.71875 66.5 35.40625 66.5 
Q 30.28125 66.5 27.078125 63.78125 
Q 23.875 61.078125 23.875 56.78125 
Q 23.875 54.296875 25.3125 51.78125 
Q 26.765625 49.265625 31.203125 44.671875 
z
" id="DejaVuSans-38"/>
      </defs>
      <g transform="translate(747.746933 271.278437)scale(0.1 -0.1)">
       <use xlink:href="#DejaVuSans-38"/>
      </g>
     </g>
    </g>
    <g id="xtick_67">
     <g id="line2d_67">
      <g>
       <use style="stroke:#000000;stroke-width:0.8;" x="762.013769" xlink:href="#m974375e0df" y="256.68"/>
      </g>
     </g>
     <g id="text_67">
      <!-- | -->
      <defs>
       <path d="M 21 76.421875 
L 21 -23.578125 
L 12.703125 -23.578125 
L 12.703125 76.421875 
z
" id="DejaVuSans-124"/>
      </defs>
      <g transform="translate(760.329394 271.322187)scale(0.1 -0.1)">
       <use xlink:href="#DejaVuSans-124"/>
      </g>
     </g>
    </g>
    <g id="xtick_68">
     <g id="line2d_68">
      <g>
       <use style="stroke:#000000;stroke-width:0.8;" x="772.381387" xlink:href="#m974375e0df" y="256.68"/>
      </g>
     </g>
     <g id="text_68">
      <!-- ` -->
      <defs>
       <path d="M 17.921875 79.984375 
L 31.6875 61.71875 
L 24.21875 61.71875 
L 8.296875 79.984375 
z
" id="DejaVuSans-96"/>
      </defs>
      <g transform="translate(769.881387 271.278437)scale(0.1 -0.1)">
       <use xlink:href="#DejaVuSans-96"/>
      </g>
     </g>
    </g>
    <g id="xtick_69">
     <g id="line2d_69">
      <g>
       <use style="stroke:#000000;stroke-width:0.8;" x="782.749005" xlink:href="#m974375e0df" y="256.68"/>
      </g>
     </g>
     <g id="text_69">
      <!-- ^ -->
      <defs>
       <path d="M 46.6875 72.90625 
L 73.1875 45.703125 
L 63.375 45.703125 
L 41.890625 64.984375 
L 20.40625 45.703125 
L 10.59375 45.703125 
L 37.109375 72.90625 
z
" id="DejaVuSans-94"/>
      </defs>
      <g transform="translate(778.559161 271.278437)scale(0.1 -0.1)">
       <use xlink:href="#DejaVuSans-94"/>
      </g>
     </g>
    </g>
   </g>
   <g id="matplotlib.axis_2">
    <g id="ytick_1">
     <g id="line2d_70">
      <defs>
       <path d="M 0 0 
L -3.5 0 
" id="mef80bcfccb" style="stroke:#000000;stroke-width:0.8;"/>
      </defs>
      <g>
       <use style="stroke:#000000;stroke-width:0.8;" x="39.65" xlink:href="#mef80bcfccb" y="256.68"/>
      </g>
     </g>
     <g id="text_70">
      <!-- 0 -->
      <g transform="translate(26.2875 260.479219)scale(0.1 -0.1)">
       <use xlink:href="#DejaVuSans-48"/>
      </g>
     </g>
    </g>
    <g id="ytick_2">
     <g id="line2d_71">
      <g>
       <use style="stroke:#000000;stroke-width:0.8;" x="39.65" xlink:href="#mef80bcfccb" y="224.778818"/>
      </g>
     </g>
     <g id="text_71">
      <!-- 500 -->
      <g transform="translate(13.5625 228.578037)scale(0.1 -0.1)">
       <use xlink:href="#DejaVuSans-53"/>
       <use x="63.623047" xlink:href="#DejaVuSans-48"/>
       <use x="127.246094" xlink:href="#DejaVuSans-48"/>
      </g>
     </g>
    </g>
    <g id="ytick_3">
     <g id="line2d_72">
      <g>
       <use style="stroke:#000000;stroke-width:0.8;" x="39.65" xlink:href="#mef80bcfccb" y="192.877637"/>
      </g>
     </g>
     <g id="text_72">
      <!-- 1000 -->
      <g transform="translate(7.2 196.676856)scale(0.1 -0.1)">
       <use xlink:href="#DejaVuSans-49"/>
       <use x="63.623047" xlink:href="#DejaVuSans-48"/>
       <use x="127.246094" xlink:href="#DejaVuSans-48"/>
       <use x="190.869141" xlink:href="#DejaVuSans-48"/>
      </g>
     </g>
    </g>
    <g id="ytick_4">
     <g id="line2d_73">
      <g>
       <use style="stroke:#000000;stroke-width:0.8;" x="39.65" xlink:href="#mef80bcfccb" y="160.976455"/>
      </g>
     </g>
     <g id="text_73">
      <!-- 1500 -->
      <g transform="translate(7.2 164.775674)scale(0.1 -0.1)">
       <use xlink:href="#DejaVuSans-49"/>
       <use x="63.623047" xlink:href="#DejaVuSans-53"/>
       <use x="127.246094" xlink:href="#DejaVuSans-48"/>
       <use x="190.869141" xlink:href="#DejaVuSans-48"/>
      </g>
     </g>
    </g>
    <g id="ytick_5">
     <g id="line2d_74">
      <g>
       <use style="stroke:#000000;stroke-width:0.8;" x="39.65" xlink:href="#mef80bcfccb" y="129.075274"/>
      </g>
     </g>
     <g id="text_74">
      <!-- 2000 -->
      <g transform="translate(7.2 132.874493)scale(0.1 -0.1)">
       <use xlink:href="#DejaVuSans-50"/>
       <use x="63.623047" xlink:href="#DejaVuSans-48"/>
       <use x="127.246094" xlink:href="#DejaVuSans-48"/>
       <use x="190.869141" xlink:href="#DejaVuSans-48"/>
      </g>
     </g>
    </g>
    <g id="ytick_6">
     <g id="line2d_75">
      <g>
       <use style="stroke:#000000;stroke-width:0.8;" x="39.65" xlink:href="#mef80bcfccb" y="97.174092"/>
      </g>
     </g>
     <g id="text_75">
      <!-- 2500 -->
      <g transform="translate(7.2 100.973311)scale(0.1 -0.1)">
       <use xlink:href="#DejaVuSans-50"/>
       <use x="63.623047" xlink:href="#DejaVuSans-53"/>
       <use x="127.246094" xlink:href="#DejaVuSans-48"/>
       <use x="190.869141" xlink:href="#DejaVuSans-48"/>
      </g>
     </g>
    </g>
    <g id="ytick_7">
     <g id="line2d_76">
      <g>
       <use style="stroke:#000000;stroke-width:0.8;" x="39.65" xlink:href="#mef80bcfccb" y="65.272911"/>
      </g>
     </g>
     <g id="text_76">
      <!-- 3000 -->
      <g transform="translate(7.2 69.07213)scale(0.1 -0.1)">
       <use xlink:href="#DejaVuSans-51"/>
       <use x="63.623047" xlink:href="#DejaVuSans-48"/>
       <use x="127.246094" xlink:href="#DejaVuSans-48"/>
       <use x="190.869141" xlink:href="#DejaVuSans-48"/>
      </g>
     </g>
    </g>
    <g id="ytick_8">
     <g id="line2d_77">
      <g>
       <use style="stroke:#000000;stroke-width:0.8;" x="39.65" xlink:href="#mef80bcfccb" y="33.371729"/>
      </g>
     </g>
     <g id="text_77">
      <!-- 3500 -->
      <g transform="translate(7.2 37.170948)scale(0.1 -0.1)">
       <use xlink:href="#DejaVuSans-51"/>
       <use x="63.623047" xlink:href="#DejaVuSans-53"/>
       <use x="127.246094" xlink:href="#DejaVuSans-48"/>
       <use x="190.869141" xlink:href="#DejaVuSans-48"/>
      </g>
     </g>
    </g>
   </g>
   <g id="patch_72">
    <path d="M 39.65 256.68 
L 39.65 7.2 
" style="fill:none;stroke:#000000;stroke-linecap:square;stroke-linejoin:miter;stroke-width:0.8;"/>
   </g>
   <g id="patch_73">
    <path d="M 820.85 256.68 
L 820.85 7.2 
" style="fill:none;"/>
   </g>
   <g id="patch_74">
    <path d="M 39.65 256.68 
L 820.85 256.68 
" style="fill:none;stroke:#000000;stroke-linecap:square;stroke-linejoin:miter;stroke-width:0.8;"/>
   </g>
   <g id="patch_75">
    <path d="M 39.65 7.2 
L 820.85 7.2 
" style="fill:none;"/>
   </g>
  </g>
 </g>
 <defs>
  <clipPath id="p56b0497bd6">
   <rect height="249.48" width="781.2" x="39.65" y="7.2"/>
  </clipPath>
 </defs>
</svg>
