<?xml version="1.0" encoding="UTF-8" standalone="no"?>
<!DOCTYPE svg PUBLIC "-//W3C//DTD SVG 1.1//EN"
 "http://www.w3.org/Graphics/SVG/1.1/DTD/svg11.dtd">
<!-- Generated by graphviz version 12.2.1 (0)
 -->
<!-- Title: G Pages: 1 -->
<svg width="641pt" height="530pt"
 viewBox="0.00 0.00 641.13 529.61" xmlns="http://www.w3.org/2000/svg" xmlns:xlink="http://www.w3.org/1999/xlink">
<g id="graph0" class="graph" transform="scale(1 1) rotate(0) translate(4 525.61)">
<title>G</title>
<g id="clust1" class="cluster">
<title>cluster_office</title>
<polygon fill="none" stroke="black" stroke-dasharray="1,5" points="0,-7.49 0,-219.99 296.45,-219.99 296.45,-7.49 0,-7.49"/>
<text text-anchor="middle" x="148.22" y="-202.69" font-family="Times,serif" font-size="14.00">My office</text>
</g>
<g id="clust2" class="cluster">
<title>cluster_storage</title>
<polygon fill="none" stroke="black" stroke-dasharray="1,5" points="336.35,-192.75 336.35,-395.25 561.49,-395.25 561.49,-192.75 336.35,-192.75"/>
<text text-anchor="middle" x="448.92" y="-377.95" font-family="Times,serif" font-size="14.00">Storage room</text>
</g>
<g id="clust3" class="cluster">
<title>cluster_vardagsrum</title>
<polygon fill="none" stroke="black" stroke-dasharray="1,5" points="339,0 339,-184.5 633.13,-184.5 633.13,0 339,0"/>
<text text-anchor="middle" x="486.07" y="-167.2" font-family="Times,serif" font-size="14.00">Living room</text>
</g>
<g id="clust4" class="cluster">
<title>cluster_washingroom</title>
<polygon fill="none" stroke="black" stroke-dasharray="1,5" points="157.04,-445.11 157.04,-521.61 324.88,-521.61 324.88,-445.11 157.04,-445.11"/>
<text text-anchor="middle" x="240.96" y="-504.31" font-family="Times,serif" font-size="14.00">Washing room</text>
</g>
<g id="clust5" class="cluster">
<title>cluster_vindan</title>
<polygon fill="none" stroke="black" stroke-dasharray="1,5" points="401.76,-405.74 401.76,-482.24 569.6,-482.24 569.6,-405.74 401.76,-405.74"/>
<text text-anchor="middle" x="485.68" y="-464.94" font-family="Times,serif" font-size="14.00">Attic</text>
</g>
<g id="clust6" class="cluster">
<title>cluster_ute</title>
<polygon fill="none" stroke="black" stroke-dasharray="1,5" points="1.66,-233.92 1.66,-310.42 110.13,-310.42 110.13,-233.92 1.66,-233.92"/>
<text text-anchor="middle" x="55.9" y="-293.12" font-family="Times,serif" font-size="14.00">Outside</text>
</g>
<!-- router -->
<g id="node1" class="node router">
<title>router</title>
<ellipse fill="none" stroke="black" cx="398.11" cy="-344.75" rx="32.93" ry="18"/>
<text text-anchor="middle" x="398.11" y="-339.7" font-family="Times,serif" font-size="14.00">router</text>
</g>
<!-- switch_storage -->
<g id="node7" class="node">
<title>switch_storage</title>
<ellipse fill="none" stroke="black" cx="410.55" cy="-275.28" rx="66.19" ry="18"/>
<text text-anchor="middle" x="410.55" y="-270.23" font-family="Times,serif" font-size="14.00">switch_storage</text>
</g>
<!-- router&#45;&gt;switch_storage -->
<g id="edge1" class="edge">
<title>router&#45;&gt;switch_storage</title>
<path fill="none" stroke="black" d="M401.38,-326.5C403.19,-316.37 405.44,-303.8 407.26,-293.66"/>
</g>
<!-- switch_office -->
<g id="node2" class="node switch">
<title>switch_office</title>
<ellipse fill="none" stroke="black" cx="99.27" cy="-89.39" rx="91.27" ry="18"/>
<text text-anchor="middle" x="99.27" y="-84.34" font-family="Times,serif" font-size="14.00">switch | 192.168.1.38</text>
</g>
<!-- ap_office -->
<g id="node3" class="node ap">
<title>ap_office</title>
<ellipse fill="none" stroke="black" cx="212.53" cy="-145.49" rx="75.92" ry="18"/>
<text text-anchor="middle" x="212.53" y="-140.44" font-family="Times,serif" font-size="14.00">ap | 192.168.1.21</text>
</g>
<!-- switch_office&#45;&gt;ap_office -->
<g id="edge10" class="edge">
<title>switch_office&#45;&gt;ap_office</title>
<path fill="none" stroke="black" d="M133.56,-106.37C148.01,-113.53 164.78,-121.83 179.13,-128.94"/>
</g>
<!-- trident -->
<g id="node12" class="node">
<title>trident</title>
<ellipse fill="none" stroke="black" cx="83.53" cy="-169.49" rx="34.97" ry="18"/>
<text text-anchor="middle" x="83.53" y="-164.44" font-family="Times,serif" font-size="14.00">trident</text>
</g>
<!-- switch_office&#45;&gt;trident -->
<g id="edge11" class="edge">
<title>switch_office&#45;&gt;trident</title>
<path fill="none" stroke="black" d="M95.7,-107.56C93.14,-120.58 89.71,-138.04 87.14,-151.1"/>
</g>
<!-- solaredge -->
<g id="node13" class="node">
<title>solaredge</title>
<ellipse fill="none" stroke="black" cx="55.9" cy="-259.92" rx="46.23" ry="18"/>
<text text-anchor="middle" x="55.9" y="-254.87" font-family="Times,serif" font-size="14.00">solaredge</text>
</g>
<!-- switch_office&#45;&gt;solaredge -->
<g id="edge12" class="edge">
<title>switch_office&#45;&gt;solaredge</title>
<path fill="none" stroke="black" d="M94.63,-107.64C86.3,-140.37 68.92,-208.71 60.57,-241.54"/>
</g>
<!-- winterfell -->
<g id="node14" class="node">
<title>winterfell</title>
<ellipse fill="none" stroke="black" cx="151.53" cy="-33.49" rx="46.75" ry="18"/>
<text text-anchor="middle" x="151.53" y="-28.44" font-family="Times,serif" font-size="14.00">winterfell</text>
</g>
<!-- switch_office&#45;&gt;winterfell -->
<g id="edge13" class="edge">
<title>switch_office&#45;&gt;winterfell</title>
<path fill="none" stroke="black" d="M116.09,-71.39C122.3,-64.75 129.31,-57.25 135.45,-50.69"/>
</g>
<!-- ap_vardagsrum -->
<g id="node4" class="node">
<title>ap_vardagsrum</title>
<ellipse fill="none" stroke="black" cx="549.21" cy="-134" rx="75.92" ry="18"/>
<text text-anchor="middle" x="549.21" y="-128.95" font-family="Times,serif" font-size="14.00">ap | 192.168.1.31</text>
</g>
<!-- ap_vindan -->
<g id="node5" class="node">
<title>ap_vindan</title>
<ellipse fill="none" stroke="black" cx="485.68" cy="-431.74" rx="75.92" ry="18"/>
<text text-anchor="middle" x="485.68" y="-426.69" font-family="Times,serif" font-size="14.00">ap | 192.168.1.11</text>
</g>
<!-- ap_washing_room -->
<g id="node6" class="node">
<title>ap_washing_room</title>
<ellipse fill="none" stroke="black" cx="240.96" cy="-471.11" rx="75.92" ry="18"/>
<text text-anchor="middle" x="240.96" y="-466.06" font-family="Times,serif" font-size="14.00">ap | 192.168.1.41</text>
</g>
<!-- switch_storage&#45;&gt;switch_office -->
<g id="edge2" class="edge">
<title>switch_storage&#45;&gt;switch_office</title>
<path fill="none" stroke="black" d="M382.65,-258.62C324.01,-223.6 188.43,-142.63 128.58,-106.89"/>
</g>
<!-- switch_storage&#45;&gt;ap_vindan -->
<g id="edge4" class="edge">
<title>switch_storage&#45;&gt;ap_vindan</title>
<path fill="none" stroke="black" d="M419.31,-293.54C433.79,-323.68 462.53,-383.53 476.97,-413.6"/>
</g>
<!-- switch_storage&#45;&gt;ap_washing_room -->
<g id="edge5" class="edge">
<title>switch_storage&#45;&gt;ap_washing_room</title>
<path fill="none" stroke="black" d="M395.2,-293.01C362.99,-330.2 288.68,-416.01 256.4,-453.28"/>
</g>
<!-- heat_pump -->
<g id="node8" class="node">
<title>heat_pump</title>
<ellipse fill="none" stroke="black" cx="501.11" cy="-330.75" rx="52.38" ry="18"/>
<text text-anchor="middle" x="501.11" y="-325.7" font-family="Times,serif" font-size="14.00">heat_pump</text>
</g>
<!-- switch_storage&#45;&gt;heat_pump -->
<g id="edge3" class="edge">
<title>switch_storage&#45;&gt;heat_pump</title>
<path fill="none" stroke="black" d="M437.72,-291.93C449.5,-299.14 463.23,-307.55 474.89,-314.69"/>
</g>
<!-- switch_vardagsrum -->
<g id="node9" class="node">
<title>switch_vardagsrum</title>
<ellipse fill="none" stroke="black" cx="430.6" cy="-79.92" rx="83.6" ry="18"/>
<text text-anchor="middle" x="430.6" y="-74.87" font-family="Times,serif" font-size="14.00">switch_vardagsrum</text>
</g>
<!-- switch_storage&#45;&gt;switch_vardagsrum -->
<g id="edge6" class="edge">
<title>switch_storage&#45;&gt;switch_vardagsrum</title>
<path fill="none" stroke="black" d="M412.43,-256.9C416.26,-219.67 424.87,-135.71 428.7,-98.39"/>
</g>
<!-- lannisport -->
<g id="node10" class="node">
<title>lannisport</title>
<ellipse fill="none" stroke="black" cx="462.11" cy="-218.75" rx="47.77" ry="18"/>
<text text-anchor="middle" x="462.11" y="-213.7" font-family="Times,serif" font-size="14.00">lannisport</text>
</g>
<!-- switch_storage&#45;&gt;lannisport -->
<g id="edge7" class="edge">
<title>switch_storage&#45;&gt;lannisport</title>
<path fill="none" stroke="black" d="M426.86,-257.4C433.12,-250.54 440.24,-242.74 446.43,-235.94"/>
</g>
<!-- switch_vardagsrum&#45;&gt;ap_vardagsrum -->
<g id="edge8" class="edge">
<title>switch_vardagsrum&#45;&gt;ap_vardagsrum</title>
<path fill="none" stroke="black" d="M466.83,-96.44C481.68,-103.21 498.82,-111.03 513.61,-117.77"/>
</g>
<!-- highgarden -->
<g id="node11" class="node">
<title>highgarden</title>
<ellipse fill="none" stroke="black" cx="489.21" cy="-26" rx="52.38" ry="18"/>
<text text-anchor="middle" x="489.21" y="-20.95" font-family="Times,serif" font-size="14.00">highgarden</text>
</g>
<!-- switch_vardagsrum&#45;&gt;highgarden -->
<g id="edge9" class="edge">
<title>switch_vardagsrum&#45;&gt;highgarden</title>
<path fill="none" stroke="black" d="M450.11,-61.97C456.77,-55.84 464.2,-49.01 470.77,-42.96"/>
</g>
</g>
</svg>
