<svg width='317px'
       class='keymap leftie'
       height='290x'
       viewBox='0 0 317 290'
       xmlns='http://www.w3.org/2000/svg'
       xmlns:xlink="http://www.w3.org/1999/xlink">

 <style type='text/css'>
    .keycap .border { stroke: black; stroke-width: 1; }
    .keycap .inner.border { stroke: rgba(0,0,0,.1); }
    .keycap { font-family: sans-serif; font-size: 11px }
    .keycap .sub { font-size: 9px }
    .combos .keycap { font-size: 8px }
  </style>
    <g class="keycap combo_background">
      <rect x="10" y="60.22"
            width="54" height="54"
            rx="5" fill="#f7f0ea" class="outer border"/>
      <rect x="16" y="64.22"
            width="42" height="42"
            rx="5" fill="#fff7f1" class="inner border"/>

</g>
    <g class="keycap combo_background">
      <rect x="64" y="26.74"
            width="54" height="54"
            rx="5" fill="#f7f0ea" class="outer border"/>
      <rect x="70" y="30.74"
            width="42" height="42"
            rx="5" fill="#fff7f1" class="inner border"/>

</g>
    <g class="keycap combo_background">
      <rect x="118" y="10"
            width="54" height="54"
            rx="5" fill="#f7f0ea" class="outer border"/>
      <rect x="124" y="14"
            width="42" height="42"
            rx="5" fill="#fff7f1" class="inner border"/>

</g>
    <g class="keycap combo_background">
      <rect x="172" y="25.119999"
            width="54" height="54"
            rx="5" fill="#f7f0ea" class="outer border"/>
      <rect x="178" y="29.119999"
            width="42" height="42"
            rx="5" fill="#fff7f1" class="inner border"/>

</g>
    <g class="keycap combo_background">
      <rect x="226" y="32.68"
            width="54" height="54"
            rx="5" fill="#f7f0ea" class="outer border"/>
      <rect x="232" y="36.68"
            width="42" height="42"
            rx="5" fill="#fff7f1" class="inner border"/>

</g>
    <g class="keycap management">
      <rect x="10" y="125.020004"
            width="54" height="54"
            rx="5" fill="#c8b29d" class="outer border"/>
      <rect x="16" y="129.02"
            width="42" height="42"
            rx="5" fill="#d0b9a3" class="inner border"/>

<text x="37" y="150.02" text-anchor="middle" dominant-baseline="middle" class="main">
<tspan x="37" dy="0">N</tspan>
</text>
</g>
    <g class="keycap management">
      <rect x="64" y="80.74"
            width="54" height="54"
            rx="5" fill="#c8b29d" class="outer border"/>
      <rect x="70" y="84.74"
            width="42" height="42"
            rx="5" fill="#d0b9a3" class="inner border"/>

<text x="91" y="105.74" text-anchor="middle" dominant-baseline="middle" class="main">
<tspan x="91" dy="0">S</tspan>
</text>
</g>
    <g class="keycap management">
      <rect x="118" y="64"
            width="54" height="54"
            rx="5" fill="#c8b29d" class="outer border"/>
      <rect x="124" y="68"
            width="42" height="42"
            rx="5" fill="#d0b9a3" class="inner border"/>

<text x="145" y="89" text-anchor="middle" dominant-baseline="middle" class="main">
<tspan x="145" dy="0">R</tspan>
</text>
</g>
    <g class="keycap management">
      <rect x="172" y="79.119995"
            width="54" height="54"
            rx="5" fill="#c8b29d" class="outer border"/>
      <rect x="178" y="83.119995"
            width="42" height="42"
            rx="5" fill="#d0b9a3" class="inner border"/>

<text x="199" y="104.119995" text-anchor="middle" dominant-baseline="middle" class="main">
<tspan x="199" dy="0">H</tspan>
</text>
</g>
    <g class="keycap combo_background">
      <rect x="226" y="86.68"
            width="54" height="54"
            rx="5" fill="#f7f0ea" class="outer border"/>
      <rect x="232" y="90.68"
            width="42" height="42"
            rx="5" fill="#fff7f1" class="inner border"/>

</g>
    <g class="keycap combo_background">
      <rect x="10" y="179.02"
            width="54" height="54"
            rx="5" fill="#f7f0ea" class="outer border"/>
      <rect x="16" y="183.02"
            width="42" height="42"
            rx="5" fill="#fff7f1" class="inner border"/>

</g>
    <g class="keycap combo_background">
      <rect x="64" y="134.73999"
            width="54" height="54"
            rx="5" fill="#f7f0ea" class="outer border"/>
      <rect x="70" y="138.73999"
            width="42" height="42"
            rx="5" fill="#fff7f1" class="inner border"/>

</g>
    <g class="keycap combo_background">
      <rect x="118" y="118"
            width="54" height="54"
            rx="5" fill="#f7f0ea" class="outer border"/>
      <rect x="124" y="122"
            width="42" height="42"
            rx="5" fill="#fff7f1" class="inner border"/>

</g>
    <g class="keycap combo_background">
      <rect x="172" y="133.12"
            width="54" height="54"
            rx="5" fill="#f7f0ea" class="outer border"/>
      <rect x="178" y="137.12"
            width="42" height="42"
            rx="5" fill="#fff7f1" class="inner border"/>

</g>
    <g class="keycap combo_background">
      <rect x="226" y="140.68001"
            width="54" height="54"
            rx="5" fill="#f7f0ea" class="outer border"/>
      <rect x="232" y="144.68001"
            width="42" height="42"
            rx="5" fill="#fff7f1" class="inner border"/>

</g>
    <g class="keycap combo_background">
      <rect x="64" y="188.73999"
            width="54" height="54"
            rx="5" fill="#f7f0ea" class="outer border"/>
      <rect x="70" y="192.73999"
            width="42" height="42"
            rx="5" fill="#fff7f1" class="inner border"/>

</g>
    <g class="keycap combo_background">
      <rect x="118" y="172"
            width="54" height="54"
            rx="5" fill="#f7f0ea" class="outer border"/>
      <rect x="124" y="176"
            width="42" height="42"
            rx="5" fill="#fff7f1" class="inner border"/>

</g>
    <g class="keycap combo_background">
      <rect x="199" y="212.5"
            width="54" height="54"
            rx="5" fill="#f7f0ea" class="outer border"/>
      <rect x="205" y="216.5"
            width="42" height="42"
            rx="5" fill="#fff7f1" class="inner border"/>

</g>
    <g class="keycap management">
      <rect x="253" y="226"
            width="54" height="54"
            rx="5" fill="#c8b29d" class="outer border"/>
      <rect x="259" y="230"
            width="42" height="42"
            rx="5" fill="#d0b9a3" class="inner border"/>

<text x="280" y="251" text-anchor="middle" dominant-baseline="middle" class="main">
<tspan x="280" dy="0">Space</tspan>
</text>
<text x="280" y="278.2" text-anchor="middle" class="sub">NAV</text>
</g>
    <g class="keycap management">
      <rect x="121.5" y="171"
            width="120" height="18"
            rx="4" fill="#c8b29d" class="outer border"/>
      <rect x="123" y="172"
            width="117" height="14.5"
            rx="4" fill="#d0b9a3" class="inner border"/>

<text x="181.5" y="179.25" text-anchor="middle" dominant-baseline="middle" class="main">
<tspan x="181.5" dy="0">Clear</tspan>
</text>
</g>
</svg>
