<svg width='668px'
       height='290x'
       viewBox='0 0 668 290'
       xmlns='http://www.w3.org/2000/svg'
       xmlns:xlink="http://www.w3.org/1999/xlink">

 <style type='text/css'>
    .keycap .border { stroke: black; stroke-width: 1; }
    .keycap .inner.border { stroke: rgba(0,0,0,.1); }
    .keycap { font-family: sans-serif; font-size: 11px}
    .keycap .sub { font-size: 9px}
  </style>
    <g class="keycap mod_implicit">
      <rect x="10" y="60.22"
            width="54" height="54"
            rx="5" fill="#739797" class="outer border"/>
      <rect x="16" y="64.22"
            width="42" height="42"
            rx="5" fill="#90adad" class="inner border"/>

<text x="37" y="85.22" text-anchor="middle" dominant-baseline="middle" class="main">
<tspan x="37" dy="0">Gui J</tspan>
</text>
</g>
    <g class="keycap default">
      <rect x="64" y="26.74"
            width="54" height="54"
            rx="5" fill="#c1a78e" class="outer border"/>
      <rect x="70" y="30.74"
            width="42" height="42"
            rx="5" fill="#d3c1af" class="inner border"/>

<text x="91" y="51.739998" text-anchor="middle" dominant-baseline="middle" class="main">
<tspan x="91" dy="0">←</tspan>
</text>
</g>
    <g class="keycap default">
      <rect x="118" y="10"
            width="54" height="54"
            rx="5" fill="#c1a78e" class="outer border"/>
      <rect x="124" y="14"
            width="42" height="42"
            rx="5" fill="#d3c1af" class="inner border"/>

<text x="145" y="35" text-anchor="middle" dominant-baseline="middle" class="main">
<tspan x="145" dy="0">↑</tspan>
</text>
</g>
    <g class="keycap default">
      <rect x="172" y="25.119999"
            width="54" height="54"
            rx="5" fill="#c1a78e" class="outer border"/>
      <rect x="178" y="29.119999"
            width="42" height="42"
            rx="5" fill="#d3c1af" class="inner border"/>

<text x="199" y="50.12" text-anchor="middle" dominant-baseline="middle" class="main">
<tspan x="199" dy="0">→</tspan>
</text>
</g>
    <g class="keycap default">
      <rect x="226" y="32.68"
            width="54" height="54"
            rx="5" fill="#c1a78e" class="outer border"/>
      <rect x="232" y="36.68"
            width="42" height="42"
            rx="5" fill="#d3c1af" class="inner border"/>

<text x="253" y="57.68" text-anchor="middle" dominant-baseline="middle" class="main">
<tspan x="253" dy="0">Home</tspan>
</text>
</g>
    <g class="keycap blank">
      <rect x="388" y="32.68"
            width="54" height="54"
            rx="5" fill="#e9e1db" class="outer border"/>
      <rect x="394" y="36.68"
            width="42" height="42"
            rx="5" fill="#fcfbfb" class="inner border"/>

</g>
    <g class="keycap mod_implicit">
      <rect x="442" y="25.119999"
            width="54" height="54"
            rx="5" fill="#739797" class="outer border"/>
      <rect x="448" y="29.119999"
            width="42" height="42"
            rx="5" fill="#90adad" class="inner border"/>

<text x="469" y="50.12" text-anchor="middle" dominant-baseline="middle" class="main">
<tspan x="469" dy="0">Gui W</tspan>
</text>
</g>
    <g class="keycap mod_implicit">
      <rect x="496" y="10"
            width="54" height="54"
            rx="5" fill="#739797" class="outer border"/>
      <rect x="502" y="14"
            width="42" height="42"
            rx="5" fill="#90adad" class="inner border"/>

<text x="523" y="35" text-anchor="middle" dominant-baseline="middle" class="main">
<tspan x="523" dy="0">Gui E</tspan>
</text>
</g>
    <g class="keycap mod_implicit">
      <rect x="550" y="26.74"
            width="54" height="54"
            rx="5" fill="#739797" class="outer border"/>
      <rect x="556" y="30.74"
            width="42" height="42"
            rx="5" fill="#90adad" class="inner border"/>

<text x="577" y="51.739998" text-anchor="middle" dominant-baseline="middle" class="main">
<tspan x="577" dy="0">Gui R</tspan>
</text>
</g>
    <g class="keycap blank">
      <rect x="604" y="60.22"
            width="54" height="54"
            rx="5" fill="#e9e1db" class="outer border"/>
      <rect x="610" y="64.22"
            width="42" height="42"
            rx="5" fill="#fcfbfb" class="inner border"/>

</g>
    <g class="keycap default">
      <rect x="10" y="114.21999"
            width="54" height="54"
            rx="5" fill="#c1a78e" class="outer border"/>
      <rect x="16" y="118.21999"
            width="42" height="42"
            rx="5" fill="#d3c1af" class="inner border"/>

<text x="37" y="139.22" text-anchor="middle" dominant-baseline="middle" class="main">
<tspan x="37" dy="0">PgUp</tspan>
</text>
</g>
    <g class="keycap mod_implicit">
      <rect x="64" y="80.74"
            width="54" height="54"
            rx="5" fill="#739797" class="outer border"/>
      <rect x="70" y="84.74"
            width="42" height="42"
            rx="5" fill="#90adad" class="inner border"/>

<text x="91" y="93.74" text-anchor="middle" dominant-baseline="middle" class="main">
<tspan x="91" dy="0">Ctrl</tspan>
<tspan x="91" dy="12">Shift</tspan>
<tspan x="91" dy="12">Tab</tspan>
</text>
</g>
    <g class="keycap mod_down">
      <rect x="118" y="64"
            width="54" height="54"
            rx="5" fill="#85b695" class="outer border"/>
      <rect x="124" y="68"
            width="42" height="42"
            rx="5" fill="#a5c9b1" class="inner border"/>

<text x="145" y="89" text-anchor="middle" dominant-baseline="middle" class="main">
<tspan x="145" dy="0">↓</tspan>
</text>
<text x="145" y="116.2" text-anchor="middle" class="sub">Ctrl</text>
</g>
    <g class="keycap mod_implicit">
      <rect x="172" y="79.119995"
            width="54" height="54"
            rx="5" fill="#739797" class="outer border"/>
      <rect x="178" y="83.119995"
            width="42" height="42"
            rx="5" fill="#90adad" class="inner border"/>

<text x="199" y="98.119995" text-anchor="middle" dominant-baseline="middle" class="main">
<tspan x="199" dy="0">Ctrl</tspan>
<tspan x="199" dy="12">Tab</tspan>
</text>
</g>
    <g class="keycap mod_implicit">
      <rect x="226" y="86.68"
            width="54" height="54"
            rx="5" fill="#739797" class="outer border"/>
      <rect x="232" y="90.68"
            width="42" height="42"
            rx="5" fill="#90adad" class="inner border"/>

<text x="253" y="111.68" text-anchor="middle" dominant-baseline="middle" class="main">
<tspan x="253" dy="0">Gui K</tspan>
</text>
</g>
    <g class="keycap blank">
      <rect x="388" y="86.68"
            width="54" height="54"
            rx="5" fill="#e9e1db" class="outer border"/>
      <rect x="394" y="90.68"
            width="42" height="42"
            rx="5" fill="#fcfbfb" class="inner border"/>

</g>
    <g class="keycap default">
      <rect x="442" y="79.119995"
            width="54" height="54"
            rx="5" fill="#c1a78e" class="outer border"/>
      <rect x="448" y="83.119995"
            width="42" height="42"
            rx="5" fill="#d3c1af" class="inner border"/>

<text x="469" y="104.119995" text-anchor="middle" dominant-baseline="middle" class="main">
<tspan x="469" dy="0">←</tspan>
</text>
</g>
    <g class="keycap default">
      <rect x="496" y="64"
            width="54" height="54"
            rx="5" fill="#c1a78e" class="outer border"/>
      <rect x="502" y="68"
            width="42" height="42"
            rx="5" fill="#d3c1af" class="inner border"/>

<text x="523" y="89" text-anchor="middle" dominant-baseline="middle" class="main">
<tspan x="523" dy="0">↓</tspan>
</text>
</g>
    <g class="keycap default">
      <rect x="550" y="80.74"
            width="54" height="54"
            rx="5" fill="#c1a78e" class="outer border"/>
      <rect x="556" y="84.74"
            width="42" height="42"
            rx="5" fill="#d3c1af" class="inner border"/>

<text x="577" y="105.74" text-anchor="middle" dominant-baseline="middle" class="main">
<tspan x="577" dy="0">↑</tspan>
</text>
</g>
    <g class="keycap default">
      <rect x="604" y="114.21999"
            width="54" height="54"
            rx="5" fill="#c1a78e" class="outer border"/>
      <rect x="610" y="118.21999"
            width="42" height="42"
            rx="5" fill="#d3c1af" class="inner border"/>

<text x="631" y="139.22" text-anchor="middle" dominant-baseline="middle" class="main">
<tspan x="631" dy="0">→</tspan>
</text>
</g>
    <g class="keycap layer_down">
      <rect x="10" y="168.22"
            width="54" height="54"
            rx="5" fill="#a3a9ce" class="outer border"/>
      <rect x="16" y="172.22"
            width="42" height="42"
            rx="5" fill="#c4c8e0" class="inner border"/>

<text x="37" y="187.22" text-anchor="middle" dominant-baseline="middle" class="main">
<tspan x="37" dy="0">Win</tspan>
<tspan x="37" dy="12">Alt</tspan>
</text>
</g>
    <g class="keycap blank">
      <rect x="64" y="134.73999"
            width="54" height="54"
            rx="5" fill="#e9e1db" class="outer border"/>
      <rect x="70" y="138.73999"
            width="42" height="42"
            rx="5" fill="#fcfbfb" class="inner border"/>

</g>
    <g class="keycap blank">
      <rect x="118" y="118"
            width="54" height="54"
            rx="5" fill="#e9e1db" class="outer border"/>
      <rect x="124" y="122"
            width="42" height="42"
            rx="5" fill="#fcfbfb" class="inner border"/>

</g>
    <g class="keycap default">
      <rect x="172" y="133.12"
            width="54" height="54"
            rx="5" fill="#c1a78e" class="outer border"/>
      <rect x="178" y="137.12"
            width="42" height="42"
            rx="5" fill="#d3c1af" class="inner border"/>

<text x="199" y="158.12" text-anchor="middle" dominant-baseline="middle" class="main">
<tspan x="199" dy="0">PgDn</tspan>
</text>
</g>
    <g class="keycap default">
      <rect x="226" y="140.68001"
            width="54" height="54"
            rx="5" fill="#c1a78e" class="outer border"/>
      <rect x="232" y="144.68001"
            width="42" height="42"
            rx="5" fill="#d3c1af" class="inner border"/>

<text x="253" y="165.68001" text-anchor="middle" dominant-baseline="middle" class="main">
<tspan x="253" dy="0">End</tspan>
</text>
</g>
    <g class="keycap blank">
      <rect x="388" y="140.68001"
            width="54" height="54"
            rx="5" fill="#e9e1db" class="outer border"/>
      <rect x="394" y="144.68001"
            width="42" height="42"
            rx="5" fill="#fcfbfb" class="inner border"/>

</g>
    <g class="keycap blank">
      <rect x="442" y="133.12"
            width="54" height="54"
            rx="5" fill="#e9e1db" class="outer border"/>
      <rect x="448" y="137.12"
            width="42" height="42"
            rx="5" fill="#fcfbfb" class="inner border"/>

</g>
    <g class="keycap blank">
      <rect x="496" y="118"
            width="54" height="54"
            rx="5" fill="#e9e1db" class="outer border"/>
      <rect x="502" y="122"
            width="42" height="42"
            rx="5" fill="#fcfbfb" class="inner border"/>

</g>
    <g class="keycap blank">
      <rect x="550" y="134.73999"
            width="54" height="54"
            rx="5" fill="#e9e1db" class="outer border"/>
      <rect x="556" y="138.73999"
            width="42" height="42"
            rx="5" fill="#fcfbfb" class="inner border"/>

</g>
    <g class="keycap blank">
      <rect x="604" y="168.22"
            width="54" height="54"
            rx="5" fill="#e9e1db" class="outer border"/>
      <rect x="610" y="172.22"
            width="42" height="42"
            rx="5" fill="#fcfbfb" class="inner border"/>

</g>
    <g class="keycap default">
      <rect x="64" y="188.73999"
            width="54" height="54"
            rx="5" fill="#c1a78e" class="outer border"/>
      <rect x="70" y="192.73999"
            width="42" height="42"
            rx="5" fill="#d3c1af" class="inner border"/>

<text x="91" y="207.73999" text-anchor="middle" dominant-baseline="middle" class="main">
<tspan x="91" dy="0">Back</tspan>
<tspan x="91" dy="12">Mouse</tspan>
</text>
</g>
    <g class="keycap default">
      <rect x="118" y="172"
            width="54" height="54"
            rx="5" fill="#c1a78e" class="outer border"/>
      <rect x="124" y="176"
            width="42" height="42"
            rx="5" fill="#d3c1af" class="inner border"/>

<text x="145" y="191" text-anchor="middle" dominant-baseline="middle" class="main">
<tspan x="145" dy="0">Fwd</tspan>
<tspan x="145" dy="12">Mouse</tspan>
</text>
</g>
    <g class="keycap blank">
      <rect x="199" y="212.5"
            width="54" height="54"
            rx="5" fill="#e9e1db" class="outer border"/>
      <rect x="205" y="216.5"
            width="42" height="42"
            rx="5" fill="#fcfbfb" class="inner border"/>

</g>
    <g class="keycap active_layer">
      <rect x="253" y="226"
            width="54" height="54"
            rx="5" fill="#d47766" class="outer border"/>
      <rect x="259" y="230"
            width="42" height="42"
            rx="5" fill="#df9a8e" class="inner border"/>

<text x="280" y="251" text-anchor="middle" dominant-baseline="middle" class="main">
<tspan x="280" dy="0">Space</tspan>
</text>
<text x="280" y="278.2" text-anchor="middle" class="sub">NAV</text>
</g>
    <g class="keycap layer_down">
      <rect x="361" y="226"
            width="54" height="54"
            rx="5" fill="#a3a9ce" class="outer border"/>
      <rect x="367" y="230"
            width="42" height="42"
            rx="5" fill="#c4c8e0" class="inner border"/>

<text x="388" y="251" text-anchor="middle" dominant-baseline="middle" class="main">
<tspan x="388" dy="0">WNAV</tspan>
</text>
</g>
</svg>