<svg width='740px'
    height='182x'
    viewBox='0 0 740 182'
    xmlns='http://www.w3.org/2000/svg'
    xmlns:xlink="http://www.w3.org/1999/xlink">

 <style type='text/css'>
    .legend .border { stroke: black; stroke-width: 1; }
    .legend .inner.border { stroke: rgba(0,0,0,.1); }
    .legend { font-family: sans-serif; font-size: 11px}
  </style>
<g class="legend default">

      <rect x="10" y="10"
            width="180" height="54"
            rx="5" fill="#e5c494" class="outer border"/>
      <rect x="16" y="14"
            width="168" height="42"
            rx="5" fill="#fff3c1" class="inner border"/>
    <text x="100" y="35" text-anchor="middle" dominant-baseline="middle">Shift &#x2F; Layer highlight</text>
    </g>

<g class="legend layer1">

      <rect x="190" y="10"
            width="180" height="54"
            rx="5" fill="#e5c494" class="outer border"/>
      <rect x="196" y="14"
            width="168" height="42"
            rx="5" fill="#fff3c1" class="inner border"/>
    <text x="280" y="35" text-anchor="middle" dominant-baseline="middle">Layer (one shot &#x2F; down)</text>
    </g>

<g class="legend mod1">

      <rect x="370" y="10"
            width="180" height="54"
            rx="5" fill="#e5c494" class="outer border"/>
      <rect x="376" y="14"
            width="168" height="42"
            rx="5" fill="#fff3c1" class="inner border"/>
    <text x="460" y="35" text-anchor="middle" dominant-baseline="middle">Modifier (one shot &#x2F; down)</text>
    </g>

<g class="legend management">

      <rect x="550" y="10"
            width="180" height="54"
            rx="5" fill="#e5c494" class="outer border"/>
      <rect x="556" y="14"
            width="168" height="42"
            rx="5" fill="#fff3c1" class="inner border"/>
    <text x="640" y="35" text-anchor="middle" dominant-baseline="middle">Management</text>
    </g>

<g class="legend active_layer">

      <rect x="10" y="64"
            width="180" height="54"
            rx="5" fill="#e5c494" class="outer border"/>
      <rect x="16" y="68"
            width="168" height="42"
            rx="5" fill="#fff3c1" class="inner border"/>
    <text x="100" y="89" text-anchor="middle" dominant-baseline="middle">Active key for layer</text>
    </g>

<g class="legend layer_down">

      <rect x="190" y="64"
            width="180" height="54"
            rx="5" fill="#e5c494" class="outer border"/>
      <rect x="196" y="68"
            width="168" height="42"
            rx="5" fill="#fff3c1" class="inner border"/>
    <text x="280" y="89" text-anchor="middle" dominant-baseline="middle">Layer (down)</text>
    </g>

<g class="legend mod_down">

      <rect x="370" y="64"
            width="180" height="54"
            rx="5" fill="#e5c494" class="outer border"/>
      <rect x="376" y="68"
            width="168" height="42"
            rx="5" fill="#fff3c1" class="inner border"/>
    <text x="460" y="89" text-anchor="middle" dominant-baseline="middle">Modifier (down)</text>
    </g>

<g class="legend dead_key">

      <rect x="550" y="64"
            width="180" height="54"
            rx="5" fill="#e5c494" class="outer border"/>
      <rect x="556" y="68"
            width="168" height="42"
            rx="5" fill="#fff3c1" class="inner border"/>
    <text x="640" y="89" text-anchor="middle" dominant-baseline="middle">Dead key</text>
    </g>

<g class="legend combo">

      <rect x="10" y="118"
            width="180" height="54"
            rx="5" fill="#e5c494" class="outer border"/>
      <rect x="16" y="122"
            width="168" height="42"
            rx="5" fill="#fff3c1" class="inner border"/>
    <text x="100" y="143" text-anchor="middle" dominant-baseline="middle">Combo</text>
    </g>

<g class="legend layer_toggle">

      <rect x="190" y="118"
            width="180" height="54"
            rx="5" fill="#e5c494" class="outer border"/>
      <rect x="196" y="122"
            width="168" height="42"
            rx="5" fill="#fff3c1" class="inner border"/>
    <text x="280" y="143" text-anchor="middle" dominant-baseline="middle">Layer (toggle)</text>
    </g>

<g class="legend mod_implicit">

      <rect x="370" y="118"
            width="180" height="54"
            rx="5" fill="#e5c494" class="outer border"/>
      <rect x="376" y="122"
            width="168" height="42"
            rx="5" fill="#fff3c1" class="inner border"/>
    <text x="460" y="143" text-anchor="middle" dominant-baseline="middle">Modifier (implicit)</text>
    </g>

<g class="legend special">

      <rect x="550" y="118"
            width="180" height="54"
            rx="5" fill="#e5c494" class="outer border"/>
      <rect x="556" y="122"
            width="168" height="42"
            rx="5" fill="#fff3c1" class="inner border"/>
    <text x="640" y="143" text-anchor="middle" dominant-baseline="middle">Special</text>
    </g>

</svg>