<svg width='668px'
       class='keymap cybershard'
       height='290x'
       viewBox='0 0 668 290'
       xmlns='http://www.w3.org/2000/svg'
       xmlns:xlink="http://www.w3.org/1999/xlink">

 <style type='text/css'>
    .keycap .border { stroke: black; stroke-width: 1; }
    .keycap .inner.border { stroke: rgba(0,0,0,.1); }
    .keycap { font-family: sans-serif; font-size: 11px }
    .keycap .sub { font-size: 9px }
    .combos .keycap { font-size: 8px }
  </style>
    <g class="keycap combo_background">
      <rect x="10" y="60.22"
            width="54" height="54"
            rx="5" fill="#f7f0ea" class="outer border"/>
      <rect x="16" y="64.22"
            width="42" height="42"
            rx="5" fill="#fff7f1" class="inner border"/>

</g>
    <g class="keycap combo_background">
      <rect x="64" y="26.74"
            width="54" height="54"
            rx="5" fill="#f7f0ea" class="outer border"/>
      <rect x="70" y="30.74"
            width="42" height="42"
            rx="5" fill="#fff7f1" class="inner border"/>

</g>
    <g class="keycap combo_background">
      <rect x="118" y="10"
            width="54" height="54"
            rx="5" fill="#f7f0ea" class="outer border"/>
      <rect x="124" y="14"
            width="42" height="42"
            rx="5" fill="#fff7f1" class="inner border"/>

</g>
    <g class="keycap combo_background">
      <rect x="172" y="25.119999"
            width="54" height="54"
            rx="5" fill="#f7f0ea" class="outer border"/>
      <rect x="178" y="29.119999"
            width="42" height="42"
            rx="5" fill="#fff7f1" class="inner border"/>

</g>
    <g class="keycap combo_background">
      <rect x="226" y="32.68"
            width="54" height="54"
            rx="5" fill="#f7f0ea" class="outer border"/>
      <rect x="232" y="36.68"
            width="42" height="42"
            rx="5" fill="#fff7f1" class="inner border"/>

</g>
    <g class="keycap combo_background">
      <rect x="388" y="32.68"
            width="54" height="54"
            rx="5" fill="#f7f0ea" class="outer border"/>
      <rect x="394" y="36.68"
            width="42" height="42"
            rx="5" fill="#fff7f1" class="inner border"/>

</g>
    <g class="keycap default">
      <rect x="442" y="25.119999"
            width="54" height="54"
            rx="5" fill="#f7e5c3" class="outer border"/>
      <rect x="448" y="29.119999"
            width="42" height="42"
            rx="5" fill="#ffecc9" class="inner border"/>

<text x="469" y="50.12" text-anchor="middle" dominant-baseline="middle" class="main">
<tspan x="469" dy="0">#</tspan>
</text>
</g>
    <g class="keycap default">
      <rect x="496" y="10"
            width="54" height="54"
            rx="5" fill="#f7e5c3" class="outer border"/>
      <rect x="502" y="14"
            width="42" height="42"
            rx="5" fill="#ffecc9" class="inner border"/>

<text x="523" y="35" text-anchor="middle" dominant-baseline="middle" class="main">
<tspan x="523" dy="0">@</tspan>
</text>
</g>
    <g class="keycap default">
      <rect x="550" y="26.74"
            width="54" height="54"
            rx="5" fill="#f7e5c3" class="outer border"/>
      <rect x="556" y="30.74"
            width="42" height="42"
            rx="5" fill="#ffecc9" class="inner border"/>

<text x="577" y="51.739998" text-anchor="middle" dominant-baseline="middle" class="main">
<tspan x="577" dy="0">^</tspan>
</text>
</g>
    <g class="keycap combo_background">
      <rect x="604" y="60.22"
            width="54" height="54"
            rx="5" fill="#f7f0ea" class="outer border"/>
      <rect x="610" y="64.22"
            width="42" height="42"
            rx="5" fill="#fff7f1" class="inner border"/>

</g>
    <g class="keycap default">
      <rect x="10" y="125.020004"
            width="54" height="54"
            rx="5" fill="#f7e5c3" class="outer border"/>
      <rect x="16" y="129.02"
            width="42" height="42"
            rx="5" fill="#ffecc9" class="inner border"/>

<text x="37" y="150.02" text-anchor="middle" dominant-baseline="middle" class="main">
<tspan x="37" dy="0">6</tspan>
</text>
</g>
    <g class="keycap default">
      <rect x="64" y="80.74"
            width="54" height="54"
            rx="5" fill="#f7e5c3" class="outer border"/>
      <rect x="70" y="84.74"
            width="42" height="42"
            rx="5" fill="#ffecc9" class="inner border"/>

<text x="91" y="105.74" text-anchor="middle" dominant-baseline="middle" class="main">
<tspan x="91" dy="0">4</tspan>
</text>
</g>
    <g class="keycap default">
      <rect x="118" y="64"
            width="54" height="54"
            rx="5" fill="#f7e5c3" class="outer border"/>
      <rect x="124" y="68"
            width="42" height="42"
            rx="5" fill="#ffecc9" class="inner border"/>

<text x="145" y="89" text-anchor="middle" dominant-baseline="middle" class="main">
<tspan x="145" dy="0">0</tspan>
</text>
</g>
    <g class="keycap default">
      <rect x="172" y="79.119995"
            width="54" height="54"
            rx="5" fill="#f7e5c3" class="outer border"/>
      <rect x="178" y="83.119995"
            width="42" height="42"
            rx="5" fill="#ffecc9" class="inner border"/>

<text x="199" y="104.119995" text-anchor="middle" dominant-baseline="middle" class="main">
<tspan x="199" dy="0">2</tspan>
</text>
</g>
    <g class="keycap default">
      <rect x="226" y="86.68"
            width="54" height="54"
            rx="5" fill="#f7e5c3" class="outer border"/>
      <rect x="232" y="90.68"
            width="42" height="42"
            rx="5" fill="#ffecc9" class="inner border"/>

<text x="253" y="111.68" text-anchor="middle" dominant-baseline="middle" class="main">
<tspan x="253" dy="0">É</tspan>
</text>
</g>
    <g class="keycap default">
      <rect x="388" y="86.68"
            width="54" height="54"
            rx="5" fill="#f7e5c3" class="outer border"/>
      <rect x="394" y="90.68"
            width="42" height="42"
            rx="5" fill="#ffecc9" class="inner border"/>

<text x="415" y="111.68" text-anchor="middle" dominant-baseline="middle" class="main">
<tspan x="415" dy="0">`</tspan>
</text>
</g>
    <g class="keycap default">
      <rect x="442" y="79.119995"
            width="54" height="54"
            rx="5" fill="#f7e5c3" class="outer border"/>
      <rect x="448" y="83.119995"
            width="42" height="42"
            rx="5" fill="#ffecc9" class="inner border"/>

<text x="469" y="104.119995" text-anchor="middle" dominant-baseline="middle" class="main">
<tspan x="469" dy="0">?</tspan>
</text>
</g>
    <g class="keycap default">
      <rect x="496" y="64"
            width="54" height="54"
            rx="5" fill="#f7e5c3" class="outer border"/>
      <rect x="502" y="68"
            width="42" height="42"
            rx="5" fill="#ffecc9" class="inner border"/>

<text x="523" y="89" text-anchor="middle" dominant-baseline="middle" class="main">
<tspan x="523" dy="0">[</tspan>
</text>
</g>
    <g class="keycap default">
      <rect x="550" y="80.74"
            width="54" height="54"
            rx="5" fill="#f7e5c3" class="outer border"/>
      <rect x="556" y="84.74"
            width="42" height="42"
            rx="5" fill="#ffecc9" class="inner border"/>

<text x="577" y="105.74" text-anchor="middle" dominant-baseline="middle" class="main">
<tspan x="577" dy="0">]</tspan>
</text>
</g>
    <g class="keycap combo_background">
      <rect x="604" y="125.020004"
            width="54" height="54"
            rx="5" fill="#f7f0ea" class="outer border"/>
      <rect x="610" y="129.02"
            width="42" height="42"
            rx="5" fill="#fff7f1" class="inner border"/>

</g>
    <g class="keycap combo_background">
      <rect x="10" y="179.02"
            width="54" height="54"
            rx="5" fill="#f7f0ea" class="outer border"/>
      <rect x="16" y="183.02"
            width="42" height="42"
            rx="5" fill="#fff7f1" class="inner border"/>

</g>
    <g class="keycap combo_background">
      <rect x="64" y="134.73999"
            width="54" height="54"
            rx="5" fill="#f7f0ea" class="outer border"/>
      <rect x="70" y="138.73999"
            width="42" height="42"
            rx="5" fill="#fff7f1" class="inner border"/>

</g>
    <g class="keycap combo_background">
      <rect x="118" y="118"
            width="54" height="54"
            rx="5" fill="#f7f0ea" class="outer border"/>
      <rect x="124" y="122"
            width="42" height="42"
            rx="5" fill="#fff7f1" class="inner border"/>

</g>
    <g class="keycap default">
      <rect x="172" y="133.12"
            width="54" height="54"
            rx="5" fill="#f7e5c3" class="outer border"/>
      <rect x="178" y="137.12"
            width="42" height="42"
            rx="5" fill="#ffecc9" class="inner border"/>

<text x="199" y="158.12" text-anchor="middle" dominant-baseline="middle" class="main">
<tspan x="199" dy="0">8</tspan>
</text>
</g>
    <g class="keycap combo_background">
      <rect x="226" y="140.68001"
            width="54" height="54"
            rx="5" fill="#f7f0ea" class="outer border"/>
      <rect x="232" y="144.68001"
            width="42" height="42"
            rx="5" fill="#fff7f1" class="inner border"/>

</g>
    <g class="keycap combo_background">
      <rect x="388" y="140.68001"
            width="54" height="54"
            rx="5" fill="#f7f0ea" class="outer border"/>
      <rect x="394" y="144.68001"
            width="42" height="42"
            rx="5" fill="#fff7f1" class="inner border"/>

</g>
    <g class="keycap default">
      <rect x="442" y="133.12"
            width="54" height="54"
            rx="5" fill="#f7e5c3" class="outer border"/>
      <rect x="448" y="137.12"
            width="42" height="42"
            rx="5" fill="#ffecc9" class="inner border"/>

<text x="469" y="158.12" text-anchor="middle" dominant-baseline="middle" class="main">
<tspan x="469" dy="0">&amp;</tspan>
</text>
</g>
    <g class="keycap default">
      <rect x="496" y="118"
            width="54" height="54"
            rx="5" fill="#f7e5c3" class="outer border"/>
      <rect x="502" y="122"
            width="42" height="42"
            rx="5" fill="#ffecc9" class="inner border"/>

<text x="523" y="143" text-anchor="middle" dominant-baseline="middle" class="main">
<tspan x="523" dy="0">(</tspan>
</text>
</g>
    <g class="keycap default">
      <rect x="550" y="134.73999"
            width="54" height="54"
            rx="5" fill="#f7e5c3" class="outer border"/>
      <rect x="556" y="138.73999"
            width="42" height="42"
            rx="5" fill="#ffecc9" class="inner border"/>

<text x="577" y="159.73999" text-anchor="middle" dominant-baseline="middle" class="main">
<tspan x="577" dy="0">)</tspan>
</text>
</g>
    <g class="keycap default">
      <rect x="604" y="179.02"
            width="54" height="54"
            rx="5" fill="#f7e5c3" class="outer border"/>
      <rect x="610" y="183.02"
            width="42" height="42"
            rx="5" fill="#ffecc9" class="inner border"/>

<text x="631" y="204.02" text-anchor="middle" dominant-baseline="middle" class="main">
<tspan x="631" dy="0">_</tspan>
</text>
</g>
    <g class="keycap combo_background">
      <rect x="64" y="188.73999"
            width="54" height="54"
            rx="5" fill="#f7f0ea" class="outer border"/>
      <rect x="70" y="192.73999"
            width="42" height="42"
            rx="5" fill="#fff7f1" class="inner border"/>

</g>
    <g class="keycap combo_background">
      <rect x="118" y="172"
            width="54" height="54"
            rx="5" fill="#f7f0ea" class="outer border"/>
      <rect x="124" y="176"
            width="42" height="42"
            rx="5" fill="#fff7f1" class="inner border"/>

</g>
    <g class="keycap combo_background">
      <rect x="199" y="212.5"
            width="54" height="54"
            rx="5" fill="#f7f0ea" class="outer border"/>
      <rect x="205" y="216.5"
            width="42" height="42"
            rx="5" fill="#fff7f1" class="inner border"/>

</g>
    <g class="keycap special">
      <rect x="253" y="226"
            width="54" height="54"
            rx="5" fill="#e0c65f" class="outer border"/>
      <rect x="259" y="230"
            width="42" height="42"
            rx="5" fill="#e8cd62" class="inner border"/>

<text x="280" y="245.5" text-anchor="middle" dominant-baseline="middle" class="main">
<tspan x="280" dy="0">NUM</tspan>
<tspan x="280" dy="11">WORD</tspan>
</text>
</g>
    <g class="keycap active_layer">
      <rect x="361" y="226"
            width="54" height="54"
            rx="5" fill="#f79581" class="outer border"/>
      <rect x="367" y="230"
            width="42" height="42"
            rx="5" fill="#ff9a85" class="inner border"/>

<text x="388" y="251" text-anchor="middle" dominant-baseline="middle" class="main">
<tspan x="388" dy="0">E</tspan>
</text>
</g>
</svg>
