<svg width='668px'
       height='290x'
       viewBox='0 0 668 290'
       xmlns='http://www.w3.org/2000/svg'
       xmlns:xlink="http://www.w3.org/1999/xlink">

 <style type='text/css'>
    .keycap .border { stroke: black; stroke-width: 1; }
    .keycap .inner.border { stroke: rgba(0,0,0,.1); }
    .keycap { font-family: sans-serif; font-size: 11px}
    .combo-output { font-family: sans-serif; font-size: 16px}
    .combos .keycap { font-size: 8px}
  </style>

    <g class="keycap combo_background">
      <rect x="10" y="60.22"
            width="54" height="54"
            rx="5" fill="#f7f0ea" class="outer border"/>
      <rect x="16" y="64.22"
            width="42" height="42"
            rx="5" fill="#fff7f1" class="inner border"/>

</g>
    <g class="keycap combo_background">
      <rect x="64" y="26.74"
            width="54" height="54"
            rx="5" fill="#f7f0ea" class="outer border"/>
      <rect x="70" y="30.74"
            width="42" height="42"
            rx="5" fill="#fff7f1" class="inner border"/>

</g>
    <g class="keycap combo_background">
      <rect x="118" y="10"
            width="54" height="54"
            rx="5" fill="#f7f0ea" class="outer border"/>
      <rect x="124" y="14"
            width="42" height="42"
            rx="5" fill="#fff7f1" class="inner border"/>

</g>
    <g class="keycap combo_background">
      <rect x="172" y="25.119999"
            width="54" height="54"
            rx="5" fill="#f7f0ea" class="outer border"/>
      <rect x="178" y="29.119999"
            width="42" height="42"
            rx="5" fill="#fff7f1" class="inner border"/>

</g>
    <g class="keycap combo_background">
      <rect x="226" y="32.68"
            width="54" height="54"
            rx="5" fill="#f7f0ea" class="outer border"/>
      <rect x="232" y="36.68"
            width="42" height="42"
            rx="5" fill="#fff7f1" class="inner border"/>

</g>
    <g class="keycap combo_background">
      <rect x="388" y="32.68"
            width="54" height="54"
            rx="5" fill="#f7f0ea" class="outer border"/>
      <rect x="394" y="36.68"
            width="42" height="42"
            rx="5" fill="#fff7f1" class="inner border"/>

</g>
    <g class="keycap combo_background">
      <rect x="442" y="25.119999"
            width="54" height="54"
            rx="5" fill="#f7f0ea" class="outer border"/>
      <rect x="448" y="29.119999"
            width="42" height="42"
            rx="5" fill="#fff7f1" class="inner border"/>

</g>
    <g class="keycap combo_background">
      <rect x="496" y="10"
            width="54" height="54"
            rx="5" fill="#f7f0ea" class="outer border"/>
      <rect x="502" y="14"
            width="42" height="42"
            rx="5" fill="#fff7f1" class="inner border"/>

</g>
    <g class="keycap combo_background">
      <rect x="550" y="26.74"
            width="54" height="54"
            rx="5" fill="#f7f0ea" class="outer border"/>
      <rect x="556" y="30.74"
            width="42" height="42"
            rx="5" fill="#fff7f1" class="inner border"/>

</g>
    <g class="keycap combo_background">
      <rect x="604" y="60.22"
            width="54" height="54"
            rx="5" fill="#f7f0ea" class="outer border"/>
      <rect x="610" y="64.22"
            width="42" height="42"
            rx="5" fill="#fff7f1" class="inner border"/>

</g>
    <g class="keycap combo_background">
      <rect x="10" y="114.21999"
            width="54" height="54"
            rx="5" fill="#f7f0ea" class="outer border"/>
      <rect x="16" y="118.21999"
            width="42" height="42"
            rx="5" fill="#fff7f1" class="inner border"/>

</g>
    <g class="keycap combo_background">
      <rect x="64" y="80.74"
            width="54" height="54"
            rx="5" fill="#f7f0ea" class="outer border"/>
      <rect x="70" y="84.74"
            width="42" height="42"
            rx="5" fill="#fff7f1" class="inner border"/>

</g>
    <g class="keycap combo_background">
      <rect x="118" y="64"
            width="54" height="54"
            rx="5" fill="#f7f0ea" class="outer border"/>
      <rect x="124" y="68"
            width="42" height="42"
            rx="5" fill="#fff7f1" class="inner border"/>

</g>
    <g class="keycap combo_background">
      <rect x="172" y="79.119995"
            width="54" height="54"
            rx="5" fill="#f7f0ea" class="outer border"/>
      <rect x="178" y="83.119995"
            width="42" height="42"
            rx="5" fill="#fff7f1" class="inner border"/>

</g>
    <g class="keycap combo_background">
      <rect x="226" y="86.68"
            width="54" height="54"
            rx="5" fill="#f7f0ea" class="outer border"/>
      <rect x="232" y="90.68"
            width="42" height="42"
            rx="5" fill="#fff7f1" class="inner border"/>

</g>
    <g class="keycap combo_background">
      <rect x="388" y="86.68"
            width="54" height="54"
            rx="5" fill="#f7f0ea" class="outer border"/>
      <rect x="394" y="90.68"
            width="42" height="42"
            rx="5" fill="#fff7f1" class="inner border"/>

</g>
    <g class="keycap combo_background">
      <rect x="442" y="79.119995"
            width="54" height="54"
            rx="5" fill="#f7f0ea" class="outer border"/>
      <rect x="448" y="83.119995"
            width="42" height="42"
            rx="5" fill="#fff7f1" class="inner border"/>

</g>
    <g class="keycap combo_background">
      <rect x="496" y="64"
            width="54" height="54"
            rx="5" fill="#f7f0ea" class="outer border"/>
      <rect x="502" y="68"
            width="42" height="42"
            rx="5" fill="#fff7f1" class="inner border"/>

</g>
    <g class="keycap combo_background">
      <rect x="550" y="80.74"
            width="54" height="54"
            rx="5" fill="#f7f0ea" class="outer border"/>
      <rect x="556" y="84.74"
            width="42" height="42"
            rx="5" fill="#fff7f1" class="inner border"/>

</g>
    <g class="keycap combo_background">
      <rect x="604" y="114.21999"
            width="54" height="54"
            rx="5" fill="#f7f0ea" class="outer border"/>
      <rect x="610" y="118.21999"
            width="42" height="42"
            rx="5" fill="#fff7f1" class="inner border"/>

</g>
    <g class="keycap combo_background">
      <rect x="10" y="168.22"
            width="54" height="54"
            rx="5" fill="#f7f0ea" class="outer border"/>
      <rect x="16" y="172.22"
            width="42" height="42"
            rx="5" fill="#fff7f1" class="inner border"/>

</g>
    <g class="keycap mod1">
      <rect x="64" y="134.73999"
            width="54" height="54"
            rx="5" fill="#91c696" class="outer border"/>
      <rect x="70" y="138.73999"
            width="42" height="42"
            rx="5" fill="#97ce9c" class="inner border"/>

<text x="91" y="159.73999" text-anchor="middle" dominant-baseline="middle" class="main">
<tspan x="91" dy="0">V</tspan>
</text>
</g>
    <g class="keycap combo_background">
      <rect x="118" y="118"
            width="54" height="54"
            rx="5" fill="#f7f0ea" class="outer border"/>
      <rect x="124" y="122"
            width="42" height="42"
            rx="5" fill="#fff7f1" class="inner border"/>

</g>
    <g class="keycap mod1">
      <rect x="172" y="133.12"
            width="54" height="54"
            rx="5" fill="#91c696" class="outer border"/>
      <rect x="178" y="137.12"
            width="42" height="42"
            rx="5" fill="#97ce9c" class="inner border"/>

<text x="199" y="158.12" text-anchor="middle" dominant-baseline="middle" class="main">
<tspan x="199" dy="0">D</tspan>
</text>
</g>
    <g class="keycap combo_background">
      <rect x="226" y="140.68001"
            width="54" height="54"
            rx="5" fill="#f7f0ea" class="outer border"/>
      <rect x="232" y="144.68001"
            width="42" height="42"
            rx="5" fill="#fff7f1" class="inner border"/>

</g>
    <g class="keycap combo_background">
      <rect x="388" y="140.68001"
            width="54" height="54"
            rx="5" fill="#f7f0ea" class="outer border"/>
      <rect x="394" y="144.68001"
            width="42" height="42"
            rx="5" fill="#fff7f1" class="inner border"/>

</g>
    <g class="keycap management">
      <rect x="442" y="133.12"
            width="54" height="54"
            rx="5" fill="#c8b29d" class="outer border"/>
      <rect x="448" y="137.12"
            width="42" height="42"
            rx="5" fill="#d0b9a3" class="inner border"/>

<text x="469" y="158.12" text-anchor="middle" dominant-baseline="middle" class="main">
<tspan x="469" dy="0">L</tspan>
</text>
</g>
    <g class="keycap combo_background">
      <rect x="496" y="118"
            width="54" height="54"
            rx="5" fill="#f7f0ea" class="outer border"/>
      <rect x="502" y="122"
            width="42" height="42"
            rx="5" fill="#fff7f1" class="inner border"/>

</g>
    <g class="keycap management">
      <rect x="550" y="134.73999"
            width="54" height="54"
            rx="5" fill="#c8b29d" class="outer border"/>
      <rect x="556" y="138.73999"
            width="42" height="42"
            rx="5" fill="#d0b9a3" class="inner border"/>

<text x="577" y="159.73999" text-anchor="middle" dominant-baseline="middle" class="main">
<tspan x="577" dy="0">)</tspan>
</text>
</g>
    <g class="keycap combo_background">
      <rect x="604" y="168.22"
            width="54" height="54"
            rx="5" fill="#f7f0ea" class="outer border"/>
      <rect x="610" y="172.22"
            width="42" height="42"
            rx="5" fill="#fff7f1" class="inner border"/>

</g>
    <g class="keycap combo_background">
      <rect x="64" y="188.73999"
            width="54" height="54"
            rx="5" fill="#f7f0ea" class="outer border"/>
      <rect x="70" y="192.73999"
            width="42" height="42"
            rx="5" fill="#fff7f1" class="inner border"/>

</g>
    <g class="keycap combo_background">
      <rect x="118" y="172"
            width="54" height="54"
            rx="5" fill="#f7f0ea" class="outer border"/>
      <rect x="124" y="176"
            width="42" height="42"
            rx="5" fill="#fff7f1" class="inner border"/>

</g>
    <g class="keycap combo_background">
      <rect x="199" y="212.5"
            width="54" height="54"
            rx="5" fill="#f7f0ea" class="outer border"/>
      <rect x="205" y="216.5"
            width="42" height="42"
            rx="5" fill="#fff7f1" class="inner border"/>

</g>
    <g class="keycap combo_background">
      <rect x="253" y="226"
            width="54" height="54"
            rx="5" fill="#f7f0ea" class="outer border"/>
      <rect x="259" y="230"
            width="42" height="42"
            rx="5" fill="#fff7f1" class="inner border"/>

</g>
    <g class="keycap combo_background">
      <rect x="361" y="226"
            width="54" height="54"
            rx="5" fill="#f7f0ea" class="outer border"/>
      <rect x="367" y="230"
            width="42" height="42"
            rx="5" fill="#fff7f1" class="inner border"/>

</g>
    <g class="keycap mod1">
      <rect x="108" y="112.31999"
            width="80" height="18"
            rx="4" fill="#91c696" class="outer border"/>
      <rect x="109.5" y="113.31999"
            width="77" height="14.5"
            rx="4" fill="#97ce9c" class="inner border"/>

<text x="148" y="120.56999" text-anchor="middle" dominant-baseline="middle" class="main">
<tspan x="148" dy="0">Alt</tspan>
</text>
</g>
    <g class="keycap management">
      <rect x="486" y="112.31999"
            width="80" height="18"
            rx="4" fill="#c8b29d" class="outer border"/>
      <rect x="487.5" y="113.31999"
            width="77" height="14.5"
            rx="4" fill="#d0b9a3" class="inner border"/>

<text x="526" y="120.56999" text-anchor="middle" dominant-baseline="middle" class="main">
<tspan x="526" dy="0">Leader Key</tspan>
</text>
</g>
</svg>
