<?xml version="1.0" encoding="UTF-8" standalone="no"?>
<!DOCTYPE svg PUBLIC "-//W3C//DTD SVG 1.1//EN"
 "http://www.w3.org/Graphics/SVG/1.1/DTD/svg11.dtd">
<!-- Generated by graphviz version 2.44.0 (0)
 -->
<!-- Title: R Pages: 1 -->
<svg width="384pt" height="260pt"
 viewBox="0.00 0.00 383.73 260.00" xmlns="http://www.w3.org/2000/svg" xmlns:xlink="http://www.w3.org/1999/xlink">
<g id="graph0" class="graph" transform="scale(1 1) rotate(0) translate(4 256)">
<title>R</title>
<polygon fill="white" stroke="transparent" points="-4,4 -4,-256 379.73,-256 379.73,4 -4,4"/>
<!-- waiting -->
<g id="node1" class="node">
<title>waiting</title>
<ellipse fill="none" stroke="black" cx="208.49" cy="-162" rx="90.98" ry="18"/>
<text text-anchor="middle" x="208.49" y="-158.3" font-family="Times,serif" font-size="14.00">waiting for transaction</text>
</g>
<!-- confirming -->
<g id="node2" class="node">
<title>confirming</title>
<ellipse fill="none" stroke="black" cx="110.49" cy="-90" rx="110.48" ry="18"/>
<text text-anchor="middle" x="110.49" y="-86.3" font-family="Times,serif" font-size="14.00">waiting for N confirmations</text>
</g>
<!-- waiting&#45;&gt;confirming -->
<g id="edge2" class="edge">
<title>waiting&#45;&gt;confirming</title>
<path fill="none" stroke="black" d="M185.27,-144.41C172.42,-135.24 156.28,-123.7 142.28,-113.71"/>
<polygon fill="black" stroke="black" points="144.06,-110.68 133.89,-107.71 139.99,-116.37 144.06,-110.68"/>
</g>
<!-- verifying -->
<g id="node3" class="node">
<title>verifying</title>
<ellipse fill="none" stroke="black" cx="307.49" cy="-90" rx="68.49" ry="18"/>
<text text-anchor="middle" x="307.49" y="-86.3" font-family="Times,serif" font-size="14.00">verifying 0&#45;conf</text>
</g>
<!-- waiting&#45;&gt;verifying -->
<g id="edge3" class="edge">
<title>waiting&#45;&gt;verifying</title>
<path fill="none" stroke="black" d="M231.7,-144.59C245.08,-135.13 262.06,-123.12 276.56,-112.87"/>
<polygon fill="black" stroke="black" points="278.62,-115.7 284.77,-107.07 274.58,-109.98 278.62,-115.7"/>
</g>
<!-- accepted -->
<g id="node5" class="node">
<title>accepted</title>
<ellipse fill="none" stroke="black" cx="208.49" cy="-18" rx="41.69" ry="18"/>
<text text-anchor="middle" x="208.49" y="-14.3" font-family="Times,serif" font-size="14.00">accepted</text>
</g>
<!-- confirming&#45;&gt;accepted -->
<g id="edge4" class="edge">
<title>confirming&#45;&gt;accepted</title>
<path fill="none" stroke="black" d="M134.21,-72.05C147.72,-62.4 164.76,-50.23 179.11,-39.98"/>
<polygon fill="black" stroke="black" points="181.54,-42.55 187.65,-33.89 177.48,-36.85 181.54,-42.55"/>
</g>
<!-- verifying&#45;&gt;accepted -->
<g id="edge5" class="edge">
<title>verifying&#45;&gt;accepted</title>
<path fill="none" stroke="black" d="M284.53,-72.76C270.59,-62.91 252.66,-50.23 237.71,-39.66"/>
<polygon fill="black" stroke="black" points="239.49,-36.63 229.3,-33.72 235.45,-42.35 239.49,-36.63"/>
</g>
<!-- setup -->
<g id="node4" class="node">
<title>setup</title>
<ellipse fill="none" stroke="black" cx="208.49" cy="-234" rx="29.5" ry="18"/>
<text text-anchor="middle" x="208.49" y="-230.3" font-family="Times,serif" font-size="14.00">setup</text>
</g>
<!-- setup&#45;&gt;waiting -->
<g id="edge1" class="edge">
<title>setup&#45;&gt;waiting</title>
<path fill="none" stroke="black" d="M208.49,-215.7C208.49,-207.98 208.49,-198.71 208.49,-190.11"/>
<polygon fill="black" stroke="black" points="211.99,-190.1 208.49,-180.1 204.99,-190.1 211.99,-190.1"/>
</g>
</g>
</svg>
