<?xml version="1.0" encoding="utf-8" standalone="no"?>
<!DOCTYPE svg PUBLIC "-//W3C//DTD SVG 1.1//EN"
  "http://www.w3.org/Graphics/SVG/1.1/DTD/svg11.dtd">
<!-- Created with matplotlib (https://matplotlib.org/) -->
<svg height="324pt" version="1.1" viewBox="0 0 864 324" width="864pt" xmlns="http://www.w3.org/2000/svg" xmlns:xlink="http://www.w3.org/1999/xlink">
 <metadata>
  <rdf:RDF xmlns:cc="http://creativecommons.org/ns#" xmlns:dc="http://purl.org/dc/elements/1.1/" xmlns:rdf="http://www.w3.org/1999/02/22-rdf-syntax-ns#">
   <cc:Work>
    <dc:type rdf:resource="http://purl.org/dc/dcmitype/StillImage"/>
    <dc:date>2021-05-28T20:32:07.355610</dc:date>
    <dc:format>image/svg+xml</dc:format>
    <dc:creator>
     <cc:Agent>
      <dc:title>Matplotlib v3.3.3, https://matplotlib.org/</dc:title>
     </cc:Agent>
    </dc:creator>
   </cc:Work>
  </rdf:RDF>
 </metadata>
 <defs>
  <style type="text/css">*{stroke-linecap:butt;stroke-linejoin:round;}</style>
 </defs>
 <g id="figure_1">
  <g id="patch_1">
   <path d="M 0 324 
L 864 324 
L 864 0 
L 0 0 
z
" style="fill:none;"/>
  </g>
  <g id="axes_1">
   <g id="patch_2">
    <path d="M 55.69 296.12 
L 853.2 296.12 
L 853.2 10.8 
L 55.69 10.8 
z
" style="fill:none;"/>
   </g>
   <g id="patch_3">
    <path clip-path="url(#p164d46d7df)" d="M 91.940455 296.12 
L 95.74295 296.12 
L 95.74295 177.250304 
L 91.940455 177.250304 
z
" style="fill:#d35e60;"/>
   </g>
   <g id="patch_4">
    <path clip-path="url(#p164d46d7df)" d="M 117.290423 296.12 
L 121.092918 296.12 
L 121.092918 187.976888 
L 117.290423 187.976888 
z
" style="fill:#d35e60;"/>
   </g>
   <g id="patch_5">
    <path clip-path="url(#p164d46d7df)" d="M 142.640391 296.12 
L 146.442886 296.12 
L 146.442886 244.799873 
L 142.640391 244.799873 
z
" style="fill:#d35e60;"/>
   </g>
   <g id="patch_6">
    <path clip-path="url(#p164d46d7df)" d="M 167.990359 296.12 
L 171.792854 296.12 
L 171.792854 211.822604 
L 167.990359 211.822604 
z
" style="fill:#d35e60;"/>
   </g>
   <g id="patch_7">
    <path clip-path="url(#p164d46d7df)" d="M 193.340327 296.12 
L 197.142823 296.12 
L 197.142823 147.6226 
L 193.340327 147.6226 
z
" style="fill:#d35e60;"/>
   </g>
   <g id="patch_8">
    <path clip-path="url(#p164d46d7df)" d="M 218.690296 296.12 
L 222.492791 296.12 
L 222.492791 237.981115 
L 218.690296 237.981115 
z
" style="fill:#d35e60;"/>
   </g>
   <g id="patch_9">
    <path clip-path="url(#p164d46d7df)" d="M 244.040264 296.12 
L 247.842759 296.12 
L 247.842759 241.211053 
L 244.040264 241.211053 
z
" style="fill:#d35e60;"/>
   </g>
   <g id="patch_10">
    <path clip-path="url(#p164d46d7df)" d="M 269.390232 296.12 
L 273.192727 296.12 
L 273.192727 217.006455 
L 269.390232 217.006455 
z
" style="fill:#d35e60;"/>
   </g>
   <g id="patch_11">
    <path clip-path="url(#p164d46d7df)" d="M 294.7402 296.12 
L 298.542695 296.12 
L 298.542695 185.664093 
L 294.7402 185.664093 
z
" style="fill:#d35e60;"/>
   </g>
   <g id="patch_12">
    <path clip-path="url(#p164d46d7df)" d="M 320.090168 296.12 
L 323.892664 296.12 
L 323.892664 165.088191 
L 320.090168 165.088191 
z
" style="fill:#d35e60;"/>
   </g>
   <g id="patch_13">
    <path clip-path="url(#p164d46d7df)" d="M 345.440137 296.12 
L 349.242632 296.12 
L 349.242632 177.369931 
L 345.440137 177.369931 
z
" style="fill:#d35e60;"/>
   </g>
   <g id="patch_14">
    <path clip-path="url(#p164d46d7df)" d="M 370.790105 296.12 
L 374.5926 296.12 
L 374.5926 215.251921 
L 370.790105 215.251921 
z
" style="fill:#d35e60;"/>
   </g>
   <g id="patch_15">
    <path clip-path="url(#p164d46d7df)" d="M 396.140073 296.12 
L 399.942568 296.12 
L 399.942568 251.339501 
L 396.140073 251.339501 
z
" style="fill:#d35e60;"/>
   </g>
   <g id="patch_16">
    <path clip-path="url(#p164d46d7df)" d="M 421.490041 296.12 
L 425.292537 296.12 
L 425.292537 206.160243 
L 421.490041 206.160243 
z
" style="fill:#d35e60;"/>
   </g>
   <g id="patch_17">
    <path clip-path="url(#p164d46d7df)" d="M 446.84001 296.12 
L 450.642505 296.12 
L 450.642505 179.523223 
L 446.84001 179.523223 
z
" style="fill:#d35e60;"/>
   </g>
   <g id="patch_18">
    <path clip-path="url(#p164d46d7df)" d="M 472.189978 296.12 
L 475.992473 296.12 
L 475.992473 245.118879 
L 472.189978 245.118879 
z
" style="fill:#d35e60;"/>
   </g>
   <g id="patch_19">
    <path clip-path="url(#p164d46d7df)" d="M 497.539946 296.12 
L 501.342441 296.12 
L 501.342441 290.178509 
L 497.539946 290.178509 
z
" style="fill:#d35e60;"/>
   </g>
   <g id="patch_20">
    <path clip-path="url(#p164d46d7df)" d="M 522.889914 296.12 
L 526.692409 296.12 
L 526.692409 207.077386 
L 522.889914 207.077386 
z
" style="fill:#d35e60;"/>
   </g>
   <g id="patch_21">
    <path clip-path="url(#p164d46d7df)" d="M 548.239882 296.12 
L 552.042378 296.12 
L 552.042378 197.706578 
L 548.239882 197.706578 
z
" style="fill:#d35e60;"/>
   </g>
   <g id="patch_22">
    <path clip-path="url(#p164d46d7df)" d="M 573.589851 296.12 
L 577.392346 296.12 
L 577.392346 171.189185 
L 573.589851 171.189185 
z
" style="fill:#d35e60;"/>
   </g>
   <g id="patch_23">
    <path clip-path="url(#p164d46d7df)" d="M 598.939819 296.12 
L 602.742314 296.12 
L 602.742314 149.975271 
L 598.939819 149.975271 
z
" style="fill:#d35e60;"/>
   </g>
   <g id="patch_24">
    <path clip-path="url(#p164d46d7df)" d="M 624.289787 296.12 
L 628.092282 296.12 
L 628.092282 250.980619 
L 624.289787 250.980619 
z
" style="fill:#d35e60;"/>
   </g>
   <g id="patch_25">
    <path clip-path="url(#p164d46d7df)" d="M 649.639755 296.12 
L 653.44225 296.12 
L 653.44225 159.186576 
L 649.639755 159.186576 
z
" style="fill:#d35e60;"/>
   </g>
   <g id="patch_26">
    <path clip-path="url(#p164d46d7df)" d="M 674.989723 296.12 
L 678.792219 296.12 
L 678.792219 283.798384 
L 674.989723 283.798384 
z
" style="fill:#d35e60;"/>
   </g>
   <g id="patch_27">
    <path clip-path="url(#p164d46d7df)" d="M 700.339692 296.12 
L 704.142187 296.12 
L 704.142187 266.053663 
L 700.339692 266.053663 
z
" style="fill:#d35e60;"/>
   </g>
   <g id="patch_28">
    <path clip-path="url(#p164d46d7df)" d="M 725.68966 296.12 
L 729.492155 296.12 
L 729.492155 292.491304 
L 725.68966 292.491304 
z
" style="fill:#d35e60;"/>
   </g>
   <g id="patch_29">
    <path clip-path="url(#p164d46d7df)" d="M 751.039628 296.12 
L 754.842123 296.12 
L 754.842123 296.12 
L 751.039628 296.12 
z
" style="fill:#d35e60;"/>
   </g>
   <g id="patch_30">
    <path clip-path="url(#p164d46d7df)" d="M 776.389596 296.12 
L 780.192092 296.12 
L 780.192092 296.12 
L 776.389596 296.12 
z
" style="fill:#d35e60;"/>
   </g>
   <g id="patch_31">
    <path clip-path="url(#p164d46d7df)" d="M 801.739565 296.12 
L 805.54206 296.12 
L 805.54206 296.12 
L 801.739565 296.12 
z
" style="fill:#d35e60;"/>
   </g>
   <g id="patch_32">
    <path clip-path="url(#p164d46d7df)" d="M 95.74295 296.12 
L 99.545445 296.12 
L 99.545445 149.240772 
L 95.74295 149.240772 
z
" style="fill:#84ba5b;"/>
   </g>
   <g id="patch_33">
    <path clip-path="url(#p164d46d7df)" d="M 121.092918 296.12 
L 124.895413 296.12 
L 124.895413 264.510877 
L 121.092918 264.510877 
z
" style="fill:#84ba5b;"/>
   </g>
   <g id="patch_34">
    <path clip-path="url(#p164d46d7df)" d="M 146.442886 296.12 
L 150.245381 296.12 
L 150.245381 206.748127 
L 146.442886 206.748127 
z
" style="fill:#84ba5b;"/>
   </g>
   <g id="patch_35">
    <path clip-path="url(#p164d46d7df)" d="M 171.792854 296.12 
L 175.59535 296.12 
L 175.59535 195.030716 
L 171.792854 195.030716 
z
" style="fill:#84ba5b;"/>
   </g>
   <g id="patch_36">
    <path clip-path="url(#p164d46d7df)" d="M 197.142823 296.12 
L 200.945318 296.12 
L 200.945318 34.028227 
L 197.142823 34.028227 
z
" style="fill:#84ba5b;"/>
   </g>
   <g id="patch_37">
    <path clip-path="url(#p164d46d7df)" d="M 222.492791 296.12 
L 226.295286 296.12 
L 226.295286 242.815197 
L 222.492791 242.815197 
z
" style="fill:#84ba5b;"/>
   </g>
   <g id="patch_38">
    <path clip-path="url(#p164d46d7df)" d="M 247.842759 296.12 
L 251.645254 296.12 
L 251.645254 254.460517 
L 247.842759 254.460517 
z
" style="fill:#84ba5b;"/>
   </g>
   <g id="patch_39">
    <path clip-path="url(#p164d46d7df)" d="M 273.192727 296.12 
L 276.995223 296.12 
L 276.995223 242.040631 
L 273.192727 242.040631 
z
" style="fill:#84ba5b;"/>
   </g>
   <g id="patch_40">
    <path clip-path="url(#p164d46d7df)" d="M 298.542695 296.12 
L 302.345191 296.12 
L 302.345191 148.754572 
L 298.542695 148.754572 
z
" style="fill:#84ba5b;"/>
   </g>
   <g id="patch_41">
    <path clip-path="url(#p164d46d7df)" d="M 323.892664 296.12 
L 327.695159 296.12 
L 327.695159 291.06073 
L 323.892664 291.06073 
z
" style="fill:#84ba5b;"/>
   </g>
   <g id="patch_42">
    <path clip-path="url(#p164d46d7df)" d="M 349.242632 296.12 
L 353.045127 296.12 
L 353.045127 274.81775 
L 349.242632 274.81775 
z
" style="fill:#84ba5b;"/>
   </g>
   <g id="patch_43">
    <path clip-path="url(#p164d46d7df)" d="M 374.5926 296.12 
L 378.395095 296.12 
L 378.395095 205.699166 
L 374.5926 205.699166 
z
" style="fill:#84ba5b;"/>
   </g>
   <g id="patch_44">
    <path clip-path="url(#p164d46d7df)" d="M 399.942568 296.12 
L 403.745064 296.12 
L 403.745064 234.329617 
L 399.942568 234.329617 
z
" style="fill:#84ba5b;"/>
   </g>
   <g id="patch_45">
    <path clip-path="url(#p164d46d7df)" d="M 425.292537 296.12 
L 429.095032 296.12 
L 429.095032 142.591014 
L 425.292537 142.591014 
z
" style="fill:#84ba5b;"/>
   </g>
   <g id="patch_46">
    <path clip-path="url(#p164d46d7df)" d="M 450.642505 296.12 
L 454.445 296.12 
L 454.445 141.246979 
L 450.642505 141.246979 
z
" style="fill:#84ba5b;"/>
   </g>
   <g id="patch_47">
    <path clip-path="url(#p164d46d7df)" d="M 475.992473 296.12 
L 479.794968 296.12 
L 479.794968 225.530521 
L 475.992473 225.530521 
z
" style="fill:#84ba5b;"/>
   </g>
   <g id="patch_48">
    <path clip-path="url(#p164d46d7df)" d="M 501.342441 296.12 
L 505.144936 296.12 
L 505.144936 289.21373 
L 501.342441 289.21373 
z
" style="fill:#84ba5b;"/>
   </g>
   <g id="patch_49">
    <path clip-path="url(#p164d46d7df)" d="M 526.692409 296.12 
L 530.494905 296.12 
L 530.494905 156.005094 
L 526.692409 156.005094 
z
" style="fill:#84ba5b;"/>
   </g>
   <g id="patch_50">
    <path clip-path="url(#p164d46d7df)" d="M 552.042378 296.12 
L 555.844873 296.12 
L 555.844873 151.197306 
L 552.042378 151.197306 
z
" style="fill:#84ba5b;"/>
   </g>
   <g id="patch_51">
    <path clip-path="url(#p164d46d7df)" d="M 577.392346 296.12 
L 581.194841 296.12 
L 581.194841 106.99729 
L 577.392346 106.99729 
z
" style="fill:#84ba5b;"/>
   </g>
   <g id="patch_52">
    <path clip-path="url(#p164d46d7df)" d="M 602.742314 296.12 
L 606.544809 296.12 
L 606.544809 226.22126 
L 602.742314 226.22126 
z
" style="fill:#84ba5b;"/>
   </g>
   <g id="patch_53">
    <path clip-path="url(#p164d46d7df)" d="M 628.092282 296.12 
L 631.894777 296.12 
L 631.894777 274.818309 
L 628.092282 274.818309 
z
" style="fill:#84ba5b;"/>
   </g>
   <g id="patch_54">
    <path clip-path="url(#p164d46d7df)" d="M 653.44225 296.12 
L 657.244746 296.12 
L 657.244746 271.06116 
L 653.44225 271.06116 
z
" style="fill:#84ba5b;"/>
   </g>
   <g id="patch_55">
    <path clip-path="url(#p164d46d7df)" d="M 678.792219 296.12 
L 682.594714 296.12 
L 682.594714 275.166473 
L 678.792219 275.166473 
z
" style="fill:#84ba5b;"/>
   </g>
   <g id="patch_56">
    <path clip-path="url(#p164d46d7df)" d="M 704.142187 296.12 
L 707.944682 296.12 
L 707.944682 263.131635 
L 704.142187 263.131635 
z
" style="fill:#84ba5b;"/>
   </g>
   <g id="patch_57">
    <path clip-path="url(#p164d46d7df)" d="M 729.492155 296.12 
L 733.29465 296.12 
L 733.29465 293.10668 
L 729.492155 293.10668 
z
" style="fill:#84ba5b;"/>
   </g>
   <g id="patch_58">
    <path clip-path="url(#p164d46d7df)" d="M 754.842123 296.12 
L 758.644619 296.12 
L 758.644619 296.12 
L 754.842123 296.12 
z
" style="fill:#84ba5b;"/>
   </g>
   <g id="patch_59">
    <path clip-path="url(#p164d46d7df)" d="M 780.192092 296.12 
L 783.994587 296.12 
L 783.994587 296.12 
L 780.192092 296.12 
z
" style="fill:#84ba5b;"/>
   </g>
   <g id="patch_60">
    <path clip-path="url(#p164d46d7df)" d="M 805.54206 296.12 
L 809.344555 296.12 
L 809.344555 296.12 
L 805.54206 296.12 
z
" style="fill:#84ba5b;"/>
   </g>
   <g id="patch_61">
    <path clip-path="url(#p164d46d7df)" d="M 99.545445 296.12 
L 103.34794 296.12 
L 103.34794 95.389889 
L 99.545445 95.389889 
z
" style="fill:#7293cb;"/>
   </g>
   <g id="patch_62">
    <path clip-path="url(#p164d46d7df)" d="M 124.895413 296.12 
L 128.697908 296.12 
L 128.697908 263.281812 
L 124.895413 263.281812 
z
" style="fill:#7293cb;"/>
   </g>
   <g id="patch_63">
    <path clip-path="url(#p164d46d7df)" d="M 150.245381 296.12 
L 154.047877 296.12 
L 154.047877 264.330067 
L 150.245381 264.330067 
z
" style="fill:#7293cb;"/>
   </g>
   <g id="patch_64">
    <path clip-path="url(#p164d46d7df)" d="M 175.59535 296.12 
L 179.397845 296.12 
L 179.397845 195.530319 
L 175.59535 195.530319 
z
" style="fill:#7293cb;"/>
   </g>
   <g id="patch_65">
    <path clip-path="url(#p164d46d7df)" d="M 200.945318 296.12 
L 204.747813 296.12 
L 204.747813 79.002885 
L 200.945318 79.002885 
z
" style="fill:#7293cb;"/>
   </g>
   <g id="patch_66">
    <path clip-path="url(#p164d46d7df)" d="M 226.295286 296.12 
L 230.097781 296.12 
L 230.097781 252.756477 
L 226.295286 252.756477 
z
" style="fill:#7293cb;"/>
   </g>
   <g id="patch_67">
    <path clip-path="url(#p164d46d7df)" d="M 251.645254 296.12 
L 255.44775 296.12 
L 255.44775 234.893359 
L 251.645254 234.893359 
z
" style="fill:#7293cb;"/>
   </g>
   <g id="patch_68">
    <path clip-path="url(#p164d46d7df)" d="M 276.995223 296.12 
L 280.797718 296.12 
L 280.797718 251.408721 
L 276.995223 251.408721 
z
" style="fill:#7293cb;"/>
   </g>
   <g id="patch_69">
    <path clip-path="url(#p164d46d7df)" d="M 302.345191 296.12 
L 306.147686 296.12 
L 306.147686 171.677172 
L 302.345191 171.677172 
z
" style="fill:#7293cb;"/>
   </g>
   <g id="patch_70">
    <path clip-path="url(#p164d46d7df)" d="M 327.695159 296.12 
L 331.497654 296.12 
L 331.497654 282.984725 
L 327.695159 282.984725 
z
" style="fill:#7293cb;"/>
   </g>
   <g id="patch_71">
    <path clip-path="url(#p164d46d7df)" d="M 353.045127 296.12 
L 356.847622 296.12 
L 356.847622 228.946117 
L 353.045127 228.946117 
z
" style="fill:#7293cb;"/>
   </g>
   <g id="patch_72">
    <path clip-path="url(#p164d46d7df)" d="M 378.395095 296.12 
L 382.197591 296.12 
L 382.197591 183.272155 
L 378.395095 183.272155 
z
" style="fill:#7293cb;"/>
   </g>
   <g id="patch_73">
    <path clip-path="url(#p164d46d7df)" d="M 403.745064 296.12 
L 407.547559 296.12 
L 407.547559 221.865048 
L 403.745064 221.865048 
z
" style="fill:#7293cb;"/>
   </g>
   <g id="patch_74">
    <path clip-path="url(#p164d46d7df)" d="M 429.095032 296.12 
L 432.897527 296.12 
L 432.897527 113.381366 
L 429.095032 113.381366 
z
" style="fill:#7293cb;"/>
   </g>
   <g id="patch_75">
    <path clip-path="url(#p164d46d7df)" d="M 454.445 296.12 
L 458.247495 296.12 
L 458.247495 200.236769 
L 454.445 200.236769 
z
" style="fill:#7293cb;"/>
   </g>
   <g id="patch_76">
    <path clip-path="url(#p164d46d7df)" d="M 479.794968 296.12 
L 483.597463 296.12 
L 483.597463 256.778353 
L 479.794968 256.778353 
z
" style="fill:#7293cb;"/>
   </g>
   <g id="patch_77">
    <path clip-path="url(#p164d46d7df)" d="M 505.144936 296.12 
L 508.947432 296.12 
L 508.947432 295.692141 
L 505.144936 295.692141 
z
" style="fill:#7293cb;"/>
   </g>
   <g id="patch_78">
    <path clip-path="url(#p164d46d7df)" d="M 530.494905 296.12 
L 534.2974 296.12 
L 534.2974 115.755984 
L 530.494905 115.755984 
z
" style="fill:#7293cb;"/>
   </g>
   <g id="patch_79">
    <path clip-path="url(#p164d46d7df)" d="M 555.844873 296.12 
L 559.647368 296.12 
L 559.647368 155.140417 
L 555.844873 155.140417 
z
" style="fill:#7293cb;"/>
   </g>
   <g id="patch_80">
    <path clip-path="url(#p164d46d7df)" d="M 581.194841 296.12 
L 584.997336 296.12 
L 584.997336 131.586772 
L 581.194841 131.586772 
z
" style="fill:#7293cb;"/>
   </g>
   <g id="patch_81">
    <path clip-path="url(#p164d46d7df)" d="M 606.544809 296.12 
L 610.347305 296.12 
L 610.347305 255.066916 
L 606.544809 255.066916 
z
" style="fill:#7293cb;"/>
   </g>
   <g id="patch_82">
    <path clip-path="url(#p164d46d7df)" d="M 631.894777 296.12 
L 635.697273 296.12 
L 635.697273 244.45601 
L 631.894777 244.45601 
z
" style="fill:#7293cb;"/>
   </g>
   <g id="patch_83">
    <path clip-path="url(#p164d46d7df)" d="M 657.244746 296.12 
L 661.047241 296.12 
L 661.047241 293.0822 
L 657.244746 293.0822 
z
" style="fill:#7293cb;"/>
   </g>
   <g id="patch_84">
    <path clip-path="url(#p164d46d7df)" d="M 682.594714 296.12 
L 686.397209 296.12 
L 686.397209 292.71852 
L 682.594714 292.71852 
z
" style="fill:#7293cb;"/>
   </g>
   <g id="patch_85">
    <path clip-path="url(#p164d46d7df)" d="M 707.944682 296.12 
L 711.747177 296.12 
L 711.747177 280.973787 
L 707.944682 280.973787 
z
" style="fill:#7293cb;"/>
   </g>
   <g id="patch_86">
    <path clip-path="url(#p164d46d7df)" d="M 733.29465 296.12 
L 737.097146 296.12 
L 737.097146 294.622493 
L 733.29465 294.622493 
z
" style="fill:#7293cb;"/>
   </g>
   <g id="patch_87">
    <path clip-path="url(#p164d46d7df)" d="M 758.644619 296.12 
L 762.447114 296.12 
L 762.447114 267.496224 
L 758.644619 267.496224 
z
" style="fill:#7293cb;"/>
   </g>
   <g id="patch_88">
    <path clip-path="url(#p164d46d7df)" d="M 783.994587 296.12 
L 787.797082 296.12 
L 787.797082 257.676857 
L 783.994587 257.676857 
z
" style="fill:#7293cb;"/>
   </g>
   <g id="patch_89">
    <path clip-path="url(#p164d46d7df)" d="M 809.344555 296.12 
L 813.14705 296.12 
L 813.14705 268.202192 
L 809.344555 268.202192 
z
" style="fill:#7293cb;"/>
   </g>
   <g id="patch_90">
    <path clip-path="url(#p164d46d7df)" d="M 103.34794 296.12 
L 107.150435 296.12 
L 107.150435 121.403724 
L 103.34794 121.403724 
z
" style="fill:#e1974c;"/>
   </g>
   <g id="patch_91">
    <path clip-path="url(#p164d46d7df)" d="M 128.697908 296.12 
L 132.500404 296.12 
L 132.500404 264.201709 
L 128.697908 264.201709 
z
" style="fill:#e1974c;"/>
   </g>
   <g id="patch_92">
    <path clip-path="url(#p164d46d7df)" d="M 154.047877 296.12 
L 157.850372 296.12 
L 157.850372 236.604795 
L 154.047877 236.604795 
z
" style="fill:#e1974c;"/>
   </g>
   <g id="patch_93">
    <path clip-path="url(#p164d46d7df)" d="M 179.397845 296.12 
L 183.20034 296.12 
L 183.20034 205.135756 
L 179.397845 205.135756 
z
" style="fill:#e1974c;"/>
   </g>
   <g id="patch_94">
    <path clip-path="url(#p164d46d7df)" d="M 204.747813 296.12 
L 208.550308 296.12 
L 208.550308 24.386667 
L 204.747813 24.386667 
z
" style="fill:#e1974c;"/>
   </g>
   <g id="patch_95">
    <path clip-path="url(#p164d46d7df)" d="M 230.097781 296.12 
L 233.900277 296.12 
L 233.900277 248.456493 
L 230.097781 248.456493 
z
" style="fill:#e1974c;"/>
   </g>
   <g id="patch_96">
    <path clip-path="url(#p164d46d7df)" d="M 255.44775 296.12 
L 259.250245 296.12 
L 259.250245 253.013193 
L 255.44775 253.013193 
z
" style="fill:#e1974c;"/>
   </g>
   <g id="patch_97">
    <path clip-path="url(#p164d46d7df)" d="M 280.797718 296.12 
L 284.600213 296.12 
L 284.600213 165.751323 
L 280.797718 165.751323 
z
" style="fill:#e1974c;"/>
   </g>
   <g id="patch_98">
    <path clip-path="url(#p164d46d7df)" d="M 306.147686 296.12 
L 309.950181 296.12 
L 309.950181 147.096665 
L 306.147686 147.096665 
z
" style="fill:#e1974c;"/>
   </g>
   <g id="patch_99">
    <path clip-path="url(#p164d46d7df)" d="M 331.497654 296.12 
L 335.300149 296.12 
L 335.300149 292.846878 
L 331.497654 292.846878 
z
" style="fill:#e1974c;"/>
   </g>
   <g id="patch_100">
    <path clip-path="url(#p164d46d7df)" d="M 356.847622 296.12 
L 360.650118 296.12 
L 360.650118 279.604638 
L 356.847622 279.604638 
z
" style="fill:#e1974c;"/>
   </g>
   <g id="patch_101">
    <path clip-path="url(#p164d46d7df)" d="M 382.197591 296.12 
L 386.000086 296.12 
L 386.000086 210.01335 
L 382.197591 210.01335 
z
" style="fill:#e1974c;"/>
   </g>
   <g id="patch_102">
    <path clip-path="url(#p164d46d7df)" d="M 407.547559 296.12 
L 411.350054 296.12 
L 411.350054 244.648547 
L 407.547559 244.648547 
z
" style="fill:#e1974c;"/>
   </g>
   <g id="patch_103">
    <path clip-path="url(#p164d46d7df)" d="M 432.897527 296.12 
L 436.700022 296.12 
L 436.700022 151.738937 
L 432.897527 151.738937 
z
" style="fill:#e1974c;"/>
   </g>
   <g id="patch_104">
    <path clip-path="url(#p164d46d7df)" d="M 458.247495 296.12 
L 462.04999 296.12 
L 462.04999 135.523076 
L 458.247495 135.523076 
z
" style="fill:#e1974c;"/>
   </g>
   <g id="patch_105">
    <path clip-path="url(#p164d46d7df)" d="M 483.597463 296.12 
L 487.399959 296.12 
L 487.399959 254.852987 
L 483.597463 254.852987 
z
" style="fill:#e1974c;"/>
   </g>
   <g id="patch_106">
    <path clip-path="url(#p164d46d7df)" d="M 508.947432 296.12 
L 512.749927 296.12 
L 512.749927 294.087669 
L 508.947432 294.087669 
z
" style="fill:#e1974c;"/>
   </g>
   <g id="patch_107">
    <path clip-path="url(#p164d46d7df)" d="M 534.2974 296.12 
L 538.099895 296.12 
L 538.099895 168.040369 
L 534.2974 168.040369 
z
" style="fill:#e1974c;"/>
   </g>
   <g id="patch_108">
    <path clip-path="url(#p164d46d7df)" d="M 559.647368 296.12 
L 563.449863 296.12 
L 563.449863 160.766764 
L 559.647368 160.766764 
z
" style="fill:#e1974c;"/>
   </g>
   <g id="patch_109">
    <path clip-path="url(#p164d46d7df)" d="M 584.997336 296.12 
L 588.799832 296.12 
L 588.799832 102.385386 
L 584.997336 102.385386 
z
" style="fill:#e1974c;"/>
   </g>
   <g id="patch_110">
    <path clip-path="url(#p164d46d7df)" d="M 610.347305 296.12 
L 614.1498 296.12 
L 614.1498 237.118226 
L 610.347305 237.118226 
z
" style="fill:#e1974c;"/>
   </g>
   <g id="patch_111">
    <path clip-path="url(#p164d46d7df)" d="M 635.697273 296.12 
L 639.499768 296.12 
L 639.499768 275.197689 
L 635.697273 275.197689 
z
" style="fill:#e1974c;"/>
   </g>
   <g id="patch_112">
    <path clip-path="url(#p164d46d7df)" d="M 661.047241 296.12 
L 664.849736 296.12 
L 664.849736 245.632623 
L 661.047241 245.632623 
z
" style="fill:#e1974c;"/>
   </g>
   <g id="patch_113">
    <path clip-path="url(#p164d46d7df)" d="M 686.397209 296.12 
L 690.199704 296.12 
L 690.199704 292.911057 
L 686.397209 292.911057 
z
" style="fill:#e1974c;"/>
   </g>
   <g id="patch_114">
    <path clip-path="url(#p164d46d7df)" d="M 711.747177 296.12 
L 715.549673 296.12 
L 715.549673 253.890304 
L 711.747177 253.890304 
z
" style="fill:#e1974c;"/>
   </g>
   <g id="patch_115">
    <path clip-path="url(#p164d46d7df)" d="M 737.097146 296.12 
L 740.899641 296.12 
L 740.899641 294.536921 
L 737.097146 294.536921 
z
" style="fill:#e1974c;"/>
   </g>
   <g id="patch_116">
    <path clip-path="url(#p164d46d7df)" d="M 762.447114 296.12 
L 766.249609 296.12 
L 766.249609 296.12 
L 762.447114 296.12 
z
" style="fill:#e1974c;"/>
   </g>
   <g id="patch_117">
    <path clip-path="url(#p164d46d7df)" d="M 787.797082 296.12 
L 791.599577 296.12 
L 791.599577 296.12 
L 787.797082 296.12 
z
" style="fill:#e1974c;"/>
   </g>
   <g id="patch_118">
    <path clip-path="url(#p164d46d7df)" d="M 813.14705 296.12 
L 816.949545 296.12 
L 816.949545 296.12 
L 813.14705 296.12 
z
" style="fill:#e1974c;"/>
   </g>
   <g id="matplotlib.axis_1">
    <g id="xtick_1">
     <g id="line2d_1">
      <defs>
       <path d="M 0 0 
L 0 3.5 
" id="m2b79399016" style="stroke:#000000;stroke-width:0.8;"/>
      </defs>
      <g>
       <use style="stroke:#000000;stroke-width:0.8;" x="99.545445" xlink:href="#m2b79399016" y="296.12"/>
      </g>
     </g>
     <g id="text_1">
      <!-- a -->
      <g transform="translate(96.481383 310.718437)scale(0.1 -0.1)">
       <defs>
        <path d="M 34.28125 27.484375 
Q 23.390625 27.484375 19.1875 25 
Q 14.984375 22.515625 14.984375 16.5 
Q 14.984375 11.71875 18.140625 8.90625 
Q 21.296875 6.109375 26.703125 6.109375 
Q 34.1875 6.109375 38.703125 11.40625 
Q 43.21875 16.703125 43.21875 25.484375 
L 43.21875 27.484375 
z
M 52.203125 31.203125 
L 52.203125 0 
L 43.21875 0 
L 43.21875 8.296875 
Q 40.140625 3.328125 35.546875 0.953125 
Q 30.953125 -1.421875 24.3125 -1.421875 
Q 15.921875 -1.421875 10.953125 3.296875 
Q 6 8.015625 6 15.921875 
Q 6 25.140625 12.171875 29.828125 
Q 18.359375 34.515625 30.609375 34.515625 
L 43.21875 34.515625 
L 43.21875 35.40625 
Q 43.21875 41.609375 39.140625 45 
Q 35.0625 48.390625 27.6875 48.390625 
Q 23 48.390625 18.546875 47.265625 
Q 14.109375 46.140625 10.015625 43.890625 
L 10.015625 52.203125 
Q 14.9375 54.109375 19.578125 55.046875 
Q 24.21875 56 28.609375 56 
Q 40.484375 56 46.34375 49.84375 
Q 52.203125 43.703125 52.203125 31.203125 
z
" id="DejaVuSans-97"/>
       </defs>
       <use xlink:href="#DejaVuSans-97"/>
      </g>
     </g>
    </g>
    <g id="xtick_2">
     <g id="line2d_2">
      <g>
       <use style="stroke:#000000;stroke-width:0.8;" x="124.895413" xlink:href="#m2b79399016" y="296.12"/>
      </g>
     </g>
     <g id="text_2">
      <!-- b -->
      <g transform="translate(121.721194 310.718437)scale(0.1 -0.1)">
       <defs>
        <path d="M 48.6875 27.296875 
Q 48.6875 37.203125 44.609375 42.84375 
Q 40.53125 48.484375 33.40625 48.484375 
Q 26.265625 48.484375 22.1875 42.84375 
Q 18.109375 37.203125 18.109375 27.296875 
Q 18.109375 17.390625 22.1875 11.75 
Q 26.265625 6.109375 33.40625 6.109375 
Q 40.53125 6.109375 44.609375 11.75 
Q 48.6875 17.390625 48.6875 27.296875 
z
M 18.109375 46.390625 
Q 20.953125 51.265625 25.265625 53.625 
Q 29.59375 56 35.59375 56 
Q 45.5625 56 51.78125 48.09375 
Q 58.015625 40.1875 58.015625 27.296875 
Q 58.015625 14.40625 51.78125 6.484375 
Q 45.5625 -1.421875 35.59375 -1.421875 
Q 29.59375 -1.421875 25.265625 0.953125 
Q 20.953125 3.328125 18.109375 8.203125 
L 18.109375 0 
L 9.078125 0 
L 9.078125 75.984375 
L 18.109375 75.984375 
z
" id="DejaVuSans-98"/>
       </defs>
       <use xlink:href="#DejaVuSans-98"/>
      </g>
     </g>
    </g>
    <g id="xtick_3">
     <g id="line2d_3">
      <g>
       <use style="stroke:#000000;stroke-width:0.8;" x="150.245381" xlink:href="#m2b79399016" y="296.12"/>
      </g>
     </g>
     <g id="text_3">
      <!-- c -->
      <g transform="translate(147.496163 310.718437)scale(0.1 -0.1)">
       <defs>
        <path d="M 48.78125 52.59375 
L 48.78125 44.1875 
Q 44.96875 46.296875 41.140625 47.34375 
Q 37.3125 48.390625 33.40625 48.390625 
Q 24.65625 48.390625 19.8125 42.84375 
Q 14.984375 37.3125 14.984375 27.296875 
Q 14.984375 17.28125 19.8125 11.734375 
Q 24.65625 6.203125 33.40625 6.203125 
Q 37.3125 6.203125 41.140625 7.25 
Q 44.96875 8.296875 48.78125 10.40625 
L 48.78125 2.09375 
Q 45.015625 0.34375 40.984375 -0.53125 
Q 36.96875 -1.421875 32.421875 -1.421875 
Q 20.0625 -1.421875 12.78125 6.34375 
Q 5.515625 14.109375 5.515625 27.296875 
Q 5.515625 40.671875 12.859375 48.328125 
Q 20.21875 56 33.015625 56 
Q 37.15625 56 41.109375 55.140625 
Q 45.0625 54.296875 48.78125 52.59375 
z
" id="DejaVuSans-99"/>
       </defs>
       <use xlink:href="#DejaVuSans-99"/>
      </g>
     </g>
    </g>
    <g id="xtick_4">
     <g id="line2d_4">
      <g>
       <use style="stroke:#000000;stroke-width:0.8;" x="175.59535" xlink:href="#m2b79399016" y="296.12"/>
      </g>
     </g>
     <g id="text_4">
      <!-- d -->
      <g transform="translate(172.421131 310.718437)scale(0.1 -0.1)">
       <defs>
        <path d="M 45.40625 46.390625 
L 45.40625 75.984375 
L 54.390625 75.984375 
L 54.390625 0 
L 45.40625 0 
L 45.40625 8.203125 
Q 42.578125 3.328125 38.25 0.953125 
Q 33.9375 -1.421875 27.875 -1.421875 
Q 17.96875 -1.421875 11.734375 6.484375 
Q 5.515625 14.40625 5.515625 27.296875 
Q 5.515625 40.1875 11.734375 48.09375 
Q 17.96875 56 27.875 56 
Q 33.9375 56 38.25 53.625 
Q 42.578125 51.265625 45.40625 46.390625 
z
M 14.796875 27.296875 
Q 14.796875 17.390625 18.875 11.75 
Q 22.953125 6.109375 30.078125 6.109375 
Q 37.203125 6.109375 41.296875 11.75 
Q 45.40625 17.390625 45.40625 27.296875 
Q 45.40625 37.203125 41.296875 42.84375 
Q 37.203125 48.484375 30.078125 48.484375 
Q 22.953125 48.484375 18.875 42.84375 
Q 14.796875 37.203125 14.796875 27.296875 
z
" id="DejaVuSans-100"/>
       </defs>
       <use xlink:href="#DejaVuSans-100"/>
      </g>
     </g>
    </g>
    <g id="xtick_5">
     <g id="line2d_5">
      <g>
       <use style="stroke:#000000;stroke-width:0.8;" x="200.945318" xlink:href="#m2b79399016" y="296.12"/>
      </g>
     </g>
     <g id="text_5">
      <!-- e -->
      <g transform="translate(197.868755 310.718437)scale(0.1 -0.1)">
       <defs>
        <path d="M 56.203125 29.59375 
L 56.203125 25.203125 
L 14.890625 25.203125 
Q 15.484375 15.921875 20.484375 11.0625 
Q 25.484375 6.203125 34.421875 6.203125 
Q 39.59375 6.203125 44.453125 7.46875 
Q 49.3125 8.734375 54.109375 11.28125 
L 54.109375 2.78125 
Q 49.265625 0.734375 44.1875 -0.34375 
Q 39.109375 -1.421875 33.890625 -1.421875 
Q 20.796875 -1.421875 13.15625 6.1875 
Q 5.515625 13.8125 5.515625 26.8125 
Q 5.515625 40.234375 12.765625 48.109375 
Q 20.015625 56 32.328125 56 
Q 43.359375 56 49.78125 48.890625 
Q 56.203125 41.796875 56.203125 29.59375 
z
M 47.21875 32.234375 
Q 47.125 39.59375 43.09375 43.984375 
Q 39.0625 48.390625 32.421875 48.390625 
Q 24.90625 48.390625 20.390625 44.140625 
Q 15.875 39.890625 15.1875 32.171875 
z
" id="DejaVuSans-101"/>
       </defs>
       <use xlink:href="#DejaVuSans-101"/>
      </g>
     </g>
    </g>
    <g id="xtick_6">
     <g id="line2d_6">
      <g>
       <use style="stroke:#000000;stroke-width:0.8;" x="226.295286" xlink:href="#m2b79399016" y="296.12"/>
      </g>
     </g>
     <g id="text_6">
      <!-- f -->
      <g transform="translate(224.53513 310.718437)scale(0.1 -0.1)">
       <defs>
        <path d="M 37.109375 75.984375 
L 37.109375 68.5 
L 28.515625 68.5 
Q 23.6875 68.5 21.796875 66.546875 
Q 19.921875 64.59375 19.921875 59.515625 
L 19.921875 54.6875 
L 34.71875 54.6875 
L 34.71875 47.703125 
L 19.921875 47.703125 
L 19.921875 0 
L 10.890625 0 
L 10.890625 47.703125 
L 2.296875 47.703125 
L 2.296875 54.6875 
L 10.890625 54.6875 
L 10.890625 58.5 
Q 10.890625 67.625 15.140625 71.796875 
Q 19.390625 75.984375 28.609375 75.984375 
z
" id="DejaVuSans-102"/>
       </defs>
       <use xlink:href="#DejaVuSans-102"/>
      </g>
     </g>
    </g>
    <g id="xtick_7">
     <g id="line2d_7">
      <g>
       <use style="stroke:#000000;stroke-width:0.8;" x="251.645254" xlink:href="#m2b79399016" y="296.12"/>
      </g>
     </g>
     <g id="text_7">
      <!-- g -->
      <g transform="translate(248.471036 310.718437)scale(0.1 -0.1)">
       <defs>
        <path d="M 45.40625 27.984375 
Q 45.40625 37.75 41.375 43.109375 
Q 37.359375 48.484375 30.078125 48.484375 
Q 22.859375 48.484375 18.828125 43.109375 
Q 14.796875 37.75 14.796875 27.984375 
Q 14.796875 18.265625 18.828125 12.890625 
Q 22.859375 7.515625 30.078125 7.515625 
Q 37.359375 7.515625 41.375 12.890625 
Q 45.40625 18.265625 45.40625 27.984375 
z
M 54.390625 6.78125 
Q 54.390625 -7.171875 48.1875 -13.984375 
Q 42 -20.796875 29.203125 -20.796875 
Q 24.46875 -20.796875 20.265625 -20.09375 
Q 16.0625 -19.390625 12.109375 -17.921875 
L 12.109375 -9.1875 
Q 16.0625 -11.328125 19.921875 -12.34375 
Q 23.78125 -13.375 27.78125 -13.375 
Q 36.625 -13.375 41.015625 -8.765625 
Q 45.40625 -4.15625 45.40625 5.171875 
L 45.40625 9.625 
Q 42.625 4.78125 38.28125 2.390625 
Q 33.9375 0 27.875 0 
Q 17.828125 0 11.671875 7.65625 
Q 5.515625 15.328125 5.515625 27.984375 
Q 5.515625 40.671875 11.671875 48.328125 
Q 17.828125 56 27.875 56 
Q 33.9375 56 38.28125 53.609375 
Q 42.625 51.21875 45.40625 46.390625 
L 45.40625 54.6875 
L 54.390625 54.6875 
z
" id="DejaVuSans-103"/>
       </defs>
       <use xlink:href="#DejaVuSans-103"/>
      </g>
     </g>
    </g>
    <g id="xtick_8">
     <g id="line2d_8">
      <g>
       <use style="stroke:#000000;stroke-width:0.8;" x="276.995223" xlink:href="#m2b79399016" y="296.12"/>
      </g>
     </g>
     <g id="text_8">
      <!-- h -->
      <g transform="translate(273.826473 310.718437)scale(0.1 -0.1)">
       <defs>
        <path d="M 54.890625 33.015625 
L 54.890625 0 
L 45.90625 0 
L 45.90625 32.71875 
Q 45.90625 40.484375 42.875 44.328125 
Q 39.84375 48.1875 33.796875 48.1875 
Q 26.515625 48.1875 22.3125 43.546875 
Q 18.109375 38.921875 18.109375 30.90625 
L 18.109375 0 
L 9.078125 0 
L 9.078125 75.984375 
L 18.109375 75.984375 
L 18.109375 46.1875 
Q 21.34375 51.125 25.703125 53.5625 
Q 30.078125 56 35.796875 56 
Q 45.21875 56 50.046875 50.171875 
Q 54.890625 44.34375 54.890625 33.015625 
z
" id="DejaVuSans-104"/>
       </defs>
       <use xlink:href="#DejaVuSans-104"/>
      </g>
     </g>
    </g>
    <g id="xtick_9">
     <g id="line2d_9">
      <g>
       <use style="stroke:#000000;stroke-width:0.8;" x="302.345191" xlink:href="#m2b79399016" y="296.12"/>
      </g>
     </g>
     <g id="text_9">
      <!-- i -->
      <g transform="translate(300.956128 310.718437)scale(0.1 -0.1)">
       <defs>
        <path d="M 9.421875 54.6875 
L 18.40625 54.6875 
L 18.40625 0 
L 9.421875 0 
z
M 9.421875 75.984375 
L 18.40625 75.984375 
L 18.40625 64.59375 
L 9.421875 64.59375 
z
" id="DejaVuSans-105"/>
       </defs>
       <use xlink:href="#DejaVuSans-105"/>
      </g>
     </g>
    </g>
    <g id="xtick_10">
     <g id="line2d_10">
      <g>
       <use style="stroke:#000000;stroke-width:0.8;" x="327.695159" xlink:href="#m2b79399016" y="296.12"/>
      </g>
     </g>
     <g id="text_10">
      <!-- j -->
      <g transform="translate(326.306096 310.718437)scale(0.1 -0.1)">
       <defs>
        <path d="M 9.421875 54.6875 
L 18.40625 54.6875 
L 18.40625 -0.984375 
Q 18.40625 -11.421875 14.421875 -16.109375 
Q 10.453125 -20.796875 1.609375 -20.796875 
L -1.8125 -20.796875 
L -1.8125 -13.1875 
L 0.59375 -13.1875 
Q 5.71875 -13.1875 7.5625 -10.8125 
Q 9.421875 -8.453125 9.421875 -0.984375 
z
M 9.421875 75.984375 
L 18.40625 75.984375 
L 18.40625 64.59375 
L 9.421875 64.59375 
z
" id="DejaVuSans-106"/>
       </defs>
       <use xlink:href="#DejaVuSans-106"/>
      </g>
     </g>
    </g>
    <g id="xtick_11">
     <g id="line2d_11">
      <g>
       <use style="stroke:#000000;stroke-width:0.8;" x="353.045127" xlink:href="#m2b79399016" y="296.12"/>
      </g>
     </g>
     <g id="text_11">
      <!-- k -->
      <g transform="translate(350.149815 310.718437)scale(0.1 -0.1)">
       <defs>
        <path d="M 9.078125 75.984375 
L 18.109375 75.984375 
L 18.109375 31.109375 
L 44.921875 54.6875 
L 56.390625 54.6875 
L 27.390625 29.109375 
L 57.625 0 
L 45.90625 0 
L 18.109375 26.703125 
L 18.109375 0 
L 9.078125 0 
z
" id="DejaVuSans-107"/>
       </defs>
       <use xlink:href="#DejaVuSans-107"/>
      </g>
     </g>
    </g>
    <g id="xtick_12">
     <g id="line2d_12">
      <g>
       <use style="stroke:#000000;stroke-width:0.8;" x="378.395095" xlink:href="#m2b79399016" y="296.12"/>
      </g>
     </g>
     <g id="text_12">
      <!-- l -->
      <g transform="translate(377.006033 310.718437)scale(0.1 -0.1)">
       <defs>
        <path d="M 9.421875 75.984375 
L 18.40625 75.984375 
L 18.40625 0 
L 9.421875 0 
z
" id="DejaVuSans-108"/>
       </defs>
       <use xlink:href="#DejaVuSans-108"/>
      </g>
     </g>
    </g>
    <g id="xtick_13">
     <g id="line2d_13">
      <g>
       <use style="stroke:#000000;stroke-width:0.8;" x="403.745064" xlink:href="#m2b79399016" y="296.12"/>
      </g>
     </g>
     <g id="text_13">
      <!-- m -->
      <g transform="translate(398.874751 310.718437)scale(0.1 -0.1)">
       <defs>
        <path d="M 52 44.1875 
Q 55.375 50.25 60.0625 53.125 
Q 64.75 56 71.09375 56 
Q 79.640625 56 84.28125 50.015625 
Q 88.921875 44.046875 88.921875 33.015625 
L 88.921875 0 
L 79.890625 0 
L 79.890625 32.71875 
Q 79.890625 40.578125 77.09375 44.375 
Q 74.3125 48.1875 68.609375 48.1875 
Q 61.625 48.1875 57.5625 43.546875 
Q 53.515625 38.921875 53.515625 30.90625 
L 53.515625 0 
L 44.484375 0 
L 44.484375 32.71875 
Q 44.484375 40.625 41.703125 44.40625 
Q 38.921875 48.1875 33.109375 48.1875 
Q 26.21875 48.1875 22.15625 43.53125 
Q 18.109375 38.875 18.109375 30.90625 
L 18.109375 0 
L 9.078125 0 
L 9.078125 54.6875 
L 18.109375 54.6875 
L 18.109375 46.1875 
Q 21.1875 51.21875 25.484375 53.609375 
Q 29.78125 56 35.6875 56 
Q 41.65625 56 45.828125 52.96875 
Q 50 49.953125 52 44.1875 
z
" id="DejaVuSans-109"/>
       </defs>
       <use xlink:href="#DejaVuSans-109"/>
      </g>
     </g>
    </g>
    <g id="xtick_14">
     <g id="line2d_14">
      <g>
       <use style="stroke:#000000;stroke-width:0.8;" x="429.095032" xlink:href="#m2b79399016" y="296.12"/>
      </g>
     </g>
     <g id="text_14">
      <!-- n -->
      <g transform="translate(425.926282 310.718437)scale(0.1 -0.1)">
       <defs>
        <path d="M 54.890625 33.015625 
L 54.890625 0 
L 45.90625 0 
L 45.90625 32.71875 
Q 45.90625 40.484375 42.875 44.328125 
Q 39.84375 48.1875 33.796875 48.1875 
Q 26.515625 48.1875 22.3125 43.546875 
Q 18.109375 38.921875 18.109375 30.90625 
L 18.109375 0 
L 9.078125 0 
L 9.078125 54.6875 
L 18.109375 54.6875 
L 18.109375 46.1875 
Q 21.34375 51.125 25.703125 53.5625 
Q 30.078125 56 35.796875 56 
Q 45.21875 56 50.046875 50.171875 
Q 54.890625 44.34375 54.890625 33.015625 
z
" id="DejaVuSans-110"/>
       </defs>
       <use xlink:href="#DejaVuSans-110"/>
      </g>
     </g>
    </g>
    <g id="xtick_15">
     <g id="line2d_15">
      <g>
       <use style="stroke:#000000;stroke-width:0.8;" x="454.445" xlink:href="#m2b79399016" y="296.12"/>
      </g>
     </g>
     <g id="text_15">
      <!-- o -->
      <g transform="translate(451.385625 310.718437)scale(0.1 -0.1)">
       <defs>
        <path d="M 30.609375 48.390625 
Q 23.390625 48.390625 19.1875 42.75 
Q 14.984375 37.109375 14.984375 27.296875 
Q 14.984375 17.484375 19.15625 11.84375 
Q 23.34375 6.203125 30.609375 6.203125 
Q 37.796875 6.203125 41.984375 11.859375 
Q 46.1875 17.53125 46.1875 27.296875 
Q 46.1875 37.015625 41.984375 42.703125 
Q 37.796875 48.390625 30.609375 48.390625 
z
M 30.609375 56 
Q 42.328125 56 49.015625 48.375 
Q 55.71875 40.765625 55.71875 27.296875 
Q 55.71875 13.875 49.015625 6.21875 
Q 42.328125 -1.421875 30.609375 -1.421875 
Q 18.84375 -1.421875 12.171875 6.21875 
Q 5.515625 13.875 5.515625 27.296875 
Q 5.515625 40.765625 12.171875 48.375 
Q 18.84375 56 30.609375 56 
z
" id="DejaVuSans-111"/>
       </defs>
       <use xlink:href="#DejaVuSans-111"/>
      </g>
     </g>
    </g>
    <g id="xtick_16">
     <g id="line2d_16">
      <g>
       <use style="stroke:#000000;stroke-width:0.8;" x="479.794968" xlink:href="#m2b79399016" y="296.12"/>
      </g>
     </g>
     <g id="text_16">
      <!-- p -->
      <g transform="translate(476.620749 310.718437)scale(0.1 -0.1)">
       <defs>
        <path d="M 18.109375 8.203125 
L 18.109375 -20.796875 
L 9.078125 -20.796875 
L 9.078125 54.6875 
L 18.109375 54.6875 
L 18.109375 46.390625 
Q 20.953125 51.265625 25.265625 53.625 
Q 29.59375 56 35.59375 56 
Q 45.5625 56 51.78125 48.09375 
Q 58.015625 40.1875 58.015625 27.296875 
Q 58.015625 14.40625 51.78125 6.484375 
Q 45.5625 -1.421875 35.59375 -1.421875 
Q 29.59375 -1.421875 25.265625 0.953125 
Q 20.953125 3.328125 18.109375 8.203125 
z
M 48.6875 27.296875 
Q 48.6875 37.203125 44.609375 42.84375 
Q 40.53125 48.484375 33.40625 48.484375 
Q 26.265625 48.484375 22.1875 42.84375 
Q 18.109375 37.203125 18.109375 27.296875 
Q 18.109375 17.390625 22.1875 11.75 
Q 26.265625 6.109375 33.40625 6.109375 
Q 40.53125 6.109375 44.609375 11.75 
Q 48.6875 17.390625 48.6875 27.296875 
z
" id="DejaVuSans-112"/>
       </defs>
       <use xlink:href="#DejaVuSans-112"/>
      </g>
     </g>
    </g>
    <g id="xtick_17">
     <g id="line2d_17">
      <g>
       <use style="stroke:#000000;stroke-width:0.8;" x="505.144936" xlink:href="#m2b79399016" y="296.12"/>
      </g>
     </g>
     <g id="text_17">
      <!-- q -->
      <g transform="translate(501.970718 310.718437)scale(0.1 -0.1)">
       <defs>
        <path d="M 14.796875 27.296875 
Q 14.796875 17.390625 18.875 11.75 
Q 22.953125 6.109375 30.078125 6.109375 
Q 37.203125 6.109375 41.296875 11.75 
Q 45.40625 17.390625 45.40625 27.296875 
Q 45.40625 37.203125 41.296875 42.84375 
Q 37.203125 48.484375 30.078125 48.484375 
Q 22.953125 48.484375 18.875 42.84375 
Q 14.796875 37.203125 14.796875 27.296875 
z
M 45.40625 8.203125 
Q 42.578125 3.328125 38.25 0.953125 
Q 33.9375 -1.421875 27.875 -1.421875 
Q 17.96875 -1.421875 11.734375 6.484375 
Q 5.515625 14.40625 5.515625 27.296875 
Q 5.515625 40.1875 11.734375 48.09375 
Q 17.96875 56 27.875 56 
Q 33.9375 56 38.25 53.625 
Q 42.578125 51.265625 45.40625 46.390625 
L 45.40625 54.6875 
L 54.390625 54.6875 
L 54.390625 -20.796875 
L 45.40625 -20.796875 
z
" id="DejaVuSans-113"/>
       </defs>
       <use xlink:href="#DejaVuSans-113"/>
      </g>
     </g>
    </g>
    <g id="xtick_18">
     <g id="line2d_18">
      <g>
       <use style="stroke:#000000;stroke-width:0.8;" x="530.494905" xlink:href="#m2b79399016" y="296.12"/>
      </g>
     </g>
     <g id="text_18">
      <!-- r -->
      <g transform="translate(528.439436 310.718437)scale(0.1 -0.1)">
       <defs>
        <path d="M 41.109375 46.296875 
Q 39.59375 47.171875 37.8125 47.578125 
Q 36.03125 48 33.890625 48 
Q 26.265625 48 22.1875 43.046875 
Q 18.109375 38.09375 18.109375 28.8125 
L 18.109375 0 
L 9.078125 0 
L 9.078125 54.6875 
L 18.109375 54.6875 
L 18.109375 46.1875 
Q 20.953125 51.171875 25.484375 53.578125 
Q 30.03125 56 36.53125 56 
Q 37.453125 56 38.578125 55.875 
Q 39.703125 55.765625 41.0625 55.515625 
z
" id="DejaVuSans-114"/>
       </defs>
       <use xlink:href="#DejaVuSans-114"/>
      </g>
     </g>
    </g>
    <g id="xtick_19">
     <g id="line2d_19">
      <g>
       <use style="stroke:#000000;stroke-width:0.8;" x="555.844873" xlink:href="#m2b79399016" y="296.12"/>
      </g>
     </g>
     <g id="text_19">
      <!-- s -->
      <g transform="translate(553.240185 310.718437)scale(0.1 -0.1)">
       <defs>
        <path d="M 44.28125 53.078125 
L 44.28125 44.578125 
Q 40.484375 46.53125 36.375 47.5 
Q 32.28125 48.484375 27.875 48.484375 
Q 21.1875 48.484375 17.84375 46.4375 
Q 14.5 44.390625 14.5 40.28125 
Q 14.5 37.15625 16.890625 35.375 
Q 19.28125 33.59375 26.515625 31.984375 
L 29.59375 31.296875 
Q 39.15625 29.25 43.1875 25.515625 
Q 47.21875 21.78125 47.21875 15.09375 
Q 47.21875 7.46875 41.1875 3.015625 
Q 35.15625 -1.421875 24.609375 -1.421875 
Q 20.21875 -1.421875 15.453125 -0.5625 
Q 10.6875 0.296875 5.421875 2 
L 5.421875 11.28125 
Q 10.40625 8.6875 15.234375 7.390625 
Q 20.0625 6.109375 24.8125 6.109375 
Q 31.15625 6.109375 34.5625 8.28125 
Q 37.984375 10.453125 37.984375 14.40625 
Q 37.984375 18.0625 35.515625 20.015625 
Q 33.0625 21.96875 24.703125 23.78125 
L 21.578125 24.515625 
Q 13.234375 26.265625 9.515625 29.90625 
Q 5.8125 33.546875 5.8125 39.890625 
Q 5.8125 47.609375 11.28125 51.796875 
Q 16.75 56 26.8125 56 
Q 31.78125 56 36.171875 55.265625 
Q 40.578125 54.546875 44.28125 53.078125 
z
" id="DejaVuSans-115"/>
       </defs>
       <use xlink:href="#DejaVuSans-115"/>
      </g>
     </g>
    </g>
    <g id="xtick_20">
     <g id="line2d_20">
      <g>
       <use style="stroke:#000000;stroke-width:0.8;" x="581.194841" xlink:href="#m2b79399016" y="296.12"/>
      </g>
     </g>
     <g id="text_20">
      <!-- t -->
      <g transform="translate(579.234685 310.718437)scale(0.1 -0.1)">
       <defs>
        <path d="M 18.3125 70.21875 
L 18.3125 54.6875 
L 36.8125 54.6875 
L 36.8125 47.703125 
L 18.3125 47.703125 
L 18.3125 18.015625 
Q 18.3125 11.328125 20.140625 9.421875 
Q 21.96875 7.515625 27.59375 7.515625 
L 36.8125 7.515625 
L 36.8125 0 
L 27.59375 0 
Q 17.1875 0 13.234375 3.875 
Q 9.28125 7.765625 9.28125 18.015625 
L 9.28125 47.703125 
L 2.6875 47.703125 
L 2.6875 54.6875 
L 9.28125 54.6875 
L 9.28125 70.21875 
z
" id="DejaVuSans-116"/>
       </defs>
       <use xlink:href="#DejaVuSans-116"/>
      </g>
     </g>
    </g>
    <g id="xtick_21">
     <g id="line2d_21">
      <g>
       <use style="stroke:#000000;stroke-width:0.8;" x="606.544809" xlink:href="#m2b79399016" y="296.12"/>
      </g>
     </g>
     <g id="text_21">
      <!-- u -->
      <g transform="translate(603.376059 310.718437)scale(0.1 -0.1)">
       <defs>
        <path d="M 8.5 21.578125 
L 8.5 54.6875 
L 17.484375 54.6875 
L 17.484375 21.921875 
Q 17.484375 14.15625 20.5 10.265625 
Q 23.53125 6.390625 29.59375 6.390625 
Q 36.859375 6.390625 41.078125 11.03125 
Q 45.3125 15.671875 45.3125 23.6875 
L 45.3125 54.6875 
L 54.296875 54.6875 
L 54.296875 0 
L 45.3125 0 
L 45.3125 8.40625 
Q 42.046875 3.421875 37.71875 1 
Q 33.40625 -1.421875 27.6875 -1.421875 
Q 18.265625 -1.421875 13.375 4.4375 
Q 8.5 10.296875 8.5 21.578125 
z
M 31.109375 56 
z
" id="DejaVuSans-117"/>
       </defs>
       <use xlink:href="#DejaVuSans-117"/>
      </g>
     </g>
    </g>
    <g id="xtick_22">
     <g id="line2d_22">
      <g>
       <use style="stroke:#000000;stroke-width:0.8;" x="631.894777" xlink:href="#m2b79399016" y="296.12"/>
      </g>
     </g>
     <g id="text_22">
      <!-- v -->
      <g transform="translate(628.935402 310.718437)scale(0.1 -0.1)">
       <defs>
        <path d="M 2.984375 54.6875 
L 12.5 54.6875 
L 29.59375 8.796875 
L 46.6875 54.6875 
L 56.203125 54.6875 
L 35.6875 0 
L 23.484375 0 
z
" id="DejaVuSans-118"/>
       </defs>
       <use xlink:href="#DejaVuSans-118"/>
      </g>
     </g>
    </g>
    <g id="xtick_23">
     <g id="line2d_23">
      <g>
       <use style="stroke:#000000;stroke-width:0.8;" x="657.244746" xlink:href="#m2b79399016" y="296.12"/>
      </g>
     </g>
     <g id="text_23">
      <!-- w -->
      <g transform="translate(653.155683 310.718437)scale(0.1 -0.1)">
       <defs>
        <path d="M 4.203125 54.6875 
L 13.1875 54.6875 
L 24.421875 12.015625 
L 35.59375 54.6875 
L 46.1875 54.6875 
L 57.421875 12.015625 
L 68.609375 54.6875 
L 77.59375 54.6875 
L 63.28125 0 
L 52.6875 0 
L 40.921875 44.828125 
L 29.109375 0 
L 18.5 0 
z
" id="DejaVuSans-119"/>
       </defs>
       <use xlink:href="#DejaVuSans-119"/>
      </g>
     </g>
    </g>
    <g id="xtick_24">
     <g id="line2d_24">
      <g>
       <use style="stroke:#000000;stroke-width:0.8;" x="682.594714" xlink:href="#m2b79399016" y="296.12"/>
      </g>
     </g>
     <g id="text_24">
      <!-- x -->
      <g transform="translate(679.635339 310.718437)scale(0.1 -0.1)">
       <defs>
        <path d="M 54.890625 54.6875 
L 35.109375 28.078125 
L 55.90625 0 
L 45.3125 0 
L 29.390625 21.484375 
L 13.484375 0 
L 2.875 0 
L 24.125 28.609375 
L 4.6875 54.6875 
L 15.28125 54.6875 
L 29.78125 35.203125 
L 44.28125 54.6875 
z
" id="DejaVuSans-120"/>
       </defs>
       <use xlink:href="#DejaVuSans-120"/>
      </g>
     </g>
    </g>
    <g id="xtick_25">
     <g id="line2d_25">
      <g>
       <use style="stroke:#000000;stroke-width:0.8;" x="707.944682" xlink:href="#m2b79399016" y="296.12"/>
      </g>
     </g>
     <g id="text_25">
      <!-- y -->
      <g transform="translate(704.985307 310.718437)scale(0.1 -0.1)">
       <defs>
        <path d="M 32.171875 -5.078125 
Q 28.375 -14.84375 24.75 -17.8125 
Q 21.140625 -20.796875 15.09375 -20.796875 
L 7.90625 -20.796875 
L 7.90625 -13.28125 
L 13.1875 -13.28125 
Q 16.890625 -13.28125 18.9375 -11.515625 
Q 21 -9.765625 23.484375 -3.21875 
L 25.09375 0.875 
L 2.984375 54.6875 
L 12.5 54.6875 
L 29.59375 11.921875 
L 46.6875 54.6875 
L 56.203125 54.6875 
z
" id="DejaVuSans-121"/>
       </defs>
       <use xlink:href="#DejaVuSans-121"/>
      </g>
     </g>
    </g>
    <g id="xtick_26">
     <g id="line2d_26">
      <g>
       <use style="stroke:#000000;stroke-width:0.8;" x="733.29465" xlink:href="#m2b79399016" y="296.12"/>
      </g>
     </g>
     <g id="text_26">
      <!-- z -->
      <g transform="translate(730.670432 310.718437)scale(0.1 -0.1)">
       <defs>
        <path d="M 5.515625 54.6875 
L 48.1875 54.6875 
L 48.1875 46.484375 
L 14.40625 7.171875 
L 48.1875 7.171875 
L 48.1875 0 
L 4.296875 0 
L 4.296875 8.203125 
L 38.09375 47.515625 
L 5.515625 47.515625 
z
" id="DejaVuSans-122"/>
       </defs>
       <use xlink:href="#DejaVuSans-122"/>
      </g>
     </g>
    </g>
    <g id="xtick_27">
     <g id="line2d_27">
      <g>
       <use style="stroke:#000000;stroke-width:0.8;" x="758.644619" xlink:href="#m2b79399016" y="296.12"/>
      </g>
     </g>
     <g id="text_27">
      <!-- å -->
      <g transform="translate(755.580556 310.718437)scale(0.1 -0.1)">
       <defs>
        <path d="M 34.28125 27.484375 
Q 23.390625 27.484375 19.1875 25 
Q 14.984375 22.515625 14.984375 16.5 
Q 14.984375 11.71875 18.140625 8.90625 
Q 21.296875 6.109375 26.703125 6.109375 
Q 34.1875 6.109375 38.703125 11.40625 
Q 43.21875 16.703125 43.21875 25.484375 
L 43.21875 27.484375 
z
M 52.203125 31.203125 
L 52.203125 0 
L 43.21875 0 
L 43.21875 8.296875 
Q 40.140625 3.328125 35.546875 0.953125 
Q 30.953125 -1.421875 24.3125 -1.421875 
Q 15.921875 -1.421875 10.953125 3.296875 
Q 6 8.015625 6 15.921875 
Q 6 25.140625 12.171875 29.828125 
Q 18.359375 34.515625 30.609375 34.515625 
L 43.21875 34.515625 
L 43.21875 35.40625 
Q 43.21875 41.609375 39.140625 45 
Q 35.0625 48.390625 27.6875 48.390625 
Q 23 48.390625 18.546875 47.265625 
Q 14.109375 46.140625 10.015625 43.890625 
L 10.015625 52.203125 
Q 14.9375 54.109375 19.578125 55.046875 
Q 24.21875 56 28.609375 56 
Q 40.484375 56 46.34375 49.84375 
Q 52.203125 43.703125 52.203125 31.203125 
z
M 36.421875 74.421875 
Q 36.421875 77.484375 34.265625 79.625 
Q 32.125 81.78125 29 81.78125 
Q 25.828125 81.78125 23.703125 79.65625 
Q 21.578125 77.546875 21.578125 74.421875 
Q 21.578125 71.234375 23.703125 69.109375 
Q 25.828125 67 29 67 
Q 32.125 67 34.265625 69.140625 
Q 36.421875 71.296875 36.421875 74.421875 
z
M 42.375 74.421875 
Q 42.375 68.796875 38.484375 64.890625 
Q 34.609375 60.984375 29 60.984375 
Q 23.390625 60.984375 19.5 64.890625 
Q 15.625 68.796875 15.625 74.421875 
Q 15.625 80.03125 19.5 83.90625 
Q 23.390625 87.796875 29 87.796875 
Q 34.609375 87.796875 38.484375 83.90625 
Q 42.375 80.03125 42.375 74.421875 
z
" id="DejaVuSans-229"/>
       </defs>
       <use xlink:href="#DejaVuSans-229"/>
      </g>
     </g>
    </g>
    <g id="xtick_28">
     <g id="line2d_28">
      <g>
       <use style="stroke:#000000;stroke-width:0.8;" x="783.994587" xlink:href="#m2b79399016" y="296.12"/>
      </g>
     </g>
     <g id="text_28">
      <!-- ä -->
      <g transform="translate(780.930524 310.718437)scale(0.1 -0.1)">
       <defs>
        <path d="M 34.28125 27.484375 
Q 23.390625 27.484375 19.1875 25 
Q 14.984375 22.515625 14.984375 16.5 
Q 14.984375 11.71875 18.140625 8.90625 
Q 21.296875 6.109375 26.703125 6.109375 
Q 34.1875 6.109375 38.703125 11.40625 
Q 43.21875 16.703125 43.21875 25.484375 
L 43.21875 27.484375 
z
M 52.203125 31.203125 
L 52.203125 0 
L 43.21875 0 
L 43.21875 8.296875 
Q 40.140625 3.328125 35.546875 0.953125 
Q 30.953125 -1.421875 24.3125 -1.421875 
Q 15.921875 -1.421875 10.953125 3.296875 
Q 6 8.015625 6 15.921875 
Q 6 25.140625 12.171875 29.828125 
Q 18.359375 34.515625 30.609375 34.515625 
L 43.21875 34.515625 
L 43.21875 35.40625 
Q 43.21875 41.609375 39.140625 45 
Q 35.0625 48.390625 27.6875 48.390625 
Q 23 48.390625 18.546875 47.265625 
Q 14.109375 46.140625 10.015625 43.890625 
L 10.015625 52.203125 
Q 14.9375 54.109375 19.578125 55.046875 
Q 24.21875 56 28.609375 56 
Q 40.484375 56 46.34375 49.84375 
Q 52.203125 43.703125 52.203125 31.203125 
z
M 33.59375 75.78125 
L 43.5 75.78125 
L 43.5 65.921875 
L 33.59375 65.921875 
z
M 14.5 75.78125 
L 24.40625 75.78125 
L 24.40625 65.921875 
L 14.5 65.921875 
z
" id="DejaVuSans-228"/>
       </defs>
       <use xlink:href="#DejaVuSans-228"/>
      </g>
     </g>
    </g>
    <g id="xtick_29">
     <g id="line2d_29">
      <g>
       <use style="stroke:#000000;stroke-width:0.8;" x="809.344555" xlink:href="#m2b79399016" y="296.12"/>
      </g>
     </g>
     <g id="text_29">
      <!-- ö -->
      <g transform="translate(806.28518 310.718437)scale(0.1 -0.1)">
       <defs>
        <path d="M 30.609375 48.390625 
Q 23.390625 48.390625 19.1875 42.75 
Q 14.984375 37.109375 14.984375 27.296875 
Q 14.984375 17.484375 19.15625 11.84375 
Q 23.34375 6.203125 30.609375 6.203125 
Q 37.796875 6.203125 41.984375 11.859375 
Q 46.1875 17.53125 46.1875 27.296875 
Q 46.1875 37.015625 41.984375 42.703125 
Q 37.796875 48.390625 30.609375 48.390625 
z
M 30.609375 56 
Q 42.328125 56 49.015625 48.375 
Q 55.71875 40.765625 55.71875 27.296875 
Q 55.71875 13.875 49.015625 6.21875 
Q 42.328125 -1.421875 30.609375 -1.421875 
Q 18.84375 -1.421875 12.171875 6.21875 
Q 5.515625 13.875 5.515625 27.296875 
Q 5.515625 40.765625 12.171875 48.375 
Q 18.84375 56 30.609375 56 
z
M 35.21875 75.78125 
L 45.125 75.78125 
L 45.125 65.921875 
L 35.21875 65.921875 
z
M 16.125 75.78125 
L 26.03125 75.78125 
L 26.03125 65.921875 
L 16.125 65.921875 
z
" id="DejaVuSans-246"/>
       </defs>
       <use xlink:href="#DejaVuSans-246"/>
      </g>
     </g>
    </g>
   </g>
   <g id="matplotlib.axis_2">
    <g id="ytick_1">
     <g id="line2d_30">
      <defs>
       <path d="M 0 0 
L -3.5 0 
" id="m9b9e3d08b1" style="stroke:#000000;stroke-width:0.8;"/>
      </defs>
      <g>
       <use style="stroke:#000000;stroke-width:0.8;" x="55.69" xlink:href="#m9b9e3d08b1" y="296.12"/>
      </g>
     </g>
     <g id="text_30">
      <!-- 0.00% -->
      <g transform="translate(16.922812 299.919219)scale(0.1 -0.1)">
       <defs>
        <path d="M 31.78125 66.40625 
Q 24.171875 66.40625 20.328125 58.90625 
Q 16.5 51.421875 16.5 36.375 
Q 16.5 21.390625 20.328125 13.890625 
Q 24.171875 6.390625 31.78125 6.390625 
Q 39.453125 6.390625 43.28125 13.890625 
Q 47.125 21.390625 47.125 36.375 
Q 47.125 51.421875 43.28125 58.90625 
Q 39.453125 66.40625 31.78125 66.40625 
z
M 31.78125 74.21875 
Q 44.046875 74.21875 50.515625 64.515625 
Q 56.984375 54.828125 56.984375 36.375 
Q 56.984375 17.96875 50.515625 8.265625 
Q 44.046875 -1.421875 31.78125 -1.421875 
Q 19.53125 -1.421875 13.0625 8.265625 
Q 6.59375 17.96875 6.59375 36.375 
Q 6.59375 54.828125 13.0625 64.515625 
Q 19.53125 74.21875 31.78125 74.21875 
z
" id="DejaVuSans-48"/>
        <path d="M 10.6875 12.40625 
L 21 12.40625 
L 21 0 
L 10.6875 0 
z
" id="DejaVuSans-46"/>
        <path d="M 72.703125 32.078125 
Q 68.453125 32.078125 66.03125 28.46875 
Q 63.625 24.859375 63.625 18.40625 
Q 63.625 12.0625 66.03125 8.421875 
Q 68.453125 4.78125 72.703125 4.78125 
Q 76.859375 4.78125 79.265625 8.421875 
Q 81.6875 12.0625 81.6875 18.40625 
Q 81.6875 24.8125 79.265625 28.4375 
Q 76.859375 32.078125 72.703125 32.078125 
z
M 72.703125 38.28125 
Q 80.421875 38.28125 84.953125 32.90625 
Q 89.5 27.546875 89.5 18.40625 
Q 89.5 9.28125 84.9375 3.921875 
Q 80.375 -1.421875 72.703125 -1.421875 
Q 64.890625 -1.421875 60.34375 3.921875 
Q 55.8125 9.28125 55.8125 18.40625 
Q 55.8125 27.59375 60.375 32.9375 
Q 64.9375 38.28125 72.703125 38.28125 
z
M 22.3125 68.015625 
Q 18.109375 68.015625 15.6875 64.375 
Q 13.28125 60.75 13.28125 54.390625 
Q 13.28125 47.953125 15.671875 44.328125 
Q 18.0625 40.71875 22.3125 40.71875 
Q 26.5625 40.71875 28.96875 44.328125 
Q 31.390625 47.953125 31.390625 54.390625 
Q 31.390625 60.6875 28.953125 64.34375 
Q 26.515625 68.015625 22.3125 68.015625 
z
M 66.40625 74.21875 
L 74.21875 74.21875 
L 28.609375 -1.421875 
L 20.796875 -1.421875 
z
M 22.3125 74.21875 
Q 30.03125 74.21875 34.609375 68.875 
Q 39.203125 63.53125 39.203125 54.390625 
Q 39.203125 45.171875 34.640625 39.84375 
Q 30.078125 34.515625 22.3125 34.515625 
Q 14.546875 34.515625 10.03125 39.859375 
Q 5.515625 45.21875 5.515625 54.390625 
Q 5.515625 63.484375 10.046875 68.84375 
Q 14.59375 74.21875 22.3125 74.21875 
z
" id="DejaVuSans-37"/>
       </defs>
       <use xlink:href="#DejaVuSans-48"/>
       <use x="63.623047" xlink:href="#DejaVuSans-46"/>
       <use x="95.410156" xlink:href="#DejaVuSans-48"/>
       <use x="159.033203" xlink:href="#DejaVuSans-48"/>
       <use x="222.65625" xlink:href="#DejaVuSans-37"/>
      </g>
     </g>
    </g>
    <g id="ytick_2">
     <g id="line2d_31">
      <g>
       <use style="stroke:#000000;stroke-width:0.8;" x="55.69" xlink:href="#m9b9e3d08b1" y="253.334087"/>
      </g>
     </g>
     <g id="text_31">
      <!-- 2.00% -->
      <g transform="translate(16.922812 257.133306)scale(0.1 -0.1)">
       <defs>
        <path d="M 19.1875 8.296875 
L 53.609375 8.296875 
L 53.609375 0 
L 7.328125 0 
L 7.328125 8.296875 
Q 12.9375 14.109375 22.625 23.890625 
Q 32.328125 33.6875 34.8125 36.53125 
Q 39.546875 41.84375 41.421875 45.53125 
Q 43.3125 49.21875 43.3125 52.78125 
Q 43.3125 58.59375 39.234375 62.25 
Q 35.15625 65.921875 28.609375 65.921875 
Q 23.96875 65.921875 18.8125 64.3125 
Q 13.671875 62.703125 7.8125 59.421875 
L 7.8125 69.390625 
Q 13.765625 71.78125 18.9375 73 
Q 24.125 74.21875 28.421875 74.21875 
Q 39.75 74.21875 46.484375 68.546875 
Q 53.21875 62.890625 53.21875 53.421875 
Q 53.21875 48.921875 51.53125 44.890625 
Q 49.859375 40.875 45.40625 35.40625 
Q 44.1875 33.984375 37.640625 27.21875 
Q 31.109375 20.453125 19.1875 8.296875 
z
" id="DejaVuSans-50"/>
       </defs>
       <use xlink:href="#DejaVuSans-50"/>
       <use x="63.623047" xlink:href="#DejaVuSans-46"/>
       <use x="95.410156" xlink:href="#DejaVuSans-48"/>
       <use x="159.033203" xlink:href="#DejaVuSans-48"/>
       <use x="222.65625" xlink:href="#DejaVuSans-37"/>
      </g>
     </g>
    </g>
    <g id="ytick_3">
     <g id="line2d_32">
      <g>
       <use style="stroke:#000000;stroke-width:0.8;" x="55.69" xlink:href="#m9b9e3d08b1" y="210.548174"/>
      </g>
     </g>
     <g id="text_32">
      <!-- 4.00% -->
      <g transform="translate(16.922812 214.347393)scale(0.1 -0.1)">
       <defs>
        <path d="M 37.796875 64.3125 
L 12.890625 25.390625 
L 37.796875 25.390625 
z
M 35.203125 72.90625 
L 47.609375 72.90625 
L 47.609375 25.390625 
L 58.015625 25.390625 
L 58.015625 17.1875 
L 47.609375 17.1875 
L 47.609375 0 
L 37.796875 0 
L 37.796875 17.1875 
L 4.890625 17.1875 
L 4.890625 26.703125 
z
" id="DejaVuSans-52"/>
       </defs>
       <use xlink:href="#DejaVuSans-52"/>
       <use x="63.623047" xlink:href="#DejaVuSans-46"/>
       <use x="95.410156" xlink:href="#DejaVuSans-48"/>
       <use x="159.033203" xlink:href="#DejaVuSans-48"/>
       <use x="222.65625" xlink:href="#DejaVuSans-37"/>
      </g>
     </g>
    </g>
    <g id="ytick_4">
     <g id="line2d_33">
      <g>
       <use style="stroke:#000000;stroke-width:0.8;" x="55.69" xlink:href="#m9b9e3d08b1" y="167.762261"/>
      </g>
     </g>
     <g id="text_33">
      <!-- 6.00% -->
      <g transform="translate(16.922812 171.56148)scale(0.1 -0.1)">
       <defs>
        <path d="M 33.015625 40.375 
Q 26.375 40.375 22.484375 35.828125 
Q 18.609375 31.296875 18.609375 23.390625 
Q 18.609375 15.53125 22.484375 10.953125 
Q 26.375 6.390625 33.015625 6.390625 
Q 39.65625 6.390625 43.53125 10.953125 
Q 47.40625 15.53125 47.40625 23.390625 
Q 47.40625 31.296875 43.53125 35.828125 
Q 39.65625 40.375 33.015625 40.375 
z
M 52.59375 71.296875 
L 52.59375 62.3125 
Q 48.875 64.0625 45.09375 64.984375 
Q 41.3125 65.921875 37.59375 65.921875 
Q 27.828125 65.921875 22.671875 59.328125 
Q 17.53125 52.734375 16.796875 39.40625 
Q 19.671875 43.65625 24.015625 45.921875 
Q 28.375 48.1875 33.59375 48.1875 
Q 44.578125 48.1875 50.953125 41.515625 
Q 57.328125 34.859375 57.328125 23.390625 
Q 57.328125 12.15625 50.6875 5.359375 
Q 44.046875 -1.421875 33.015625 -1.421875 
Q 20.359375 -1.421875 13.671875 8.265625 
Q 6.984375 17.96875 6.984375 36.375 
Q 6.984375 53.65625 15.1875 63.9375 
Q 23.390625 74.21875 37.203125 74.21875 
Q 40.921875 74.21875 44.703125 73.484375 
Q 48.484375 72.75 52.59375 71.296875 
z
" id="DejaVuSans-54"/>
       </defs>
       <use xlink:href="#DejaVuSans-54"/>
       <use x="63.623047" xlink:href="#DejaVuSans-46"/>
       <use x="95.410156" xlink:href="#DejaVuSans-48"/>
       <use x="159.033203" xlink:href="#DejaVuSans-48"/>
       <use x="222.65625" xlink:href="#DejaVuSans-37"/>
      </g>
     </g>
    </g>
    <g id="ytick_5">
     <g id="line2d_34">
      <g>
       <use style="stroke:#000000;stroke-width:0.8;" x="55.69" xlink:href="#m9b9e3d08b1" y="124.976348"/>
      </g>
     </g>
     <g id="text_34">
      <!-- 8.00% -->
      <g transform="translate(16.922812 128.775567)scale(0.1 -0.1)">
       <defs>
        <path d="M 31.78125 34.625 
Q 24.75 34.625 20.71875 30.859375 
Q 16.703125 27.09375 16.703125 20.515625 
Q 16.703125 13.921875 20.71875 10.15625 
Q 24.75 6.390625 31.78125 6.390625 
Q 38.8125 6.390625 42.859375 10.171875 
Q 46.921875 13.96875 46.921875 20.515625 
Q 46.921875 27.09375 42.890625 30.859375 
Q 38.875 34.625 31.78125 34.625 
z
M 21.921875 38.8125 
Q 15.578125 40.375 12.03125 44.71875 
Q 8.5 49.078125 8.5 55.328125 
Q 8.5 64.0625 14.71875 69.140625 
Q 20.953125 74.21875 31.78125 74.21875 
Q 42.671875 74.21875 48.875 69.140625 
Q 55.078125 64.0625 55.078125 55.328125 
Q 55.078125 49.078125 51.53125 44.71875 
Q 48 40.375 41.703125 38.8125 
Q 48.828125 37.15625 52.796875 32.3125 
Q 56.78125 27.484375 56.78125 20.515625 
Q 56.78125 9.90625 50.3125 4.234375 
Q 43.84375 -1.421875 31.78125 -1.421875 
Q 19.734375 -1.421875 13.25 4.234375 
Q 6.78125 9.90625 6.78125 20.515625 
Q 6.78125 27.484375 10.78125 32.3125 
Q 14.796875 37.15625 21.921875 38.8125 
z
M 18.3125 54.390625 
Q 18.3125 48.734375 21.84375 45.5625 
Q 25.390625 42.390625 31.78125 42.390625 
Q 38.140625 42.390625 41.71875 45.5625 
Q 45.3125 48.734375 45.3125 54.390625 
Q 45.3125 60.0625 41.71875 63.234375 
Q 38.140625 66.40625 31.78125 66.40625 
Q 25.390625 66.40625 21.84375 63.234375 
Q 18.3125 60.0625 18.3125 54.390625 
z
" id="DejaVuSans-56"/>
       </defs>
       <use xlink:href="#DejaVuSans-56"/>
       <use x="63.623047" xlink:href="#DejaVuSans-46"/>
       <use x="95.410156" xlink:href="#DejaVuSans-48"/>
       <use x="159.033203" xlink:href="#DejaVuSans-48"/>
       <use x="222.65625" xlink:href="#DejaVuSans-37"/>
      </g>
     </g>
    </g>
    <g id="ytick_6">
     <g id="line2d_35">
      <g>
       <use style="stroke:#000000;stroke-width:0.8;" x="55.69" xlink:href="#m9b9e3d08b1" y="82.190435"/>
      </g>
     </g>
     <g id="text_35">
      <!-- 10.00% -->
      <g transform="translate(10.560312 85.989654)scale(0.1 -0.1)">
       <defs>
        <path d="M 12.40625 8.296875 
L 28.515625 8.296875 
L 28.515625 63.921875 
L 10.984375 60.40625 
L 10.984375 69.390625 
L 28.421875 72.90625 
L 38.28125 72.90625 
L 38.28125 8.296875 
L 54.390625 8.296875 
L 54.390625 0 
L 12.40625 0 
z
" id="DejaVuSans-49"/>
       </defs>
       <use xlink:href="#DejaVuSans-49"/>
       <use x="63.623047" xlink:href="#DejaVuSans-48"/>
       <use x="127.246094" xlink:href="#DejaVuSans-46"/>
       <use x="159.033203" xlink:href="#DejaVuSans-48"/>
       <use x="222.65625" xlink:href="#DejaVuSans-48"/>
       <use x="286.279297" xlink:href="#DejaVuSans-37"/>
      </g>
     </g>
    </g>
    <g id="ytick_7">
     <g id="line2d_36">
      <g>
       <use style="stroke:#000000;stroke-width:0.8;" x="55.69" xlink:href="#m9b9e3d08b1" y="39.404522"/>
      </g>
     </g>
     <g id="text_36">
      <!-- 12.00% -->
      <g transform="translate(10.560312 43.203741)scale(0.1 -0.1)">
       <use xlink:href="#DejaVuSans-49"/>
       <use x="63.623047" xlink:href="#DejaVuSans-50"/>
       <use x="127.246094" xlink:href="#DejaVuSans-46"/>
       <use x="159.033203" xlink:href="#DejaVuSans-48"/>
       <use x="222.65625" xlink:href="#DejaVuSans-48"/>
       <use x="286.279297" xlink:href="#DejaVuSans-37"/>
      </g>
     </g>
    </g>
   </g>
   <g id="patch_119">
    <path d="M 55.69 296.12 
L 55.69 10.8 
" style="fill:none;stroke:#000000;stroke-linecap:square;stroke-linejoin:miter;stroke-width:0.8;"/>
   </g>
   <g id="patch_120">
    <path d="M 853.2 296.12 
L 853.2 10.8 
" style="fill:none;"/>
   </g>
   <g id="patch_121">
    <path d="M 55.69 296.12 
L 853.2 296.12 
" style="fill:none;stroke:#000000;stroke-linecap:square;stroke-linejoin:miter;stroke-width:0.8;"/>
   </g>
   <g id="patch_122">
    <path d="M 55.69 10.8 
L 853.2 10.8 
" style="fill:none;"/>
   </g>
   <g id="legend_1">
    <g id="patch_123">
     <path d="M 780.825 77.5125 
L 846.2 77.5125 
Q 848.2 77.5125 848.2 75.5125 
L 848.2 17.8 
Q 848.2 15.8 846.2 15.8 
L 780.825 15.8 
Q 778.825 15.8 778.825 17.8 
L 778.825 75.5125 
Q 778.825 77.5125 780.825 77.5125 
z
" style="fill:#ffffff;opacity:0.8;stroke:#cccccc;stroke-linejoin:miter;"/>
    </g>
    <g id="patch_124">
     <path d="M 782.825 27.398438 
L 802.825 27.398438 
L 802.825 20.398438 
L 782.825 20.398438 
z
" style="fill:#d35e60;"/>
    </g>
    <g id="text_37">
     <!-- Keylog -->
     <g transform="translate(810.825 27.398438)scale(0.1 -0.1)">
      <defs>
       <path d="M 9.8125 72.90625 
L 19.671875 72.90625 
L 19.671875 42.09375 
L 52.390625 72.90625 
L 65.09375 72.90625 
L 28.90625 38.921875 
L 67.671875 0 
L 54.6875 0 
L 19.671875 35.109375 
L 19.671875 0 
L 9.8125 0 
z
" id="DejaVuSans-75"/>
      </defs>
      <use xlink:href="#DejaVuSans-75"/>
      <use x="60.576172" xlink:href="#DejaVuSans-101"/>
      <use x="122.099609" xlink:href="#DejaVuSans-121"/>
      <use x="181.279297" xlink:href="#DejaVuSans-108"/>
      <use x="209.0625" xlink:href="#DejaVuSans-111"/>
      <use x="270.244141" xlink:href="#DejaVuSans-103"/>
     </g>
    </g>
    <g id="patch_125">
     <path d="M 782.825 42.076563 
L 802.825 42.076563 
L 802.825 35.076563 
L 782.825 35.076563 
z
" style="fill:#84ba5b;"/>
    </g>
    <g id="text_38">
     <!-- Code -->
     <g transform="translate(810.825 42.076563)scale(0.1 -0.1)">
      <defs>
       <path d="M 64.40625 67.28125 
L 64.40625 56.890625 
Q 59.421875 61.53125 53.78125 63.8125 
Q 48.140625 66.109375 41.796875 66.109375 
Q 29.296875 66.109375 22.65625 58.46875 
Q 16.015625 50.828125 16.015625 36.375 
Q 16.015625 21.96875 22.65625 14.328125 
Q 29.296875 6.6875 41.796875 6.6875 
Q 48.140625 6.6875 53.78125 8.984375 
Q 59.421875 11.28125 64.40625 15.921875 
L 64.40625 5.609375 
Q 59.234375 2.09375 53.4375 0.328125 
Q 47.65625 -1.421875 41.21875 -1.421875 
Q 24.65625 -1.421875 15.125 8.703125 
Q 5.609375 18.84375 5.609375 36.375 
Q 5.609375 53.953125 15.125 64.078125 
Q 24.65625 74.21875 41.21875 74.21875 
Q 47.75 74.21875 53.53125 72.484375 
Q 59.328125 70.75 64.40625 67.28125 
z
" id="DejaVuSans-67"/>
      </defs>
      <use xlink:href="#DejaVuSans-67"/>
      <use x="69.824219" xlink:href="#DejaVuSans-111"/>
      <use x="131.005859" xlink:href="#DejaVuSans-100"/>
      <use x="194.482422" xlink:href="#DejaVuSans-101"/>
     </g>
    </g>
    <g id="patch_126">
     <path d="M 782.825 56.754688 
L 802.825 56.754688 
L 802.825 49.754688 
L 782.825 49.754688 
z
" style="fill:#7293cb;"/>
    </g>
    <g id="text_39">
     <!-- SE -->
     <g transform="translate(810.825 56.754688)scale(0.1 -0.1)">
      <defs>
       <path d="M 53.515625 70.515625 
L 53.515625 60.890625 
Q 47.90625 63.578125 42.921875 64.890625 
Q 37.9375 66.21875 33.296875 66.21875 
Q 25.25 66.21875 20.875 63.09375 
Q 16.5 59.96875 16.5 54.203125 
Q 16.5 49.359375 19.40625 46.890625 
Q 22.3125 44.4375 30.421875 42.921875 
L 36.375 41.703125 
Q 47.40625 39.59375 52.65625 34.296875 
Q 57.90625 29 57.90625 20.125 
Q 57.90625 9.515625 50.796875 4.046875 
Q 43.703125 -1.421875 29.984375 -1.421875 
Q 24.8125 -1.421875 18.96875 -0.25 
Q 13.140625 0.921875 6.890625 3.21875 
L 6.890625 13.375 
Q 12.890625 10.015625 18.65625 8.296875 
Q 24.421875 6.59375 29.984375 6.59375 
Q 38.421875 6.59375 43.015625 9.90625 
Q 47.609375 13.234375 47.609375 19.390625 
Q 47.609375 24.75 44.3125 27.78125 
Q 41.015625 30.8125 33.5 32.328125 
L 27.484375 33.5 
Q 16.453125 35.6875 11.515625 40.375 
Q 6.59375 45.0625 6.59375 53.421875 
Q 6.59375 63.09375 13.40625 68.65625 
Q 20.21875 74.21875 32.171875 74.21875 
Q 37.3125 74.21875 42.625 73.28125 
Q 47.953125 72.359375 53.515625 70.515625 
z
" id="DejaVuSans-83"/>
       <path d="M 9.8125 72.90625 
L 55.90625 72.90625 
L 55.90625 64.59375 
L 19.671875 64.59375 
L 19.671875 43.015625 
L 54.390625 43.015625 
L 54.390625 34.71875 
L 19.671875 34.71875 
L 19.671875 8.296875 
L 56.78125 8.296875 
L 56.78125 0 
L 9.8125 0 
z
" id="DejaVuSans-69"/>
      </defs>
      <use xlink:href="#DejaVuSans-83"/>
      <use x="63.476562" xlink:href="#DejaVuSans-69"/>
     </g>
    </g>
    <g id="patch_127">
     <path d="M 782.825 71.432813 
L 802.825 71.432813 
L 802.825 64.432813 
L 782.825 64.432813 
z
" style="fill:#e1974c;"/>
    </g>
    <g id="text_40">
     <!-- EN -->
     <g transform="translate(810.825 71.432813)scale(0.1 -0.1)">
      <defs>
       <path d="M 9.8125 72.90625 
L 23.09375 72.90625 
L 55.421875 11.921875 
L 55.421875 72.90625 
L 64.984375 72.90625 
L 64.984375 0 
L 51.703125 0 
L 19.390625 60.984375 
L 19.390625 0 
L 9.8125 0 
z
" id="DejaVuSans-78"/>
      </defs>
      <use xlink:href="#DejaVuSans-69"/>
      <use x="63.183594" xlink:href="#DejaVuSans-78"/>
     </g>
    </g>
   </g>
  </g>
 </g>
 <defs>
  <clipPath id="p164d46d7df">
   <rect height="285.32" width="797.51" x="55.69" y="10.8"/>
  </clipPath>
 </defs>
</svg>
