<?xml version="1.0" encoding="utf-8" standalone="no"?>
<!DOCTYPE svg PUBLIC "-//W3C//DTD SVG 1.1//EN"
  "http://www.w3.org/Graphics/SVG/1.1/DTD/svg11.dtd">
<!-- Created with matplotlib (https://matplotlib.org/) -->
<svg height="324pt" version="1.1" viewBox="0 0 864 324" width="864pt" xmlns="http://www.w3.org/2000/svg" xmlns:xlink="http://www.w3.org/1999/xlink">
 <metadata>
  <rdf:RDF xmlns:cc="http://creativecommons.org/ns#" xmlns:dc="http://purl.org/dc/elements/1.1/" xmlns:rdf="http://www.w3.org/1999/02/22-rdf-syntax-ns#">
   <cc:Work>
    <dc:type rdf:resource="http://purl.org/dc/dcmitype/StillImage"/>
    <dc:date>2021-05-27T20:36:58.108146</dc:date>
    <dc:format>image/svg+xml</dc:format>
    <dc:creator>
     <cc:Agent>
      <dc:title>Matplotlib v3.3.3, https://matplotlib.org/</dc:title>
     </cc:Agent>
    </dc:creator>
   </cc:Work>
  </rdf:RDF>
 </metadata>
 <defs>
  <style type="text/css">*{stroke-linecap:butt;stroke-linejoin:round;}</style>
 </defs>
 <g id="figure_1">
  <g id="patch_1">
   <path d="M 0 324 
L 864 324 
L 864 0 
L 0 0 
z
" style="fill:none;"/>
  </g>
  <g id="axes_1">
   <g id="patch_2">
    <path d="M 55.69 295.76 
L 853.2 295.76 
L 853.2 10.8 
L 55.69 10.8 
z
" style="fill:none;"/>
   </g>
   <g id="patch_3">
    <path clip-path="url(#p6ff94003d3)" d="M 91.940455 295.76 
L 97.649188 295.76 
L 97.649188 100.420837 
L 91.940455 100.420837 
z
" style="fill:#e1974c;"/>
   </g>
   <g id="patch_4">
    <path clip-path="url(#p6ff94003d3)" d="M 114.775387 295.76 
L 120.48412 295.76 
L 120.48412 100.420837 
L 114.775387 100.420837 
z
" style="fill:#e1974c;"/>
   </g>
   <g id="patch_5">
    <path clip-path="url(#p6ff94003d3)" d="M 137.610319 295.76 
L 143.319052 295.76 
L 143.319052 111.175919 
L 137.610319 111.175919 
z
" style="fill:#e1974c;"/>
   </g>
   <g id="patch_6">
    <path clip-path="url(#p6ff94003d3)" d="M 160.445251 295.76 
L 166.153984 295.76 
L 166.153984 168.581165 
L 160.445251 168.581165 
z
" style="fill:#e1974c;"/>
   </g>
   <g id="patch_7">
    <path clip-path="url(#p6ff94003d3)" d="M 183.280183 295.76 
L 188.988916 295.76 
L 188.988916 186.461487 
L 183.280183 186.461487 
z
" style="fill:#e1974c;"/>
   </g>
   <g id="patch_8">
    <path clip-path="url(#p6ff94003d3)" d="M 206.115115 295.76 
L 211.823848 295.76 
L 211.823848 195.26721 
L 206.115115 195.26721 
z
" style="fill:#e1974c;"/>
   </g>
   <g id="patch_9">
    <path clip-path="url(#p6ff94003d3)" d="M 228.950047 295.76 
L 234.65878 295.76 
L 234.65878 208.106088 
L 228.950047 208.106088 
z
" style="fill:#e1974c;"/>
   </g>
   <g id="patch_10">
    <path clip-path="url(#p6ff94003d3)" d="M 251.784979 295.76 
L 257.493712 295.76 
L 257.493712 224.373148 
L 251.784979 224.373148 
z
" style="fill:#e1974c;"/>
   </g>
   <g id="patch_11">
    <path clip-path="url(#p6ff94003d3)" d="M 274.619911 295.76 
L 280.328644 295.76 
L 280.328644 228.809619 
L 274.619911 228.809619 
z
" style="fill:#e1974c;"/>
   </g>
   <g id="patch_12">
    <path clip-path="url(#p6ff94003d3)" d="M 297.454843 295.76 
L 303.163576 295.76 
L 303.163576 228.809619 
L 297.454843 228.809619 
z
" style="fill:#e1974c;"/>
   </g>
   <g id="patch_13">
    <path clip-path="url(#p6ff94003d3)" d="M 320.289775 295.76 
L 325.998508 295.76 
L 325.998508 234.119941 
L 320.289775 234.119941 
z
" style="fill:#e1974c;"/>
   </g>
   <g id="patch_14">
    <path clip-path="url(#p6ff94003d3)" d="M 343.124707 295.76 
L 348.83344 295.76 
L 348.83344 235.329887 
L 343.124707 235.329887 
z
" style="fill:#e1974c;"/>
   </g>
   <g id="patch_15">
    <path clip-path="url(#p6ff94003d3)" d="M 365.959639 295.76 
L 371.668372 295.76 
L 371.668372 238.959727 
L 365.959639 238.959727 
z
" style="fill:#e1974c;"/>
   </g>
   <g id="patch_16">
    <path clip-path="url(#p6ff94003d3)" d="M 388.794571 295.76 
L 394.503304 295.76 
L 394.503304 269.54449 
L 388.794571 269.54449 
z
" style="fill:#e1974c;"/>
   </g>
   <g id="patch_17">
    <path clip-path="url(#p6ff94003d3)" d="M 411.629503 295.76 
L 417.338236 295.76 
L 417.338236 270.552778 
L 411.629503 270.552778 
z
" style="fill:#e1974c;"/>
   </g>
   <g id="patch_18">
    <path clip-path="url(#p6ff94003d3)" d="M 434.464435 295.76 
L 440.173168 295.76 
L 440.173168 277.6108 
L 434.464435 277.6108 
z
" style="fill:#e1974c;"/>
   </g>
   <g id="patch_19">
    <path clip-path="url(#p6ff94003d3)" d="M 457.299366 295.76 
L 463.008099 295.76 
L 463.008099 278.014116 
L 457.299366 278.014116 
z
" style="fill:#e1974c;"/>
   </g>
   <g id="patch_20">
    <path clip-path="url(#p6ff94003d3)" d="M 480.134298 295.76 
L 485.843031 295.76 
L 485.843031 279.627378 
L 480.134298 279.627378 
z
" style="fill:#e1974c;"/>
   </g>
   <g id="patch_21">
    <path clip-path="url(#p6ff94003d3)" d="M 502.96923 295.76 
L 508.677963 295.76 
L 508.677963 279.627378 
L 502.96923 279.627378 
z
" style="fill:#e1974c;"/>
   </g>
   <g id="patch_22">
    <path clip-path="url(#p6ff94003d3)" d="M 525.804162 295.76 
L 531.512895 295.76 
L 531.512895 280.434009 
L 525.804162 280.434009 
z
" style="fill:#e1974c;"/>
   </g>
   <g id="patch_23">
    <path clip-path="url(#p6ff94003d3)" d="M 548.639094 295.76 
L 554.347827 295.76 
L 554.347827 287.223154 
L 548.639094 287.223154 
z
" style="fill:#e1974c;"/>
   </g>
   <g id="patch_24">
    <path clip-path="url(#p6ff94003d3)" d="M 571.474026 295.76 
L 577.182759 295.76 
L 577.182759 289.038074 
L 571.474026 289.038074 
z
" style="fill:#e1974c;"/>
   </g>
   <g id="patch_25">
    <path clip-path="url(#p6ff94003d3)" d="M 594.308958 295.76 
L 600.017691 295.76 
L 600.017691 290.046363 
L 594.308958 290.046363 
z
" style="fill:#e1974c;"/>
   </g>
   <g id="patch_26">
    <path clip-path="url(#p6ff94003d3)" d="M 617.14389 295.76 
L 622.852623 295.76 
L 622.852623 290.113582 
L 617.14389 290.113582 
z
" style="fill:#e1974c;"/>
   </g>
   <g id="patch_27">
    <path clip-path="url(#p6ff94003d3)" d="M 639.978822 295.76 
L 645.687555 295.76 
L 645.687555 290.31524 
L 639.978822 290.31524 
z
" style="fill:#e1974c;"/>
   </g>
   <g id="patch_28">
    <path clip-path="url(#p6ff94003d3)" d="M 662.813754 295.76 
L 668.522487 295.76 
L 668.522487 291.054652 
L 662.813754 291.054652 
z
" style="fill:#e1974c;"/>
   </g>
   <g id="patch_29">
    <path clip-path="url(#p6ff94003d3)" d="M 685.648686 295.76 
L 691.357419 295.76 
L 691.357419 294.348396 
L 685.648686 294.348396 
z
" style="fill:#e1974c;"/>
   </g>
   <g id="patch_30">
    <path clip-path="url(#p6ff94003d3)" d="M 708.483618 295.76 
L 714.192351 295.76 
L 714.192351 295.222246 
L 708.483618 295.222246 
z
" style="fill:#e1974c;"/>
   </g>
   <g id="patch_31">
    <path clip-path="url(#p6ff94003d3)" d="M 731.31855 295.76 
L 737.027283 295.76 
L 737.027283 295.558342 
L 731.31855 295.558342 
z
" style="fill:#e1974c;"/>
   </g>
   <g id="patch_32">
    <path clip-path="url(#p6ff94003d3)" d="M 754.153482 295.76 
L 759.862215 295.76 
L 759.862215 295.692781 
L 754.153482 295.692781 
z
" style="fill:#e1974c;"/>
   </g>
   <g id="patch_33">
    <path clip-path="url(#p6ff94003d3)" d="M 776.988414 295.76 
L 782.697147 295.76 
L 782.697147 295.76 
L 776.988414 295.76 
z
" style="fill:#e1974c;"/>
   </g>
   <g id="patch_34">
    <path clip-path="url(#p6ff94003d3)" d="M 799.823346 295.76 
L 805.532079 295.76 
L 805.532079 295.76 
L 799.823346 295.76 
z
" style="fill:#e1974c;"/>
   </g>
   <g id="patch_35">
    <path clip-path="url(#p6ff94003d3)" d="M 97.649188 295.76 
L 103.357921 295.76 
L 103.357921 169.175469 
L 97.649188 169.175469 
z
" style="fill:#7293cb;"/>
   </g>
   <g id="patch_36">
    <path clip-path="url(#p6ff94003d3)" d="M 120.48412 295.76 
L 126.192853 295.76 
L 126.192853 169.196573 
L 120.48412 169.196573 
z
" style="fill:#7293cb;"/>
   </g>
   <g id="patch_37">
    <path clip-path="url(#p6ff94003d3)" d="M 143.319052 295.76 
L 149.027785 295.76 
L 149.027785 166.635876 
L 143.319052 166.635876 
z
" style="fill:#7293cb;"/>
   </g>
   <g id="patch_38">
    <path clip-path="url(#p6ff94003d3)" d="M 166.153984 295.76 
L 171.862717 295.76 
L 171.862717 194.026197 
L 166.153984 194.026197 
z
" style="fill:#7293cb;"/>
   </g>
   <g id="patch_39">
    <path clip-path="url(#p6ff94003d3)" d="M 188.988916 295.76 
L 194.697649 295.76 
L 194.697649 95.190765 
L 188.988916 95.190765 
z
" style="fill:#7293cb;"/>
   </g>
   <g id="patch_40">
    <path clip-path="url(#p6ff94003d3)" d="M 211.823848 295.76 
L 217.532581 295.76 
L 217.532581 70.167683 
L 211.823848 70.167683 
z
" style="fill:#7293cb;"/>
   </g>
   <g id="patch_41">
    <path clip-path="url(#p6ff94003d3)" d="M 234.65878 295.76 
L 240.367513 295.76 
L 240.367513 294.986163 
L 234.65878 294.986163 
z
" style="fill:#7293cb;"/>
   </g>
   <g id="patch_42">
    <path clip-path="url(#p6ff94003d3)" d="M 257.493712 295.76 
L 263.202445 295.76 
L 263.202445 198.991652 
L 257.493712 198.991652 
z
" style="fill:#7293cb;"/>
   </g>
   <g id="patch_43">
    <path clip-path="url(#p6ff94003d3)" d="M 280.328644 295.76 
L 286.037377 295.76 
L 286.037377 237.575646 
L 280.328644 237.575646 
z
" style="fill:#7293cb;"/>
   </g>
   <g id="patch_44">
    <path clip-path="url(#p6ff94003d3)" d="M 303.163576 295.76 
L 308.872309 295.76 
L 308.872309 237.586199 
L 303.163576 237.586199 
z
" style="fill:#7293cb;"/>
   </g>
   <g id="patch_45">
    <path clip-path="url(#p6ff94003d3)" d="M 325.998508 295.76 
L 331.707241 295.76 
L 331.707241 288.63718 
L 325.998508 288.63718 
z
" style="fill:#7293cb;"/>
   </g>
   <g id="patch_46">
    <path clip-path="url(#p6ff94003d3)" d="M 348.83344 295.76 
L 354.542173 295.76 
L 354.542173 245.838118 
L 348.83344 245.838118 
z
" style="fill:#7293cb;"/>
   </g>
   <g id="patch_47">
    <path clip-path="url(#p6ff94003d3)" d="M 371.668372 295.76 
L 377.377105 295.76 
L 377.377105 224.010045 
L 371.668372 224.010045 
z
" style="fill:#7293cb;"/>
   </g>
   <g id="patch_48">
    <path clip-path="url(#p6ff94003d3)" d="M 394.503304 295.76 
L 400.212037 295.76 
L 400.212037 266.265076 
L 394.503304 266.265076 
z
" style="fill:#7293cb;"/>
   </g>
   <g id="patch_49">
    <path clip-path="url(#p6ff94003d3)" d="M 417.338236 295.76 
L 423.046969 295.76 
L 423.046969 275.378768 
L 417.338236 275.378768 
z
" style="fill:#7293cb;"/>
   </g>
   <g id="patch_50">
    <path clip-path="url(#p6ff94003d3)" d="M 440.173168 295.76 
L 445.881901 295.76 
L 445.881901 285.977994 
L 440.173168 285.977994 
z
" style="fill:#7293cb;"/>
   </g>
   <g id="patch_51">
    <path clip-path="url(#p6ff94003d3)" d="M 463.008099 295.76 
L 468.716832 295.76 
L 468.716832 284.093817 
L 463.008099 284.093817 
z
" style="fill:#7293cb;"/>
   </g>
   <g id="patch_52">
    <path clip-path="url(#p6ff94003d3)" d="M 485.843031 295.76 
L 491.551764 295.76 
L 491.551764 262.751152 
L 485.843031 262.751152 
z
" style="fill:#7293cb;"/>
   </g>
   <g id="patch_53">
    <path clip-path="url(#p6ff94003d3)" d="M 508.677963 295.76 
L 514.386696 295.76 
L 514.386696 262.759359 
L 508.677963 262.759359 
z
" style="fill:#7293cb;"/>
   </g>
   <g id="patch_54">
    <path clip-path="url(#p6ff94003d3)" d="M 531.512895 295.76 
L 537.221628 295.76 
L 537.221628 288.773188 
L 531.512895 288.773188 
z
" style="fill:#7293cb;"/>
   </g>
   <g id="patch_55">
    <path clip-path="url(#p6ff94003d3)" d="M 554.347827 295.76 
L 560.05656 295.76 
L 560.05656 291.264709 
L 554.347827 291.264709 
z
" style="fill:#7293cb;"/>
   </g>
   <g id="patch_56">
    <path clip-path="url(#p6ff94003d3)" d="M 577.182759 295.76 
L 582.891492 295.76 
L 582.891492 290.030087 
L 577.182759 290.030087 
z
" style="fill:#7293cb;"/>
   </g>
   <g id="patch_57">
    <path clip-path="url(#p6ff94003d3)" d="M 600.017691 295.76 
L 605.726424 295.76 
L 605.726424 286.328565 
L 600.017691 286.328565 
z
" style="fill:#7293cb;"/>
   </g>
   <g id="patch_58">
    <path clip-path="url(#p6ff94003d3)" d="M 622.852623 295.76 
L 628.561356 295.76 
L 628.561356 255.543913 
L 622.852623 255.543913 
z
" style="fill:#7293cb;"/>
   </g>
   <g id="patch_59">
    <path clip-path="url(#p6ff94003d3)" d="M 645.687555 295.76 
L 651.396288 295.76 
L 651.396288 290.359554 
L 645.687555 290.359554 
z
" style="fill:#7293cb;"/>
   </g>
   <g id="patch_60">
    <path clip-path="url(#p6ff94003d3)" d="M 668.522487 295.76 
L 674.23122 295.76 
L 674.23122 273.049049 
L 668.522487 273.049049 
z
" style="fill:#7293cb;"/>
   </g>
   <g id="patch_61">
    <path clip-path="url(#p6ff94003d3)" d="M 691.357419 295.76 
L 697.066152 295.76 
L 697.066152 277.655726 
L 691.357419 277.655726 
z
" style="fill:#7293cb;"/>
   </g>
   <g id="patch_62">
    <path clip-path="url(#p6ff94003d3)" d="M 714.192351 295.76 
L 719.901084 295.76 
L 719.901084 278.971249 
L 714.192351 278.971249 
z
" style="fill:#7293cb;"/>
   </g>
   <g id="patch_63">
    <path clip-path="url(#p6ff94003d3)" d="M 737.027283 295.76 
L 742.736016 295.76 
L 742.736016 292.887422 
L 737.027283 292.887422 
z
" style="fill:#7293cb;"/>
   </g>
   <g id="patch_64">
    <path clip-path="url(#p6ff94003d3)" d="M 759.862215 295.76 
L 765.570948 295.76 
L 765.570948 295.317975 
L 759.862215 295.317975 
z
" style="fill:#7293cb;"/>
   </g>
   <g id="patch_65">
    <path clip-path="url(#p6ff94003d3)" d="M 782.697147 295.76 
L 788.40588 295.76 
L 788.40588 264.147576 
L 782.697147 264.147576 
z
" style="fill:#7293cb;"/>
   </g>
   <g id="patch_66">
    <path clip-path="url(#p6ff94003d3)" d="M 805.532079 295.76 
L 811.240812 295.76 
L 811.240812 292.806521 
L 805.532079 292.806521 
z
" style="fill:#7293cb;"/>
   </g>
   <g id="patch_67">
    <path clip-path="url(#p6ff94003d3)" d="M 103.357921 295.76 
L 109.066654 295.76 
L 109.066654 174.344438 
L 103.357921 174.344438 
z
" style="fill:#84ba5b;"/>
   </g>
   <g id="patch_68">
    <path clip-path="url(#p6ff94003d3)" d="M 126.192853 295.76 
L 131.901586 295.76 
L 131.901586 174.293348 
L 126.192853 174.293348 
z
" style="fill:#84ba5b;"/>
   </g>
   <g id="patch_69">
    <path clip-path="url(#p6ff94003d3)" d="M 149.027785 295.76 
L 154.736518 295.76 
L 154.736518 231.974042 
L 149.027785 231.974042 
z
" style="fill:#84ba5b;"/>
   </g>
   <g id="patch_70">
    <path clip-path="url(#p6ff94003d3)" d="M 171.862717 295.76 
L 177.57145 295.76 
L 177.57145 140.037453 
L 171.862717 140.037453 
z
" style="fill:#84ba5b;"/>
   </g>
   <g id="patch_71">
    <path clip-path="url(#p6ff94003d3)" d="M 194.697649 295.76 
L 200.406382 295.76 
L 200.406382 274.710889 
L 194.697649 274.710889 
z
" style="fill:#84ba5b;"/>
   </g>
   <g id="patch_72">
    <path clip-path="url(#p6ff94003d3)" d="M 217.532581 295.76 
L 223.241314 295.76 
L 223.241314 213.785975 
L 217.532581 213.785975 
z
" style="fill:#84ba5b;"/>
   </g>
   <g id="patch_73">
    <path clip-path="url(#p6ff94003d3)" d="M 240.367513 295.76 
L 246.076246 295.76 
L 246.076246 283.421747 
L 240.367513 283.421747 
z
" style="fill:#84ba5b;"/>
   </g>
   <g id="patch_74">
    <path clip-path="url(#p6ff94003d3)" d="M 263.202445 295.76 
L 268.911178 295.76 
L 268.911178 89.611549 
L 263.202445 89.611549 
z
" style="fill:#84ba5b;"/>
   </g>
   <g id="patch_75">
    <path clip-path="url(#p6ff94003d3)" d="M 286.037377 295.76 
L 291.74611 295.76 
L 291.74611 212.508723 
L 286.037377 212.508723 
z
" style="fill:#84ba5b;"/>
   </g>
   <g id="patch_76">
    <path clip-path="url(#p6ff94003d3)" d="M 308.872309 295.76 
L 314.581042 295.76 
L 314.581042 212.508723 
L 308.872309 212.508723 
z
" style="fill:#84ba5b;"/>
   </g>
   <g id="patch_77">
    <path clip-path="url(#p6ff94003d3)" d="M 331.707241 295.76 
L 337.415974 295.76 
L 337.415974 294.508293 
L 331.707241 294.508293 
z
" style="fill:#84ba5b;"/>
   </g>
   <g id="patch_78">
    <path clip-path="url(#p6ff94003d3)" d="M 354.542173 295.76 
L 360.250906 295.76 
L 360.250906 291.110803 
L 354.542173 291.110803 
z
" style="fill:#84ba5b;"/>
   </g>
   <g id="patch_79">
    <path clip-path="url(#p6ff94003d3)" d="M 377.377105 295.76 
L 383.085838 295.76 
L 383.085838 289.910186 
L 377.377105 289.910186 
z
" style="fill:#84ba5b;"/>
   </g>
   <g id="patch_80">
    <path clip-path="url(#p6ff94003d3)" d="M 400.212037 295.76 
L 405.92077 295.76 
L 405.92077 24.369524 
L 400.212037 24.369524 
z
" style="fill:#84ba5b;"/>
   </g>
   <g id="patch_81">
    <path clip-path="url(#p6ff94003d3)" d="M 423.046969 295.76 
L 428.755702 295.76 
L 428.755702 292.00488 
L 423.046969 292.00488 
z
" style="fill:#84ba5b;"/>
   </g>
   <g id="patch_82">
    <path clip-path="url(#p6ff94003d3)" d="M 445.881901 295.76 
L 451.590634 295.76 
L 451.590634 279.002456 
L 445.881901 279.002456 
z
" style="fill:#84ba5b;"/>
   </g>
   <g id="patch_83">
    <path clip-path="url(#p6ff94003d3)" d="M 468.716832 295.76 
L 474.425565 295.76 
L 474.425565 188.138758 
L 468.716832 188.138758 
z
" style="fill:#84ba5b;"/>
   </g>
   <g id="patch_84">
    <path clip-path="url(#p6ff94003d3)" d="M 491.551764 295.76 
L 497.260497 295.76 
L 497.260497 250.519739 
L 491.551764 250.519739 
z
" style="fill:#84ba5b;"/>
   </g>
   <g id="patch_85">
    <path clip-path="url(#p6ff94003d3)" d="M 514.386696 295.76 
L 520.095429 295.76 
L 520.095429 250.519739 
L 514.386696 250.519739 
z
" style="fill:#84ba5b;"/>
   </g>
   <g id="patch_86">
    <path clip-path="url(#p6ff94003d3)" d="M 537.221628 295.76 
L 542.930361 295.76 
L 542.930361 293.231041 
L 537.221628 293.231041 
z
" style="fill:#84ba5b;"/>
   </g>
   <g id="patch_87">
    <path clip-path="url(#p6ff94003d3)" d="M 560.05656 295.76 
L 565.765293 295.76 
L 565.765293 242.038787 
L 560.05656 242.038787 
z
" style="fill:#84ba5b;"/>
   </g>
   <g id="patch_88">
    <path clip-path="url(#p6ff94003d3)" d="M 582.891492 295.76 
L 588.600225 295.76 
L 588.600225 295.50455 
L 582.891492 295.50455 
z
" style="fill:#84ba5b;"/>
   </g>
   <g id="patch_89">
    <path clip-path="url(#p6ff94003d3)" d="M 605.726424 295.76 
L 611.435157 295.76 
L 611.435157 294.763744 
L 605.726424 294.763744 
z
" style="fill:#84ba5b;"/>
   </g>
   <g id="patch_90">
    <path clip-path="url(#p6ff94003d3)" d="M 628.561356 295.76 
L 634.270089 295.76 
L 634.270089 267.813729 
L 628.561356 267.813729 
z
" style="fill:#84ba5b;"/>
   </g>
   <g id="patch_91">
    <path clip-path="url(#p6ff94003d3)" d="M 651.396288 295.76 
L 657.105021 295.76 
L 657.105021 292.46469 
L 651.396288 292.46469 
z
" style="fill:#84ba5b;"/>
   </g>
   <g id="patch_92">
    <path clip-path="url(#p6ff94003d3)" d="M 674.23122 295.76 
L 679.939953 295.76 
L 679.939953 293.946302 
L 674.23122 293.946302 
z
" style="fill:#84ba5b;"/>
   </g>
   <g id="patch_93">
    <path clip-path="url(#p6ff94003d3)" d="M 697.066152 295.76 
L 702.774885 295.76 
L 702.774885 293.665307 
L 697.066152 293.665307 
z
" style="fill:#84ba5b;"/>
   </g>
   <g id="patch_94">
    <path clip-path="url(#p6ff94003d3)" d="M 719.901084 295.76 
L 725.609817 295.76 
L 725.609817 292.20924 
L 719.901084 292.20924 
z
" style="fill:#84ba5b;"/>
   </g>
   <g id="patch_95">
    <path clip-path="url(#p6ff94003d3)" d="M 742.736016 295.76 
L 748.444749 295.76 
L 748.444749 295.50455 
L 742.736016 295.50455 
z
" style="fill:#84ba5b;"/>
   </g>
   <g id="patch_96">
    <path clip-path="url(#p6ff94003d3)" d="M 765.570948 295.76 
L 771.279681 295.76 
L 771.279681 292.822321 
L 765.570948 292.822321 
z
" style="fill:#84ba5b;"/>
   </g>
   <g id="patch_97">
    <path clip-path="url(#p6ff94003d3)" d="M 788.40588 295.76 
L 794.114613 295.76 
L 794.114613 290.472177 
L 788.40588 290.472177 
z
" style="fill:#84ba5b;"/>
   </g>
   <g id="patch_98">
    <path clip-path="url(#p6ff94003d3)" d="M 811.240812 295.76 
L 816.949545 295.76 
L 816.949545 294.661563 
L 811.240812 294.661563 
z
" style="fill:#84ba5b;"/>
   </g>
   <g id="matplotlib.axis_1">
    <g id="xtick_1">
     <g id="line2d_1">
      <defs>
       <path d="M 0 0 
L 0 3.5 
" id="m471eeffc4a" style="stroke:#000000;stroke-width:0.8;"/>
      </defs>
      <g>
       <use style="stroke:#000000;stroke-width:0.8;" x="100.503554" xlink:href="#m471eeffc4a" y="295.76"/>
      </g>
     </g>
     <g id="text_1">
      <!-- ( -->
      <g transform="translate(98.552773 310.358437)scale(0.1 -0.1)">
       <defs>
        <path d="M 31 75.875 
Q 24.46875 64.65625 21.28125 53.65625 
Q 18.109375 42.671875 18.109375 31.390625 
Q 18.109375 20.125 21.3125 9.0625 
Q 24.515625 -2 31 -13.1875 
L 23.1875 -13.1875 
Q 15.875 -1.703125 12.234375 9.375 
Q 8.59375 20.453125 8.59375 31.390625 
Q 8.59375 42.28125 12.203125 53.3125 
Q 15.828125 64.359375 23.1875 75.875 
z
" id="DejaVuSans-40"/>
       </defs>
       <use xlink:href="#DejaVuSans-40"/>
      </g>
     </g>
    </g>
    <g id="xtick_2">
     <g id="line2d_2">
      <g>
       <use style="stroke:#000000;stroke-width:0.8;" x="123.338486" xlink:href="#m471eeffc4a" y="295.76"/>
      </g>
     </g>
     <g id="text_2">
      <!-- ) -->
      <g transform="translate(121.387705 310.358437)scale(0.1 -0.1)">
       <defs>
        <path d="M 8.015625 75.875 
L 15.828125 75.875 
Q 23.140625 64.359375 26.78125 53.3125 
Q 30.421875 42.28125 30.421875 31.390625 
Q 30.421875 20.453125 26.78125 9.375 
Q 23.140625 -1.703125 15.828125 -13.1875 
L 8.015625 -13.1875 
Q 14.5 -2 17.703125 9.0625 
Q 20.90625 20.125 20.90625 31.390625 
Q 20.90625 42.671875 17.703125 53.65625 
Q 14.5 64.65625 8.015625 75.875 
z
" id="DejaVuSans-41"/>
       </defs>
       <use xlink:href="#DejaVuSans-41"/>
      </g>
     </g>
    </g>
    <g id="xtick_3">
     <g id="line2d_3">
      <g>
       <use style="stroke:#000000;stroke-width:0.8;" x="146.173418" xlink:href="#m471eeffc4a" y="295.76"/>
      </g>
     </g>
     <g id="text_3">
      <!-- : -->
      <g transform="translate(144.489043 310.358437)scale(0.1 -0.1)">
       <defs>
        <path d="M 11.71875 12.40625 
L 22.015625 12.40625 
L 22.015625 0 
L 11.71875 0 
z
M 11.71875 51.703125 
L 22.015625 51.703125 
L 22.015625 39.3125 
L 11.71875 39.3125 
z
" id="DejaVuSans-58"/>
       </defs>
       <use xlink:href="#DejaVuSans-58"/>
      </g>
     </g>
    </g>
    <g id="xtick_4">
     <g id="line2d_4">
      <g>
       <use style="stroke:#000000;stroke-width:0.8;" x="169.00835" xlink:href="#m471eeffc4a" y="295.76"/>
      </g>
     </g>
     <g id="text_4">
      <!-- . -->
      <g transform="translate(167.419288 310.358437)scale(0.1 -0.1)">
       <defs>
        <path d="M 10.6875 12.40625 
L 21 12.40625 
L 21 0 
L 10.6875 0 
z
" id="DejaVuSans-46"/>
       </defs>
       <use xlink:href="#DejaVuSans-46"/>
      </g>
     </g>
    </g>
    <g id="xtick_5">
     <g id="line2d_5">
      <g>
       <use style="stroke:#000000;stroke-width:0.8;" x="191.843282" xlink:href="#m471eeffc4a" y="295.76"/>
      </g>
     </g>
     <g id="text_5">
      <!-- _ -->
      <g transform="translate(189.343282 310.080312)scale(0.1 -0.1)">
       <defs>
        <path d="M 50.984375 -16.609375 
L 50.984375 -23.578125 
L -0.984375 -23.578125 
L -0.984375 -16.609375 
z
" id="DejaVuSans-95"/>
       </defs>
       <use xlink:href="#DejaVuSans-95"/>
      </g>
     </g>
    </g>
    <g id="xtick_6">
     <g id="line2d_6">
      <g>
       <use style="stroke:#000000;stroke-width:0.8;" x="214.678214" xlink:href="#m471eeffc4a" y="295.76"/>
      </g>
     </g>
     <g id="text_6">
      <!-- , -->
      <g transform="translate(213.089152 310.358437)scale(0.1 -0.1)">
       <defs>
        <path d="M 11.71875 12.40625 
L 22.015625 12.40625 
L 22.015625 4 
L 14.015625 -11.625 
L 7.71875 -11.625 
L 11.71875 4 
z
" id="DejaVuSans-44"/>
       </defs>
       <use xlink:href="#DejaVuSans-44"/>
      </g>
     </g>
    </g>
    <g id="xtick_7">
     <g id="line2d_7">
      <g>
       <use style="stroke:#000000;stroke-width:0.8;" x="237.513146" xlink:href="#m471eeffc4a" y="295.76"/>
      </g>
     </g>
     <g id="text_7">
      <!-- ; -->
      <g transform="translate(235.828771 310.358437)scale(0.1 -0.1)">
       <defs>
        <path d="M 11.71875 51.703125 
L 22.015625 51.703125 
L 22.015625 39.3125 
L 11.71875 39.3125 
z
M 11.71875 12.40625 
L 22.015625 12.40625 
L 22.015625 4 
L 14.015625 -11.625 
L 7.71875 -11.625 
L 11.71875 4 
z
" id="DejaVuSans-59"/>
       </defs>
       <use xlink:href="#DejaVuSans-59"/>
      </g>
     </g>
    </g>
    <g id="xtick_8">
     <g id="line2d_8">
      <g>
       <use style="stroke:#000000;stroke-width:0.8;" x="260.348078" xlink:href="#m471eeffc4a" y="295.76"/>
      </g>
     </g>
     <g id="text_8">
      <!-- " -->
      <g transform="translate(258.048078 310.358437)scale(0.1 -0.1)">
       <defs>
        <path d="M 17.921875 72.90625 
L 17.921875 45.796875 
L 9.625 45.796875 
L 9.625 72.90625 
z
M 36.375 72.90625 
L 36.375 45.796875 
L 28.078125 45.796875 
L 28.078125 72.90625 
z
" id="DejaVuSans-34"/>
       </defs>
       <use xlink:href="#DejaVuSans-34"/>
      </g>
     </g>
    </g>
    <g id="xtick_9">
     <g id="line2d_9">
      <g>
       <use style="stroke:#000000;stroke-width:0.8;" x="283.18301" xlink:href="#m471eeffc4a" y="295.76"/>
      </g>
     </g>
     <g id="text_9">
      <!-- } -->
      <g transform="translate(280.00176 310.358437)scale(0.1 -0.1)">
       <defs>
        <path d="M 12.5 -9.28125 
L 15.921875 -9.28125 
Q 22.75 -9.28125 24.828125 -7.171875 
Q 26.90625 -5.078125 26.90625 1.90625 
L 26.90625 14.015625 
Q 26.90625 21.625 29.09375 25.09375 
Q 31.296875 28.5625 36.71875 29.890625 
Q 31.296875 31.109375 29.09375 34.5625 
Q 26.90625 38.03125 26.90625 45.703125 
L 26.90625 57.8125 
Q 26.90625 64.75 24.828125 66.875 
Q 22.75 69 15.921875 69 
L 12.5 69 
L 12.5 75.984375 
L 15.578125 75.984375 
Q 27.734375 75.984375 31.8125 72.390625 
Q 35.890625 68.796875 35.890625 58.015625 
L 35.890625 46.296875 
Q 35.890625 39.015625 38.515625 36.203125 
Q 41.15625 33.40625 48.09375 33.40625 
L 51.125 33.40625 
L 51.125 26.421875 
L 48.09375 26.421875 
Q 41.15625 26.421875 38.515625 23.578125 
Q 35.890625 20.75 35.890625 13.375 
L 35.890625 1.703125 
Q 35.890625 -9.078125 31.8125 -12.6875 
Q 27.734375 -16.3125 15.578125 -16.3125 
L 12.5 -16.3125 
z
" id="DejaVuSans-125"/>
       </defs>
       <use xlink:href="#DejaVuSans-125"/>
      </g>
     </g>
    </g>
    <g id="xtick_10">
     <g id="line2d_10">
      <g>
       <use style="stroke:#000000;stroke-width:0.8;" x="306.017942" xlink:href="#m471eeffc4a" y="295.76"/>
      </g>
     </g>
     <g id="text_10">
      <!-- { -->
      <g transform="translate(302.836692 310.358437)scale(0.1 -0.1)">
       <defs>
        <path d="M 51.125 -9.28125 
L 51.125 -16.3125 
L 48.09375 -16.3125 
Q 35.9375 -16.3125 31.8125 -12.6875 
Q 27.6875 -9.078125 27.6875 1.703125 
L 27.6875 13.375 
Q 27.6875 20.75 25.046875 23.578125 
Q 22.40625 26.421875 15.484375 26.421875 
L 12.5 26.421875 
L 12.5 33.40625 
L 15.484375 33.40625 
Q 22.46875 33.40625 25.078125 36.203125 
Q 27.6875 39.015625 27.6875 46.296875 
L 27.6875 58.015625 
Q 27.6875 68.796875 31.8125 72.390625 
Q 35.9375 75.984375 48.09375 75.984375 
L 51.125 75.984375 
L 51.125 69 
L 47.796875 69 
Q 40.921875 69 38.8125 66.84375 
Q 36.71875 64.703125 36.71875 57.8125 
L 36.71875 45.703125 
Q 36.71875 38.03125 34.5 34.5625 
Q 32.28125 31.109375 26.90625 29.890625 
Q 32.328125 28.5625 34.515625 25.09375 
Q 36.71875 21.625 36.71875 14.015625 
L 36.71875 1.90625 
Q 36.71875 -4.984375 38.8125 -7.125 
Q 40.921875 -9.28125 47.796875 -9.28125 
z
" id="DejaVuSans-123"/>
       </defs>
       <use xlink:href="#DejaVuSans-123"/>
      </g>
     </g>
    </g>
    <g id="xtick_11">
     <g id="line2d_11">
      <g>
       <use style="stroke:#000000;stroke-width:0.8;" x="328.852874" xlink:href="#m471eeffc4a" y="295.76"/>
      </g>
     </g>
     <g id="text_11">
      <!-- &amp; -->
      <g transform="translate(324.953655 310.358437)scale(0.1 -0.1)">
       <defs>
        <path d="M 24.3125 39.203125 
Q 19.875 35.25 17.796875 31.3125 
Q 15.71875 27.390625 15.71875 23.09375 
Q 15.71875 15.96875 20.890625 11.234375 
Q 26.078125 6.5 33.890625 6.5 
Q 38.53125 6.5 42.578125 8.03125 
Q 46.625 9.578125 50.203125 12.703125 
z
M 31.203125 44.671875 
L 56 19.28125 
Q 58.890625 23.640625 60.5 28.59375 
Q 62.109375 33.546875 62.40625 39.109375 
L 71.484375 39.109375 
Q 70.90625 32.671875 68.359375 26.359375 
Q 65.828125 20.0625 61.28125 13.921875 
L 74.90625 0 
L 62.59375 0 
L 55.609375 7.171875 
Q 50.53125 2.828125 44.96875 0.703125 
Q 39.40625 -1.421875 33.015625 -1.421875 
Q 21.234375 -1.421875 13.765625 5.296875 
Q 6.296875 12.015625 6.296875 22.515625 
Q 6.296875 28.765625 9.5625 34.25 
Q 12.84375 39.75 19.390625 44.578125 
Q 17.046875 47.65625 15.8125 50.703125 
Q 14.59375 53.765625 14.59375 56.6875 
Q 14.59375 64.59375 20.015625 69.40625 
Q 25.4375 74.21875 34.421875 74.21875 
Q 38.484375 74.21875 42.5 73.34375 
Q 46.53125 72.46875 50.6875 70.703125 
L 50.6875 61.8125 
Q 46.4375 64.109375 42.578125 65.296875 
Q 38.71875 66.5 35.40625 66.5 
Q 30.28125 66.5 27.078125 63.78125 
Q 23.875 61.078125 23.875 56.78125 
Q 23.875 54.296875 25.3125 51.78125 
Q 26.765625 49.265625 31.203125 44.671875 
z
" id="DejaVuSans-38"/>
       </defs>
       <use xlink:href="#DejaVuSans-38"/>
      </g>
     </g>
    </g>
    <g id="xtick_12">
     <g id="line2d_12">
      <g>
       <use style="stroke:#000000;stroke-width:0.8;" x="351.687806" xlink:href="#m471eeffc4a" y="295.76"/>
      </g>
     </g>
     <g id="text_12">
      <!-- &gt; -->
      <g transform="translate(347.497962 310.358437)scale(0.1 -0.1)">
       <defs>
        <path d="M 10.59375 49.21875 
L 10.59375 58.109375 
L 73.1875 35.40625 
L 73.1875 27.296875 
L 10.59375 4.59375 
L 10.59375 13.484375 
L 60.890625 31.296875 
z
" id="DejaVuSans-62"/>
       </defs>
       <use xlink:href="#DejaVuSans-62"/>
      </g>
     </g>
    </g>
    <g id="xtick_13">
     <g id="line2d_13">
      <g>
       <use style="stroke:#000000;stroke-width:0.8;" x="374.522738" xlink:href="#m471eeffc4a" y="295.76"/>
      </g>
     </g>
     <g id="text_13">
      <!-- = -->
      <g transform="translate(370.332894 310.358437)scale(0.1 -0.1)">
       <defs>
        <path d="M 10.59375 45.40625 
L 73.1875 45.40625 
L 73.1875 37.203125 
L 10.59375 37.203125 
z
M 10.59375 25.484375 
L 73.1875 25.484375 
L 73.1875 17.1875 
L 10.59375 17.1875 
z
" id="DejaVuSans-61"/>
       </defs>
       <use xlink:href="#DejaVuSans-61"/>
      </g>
     </g>
    </g>
    <g id="xtick_14">
     <g id="line2d_14">
      <g>
       <use style="stroke:#000000;stroke-width:0.8;" x="397.35767" xlink:href="#m471eeffc4a" y="295.76"/>
      </g>
     </g>
     <g id="text_14">
      <!-- - -->
      <g transform="translate(395.553764 310.358437)scale(0.1 -0.1)">
       <defs>
        <path d="M 4.890625 31.390625 
L 31.203125 31.390625 
L 31.203125 23.390625 
L 4.890625 23.390625 
z
" id="DejaVuSans-45"/>
       </defs>
       <use xlink:href="#DejaVuSans-45"/>
      </g>
     </g>
    </g>
    <g id="xtick_15">
     <g id="line2d_15">
      <g>
       <use style="stroke:#000000;stroke-width:0.8;" x="420.192602" xlink:href="#m471eeffc4a" y="295.76"/>
      </g>
     </g>
     <g id="text_15">
      <!-- &lt; -->
      <g transform="translate(416.002758 310.358437)scale(0.1 -0.1)">
       <defs>
        <path d="M 73.1875 49.21875 
L 22.796875 31.296875 
L 73.1875 13.484375 
L 73.1875 4.59375 
L 10.59375 27.296875 
L 10.59375 35.40625 
L 73.1875 58.109375 
z
" id="DejaVuSans-60"/>
       </defs>
       <use xlink:href="#DejaVuSans-60"/>
      </g>
     </g>
    </g>
    <g id="xtick_16">
     <g id="line2d_16">
      <g>
       <use style="stroke:#000000;stroke-width:0.8;" x="443.027534" xlink:href="#m471eeffc4a" y="295.76"/>
      </g>
     </g>
     <g id="text_16">
      <!-- ? -->
      <g transform="translate(440.373628 310.358437)scale(0.1 -0.1)">
       <defs>
        <path d="M 19.09375 12.40625 
L 29 12.40625 
L 29 0 
L 19.09375 0 
z
M 28.71875 19.578125 
L 19.390625 19.578125 
L 19.390625 27.09375 
Q 19.390625 32.03125 20.75 35.203125 
Q 22.125 38.375 26.515625 42.578125 
L 30.90625 46.921875 
Q 33.6875 49.515625 34.9375 51.8125 
Q 36.1875 54.109375 36.1875 56.5 
Q 36.1875 60.84375 32.984375 63.53125 
Q 29.78125 66.21875 24.515625 66.21875 
Q 20.65625 66.21875 16.28125 64.5 
Q 11.921875 62.796875 7.171875 59.515625 
L 7.171875 68.703125 
Q 11.765625 71.484375 16.46875 72.84375 
Q 21.1875 74.21875 26.21875 74.21875 
Q 35.203125 74.21875 40.640625 69.484375 
Q 46.09375 64.75 46.09375 56.984375 
Q 46.09375 53.265625 44.328125 49.921875 
Q 42.578125 46.578125 38.1875 42.390625 
L 33.890625 38.1875 
Q 31.59375 35.890625 30.640625 34.59375 
Q 29.6875 33.296875 29.296875 32.078125 
Q 29 31.0625 28.859375 29.59375 
Q 28.71875 28.125 28.71875 25.59375 
z
" id="DejaVuSans-63"/>
       </defs>
       <use xlink:href="#DejaVuSans-63"/>
      </g>
     </g>
    </g>
    <g id="xtick_17">
     <g id="line2d_17">
      <g>
       <use style="stroke:#000000;stroke-width:0.8;" x="465.862466" xlink:href="#m471eeffc4a" y="295.76"/>
      </g>
     </g>
     <g id="text_17">
      <!-- / -->
      <g transform="translate(464.178091 310.358437)scale(0.1 -0.1)">
       <defs>
        <path d="M 25.390625 72.90625 
L 33.6875 72.90625 
L 8.296875 -9.28125 
L 0 -9.28125 
z
" id="DejaVuSans-47"/>
       </defs>
       <use xlink:href="#DejaVuSans-47"/>
      </g>
     </g>
    </g>
    <g id="xtick_18">
     <g id="line2d_18">
      <g>
       <use style="stroke:#000000;stroke-width:0.8;" x="488.697398" xlink:href="#m471eeffc4a" y="295.76"/>
      </g>
     </g>
     <g id="text_18">
      <!-- ] -->
      <g transform="translate(486.746617 310.358437)scale(0.1 -0.1)">
       <defs>
        <path d="M 30.421875 75.984375 
L 30.421875 -13.1875 
L 9.71875 -13.1875 
L 9.71875 -6.203125 
L 21.390625 -6.203125 
L 21.390625 69 
L 9.71875 69 
L 9.71875 75.984375 
z
" id="DejaVuSans-93"/>
       </defs>
       <use xlink:href="#DejaVuSans-93"/>
      </g>
     </g>
    </g>
    <g id="xtick_19">
     <g id="line2d_19">
      <g>
       <use style="stroke:#000000;stroke-width:0.8;" x="511.53233" xlink:href="#m471eeffc4a" y="295.76"/>
      </g>
     </g>
     <g id="text_19">
      <!-- [ -->
      <g transform="translate(509.581549 310.358437)scale(0.1 -0.1)">
       <defs>
        <path d="M 8.59375 75.984375 
L 29.296875 75.984375 
L 29.296875 69 
L 17.578125 69 
L 17.578125 -6.203125 
L 29.296875 -6.203125 
L 29.296875 -13.1875 
L 8.59375 -13.1875 
z
" id="DejaVuSans-91"/>
       </defs>
       <use xlink:href="#DejaVuSans-91"/>
      </g>
     </g>
    </g>
    <g id="xtick_20">
     <g id="line2d_20">
      <g>
       <use style="stroke:#000000;stroke-width:0.8;" x="534.367262" xlink:href="#m471eeffc4a" y="295.76"/>
      </g>
     </g>
     <g id="text_20">
      <!-- ! -->
      <g transform="translate(532.362574 310.358437)scale(0.1 -0.1)">
       <defs>
        <path d="M 15.09375 12.40625 
L 25 12.40625 
L 25 0 
L 15.09375 0 
z
M 15.09375 72.90625 
L 25 72.90625 
L 25 40.921875 
L 24.03125 23.484375 
L 16.109375 23.484375 
L 15.09375 40.921875 
z
" id="DejaVuSans-33"/>
       </defs>
       <use xlink:href="#DejaVuSans-33"/>
      </g>
     </g>
    </g>
    <g id="xtick_21">
     <g id="line2d_21">
      <g>
       <use style="stroke:#000000;stroke-width:0.8;" x="557.202194" xlink:href="#m471eeffc4a" y="295.76"/>
      </g>
     </g>
     <g id="text_21">
      <!-- ' -->
      <g transform="translate(555.827975 310.358437)scale(0.1 -0.1)">
       <defs>
        <path d="M 17.921875 72.90625 
L 17.921875 45.796875 
L 9.625 45.796875 
L 9.625 72.90625 
z
" id="DejaVuSans-39"/>
       </defs>
       <use xlink:href="#DejaVuSans-39"/>
      </g>
     </g>
    </g>
    <g id="xtick_22">
     <g id="line2d_22">
      <g>
       <use style="stroke:#000000;stroke-width:0.8;" x="580.037126" xlink:href="#m471eeffc4a" y="295.76"/>
      </g>
     </g>
     <g id="text_22">
      <!-- * -->
      <g transform="translate(577.537126 310.358437)scale(0.1 -0.1)">
       <defs>
        <path d="M 47.015625 60.890625 
L 29.5 51.421875 
L 47.015625 41.890625 
L 44.1875 37.109375 
L 27.78125 47.015625 
L 27.78125 28.609375 
L 22.21875 28.609375 
L 22.21875 47.015625 
L 5.8125 37.109375 
L 2.984375 41.890625 
L 20.515625 51.421875 
L 2.984375 60.890625 
L 5.8125 65.71875 
L 22.21875 55.8125 
L 22.21875 74.21875 
L 27.78125 74.21875 
L 27.78125 55.8125 
L 44.1875 65.71875 
z
" id="DejaVuSans-42"/>
       </defs>
       <use xlink:href="#DejaVuSans-42"/>
      </g>
     </g>
    </g>
    <g id="xtick_23">
     <g id="line2d_23">
      <g>
       <use style="stroke:#000000;stroke-width:0.8;" x="602.872058" xlink:href="#m471eeffc4a" y="295.76"/>
      </g>
     </g>
     <g id="text_23">
      <!-- \ -->
      <g transform="translate(601.187683 310.358437)scale(0.1 -0.1)">
       <defs>
        <path d="M 8.296875 72.90625 
L 33.6875 -9.28125 
L 25.390625 -9.28125 
L 0 72.90625 
z
" id="DejaVuSans-92"/>
       </defs>
       <use xlink:href="#DejaVuSans-92"/>
      </g>
     </g>
    </g>
    <g id="xtick_24">
     <g id="line2d_24">
      <g>
       <use style="stroke:#000000;stroke-width:0.8;" x="625.70699" xlink:href="#m471eeffc4a" y="295.76"/>
      </g>
     </g>
     <g id="text_24">
      <!-- # -->
      <g transform="translate(621.517146 310.358437)scale(0.1 -0.1)">
       <defs>
        <path d="M 51.125 44 
L 36.921875 44 
L 32.8125 27.6875 
L 47.125 27.6875 
z
M 43.796875 71.78125 
L 38.71875 51.515625 
L 52.984375 51.515625 
L 58.109375 71.78125 
L 65.921875 71.78125 
L 60.890625 51.515625 
L 76.125 51.515625 
L 76.125 44 
L 58.984375 44 
L 54.984375 27.6875 
L 70.515625 27.6875 
L 70.515625 20.21875 
L 53.078125 20.21875 
L 48 0 
L 40.1875 0 
L 45.21875 20.21875 
L 30.90625 20.21875 
L 25.875 0 
L 18.015625 0 
L 23.09375 20.21875 
L 7.71875 20.21875 
L 7.71875 27.6875 
L 24.90625 27.6875 
L 29 44 
L 13.28125 44 
L 13.28125 51.515625 
L 30.90625 51.515625 
L 35.890625 71.78125 
z
" id="DejaVuSans-35"/>
       </defs>
       <use xlink:href="#DejaVuSans-35"/>
      </g>
     </g>
    </g>
    <g id="xtick_25">
     <g id="line2d_25">
      <g>
       <use style="stroke:#000000;stroke-width:0.8;" x="648.541922" xlink:href="#m471eeffc4a" y="295.76"/>
      </g>
     </g>
     <g id="text_25">
      <!-- + -->
      <g transform="translate(644.352078 310.358437)scale(0.1 -0.1)">
       <defs>
        <path d="M 46 62.703125 
L 46 35.5 
L 73.1875 35.5 
L 73.1875 27.203125 
L 46 27.203125 
L 46 0 
L 37.796875 0 
L 37.796875 27.203125 
L 10.59375 27.203125 
L 10.59375 35.5 
L 37.796875 35.5 
L 37.796875 62.703125 
z
" id="DejaVuSans-43"/>
       </defs>
       <use xlink:href="#DejaVuSans-43"/>
      </g>
     </g>
    </g>
    <g id="xtick_26">
     <g id="line2d_26">
      <g>
       <use style="stroke:#000000;stroke-width:0.8;" x="671.376854" xlink:href="#m471eeffc4a" y="295.76"/>
      </g>
     </g>
     <g id="text_26">
      <!-- | -->
      <g transform="translate(669.692479 310.402187)scale(0.1 -0.1)">
       <defs>
        <path d="M 21 76.421875 
L 21 -23.578125 
L 12.703125 -23.578125 
L 12.703125 76.421875 
z
" id="DejaVuSans-124"/>
       </defs>
       <use xlink:href="#DejaVuSans-124"/>
      </g>
     </g>
    </g>
    <g id="xtick_27">
     <g id="line2d_27">
      <g>
       <use style="stroke:#000000;stroke-width:0.8;" x="694.211786" xlink:href="#m471eeffc4a" y="295.76"/>
      </g>
     </g>
     <g id="text_27">
      <!-- @ -->
      <g transform="translate(689.211786 310.358437)scale(0.1 -0.1)">
       <defs>
        <path d="M 37.203125 26.21875 
Q 37.203125 19.234375 40.671875 15.25 
Q 44.140625 11.28125 50.203125 11.28125 
Q 56.203125 11.28125 59.640625 15.28125 
Q 63.09375 19.28125 63.09375 26.21875 
Q 63.09375 33.0625 59.578125 37.078125 
Q 56.0625 41.109375 50.09375 41.109375 
Q 44.1875 41.109375 40.6875 37.109375 
Q 37.203125 33.109375 37.203125 26.21875 
z
M 63.8125 11.625 
Q 60.890625 7.859375 57.109375 6.078125 
Q 53.328125 4.296875 48.296875 4.296875 
Q 39.890625 4.296875 34.640625 10.375 
Q 29.390625 16.453125 29.390625 26.21875 
Q 29.390625 35.984375 34.65625 42.078125 
Q 39.9375 48.1875 48.296875 48.1875 
Q 53.328125 48.1875 57.125 46.359375 
Q 60.9375 44.53125 63.8125 40.828125 
L 63.8125 47.21875 
L 70.796875 47.21875 
L 70.796875 11.28125 
Q 77.9375 12.359375 81.953125 17.796875 
Q 85.984375 23.25 85.984375 31.890625 
Q 85.984375 37.109375 84.4375 41.703125 
Q 82.90625 46.296875 79.78125 50.203125 
Q 74.703125 56.59375 67.40625 59.984375 
Q 60.109375 63.375 51.515625 63.375 
Q 45.515625 63.375 39.984375 61.78125 
Q 34.46875 60.203125 29.78125 57.078125 
Q 22.125 52.09375 17.796875 44.015625 
Q 13.484375 35.9375 13.484375 26.515625 
Q 13.484375 18.75 16.28125 11.953125 
Q 19.09375 5.171875 24.421875 0 
Q 29.546875 -5.078125 36.28125 -7.734375 
Q 43.015625 -10.40625 50.6875 -10.40625 
Q 56.984375 -10.40625 63.0625 -8.28125 
Q 69.140625 -6.15625 74.21875 -2.203125 
L 78.609375 -7.625 
Q 72.515625 -12.359375 65.3125 -14.875 
Q 58.109375 -17.390625 50.6875 -17.390625 
Q 41.65625 -17.390625 33.640625 -14.1875 
Q 25.640625 -10.984375 19.390625 -4.890625 
Q 13.140625 1.21875 9.859375 9.25 
Q 6.59375 17.28125 6.59375 26.515625 
Q 6.59375 35.40625 9.90625 43.453125 
Q 13.234375 51.515625 19.390625 57.625 
Q 25.6875 63.8125 33.9375 67.109375 
Q 42.1875 70.40625 51.421875 70.40625 
Q 61.765625 70.40625 70.625 66.15625 
Q 79.5 61.921875 85.5 54.109375 
Q 89.15625 49.3125 91.078125 43.703125 
Q 93.015625 38.09375 93.015625 32.078125 
Q 93.015625 19.234375 85.25 11.8125 
Q 77.484375 4.390625 63.8125 4.109375 
z
" id="DejaVuSans-64"/>
       </defs>
       <use xlink:href="#DejaVuSans-64"/>
      </g>
     </g>
    </g>
    <g id="xtick_28">
     <g id="line2d_28">
      <g>
       <use style="stroke:#000000;stroke-width:0.8;" x="717.046718" xlink:href="#m471eeffc4a" y="295.76"/>
      </g>
     </g>
     <g id="text_28">
      <!-- % -->
      <g transform="translate(712.295937 310.358437)scale(0.1 -0.1)">
       <defs>
        <path d="M 72.703125 32.078125 
Q 68.453125 32.078125 66.03125 28.46875 
Q 63.625 24.859375 63.625 18.40625 
Q 63.625 12.0625 66.03125 8.421875 
Q 68.453125 4.78125 72.703125 4.78125 
Q 76.859375 4.78125 79.265625 8.421875 
Q 81.6875 12.0625 81.6875 18.40625 
Q 81.6875 24.8125 79.265625 28.4375 
Q 76.859375 32.078125 72.703125 32.078125 
z
M 72.703125 38.28125 
Q 80.421875 38.28125 84.953125 32.90625 
Q 89.5 27.546875 89.5 18.40625 
Q 89.5 9.28125 84.9375 3.921875 
Q 80.375 -1.421875 72.703125 -1.421875 
Q 64.890625 -1.421875 60.34375 3.921875 
Q 55.8125 9.28125 55.8125 18.40625 
Q 55.8125 27.59375 60.375 32.9375 
Q 64.9375 38.28125 72.703125 38.28125 
z
M 22.3125 68.015625 
Q 18.109375 68.015625 15.6875 64.375 
Q 13.28125 60.75 13.28125 54.390625 
Q 13.28125 47.953125 15.671875 44.328125 
Q 18.0625 40.71875 22.3125 40.71875 
Q 26.5625 40.71875 28.96875 44.328125 
Q 31.390625 47.953125 31.390625 54.390625 
Q 31.390625 60.6875 28.953125 64.34375 
Q 26.515625 68.015625 22.3125 68.015625 
z
M 66.40625 74.21875 
L 74.21875 74.21875 
L 28.609375 -1.421875 
L 20.796875 -1.421875 
z
M 22.3125 74.21875 
Q 30.03125 74.21875 34.609375 68.875 
Q 39.203125 63.53125 39.203125 54.390625 
Q 39.203125 45.171875 34.640625 39.84375 
Q 30.078125 34.515625 22.3125 34.515625 
Q 14.546875 34.515625 10.03125 39.859375 
Q 5.515625 45.21875 5.515625 54.390625 
Q 5.515625 63.484375 10.046875 68.84375 
Q 14.59375 74.21875 22.3125 74.21875 
z
" id="DejaVuSans-37"/>
       </defs>
       <use xlink:href="#DejaVuSans-37"/>
      </g>
     </g>
    </g>
    <g id="xtick_29">
     <g id="line2d_29">
      <g>
       <use style="stroke:#000000;stroke-width:0.8;" x="739.88165" xlink:href="#m471eeffc4a" y="295.76"/>
      </g>
     </g>
     <g id="text_29">
      <!-- ^ -->
      <g transform="translate(735.691806 310.358437)scale(0.1 -0.1)">
       <defs>
        <path d="M 46.6875 72.90625 
L 73.1875 45.703125 
L 63.375 45.703125 
L 41.890625 64.984375 
L 20.40625 45.703125 
L 10.59375 45.703125 
L 37.109375 72.90625 
z
" id="DejaVuSans-94"/>
       </defs>
       <use xlink:href="#DejaVuSans-94"/>
      </g>
     </g>
    </g>
    <g id="xtick_30">
     <g id="line2d_30">
      <g>
       <use style="stroke:#000000;stroke-width:0.8;" x="762.716582" xlink:href="#m471eeffc4a" y="295.76"/>
      </g>
     </g>
     <g id="text_30">
      <!-- $ -->
      <g transform="translate(759.535332 310.358437)scale(0.1 -0.1)">
       <defs>
        <path d="M 33.796875 -14.703125 
L 28.90625 -14.703125 
L 28.859375 0 
Q 23.734375 0.09375 18.609375 1.1875 
Q 13.484375 2.296875 8.296875 4.5 
L 8.296875 13.28125 
Q 13.28125 10.15625 18.375 8.5625 
Q 23.484375 6.984375 28.90625 6.9375 
L 28.90625 29.203125 
Q 18.109375 30.953125 13.203125 35.15625 
Q 8.296875 39.359375 8.296875 46.6875 
Q 8.296875 54.640625 13.625 59.21875 
Q 18.953125 63.8125 28.90625 64.5 
L 28.90625 75.984375 
L 33.796875 75.984375 
L 33.796875 64.65625 
Q 38.328125 64.453125 42.578125 63.6875 
Q 46.828125 62.9375 50.875 61.625 
L 50.875 53.078125 
Q 46.828125 55.125 42.546875 56.25 
Q 38.28125 57.375 33.796875 57.5625 
L 33.796875 36.71875 
Q 44.875 35.015625 50.09375 30.609375 
Q 55.328125 26.21875 55.328125 18.609375 
Q 55.328125 10.359375 49.78125 5.59375 
Q 44.234375 0.828125 33.796875 0.09375 
z
M 28.90625 37.59375 
L 28.90625 57.625 
Q 23.25 56.984375 20.265625 54.390625 
Q 17.28125 51.8125 17.28125 47.515625 
Q 17.28125 43.3125 20.03125 40.96875 
Q 22.796875 38.625 28.90625 37.59375 
z
M 33.796875 28.21875 
L 33.796875 7.078125 
Q 39.984375 7.90625 43.140625 10.59375 
Q 46.296875 13.28125 46.296875 17.671875 
Q 46.296875 21.96875 43.28125 24.5 
Q 40.28125 27.046875 33.796875 28.21875 
z
" id="DejaVuSans-36"/>
       </defs>
       <use xlink:href="#DejaVuSans-36"/>
      </g>
     </g>
    </g>
    <g id="xtick_31">
     <g id="line2d_31">
      <g>
       <use style="stroke:#000000;stroke-width:0.8;" x="785.551514" xlink:href="#m471eeffc4a" y="295.76"/>
      </g>
     </g>
     <g id="text_31">
      <!-- ` -->
      <g transform="translate(783.051514 310.358437)scale(0.1 -0.1)">
       <defs>
        <path d="M 17.921875 79.984375 
L 31.6875 61.71875 
L 24.21875 61.71875 
L 8.296875 79.984375 
z
" id="DejaVuSans-96"/>
       </defs>
       <use xlink:href="#DejaVuSans-96"/>
      </g>
     </g>
    </g>
    <g id="xtick_32">
     <g id="line2d_32">
      <g>
       <use style="stroke:#000000;stroke-width:0.8;" x="808.386446" xlink:href="#m471eeffc4a" y="295.76"/>
      </g>
     </g>
     <g id="text_32">
      <!-- ~ -->
      <g transform="translate(804.196602 310.358437)scale(0.1 -0.1)">
       <defs>
        <path d="M 73.1875 39.890625 
L 73.1875 31.203125 
Q 68.0625 27.34375 63.6875 25.6875 
Q 59.328125 24.03125 54.59375 24.03125 
Q 49.21875 24.03125 42.09375 26.90625 
Q 41.546875 27.09375 41.3125 27.203125 
Q 40.96875 27.34375 40.234375 27.59375 
Q 32.671875 30.609375 28.078125 30.609375 
Q 23.78125 30.609375 19.578125 28.734375 
Q 15.375 26.859375 10.59375 22.796875 
L 10.59375 31.5 
Q 15.71875 35.359375 20.09375 37.03125 
Q 24.46875 38.71875 29.203125 38.71875 
Q 34.578125 38.71875 41.75 35.796875 
Q 42.234375 35.59375 42.484375 35.5 
Q 42.875 35.359375 43.5625 35.109375 
Q 51.125 32.078125 55.71875 32.078125 
Q 59.90625 32.078125 64.03125 33.9375 
Q 68.171875 35.796875 73.1875 39.890625 
z
" id="DejaVuSans-126"/>
       </defs>
       <use xlink:href="#DejaVuSans-126"/>
      </g>
     </g>
    </g>
   </g>
   <g id="matplotlib.axis_2">
    <g id="ytick_1">
     <g id="line2d_33">
      <defs>
       <path d="M 0 0 
L -3.5 0 
" id="me7231fa5ea" style="stroke:#000000;stroke-width:0.8;"/>
      </defs>
      <g>
       <use style="stroke:#000000;stroke-width:0.8;" x="55.69" xlink:href="#me7231fa5ea" y="295.76"/>
      </g>
     </g>
     <g id="text_33">
      <!-- 0.00% -->
      <g transform="translate(16.922812 299.559219)scale(0.1 -0.1)">
       <defs>
        <path d="M 31.78125 66.40625 
Q 24.171875 66.40625 20.328125 58.90625 
Q 16.5 51.421875 16.5 36.375 
Q 16.5 21.390625 20.328125 13.890625 
Q 24.171875 6.390625 31.78125 6.390625 
Q 39.453125 6.390625 43.28125 13.890625 
Q 47.125 21.390625 47.125 36.375 
Q 47.125 51.421875 43.28125 58.90625 
Q 39.453125 66.40625 31.78125 66.40625 
z
M 31.78125 74.21875 
Q 44.046875 74.21875 50.515625 64.515625 
Q 56.984375 54.828125 56.984375 36.375 
Q 56.984375 17.96875 50.515625 8.265625 
Q 44.046875 -1.421875 31.78125 -1.421875 
Q 19.53125 -1.421875 13.0625 8.265625 
Q 6.59375 17.96875 6.59375 36.375 
Q 6.59375 54.828125 13.0625 64.515625 
Q 19.53125 74.21875 31.78125 74.21875 
z
" id="DejaVuSans-48"/>
       </defs>
       <use xlink:href="#DejaVuSans-48"/>
       <use x="63.623047" xlink:href="#DejaVuSans-46"/>
       <use x="95.410156" xlink:href="#DejaVuSans-48"/>
       <use x="159.033203" xlink:href="#DejaVuSans-48"/>
       <use x="222.65625" xlink:href="#DejaVuSans-37"/>
      </g>
     </g>
    </g>
    <g id="ytick_2">
     <g id="line2d_34">
      <g>
       <use style="stroke:#000000;stroke-width:0.8;" x="55.69" xlink:href="#me7231fa5ea" y="256.811482"/>
      </g>
     </g>
     <g id="text_34">
      <!-- 2.50% -->
      <g transform="translate(16.922812 260.6107)scale(0.1 -0.1)">
       <defs>
        <path d="M 19.1875 8.296875 
L 53.609375 8.296875 
L 53.609375 0 
L 7.328125 0 
L 7.328125 8.296875 
Q 12.9375 14.109375 22.625 23.890625 
Q 32.328125 33.6875 34.8125 36.53125 
Q 39.546875 41.84375 41.421875 45.53125 
Q 43.3125 49.21875 43.3125 52.78125 
Q 43.3125 58.59375 39.234375 62.25 
Q 35.15625 65.921875 28.609375 65.921875 
Q 23.96875 65.921875 18.8125 64.3125 
Q 13.671875 62.703125 7.8125 59.421875 
L 7.8125 69.390625 
Q 13.765625 71.78125 18.9375 73 
Q 24.125 74.21875 28.421875 74.21875 
Q 39.75 74.21875 46.484375 68.546875 
Q 53.21875 62.890625 53.21875 53.421875 
Q 53.21875 48.921875 51.53125 44.890625 
Q 49.859375 40.875 45.40625 35.40625 
Q 44.1875 33.984375 37.640625 27.21875 
Q 31.109375 20.453125 19.1875 8.296875 
z
" id="DejaVuSans-50"/>
        <path d="M 10.796875 72.90625 
L 49.515625 72.90625 
L 49.515625 64.59375 
L 19.828125 64.59375 
L 19.828125 46.734375 
Q 21.96875 47.46875 24.109375 47.828125 
Q 26.265625 48.1875 28.421875 48.1875 
Q 40.625 48.1875 47.75 41.5 
Q 54.890625 34.8125 54.890625 23.390625 
Q 54.890625 11.625 47.5625 5.09375 
Q 40.234375 -1.421875 26.90625 -1.421875 
Q 22.3125 -1.421875 17.546875 -0.640625 
Q 12.796875 0.140625 7.71875 1.703125 
L 7.71875 11.625 
Q 12.109375 9.234375 16.796875 8.0625 
Q 21.484375 6.890625 26.703125 6.890625 
Q 35.15625 6.890625 40.078125 11.328125 
Q 45.015625 15.765625 45.015625 23.390625 
Q 45.015625 31 40.078125 35.4375 
Q 35.15625 39.890625 26.703125 39.890625 
Q 22.75 39.890625 18.8125 39.015625 
Q 14.890625 38.140625 10.796875 36.28125 
z
" id="DejaVuSans-53"/>
       </defs>
       <use xlink:href="#DejaVuSans-50"/>
       <use x="63.623047" xlink:href="#DejaVuSans-46"/>
       <use x="95.410156" xlink:href="#DejaVuSans-53"/>
       <use x="159.033203" xlink:href="#DejaVuSans-48"/>
       <use x="222.65625" xlink:href="#DejaVuSans-37"/>
      </g>
     </g>
    </g>
    <g id="ytick_3">
     <g id="line2d_35">
      <g>
       <use style="stroke:#000000;stroke-width:0.8;" x="55.69" xlink:href="#me7231fa5ea" y="217.862963"/>
      </g>
     </g>
     <g id="text_35">
      <!-- 5.00% -->
      <g transform="translate(16.922812 221.662182)scale(0.1 -0.1)">
       <use xlink:href="#DejaVuSans-53"/>
       <use x="63.623047" xlink:href="#DejaVuSans-46"/>
       <use x="95.410156" xlink:href="#DejaVuSans-48"/>
       <use x="159.033203" xlink:href="#DejaVuSans-48"/>
       <use x="222.65625" xlink:href="#DejaVuSans-37"/>
      </g>
     </g>
    </g>
    <g id="ytick_4">
     <g id="line2d_36">
      <g>
       <use style="stroke:#000000;stroke-width:0.8;" x="55.69" xlink:href="#me7231fa5ea" y="178.914445"/>
      </g>
     </g>
     <g id="text_36">
      <!-- 7.50% -->
      <g transform="translate(16.922812 182.713664)scale(0.1 -0.1)">
       <defs>
        <path d="M 8.203125 72.90625 
L 55.078125 72.90625 
L 55.078125 68.703125 
L 28.609375 0 
L 18.3125 0 
L 43.21875 64.59375 
L 8.203125 64.59375 
z
" id="DejaVuSans-55"/>
       </defs>
       <use xlink:href="#DejaVuSans-55"/>
       <use x="63.623047" xlink:href="#DejaVuSans-46"/>
       <use x="95.410156" xlink:href="#DejaVuSans-53"/>
       <use x="159.033203" xlink:href="#DejaVuSans-48"/>
       <use x="222.65625" xlink:href="#DejaVuSans-37"/>
      </g>
     </g>
    </g>
    <g id="ytick_5">
     <g id="line2d_37">
      <g>
       <use style="stroke:#000000;stroke-width:0.8;" x="55.69" xlink:href="#me7231fa5ea" y="139.965927"/>
      </g>
     </g>
     <g id="text_37">
      <!-- 10.00% -->
      <g transform="translate(10.560312 143.765145)scale(0.1 -0.1)">
       <defs>
        <path d="M 12.40625 8.296875 
L 28.515625 8.296875 
L 28.515625 63.921875 
L 10.984375 60.40625 
L 10.984375 69.390625 
L 28.421875 72.90625 
L 38.28125 72.90625 
L 38.28125 8.296875 
L 54.390625 8.296875 
L 54.390625 0 
L 12.40625 0 
z
" id="DejaVuSans-49"/>
       </defs>
       <use xlink:href="#DejaVuSans-49"/>
       <use x="63.623047" xlink:href="#DejaVuSans-48"/>
       <use x="127.246094" xlink:href="#DejaVuSans-46"/>
       <use x="159.033203" xlink:href="#DejaVuSans-48"/>
       <use x="222.65625" xlink:href="#DejaVuSans-48"/>
       <use x="286.279297" xlink:href="#DejaVuSans-37"/>
      </g>
     </g>
    </g>
    <g id="ytick_6">
     <g id="line2d_38">
      <g>
       <use style="stroke:#000000;stroke-width:0.8;" x="55.69" xlink:href="#me7231fa5ea" y="101.017408"/>
      </g>
     </g>
     <g id="text_38">
      <!-- 12.50% -->
      <g transform="translate(10.560312 104.816627)scale(0.1 -0.1)">
       <use xlink:href="#DejaVuSans-49"/>
       <use x="63.623047" xlink:href="#DejaVuSans-50"/>
       <use x="127.246094" xlink:href="#DejaVuSans-46"/>
       <use x="159.033203" xlink:href="#DejaVuSans-53"/>
       <use x="222.65625" xlink:href="#DejaVuSans-48"/>
       <use x="286.279297" xlink:href="#DejaVuSans-37"/>
      </g>
     </g>
    </g>
    <g id="ytick_7">
     <g id="line2d_39">
      <g>
       <use style="stroke:#000000;stroke-width:0.8;" x="55.69" xlink:href="#me7231fa5ea" y="62.06889"/>
      </g>
     </g>
     <g id="text_39">
      <!-- 15.00% -->
      <g transform="translate(10.560312 65.868109)scale(0.1 -0.1)">
       <use xlink:href="#DejaVuSans-49"/>
       <use x="63.623047" xlink:href="#DejaVuSans-53"/>
       <use x="127.246094" xlink:href="#DejaVuSans-46"/>
       <use x="159.033203" xlink:href="#DejaVuSans-48"/>
       <use x="222.65625" xlink:href="#DejaVuSans-48"/>
       <use x="286.279297" xlink:href="#DejaVuSans-37"/>
      </g>
     </g>
    </g>
    <g id="ytick_8">
     <g id="line2d_40">
      <g>
       <use style="stroke:#000000;stroke-width:0.8;" x="55.69" xlink:href="#me7231fa5ea" y="23.120371"/>
      </g>
     </g>
     <g id="text_40">
      <!-- 17.50% -->
      <g transform="translate(10.560312 26.91959)scale(0.1 -0.1)">
       <use xlink:href="#DejaVuSans-49"/>
       <use x="63.623047" xlink:href="#DejaVuSans-55"/>
       <use x="127.246094" xlink:href="#DejaVuSans-46"/>
       <use x="159.033203" xlink:href="#DejaVuSans-53"/>
       <use x="222.65625" xlink:href="#DejaVuSans-48"/>
       <use x="286.279297" xlink:href="#DejaVuSans-37"/>
      </g>
     </g>
    </g>
   </g>
   <g id="patch_99">
    <path d="M 55.69 295.76 
L 55.69 10.8 
" style="fill:none;stroke:#000000;stroke-linecap:square;stroke-linejoin:miter;stroke-width:0.8;"/>
   </g>
   <g id="patch_100">
    <path d="M 853.2 295.76 
L 853.2 10.8 
" style="fill:none;"/>
   </g>
   <g id="patch_101">
    <path d="M 55.69 295.76 
L 853.2 295.76 
" style="fill:none;stroke:#000000;stroke-linecap:square;stroke-linejoin:miter;stroke-width:0.8;"/>
   </g>
   <g id="patch_102">
    <path d="M 55.69 10.8 
L 853.2 10.8 
" style="fill:none;"/>
   </g>
   <g id="legend_1">
    <g id="patch_103">
     <path d="M 752.929688 62.834375 
L 846.2 62.834375 
Q 848.2 62.834375 848.2 60.834375 
L 848.2 17.8 
Q 848.2 15.8 846.2 15.8 
L 752.929688 15.8 
Q 750.929688 15.8 750.929688 17.8 
L 750.929688 60.834375 
Q 750.929688 62.834375 752.929688 62.834375 
z
" style="fill:#ffffff;opacity:0.8;stroke:#cccccc;stroke-linejoin:miter;"/>
    </g>
    <g id="patch_104">
     <path d="M 754.929688 27.398438 
L 774.929688 27.398438 
L 774.929688 20.398438 
L 754.929688 20.398438 
z
" style="fill:#e1974c;"/>
    </g>
    <g id="text_41">
     <!-- Rust -->
     <g transform="translate(782.929688 27.398438)scale(0.1 -0.1)">
      <defs>
       <path d="M 44.390625 34.1875 
Q 47.5625 33.109375 50.5625 29.59375 
Q 53.5625 26.078125 56.59375 19.921875 
L 66.609375 0 
L 56 0 
L 46.6875 18.703125 
Q 43.0625 26.03125 39.671875 28.421875 
Q 36.28125 30.8125 30.421875 30.8125 
L 19.671875 30.8125 
L 19.671875 0 
L 9.8125 0 
L 9.8125 72.90625 
L 32.078125 72.90625 
Q 44.578125 72.90625 50.734375 67.671875 
Q 56.890625 62.453125 56.890625 51.90625 
Q 56.890625 45.015625 53.6875 40.46875 
Q 50.484375 35.9375 44.390625 34.1875 
z
M 19.671875 64.796875 
L 19.671875 38.921875 
L 32.078125 38.921875 
Q 39.203125 38.921875 42.84375 42.21875 
Q 46.484375 45.515625 46.484375 51.90625 
Q 46.484375 58.296875 42.84375 61.546875 
Q 39.203125 64.796875 32.078125 64.796875 
z
" id="DejaVuSans-82"/>
       <path d="M 8.5 21.578125 
L 8.5 54.6875 
L 17.484375 54.6875 
L 17.484375 21.921875 
Q 17.484375 14.15625 20.5 10.265625 
Q 23.53125 6.390625 29.59375 6.390625 
Q 36.859375 6.390625 41.078125 11.03125 
Q 45.3125 15.671875 45.3125 23.6875 
L 45.3125 54.6875 
L 54.296875 54.6875 
L 54.296875 0 
L 45.3125 0 
L 45.3125 8.40625 
Q 42.046875 3.421875 37.71875 1 
Q 33.40625 -1.421875 27.6875 -1.421875 
Q 18.265625 -1.421875 13.375 4.4375 
Q 8.5 10.296875 8.5 21.578125 
z
M 31.109375 56 
z
" id="DejaVuSans-117"/>
       <path d="M 44.28125 53.078125 
L 44.28125 44.578125 
Q 40.484375 46.53125 36.375 47.5 
Q 32.28125 48.484375 27.875 48.484375 
Q 21.1875 48.484375 17.84375 46.4375 
Q 14.5 44.390625 14.5 40.28125 
Q 14.5 37.15625 16.890625 35.375 
Q 19.28125 33.59375 26.515625 31.984375 
L 29.59375 31.296875 
Q 39.15625 29.25 43.1875 25.515625 
Q 47.21875 21.78125 47.21875 15.09375 
Q 47.21875 7.46875 41.1875 3.015625 
Q 35.15625 -1.421875 24.609375 -1.421875 
Q 20.21875 -1.421875 15.453125 -0.5625 
Q 10.6875 0.296875 5.421875 2 
L 5.421875 11.28125 
Q 10.40625 8.6875 15.234375 7.390625 
Q 20.0625 6.109375 24.8125 6.109375 
Q 31.15625 6.109375 34.5625 8.28125 
Q 37.984375 10.453125 37.984375 14.40625 
Q 37.984375 18.0625 35.515625 20.015625 
Q 33.0625 21.96875 24.703125 23.78125 
L 21.578125 24.515625 
Q 13.234375 26.265625 9.515625 29.90625 
Q 5.8125 33.546875 5.8125 39.890625 
Q 5.8125 47.609375 11.28125 51.796875 
Q 16.75 56 26.8125 56 
Q 31.78125 56 36.171875 55.265625 
Q 40.578125 54.546875 44.28125 53.078125 
z
" id="DejaVuSans-115"/>
       <path d="M 18.3125 70.21875 
L 18.3125 54.6875 
L 36.8125 54.6875 
L 36.8125 47.703125 
L 18.3125 47.703125 
L 18.3125 18.015625 
Q 18.3125 11.328125 20.140625 9.421875 
Q 21.96875 7.515625 27.59375 7.515625 
L 36.8125 7.515625 
L 36.8125 0 
L 27.59375 0 
Q 17.1875 0 13.234375 3.875 
Q 9.28125 7.765625 9.28125 18.015625 
L 9.28125 47.703125 
L 2.6875 47.703125 
L 2.6875 54.6875 
L 9.28125 54.6875 
L 9.28125 70.21875 
z
" id="DejaVuSans-116"/>
      </defs>
      <use xlink:href="#DejaVuSans-82"/>
      <use x="64.982422" xlink:href="#DejaVuSans-117"/>
      <use x="128.361328" xlink:href="#DejaVuSans-115"/>
      <use x="180.460938" xlink:href="#DejaVuSans-116"/>
     </g>
    </g>
    <g id="patch_105">
     <path d="M 754.929688 42.076563 
L 774.929688 42.076563 
L 774.929688 35.076563 
L 754.929688 35.076563 
z
" style="fill:#7293cb;"/>
    </g>
    <g id="text_42">
     <!-- Elixir -->
     <g transform="translate(782.929688 42.076563)scale(0.1 -0.1)">
      <defs>
       <path d="M 9.8125 72.90625 
L 55.90625 72.90625 
L 55.90625 64.59375 
L 19.671875 64.59375 
L 19.671875 43.015625 
L 54.390625 43.015625 
L 54.390625 34.71875 
L 19.671875 34.71875 
L 19.671875 8.296875 
L 56.78125 8.296875 
L 56.78125 0 
L 9.8125 0 
z
" id="DejaVuSans-69"/>
       <path d="M 9.421875 75.984375 
L 18.40625 75.984375 
L 18.40625 0 
L 9.421875 0 
z
" id="DejaVuSans-108"/>
       <path d="M 9.421875 54.6875 
L 18.40625 54.6875 
L 18.40625 0 
L 9.421875 0 
z
M 9.421875 75.984375 
L 18.40625 75.984375 
L 18.40625 64.59375 
L 9.421875 64.59375 
z
" id="DejaVuSans-105"/>
       <path d="M 54.890625 54.6875 
L 35.109375 28.078125 
L 55.90625 0 
L 45.3125 0 
L 29.390625 21.484375 
L 13.484375 0 
L 2.875 0 
L 24.125 28.609375 
L 4.6875 54.6875 
L 15.28125 54.6875 
L 29.78125 35.203125 
L 44.28125 54.6875 
z
" id="DejaVuSans-120"/>
       <path d="M 41.109375 46.296875 
Q 39.59375 47.171875 37.8125 47.578125 
Q 36.03125 48 33.890625 48 
Q 26.265625 48 22.1875 43.046875 
Q 18.109375 38.09375 18.109375 28.8125 
L 18.109375 0 
L 9.078125 0 
L 9.078125 54.6875 
L 18.109375 54.6875 
L 18.109375 46.1875 
Q 20.953125 51.171875 25.484375 53.578125 
Q 30.03125 56 36.53125 56 
Q 37.453125 56 38.578125 55.875 
Q 39.703125 55.765625 41.0625 55.515625 
z
" id="DejaVuSans-114"/>
      </defs>
      <use xlink:href="#DejaVuSans-69"/>
      <use x="63.183594" xlink:href="#DejaVuSans-108"/>
      <use x="90.966797" xlink:href="#DejaVuSans-105"/>
      <use x="118.75" xlink:href="#DejaVuSans-120"/>
      <use x="177.929688" xlink:href="#DejaVuSans-105"/>
      <use x="205.712891" xlink:href="#DejaVuSans-114"/>
     </g>
    </g>
    <g id="patch_106">
     <path d="M 754.929688 56.754687 
L 774.929688 56.754687 
L 774.929688 49.754687 
L 754.929688 49.754687 
z
" style="fill:#84ba5b;"/>
    </g>
    <g id="text_43">
     <!-- Book source -->
     <g transform="translate(782.929688 56.754687)scale(0.1 -0.1)">
      <defs>
       <path d="M 19.671875 34.8125 
L 19.671875 8.109375 
L 35.5 8.109375 
Q 43.453125 8.109375 47.28125 11.40625 
Q 51.125 14.703125 51.125 21.484375 
Q 51.125 28.328125 47.28125 31.5625 
Q 43.453125 34.8125 35.5 34.8125 
z
M 19.671875 64.796875 
L 19.671875 42.828125 
L 34.28125 42.828125 
Q 41.5 42.828125 45.03125 45.53125 
Q 48.578125 48.25 48.578125 53.8125 
Q 48.578125 59.328125 45.03125 62.0625 
Q 41.5 64.796875 34.28125 64.796875 
z
M 9.8125 72.90625 
L 35.015625 72.90625 
Q 46.296875 72.90625 52.390625 68.21875 
Q 58.5 63.53125 58.5 54.890625 
Q 58.5 48.1875 55.375 44.234375 
Q 52.25 40.28125 46.1875 39.3125 
Q 53.46875 37.75 57.5 32.78125 
Q 61.53125 27.828125 61.53125 20.40625 
Q 61.53125 10.640625 54.890625 5.3125 
Q 48.25 0 35.984375 0 
L 9.8125 0 
z
" id="DejaVuSans-66"/>
       <path d="M 30.609375 48.390625 
Q 23.390625 48.390625 19.1875 42.75 
Q 14.984375 37.109375 14.984375 27.296875 
Q 14.984375 17.484375 19.15625 11.84375 
Q 23.34375 6.203125 30.609375 6.203125 
Q 37.796875 6.203125 41.984375 11.859375 
Q 46.1875 17.53125 46.1875 27.296875 
Q 46.1875 37.015625 41.984375 42.703125 
Q 37.796875 48.390625 30.609375 48.390625 
z
M 30.609375 56 
Q 42.328125 56 49.015625 48.375 
Q 55.71875 40.765625 55.71875 27.296875 
Q 55.71875 13.875 49.015625 6.21875 
Q 42.328125 -1.421875 30.609375 -1.421875 
Q 18.84375 -1.421875 12.171875 6.21875 
Q 5.515625 13.875 5.515625 27.296875 
Q 5.515625 40.765625 12.171875 48.375 
Q 18.84375 56 30.609375 56 
z
" id="DejaVuSans-111"/>
       <path d="M 9.078125 75.984375 
L 18.109375 75.984375 
L 18.109375 31.109375 
L 44.921875 54.6875 
L 56.390625 54.6875 
L 27.390625 29.109375 
L 57.625 0 
L 45.90625 0 
L 18.109375 26.703125 
L 18.109375 0 
L 9.078125 0 
z
" id="DejaVuSans-107"/>
       <path id="DejaVuSans-32"/>
       <path d="M 48.78125 52.59375 
L 48.78125 44.1875 
Q 44.96875 46.296875 41.140625 47.34375 
Q 37.3125 48.390625 33.40625 48.390625 
Q 24.65625 48.390625 19.8125 42.84375 
Q 14.984375 37.3125 14.984375 27.296875 
Q 14.984375 17.28125 19.8125 11.734375 
Q 24.65625 6.203125 33.40625 6.203125 
Q 37.3125 6.203125 41.140625 7.25 
Q 44.96875 8.296875 48.78125 10.40625 
L 48.78125 2.09375 
Q 45.015625 0.34375 40.984375 -0.53125 
Q 36.96875 -1.421875 32.421875 -1.421875 
Q 20.0625 -1.421875 12.78125 6.34375 
Q 5.515625 14.109375 5.515625 27.296875 
Q 5.515625 40.671875 12.859375 48.328125 
Q 20.21875 56 33.015625 56 
Q 37.15625 56 41.109375 55.140625 
Q 45.0625 54.296875 48.78125 52.59375 
z
" id="DejaVuSans-99"/>
       <path d="M 56.203125 29.59375 
L 56.203125 25.203125 
L 14.890625 25.203125 
Q 15.484375 15.921875 20.484375 11.0625 
Q 25.484375 6.203125 34.421875 6.203125 
Q 39.59375 6.203125 44.453125 7.46875 
Q 49.3125 8.734375 54.109375 11.28125 
L 54.109375 2.78125 
Q 49.265625 0.734375 44.1875 -0.34375 
Q 39.109375 -1.421875 33.890625 -1.421875 
Q 20.796875 -1.421875 13.15625 6.1875 
Q 5.515625 13.8125 5.515625 26.8125 
Q 5.515625 40.234375 12.765625 48.109375 
Q 20.015625 56 32.328125 56 
Q 43.359375 56 49.78125 48.890625 
Q 56.203125 41.796875 56.203125 29.59375 
z
M 47.21875 32.234375 
Q 47.125 39.59375 43.09375 43.984375 
Q 39.0625 48.390625 32.421875 48.390625 
Q 24.90625 48.390625 20.390625 44.140625 
Q 15.875 39.890625 15.1875 32.171875 
z
" id="DejaVuSans-101"/>
      </defs>
      <use xlink:href="#DejaVuSans-66"/>
      <use x="68.603516" xlink:href="#DejaVuSans-111"/>
      <use x="129.785156" xlink:href="#DejaVuSans-111"/>
      <use x="190.966797" xlink:href="#DejaVuSans-107"/>
      <use x="248.876953" xlink:href="#DejaVuSans-32"/>
      <use x="280.664062" xlink:href="#DejaVuSans-115"/>
      <use x="332.763672" xlink:href="#DejaVuSans-111"/>
      <use x="393.945312" xlink:href="#DejaVuSans-117"/>
      <use x="457.324219" xlink:href="#DejaVuSans-114"/>
      <use x="496.1875" xlink:href="#DejaVuSans-99"/>
      <use x="551.167969" xlink:href="#DejaVuSans-101"/>
     </g>
    </g>
   </g>
  </g>
 </g>
 <defs>
  <clipPath id="p6ff94003d3">
   <rect height="284.96" width="797.51" x="55.69" y="10.8"/>
  </clipPath>
 </defs>
</svg>
